<?xml version="1.0" encoding="UTF-8"?>
<!-- Created with Inkscape (http://www.inkscape.org/) -->
<svg width="584.84" height="439.72" version="1.1" viewBox="0 0 584.84 439.72" xml:space="preserve" xmlns="http://www.w3.org/2000/svg"><g stroke-width="1.3333"><g fill="#e1edff"><path d="m484.6 416.54s72.826-51.86 93.791-140.13c20.965-88.272-11.034-195.3-71.722-249.37-60.688-54.067-169.93-17.654-218.47 27.586l-48.549 45.24s-46.343 25.378-107.03 23.171c-60.689-2.2066-114.75 80.55-129.1 145.65-14.345 65.101 19.861 151.17 19.861 151.17z"/><path d="m517.71 429.78s50.757-27.585 63.998-91.583-44.138-122.48-49.653-154.48c-5.5172-31.999 6.6198-71.722-44.138-102.62-50.757-30.895-141.24-19.862-175.45-27.586-34.212-7.7238-73.929-60.688-142.34-48.549-68.412 12.137-134.62 48.549-137.93 128-3.3106 79.446 22.069 81.653-3.3106 124.69-25.378 43.034-35.308 72.826-23.171 116.96 12.138 44.138 37.516 56.275 37.516 56.275z"/><path d="m411.72 415.44c3.1572-3.3106 49.467-95.998-2.1053-180.96-51.571-84.963-181.02-75.031-232.59-41.93-51.572 33.103-76.831 76.137-82.094 121.38-5.2625 45.242 29.47 115.86 29.47 115.86z"/></g><path d="m48.615 259.4h59.493c3.6812 0 6.6665-2.9839 6.6665-6.6665v-29.699c0-3.6826-2.9852-6.6665-6.6665-6.6665h-59.493c-3.6826 0-6.6665 2.9839-6.6665 6.6665v29.699c0 3.6826 2.9839 6.6665 6.6665 6.6665" fill="#9ec8ff"/><path d="m78.361 276.23-9.4278-22.345h18.856z" fill="#9ec8ff"/><path d="m75.853 230.5h17.03v2.4919l8.3491-4.8145-8.3491-4.8132v2.4919h-17.03z" fill="#247afd"/><path d="m101.24 240.28h-17.03v-2.4919l-8.3491 4.8132 8.3491 4.8146v-2.4933h17.03z" fill="#fff"/><g fill="#247afd"><path d="m65.4 244.67-0.81065 0.29599s-2.5266-2.8853-3.8386-6.0278c-1.312-3.1413-1.3573-6.9785-1.3573-6.9785l0.59198-0.248-3.6012-8.6184c-0.64132 0.50132-1.2533 1.1466-1.748 1.9826-2.0386 3.4439-1.836 8.7291 0.21466 13.893 2.0493 5.1625 4.2412 9.7678 8.2411 12.664 2.3599 1.7093 4.3826 2.0093 5.9519 1.76z"/><path d="m67.987 243.65-1.12 0.40665 3.6866 8.8238c0.41599-0.13599 0.79065-0.30399 1.1146-0.48132 0.95198-0.52132 1.3693-1.6666 0.96798-2.6746l-1.9253-4.8519c-0.42666-1.0773-1.6346-1.62-2.7239-1.2226"/><path d="m59.2 221.58c-0.45332 0.16266-0.94664 0.38399-1.4426 0.67732l3.6772 8.8024 1.2373-0.51732c1.0746-0.44932 1.5946-1.672 1.1706-2.7559l-1.9333-4.9625c-0.41866-1.0786-1.6213-1.636-2.7093-1.244"/></g><path d="m428.92 400.54v-99.307s1.104-26.759-12.965-34.483c-14.068-7.7238-73.377-3.5852-73.377-3.5852v137.37z" fill="#455a64"/><path d="m324.06 170.2s3.5852 30.069 4.9652 32.551l1.3786 2.4826 6.8972 4.6892s-13.241 18.758-29.517 21.793c-16.276 3.0346-14.896-6.6198-14.896-6.6198l2.4826-5.2412-3.3106-28.69s29.517-13.517 31.999-20.965" fill="#e9c6af"/><path d="m345.85 212.42-10.758-4.6892s-6.8958 11.31-22.895 17.93-16.276 2.7586-17.104 0c-0.82665-2.7586 0.27599-5.7932 0.27599-5.7932l-1.184-9.6584-6.3972 2.1319-22.211 179.66 57.103 2.7599z" fill="#7aaefd"/><path d="m293.17 210.39s-3.8612 8.9184-7.4478 29.885c-3.5866 20.965-6.8972 56.275-7.7251 80.55-0.82665 24.275-1.3786 79.722-1.3786 79.722h-71.998c-0.82665 0-5.7932-27.31-5.7932-27.31s31.447-26.942 33.102-31.355c1.104-2.9426 0.55198-57.471 5.2425-82.573 4.6906-25.103 10.757-30.161 23.447-36.414 13.114-6.4625 32.551-12.505 32.551-12.505" fill="#247afd"/><path d="m255.65 368.95c0.36799 0 0.66665-0.29866 0.66665-0.66665 0-1.972 0.35066-29.994 0.68932-57.093 0.33866-27.103 0.68931-55.129 0.68931-57.111 0-0.36933-0.29732-0.66665-0.66665-0.66665-0.36799 0-0.66665 0.29732-0.66665 0.66665 0 1.972-0.35065 29.994-0.68798 57.093-0.33999 27.103-0.69065 55.129-0.69065 57.111 0 0.36799 0.29866 0.66665 0.66665 0.66665" fill="#0256d7"/><path d="m399.08 362.2 0.55198 38.344h-83.861s-3.5852-32.551-2.2066-35.586 85.515-2.7586 85.515-2.7586" fill="#247afd"/><path d="m305.75 201.94c-3.4172 2.7546-8.0918 4.9652-11.732 6.3025l-1.9693-17.061s22.171-10.157 29.694-17.713c-1.572 8.5851-5.4385 19.962-15.993 28.471" fill="#e0ae8e"/><path d="m266.13 114.2s-5.7932 9.9318-6.8958 22.069c-1.104 12.137 0 43.31 9.9304 56.551 9.9318 13.241 30.621 9.3784 39.999 1.3786 8.6078-7.3412 17.104-15.448 19.31-31.447 2.2066-16-4.6892-46.344-24.275-52.688-19.586-6.3452-38.068 4.1372-38.068 4.1372" fill="#e9c6af"/><path d="m241.25 383.21s0.97198 0 2.4533-0.04c0.34666-0.0133 0.73332 0 1.1333-0.0133 1.4266-0.04 3.1599-0.08 4.9065-0.13333 0.38666-0.0133 0.78665-0.0267 1.1733-0.04 1.7333-0.04 3.2132 0.17333 4.5999 0.0933h0.0387c0.29466-0.0133 0.72131 0.0267 1.068 0.04 0.17333 0.0133 0.33333 0.0267 0.43999 0.0133 0.79998-0.14666 0.95998-0.33332 1.8253-0.71998 1.1213-0.50666 16.281-3.8932 28.614-3.8132 12.32 0.0533 23.373 0.89331 25.173-0.61332 1.8133-1.5333 2.9066-17.013-7.6131-18.026l-12.933 4.9065s-29.533-3.5066-40.359 4.4799c-10.853 7.9865-10.52 13.866-10.52 13.866" fill="#e9c6af"/><g fill="#e0ae8e"><path d="m255.54 383.08c0.29466-0.0147 0.71998 0.0267 1.068 0.0387 0.26533-0.42532 0.82665-1.1986 1.132-1.5186 3.3332-3.3999 11.386-5.6012 14.308-6.3078 0.26532-0.0667 0.43998-0.33332 0.37199-0.59865-0.0533-0.26666-0.33333-0.42666-0.61332-0.37332-4.2519 1.0253-13.28 3.6532-15.84 7.9585-0.0787 0.12-0.29199 0.53466-0.42665 0.80132"/><path d="m249.73 383.01c0.38666-9e-3 0.78665-0.02 1.1733-0.0413 3.6386-6.6385 9.5944-8.5424 16.953-10.91l0.43599-0.144c0.25066-0.0867 0.40533-0.37066 0.31733-0.63465-0.0853-0.25066-0.35599-0.40532-0.63332-0.31733l-0.42399 0.14267c-7.7811 2.4973-14.041 4.5039-17.822 11.905"/><path d="m243.69 383.16c0.34666-9e-3 0.73332-5e-3 1.1346-0.0147 2.2066-4.6412 9.5118-12.408 19.177-14.218 0.27866-0.0467 0.45999-0.30399 0.41333-0.58265-0.06-0.26666-0.31733-0.44533-0.58399-0.39866-9.9558 1.8693-17.988 10.001-20.141 15.214"/></g><path d="m321.85 149.11s-6.0692-2.8973-10.345-11.034c-4.2746-8.1371-3.7239-15.448-3.7239-15.448s-7.7238-1.2413-19.31 2.2066c-11.585 3.4479-25.378 8.1371-36.963 1.5173-11.588-6.6212-11.588-17.241-5.9319-21.655 6.3332-4.9425 18.896-1.9306 18.896-1.9306s-4.8265-4.6892-2.2066-7.4478c2.6213-2.7586 12.138 0.82798 12.138 0.82798s11.585-9.2411 33.516-8.1385c21.93 1.104 32.413 16.413 33.654 33.516 1.2413 17.104-4.9652 34.206-4.9652 34.206z"/><path d="m277.35 153.24c1.2426 3.0639 1.212 6.6212 1.5253 9.8731 0.24266 2.5293 0.70798 5.4785-1.6093 7.1865-1.108 0.81598-6.3438 3.0159-3.6506 4.7985 1.0266 0.67999 2.7479 0.49466 3.9159 0.43999 0.80532-0.0373 1.6186-0.072 2.4226-0.13199 0.86531-0.064 1.712-0.32533 2.5786-0.32933 0.50799-3e-3 0.66532 0.67332 0.252 0.93198-1.3933 0.87198-3.4346 1.14-5.0585 1.2026-1.624 0.064-2.7253-0.0107-4.1866-0.73598-0.89997-0.44665-1.772-1.0773-1.9133-2.1466-0.16133-1.2026 0.74131-2.2813 1.6466-2.9533 1.044-0.77331 2.324-1.1333 3.3772-1.8866 1.46-1.0466 1.3386-2.8066 1.236-4.4386-0.24532-3.9212-1.148-7.7758-1.4986-11.68-0.0533-0.59732 0.77198-0.59732 0.96265-0.13067" fill="#e0ae8e"/><path d="m266.09 162.42c0.41199 2.3253 2.1026 3.9706 3.7786 3.6732 1.6746-0.29599 2.6986-2.4226 2.288-4.7466-0.41199-2.3253-2.1026-3.9706-3.7786-3.6746-1.6746 0.29732-2.6999 2.4226-2.2879 4.7479"/><path d="m287.19 160.58c0.37332 2.5093 2.14 4.3239 3.9479 4.0559 1.808-0.26932 2.9706-2.5213 2.5973-5.0292-0.37332-2.5093-2.1413-4.3252-3.9492-4.0559-1.8066 0.26932-2.9693 2.5213-2.5959 5.0292"/><path d="m270.99 152.84c-1.2893 0.21733-2.5893-4e-3 -3.8906 0.0867-0.312 0.0227-0.62132 0.068-0.93331 0.0987-0.22133 0.02 0.41332-0.0667 0.10533-0.016-0.0667 0.012-0.13333 0.0227-0.19867 0.0333-0.16399 0.0293-0.32665 0.0627-0.48665 0.10266-0.27733 0.0667-0.54532 0.17066-0.82265 0.23199-0.25066 0.0547-0.53065 0.11333-0.78531 0.10133l-0.42399-0.056c0.088 0.0147 0.17866 0.0307 0.26666 0.048 1e-3 0.0307-0.48265-0.048-0.52665-0.0573-0.73998-0.17333-1.1973-1.0293-0.99064-1.7426 0.06-0.20666 0.15199-0.39332 0.28132-0.56265 0.0547-0.0733 0.11067-0.144 0.16933-0.21466-0.052 0.0587-0.104 0.11866-0.156 0.17866 0.0547-0.0773 0.112-0.152 0.172-0.22666 0.0733-0.12267 0.17066-0.22133 0.29466-0.29466 0.10266-0.0787 0.20399-0.16266 0.31066-0.23733 0.34266-0.23733 0.79198-0.37599 1.1973-0.47999 0.76932-0.19866 1.576-0.29866 2.3693-0.30399 0.78931-4e-3 1.568 0.0787 2.3479 0.18666 0.68665 0.096 1.452 0.32933 2.0106 0.74398 0.43199 0.32133 0.69732 0.73332 0.62132 1.2973-0.0627 0.46666-0.43065 0.99865-0.93198 1.0826"/><path d="m285.71 149.15c0.17466-0.10399 0.35465-0.19466 0.53865-0.27866 0.156-0.072 0.58399-0.29599 0.26133-0.11866 0.11733-0.0653 0.23466-0.12933 0.35332-0.18933 0.53599-0.26933 1.0906-0.44932 1.6666-0.59732 1.26-0.31999 2.5853-0.40132 3.8746-0.26532 1.3773 0.14399 2.6359 0.47732 3.8279 1.1973 0.168 0.10133 0.34133 0.19999 0.48132 0.34132 0.0947 0.12 0.188 0.24133 0.27866 0.36266-0.0253-0.04-0.052-0.08-0.0773-0.11866 0.36799 0.25599 0.58132 0.67865 0.57732 1.1226-3e-3 0.42932-0.22533 0.78664-0.59599 0.99331-0.45065 0.25066-0.87731 0.13066-1.34 0.0107h0.69731c-0.38265 0.06-0.65198 0.0747-1.0386-0.0107-0.0133-3e-3 -0.37199-0.0907-0.13599-0.0413 0.22132 0.0467-0.37466-0.0467-0.43999-0.0547-0.076-0.012-0.49199-0.052-0.0533-9e-3 -0.08-9e-3 -0.16133-0.0187-0.24133-0.0293-0.208-0.0253-0.41599-0.0507-0.62532-0.0667-0.91064-0.0733-1.8173-0.11467-2.7306-0.144-0.84664-0.028-1.708-0.0347-2.5546 1e-3 -0.36399 0.016-0.72398 0.028-1.0866 0.0387-0.204 5e-3 -0.11733 0.0373 0.0213-7e-3 -0.0747 0.0227-0.15066 0.0373-0.22666 0.0573-0.15066 0.0427-0.29732 0.0907-0.44399 0.14667-0.58798 0.22533-1.2933-0.2-1.512-0.74132-0.23599-0.58932-0.036-1.2666 0.52399-1.6"/><path d="m279.15 187.5c-1.2653-2.5439-3.5692-4.4106-6.2318-5.6105 2.3119-0.23466 13.224-1.2453 15.978 0.31866 3.0839 1.752-0.57065 8.7851-6.9492 9.1371-0.67065 0.0373-1.28-0.016-1.8613-0.108-0.052-1.284-0.34799-2.5546-0.93598-3.7372"/><path d="m329.58 172.7s-1.104 4.2759-7.4478 9.2411c-6.3452 4.9652-15.54 8.5971-15.54 8.5971l-0.73598-3.2186s9.5171-4.1372 13.93-8.6891c4.4146-4.5506 4.9652-7.0345 4.9652-7.0345z" fill="#9ec8ff"/><path d="m304.75 184.94c-5.1065-0.23733-7.9558 3.7999-8.3118 6.4118-0.35599 2.6133 2.0973 5.5412 7.8371 2.9693 7.1292-3.1959 5.5799-9.1438 0.47465-9.3811" fill="#003c89"/><path d="m325.58 141.11s-2.204-15.853-12.828-26.621c-20.276-20.55-37.515-19.31-37.515-19.31s0.13733-2.8959 6.6212-5.1025c6.0852-2.0719 8.8264-0.96531 8.8264-0.96531s16.689 1.3786 30.757 16.965c14.069 15.586 15.586 35.447 15.586 35.447z" fill="#9ec8ff"/><path d="m327.09 139.18c13.282-2.2506 20.689 8.1385 21.241 18.621 0.55198 10.482-7.0652 18.452-17.241 17.654-22.895-1.7933-20.276-33.516-3.9999-36.275" fill="#fff"/><path d="m333.7 165.26c3.5052 0 6.4705-1.7613 8.1638-4.8652 1.8146-3.3239 1.6626-7.4158-0.38799-10.424-0.156-0.22667-0.46666-0.28666-0.69465-0.132-0.22799 0.156-0.28799 0.46665-0.132 0.69598 1.8413 2.6999 1.9733 6.3825 0.336 9.3811-1.552 2.8439-4.2932 4.4559-7.5398 4.3399-3.0346-0.08-5.6065-1.4693-7.2425-3.9092-1.8666-2.7839-2.2959-6.6305-1.0933-9.7958 1.1933-3.1412 4.4639-5.2825 7.4398-4.8932 0.26799 0.036 0.52532-0.156 0.56132-0.42932 0.036-0.27333-0.156-0.52532-0.42933-0.56132-3.4799-0.46399-7.1345 1.9133-8.5078 5.5279-1.3133 3.4599-0.84265 7.6638 1.1986 10.708 1.8213 2.7173 4.6786 4.2626 8.0465 4.3532 0.0933 3e-3 0.18799 4e-3 0.28132 4e-3" fill="#003c89"/><path d="m342.45 211s41.192 7.4842 55.26 23.483c14.069 16 20.689 94.895 20.965 109.51 0.276 14.621-9.9304 20.69-16 24.827-6.0678 4.1386-32.826 11.585-54.343 12.69-21.517 1.1026-41.931 0-41.931 0s0.0693-4.6906-3.2399-11.588c-3.0706-6.3958-6.9652-7.7238-6.9652-7.7238l18.481-6.6198s2.3199-55.544 7.3585-83.619c5.7932-32.277 20.414-60.965 20.414-60.965" fill="#247afd"/><g fill="#0256d7"><path d="m276.61 346.32c0.0907 0 0.18266-0.0187 0.26932-0.0573 0.33733-0.14933 0.48933-0.54266 0.34-0.87865-3.7732-8.5144-7.6838-25.229-9.8851-36.955l-0.18133-0.94797c-0.66665-3.4492-1.496-7.7398 0.15866-10.7 0.84398-1.5106 2.7506-4.7879 4.5839-7.9385 1.9026-3.2719 3.6986-6.3612 4.1972-7.2825 0.97197-1.8013-2.0866-6.6118-6.5145-13.21-1.196-1.784-2.2293-3.3239-2.8319-4.3666-1.5786-2.7306-0.52798-5.2319 0.68799-8.1291l0.41465-0.99731c1.1026-2.7066 2.3559-5.4185 3.5666-8.0411 0.49599-1.072 0.99198-2.144 1.48-3.2226 0.64665-1.4253 1.2973-2.8759 1.956-4.3439 3.8972-8.6891 7.4157-16.892 12.577-25.571 0.18933-0.31599 0.084-0.72532-0.23199-0.91331-0.316-0.18666-0.72532-0.084-0.91331 0.23199-5.2012 8.7464-8.7343 16.984-12.648 25.707-0.65865 1.4666-1.308 2.9146-1.9533 4.3399-0.48799 1.0746-0.98264 2.144-1.476 3.2133-1.2186 2.6359-2.4773 5.3625-3.5919 8.0971l-0.40933 0.9853c-1.24 2.9533-2.5226 6.0078-0.61331 9.3104 0.62531 1.0826 1.6693 2.6399 2.8799 4.4412 2.308 3.4412 7.1118 10.604 6.4478 11.834-0.48798 0.90398-2.2799 3.9839-4.1759 7.2465-1.8373 3.1586-3.7492 6.4438-4.5959 7.9571-1.8933 3.3866-1.0106 7.9425-0.30399 11.605l0.18133 0.93998c0.80131 4.2706 5.0505 26.135 9.9758 37.248 0.11066 0.25066 0.35466 0.39733 0.60932 0.39733"/><path d="m315.91 348.67c0.17066 0 0.34266-0.0653 0.47332-0.196 3.1346-3.1599 18.25-29.334 19.376-34.256 0.61732-2.6946-0.93064-9.5291-2.4253-16.14-1.1586-5.1212-2.3573-10.417-2.0173-11.85 0.51066-2.1426 4.3746-5.3012 8.1131-8.3545 4.5159-3.6879 9.1851-7.5038 10.09-10.94 1.028-3.9052 0.14799-28.354-0.43332-44.531-0.208-5.8172-0.13956-7.9015-0.13823-9.5402 0-0.36799-0.29866-0.66665-0.66665-0.66665-0.50768 5e-3 -0.66182 0.29266-0.66665 0.66532-1e-3 1.664-0.0697 3.759 0.13956 9.5895 0.54399 15.121 1.4533 40.427 0.47599 44.144-0.79465 3.0159-5.4959 6.8572-9.6451 10.246-4.0892 3.3412-7.9518 6.4972-8.5651 9.0798-0.41333 1.732 0.71064 6.6998 2.012 12.45 1.3946 6.1638 2.9759 13.149 2.4279 15.55-1.104 4.8252-15.945 30.51-19.024 33.611-0.25866 0.26266-0.25733 0.68398 4e-3 0.94264 0.12933 0.12933 0.29999 0.19467 0.46932 0.19467"/><path d="m370.12 337.21c0.0307 0 0.0627-3e-3 0.0933-7e-3 0.36533-0.052 0.61865-0.38932 0.56799-0.75331-0.49066-3.4679-8.1425-72.533-8.4945-77.822-0.024-0.36932-0.34132-0.65731-0.70931-0.62132-0.36666 0.024-0.64532 0.34266-0.62132 0.70932 0.35332 5.2985 8.0145 74.449 8.5038 77.921 0.048 0.33199 0.33332 0.57332 0.65998 0.57332"/><path d="m315.23 355.97c0.0827 0 0.16799-0.016 0.25066-0.048 1.6946-0.68798 9.1878-3.2146 18.672-6.4132 19.145-6.4558 45.363-15.297 50.349-17.889 0.32666-0.16933 0.45332-0.57065 0.28399-0.89864s-0.57065-0.45732-0.89864-0.28266c-4.8946 2.5426-32.135 11.728-50.16 17.806-9.5064 3.2066-17.016 5.7385-18.748 6.4398-0.34133 0.13999-0.50532 0.52798-0.36666 0.86931 0.104 0.25866 0.35466 0.41599 0.61732 0.41599"/><path d="m324.43 383.48c16.849 0 49.512-3.0373 74.325-11.813 0.34666-0.124 0.52932-0.50399 0.40532-0.85198-0.12133-0.34666-0.50665-0.52932-0.84931-0.40666-31.346 11.089-75.195 12.982-83.354 11.15-0.35999-0.0773-0.71598 0.14667-0.79731 0.50532-0.08 0.35866 0.14533 0.71599 0.50532 0.79598 1.7653 0.39599 5.1799 0.61999 9.7651 0.61999"/></g><g fill="#65a2fe"><path d="m517.28 217.86c-5.2305 4.6012-11.856 7.5505-16.445 12.869-1.8053 2.0946-3.4279 4.3212-5.1052 6.5158-1.22 1.5973-4.4772 4.2479-5.0052 6.2545-0.23332 0.88531-0.18399-0.31332 0.0493-1.2 9e-3 -0.0373 0.0293-0.0733 0.04-0.11066 0.45732-4.0652 0.78664-8.1465 0.92931-12.236 0.14133-4.0772-0.112-8.1731 0.14399-12.245 0.35999-5.7439 2.1533-11.308 6.8492-14.906 2.2946-1.7586 5.2439-2.8306 7.3545-4.7826 2.0026-1.8533 1.1986-3.9759 0.0213-6.0425-1.1013-1.9333-2.4373-3.8346-2.8666-6.0612-0.48799-2.5306 0.46265-5.1399 1.7466-7.2958 2.7319-4.5852 8.7904-9.6998 14.528-9.0131 4.7852 0.57199 5.3265 6.0905 5.2585 9.9371-0.0667 3.7372-0.43599 7.4651-0.47199 11.206-0.0373 3.8426 0.61599 7.6118 0.67065 11.438 0.0933 6.5065-2.9133 11.465-7.6971 15.672"/><path d="m468.68 277.56c-1.456-3.4719-3.1266-6.7198-5.1812-9.8784-2.8186-4.3332-5.9452-8.5558-7.8371-13.409-1.9333-4.9545-1.6493-10.253-1.84-15.47-0.14-3.8346-1.2786-7.6585-0.97197-11.502 0.14799-1.844 1.2106-4.8266 3.5959-4.5212 1.856 0.23733 2.9586 2.5386 3.6719 4.0066 1.2453 2.5626 2.108 5.2972 3.0333 7.9838 0.35999 1.052 0.70398 2.1226 1.1613 3.1372 0.26399 0.59065 1.1093 2.0306 1.9053 1.8346 1.3546-0.33466 0.12533-5.8692-0.076-6.8492-1.0133-4.9212-2.5373-9.4971-2.7479-14.562-0.30666-7.3438 0.26399-16.086 7.4465-20.101 1.8786-1.0506 4.2559-1.676 6.0398-0.10533 1.7613 1.5493 2.2586 4.2332 2.5199 6.4425 0.80131 6.7825-0.79465 13.205-2.9679 19.586-1.7946 5.2692-3.9332 10.706-4.0892 16.341-0.15066 5.4252 2.6706 10.23 3.9959 15.354 2.1106 8.1651 1.6746 12.494 1.684 15.138 0.0147 3.3132-0.10666 6.5905-0.34799 9.8931-0.224 3.0373-0.48666 6.0732-0.85731 9.0958-0.076 0.61199-0.14533 1.2493-0.22667 1.8893 1.1666-2.8106 1.5746-6.0278 2.5399-8.8504 1.7173-5.0185 3.7119-9.9318 5.3585-14.976 1.3613-4.1666 2.6479-8.3611 4.4452-12.366 1.6866-3.7572 3.7226-7.7305 6.8678-10.488 1.9013-1.6666 4.2052-2.6413 6.7478-2.6213 1.6266 0.012 3.0879 0.57599 4.6399 0.98531 1.912 0.50532 3.4159 0.33066 4.9879-0.87731 5.1479-3.9572 6.7132-11.052 10.525-16.062 2.8413-3.7372 9.5864-10.106 14.545-6.0318 2.6306 2.1613 3.3559 6.3398 3.2186 9.5411-0.17333 4.0186-1.9293 7.6931-4.0199 11.052-2.2239 3.5719-5.0959 6.7705-7.1385 10.444-1.2093 2.1693-1.3973 4.2492-1.2053 6.6972 0.18 2.3039 0.38132 4.5372-0.40399 6.7612-2.3599 6.6798-9.7291 5.7465-15.461 5.9212-4.0092 0.12133-8.3118 0.71865-12.12 2.0013-4.3999 1.4826-7.2625 4.3452-8.8358 8.6984-1.1373 3.1493-1.7466 6.7265-3.8906 9.4011-1.0093 1.2586-2.3426 2.188-3.8106 2.8373-2.2346 0.98798-9.0491 1.4186-9.0998 0.79598-0.16799-2.0826-1.1573-4.2826-1.7746-6.2585-1.1613-3.7092-2.5239-7.3252-4.0266-10.908"/><path d="m437.04 276.31c0.59198-3.8186 0.47865-8.0278 2.2866-11.533 0.12933-0.25199 0.47198-0.31599 0.70531-0.18533 1.2946 0.71865 1.3493 2.8106 1.4546 4.0932 0.176 2.1293 0.0453 4.2626 0.30666 6.3838 0.45999 3.7279 1.3213 7.5705 2.6639 11.085 1.52 3.9746 4.2826 6.2292 8.2971 7.4691 2.5786 0.79732 5.1079 1.492 7.2598 3.2026 1.928 1.532 3.2666 3.6452 4.2586 5.8718 2.6799 6.0092 3.9559 12.726 5.1985 19.145 0.83598 4.3239 1.5173 8.6651 2.5679 12.945 1.0493 4.2759 2.1746 8.5318 2.7773 12.9 0.10133 0.21999 0.20932 0.43865 0.30265 0.66131 0.27466 0.65465-0.74664 1.0066-1.1 0.46399-4.1426-6.3772-9.1891-12.101-16.074-15.613-3.1093-1.5853-7.2398-1.916-9.8331-4.4079-1.9733-1.896-2.2439-4.7879-1.9493-7.3665 0.38665-3.3879 2.0106-6.1772 3.7026-9.0638 0.92798-1.5853 2.0253-3.2852 1.6506-5.2119-0.35333-1.8186-1.8653-3.1546-3.3652-4.0879-2.8626-1.7773-6.2092-2.5759-8.5531-5.1372-2.1773-2.3786-3.3839-5.3399-3.6252-8.5438-0.32132-4.2719 0.41466-8.8531 1.068-13.07"/><path d="m493.52 298.32c3.6559-4.7092 8.0678-8.7704 13.032-12.068 2.6493-1.7586 8.8984-5.2305 10.16-0.04 0.73998 3.0413-2.2373 6.0332-4.1959 7.9398-2.9439 2.8639-6.3492 5.3372-8.8331 8.6398 3.0759 0.97997 6.2892 1.1706 8.9611 3.2972 3.1639 2.5186 4.5826 7.3798 1.4466 10.464-1.5293 1.5026-3.5559 2.4253-5.4599 3.3479-2.4746 1.1973-4.9945 2.2826-7.5305 3.3426-5.4772 2.288-11.024 4.6079-15.694 8.3571-4.7599 3.8186-9.2358 10.276-9.6131 16.506-0.0373 0.59465 0.18933 0.0533-0.16533-0.21866-0.19466 0.17466-0.84798-0.13866-0.84398-0.48532 0.0973-9.2464 1.7586-18.05 5.5372-26.518 3.5026-7.8518 7.9198-15.762 13.2-22.565"/></g><g fill="#365691"><path d="m506.15 212.26c-2.0173 4.1852-4.1252 8.2745-6.3638 12.357-2.156 3.9292-4.3079 7.8278-5.9199 12.02-1.9853 5.1612-4.0666 10.246-6.1652 15.362-2.1813 5.3172-4.1319 10.734-5.6945 16.266-3.0533 10.798-5.3212 21.911-6.4425 33.079-0.57065 5.6799-0.82931 11.393-0.67331 17.1 0.12133 4.4586 0.62398 8.8704 1.044 13.306 0.43599 4.6159 0.74932 9.2864 0.36399 13.918-0.32266 3.8719-0.93864 8.4744-3.9439 11.236-0.58798 0.54265-1.42-0.132-1.0786-0.83198 3.5692-7.3225 3.3706-15.305 2.6866-23.245-0.37599-4.3839-0.89864-8.7451-1.0466-13.145-0.188-5.5985 0.032-11.208 0.55865-16.784 1.036-10.96 3.2213-21.79 6.0558-32.419 1.4533-5.4505 3.2532-10.794 5.3252-16.041 2.0773-5.2585 4.4772-10.372 6.4892-15.656 3.6412-9.5544 9.1904-18.028 14.104-26.934 0.25599-0.46266 0.92531-0.0547 0.70132 0.41065"/><path d="m475.4 290.39c-0.57732-6.9585-1.1933-13.66-3.5399-20.298-1.0933-3.0959-2.4186-6.1065-3.4746-9.2144-0.87331-2.5693-2.1786-6.0918-1.5066-8.8224 0.076-0.30399 0.51998-0.28933 0.60265 0 0.44932 1.56 0.39999 3.2706 0.72398 4.8692 0.31466 1.556 0.73465 3.0866 1.2186 4.5986 1.0293 3.2159 2.3746 6.2972 3.5399 9.4624 2.2519 6.1145 3.4079 12.888 2.9146 19.405-0.0227 0.30799-0.45199 0.30799-0.47865 0"/><path d="m515.72 250.4c-2.7626 6.6732-11.065 7.0585-17.113 8.5531-4.3199 1.0666-7.5065 3.9479-9.7971 7.6892-2.5053 4.0906-4.2012 8.8958-5.5945 13.461-0.016 0.052-0.092 0.032-0.08-0.0213 1.692-7.9971 4.1146-17.629 12.36-21.35 6.6078-2.9813 15.313-1.484 19.54-8.6211 0.208-0.34933 0.85198-0.11466 0.68532 0.28933"/><path d="m479.76 289.33c-0.32799 0.44399-0.62932 0.90798-0.96931 1.3426-0.168 0.21599-0.33732 0.41865-0.54932 0.59198-0.21733 0.17733-0.47199 0.39733-0.76931 0.39199-0.124-3e-3 -0.21067-0.13999-0.144-0.25066 0.13733-0.22266 0.38399-0.35732 0.57599-0.52665 0.19732-0.17466 0.39999-0.34666 0.59198-0.52665 0.38532-0.36533 0.73865-0.76265 1.1173-1.136 0.072-0.072 0.21199 0.0267 0.14666 0.11333"/><path d="m497.04 310.51c-4.7639 3.9119-9.1611 8.5384-12.653 13.609-1.6693 2.4239-3.2092 4.9892-4.6079 7.5798-1.5266 2.8279-2.5279 5.8172-3.7239 8.7838-0.0907 0.22533-0.50132 0.23066-0.47066-0.0627 0.66132-6.2745 4.6372-11.656 7.8198-16.877 1.6533-2.7119 3.7092-4.8972 5.9198-7.1598 2.2839-2.336 4.6092-4.5452 7.2865-6.4292 0.32533-0.22932 0.73999 0.3 0.42933 0.55599"/><path d="m459.1 303.11c2.2959 1.3013 2.3693 4.9252 2.4146 7.2398 0.0867 4.4466-1.0146 8.6224 0.93731 12.86 1.7626 3.8279 4.5786 7.0238 6.7932 10.578 2.0733 3.3266 4.1172 7.5798 4.0719 11.585-3e-3 0.23066-0.35866 0.36266-0.46666 0.12666-0.83464-1.8186-1.1346-3.8839-1.732-5.7892-0.67199-2.1426-1.612-4.0879-2.8266-5.9718-2.1306-3.3012-4.7466-6.3065-6.4745-9.8571-1.8213-3.7426-1.5546-7.4491-1.4346-11.504 0.0773-2.5853 0.336-6.7398-1.7493-8.6624-0.32665-0.29999 0.0907-0.81731 0.46666-0.60532"/></g><path d="m474.44 345.79c9.2438-0.128 26.851-0.22933 26.851-0.22933l-4.3572 32.349c-0.97998 7.2772-7.1918 12.708-14.536 12.708h-15.917c-7.3438 0-13.554-5.4305-14.534-12.708l-4.3572-32.349s17.606 0.10133 26.85 0.22933" fill="#455a64"/><path d="m27.649 286.35 52.736 104.46 153.74 1.104-47.447-107.03z" fill="#75a1de"/><path d="m336.17 391.25-0.0293-8.3611h-99.526l-45.792-100.41h-159.17l-4.0012 3.8612h155.49l47.585 104.83s105.44-0.19066 105.44 0.084" fill="#a8ceff"/><path d="m107.48 343.99c1.7373 5.2105 11.164 9.2344 21.055 8.9864 9.8918-0.24666 16.502-4.6719 14.766-9.8824-1.7373-5.2092-11.164-9.2331-21.055-8.9851-9.8918 0.24666-16.504 4.6719-14.766 9.8811" fill="#d9dfe9"/><path d="m230.73 391.84c0.092 0 0.18667-0.02 0.276-0.06 0.33466-0.152 0.48265-0.54665 0.33066-0.88264l-47.761-105.22-155.1 0.20489c-0.36799 4.8e-4 -0.66665 0.29866-0.66665 0.66665s0.29866 0.66713 0.66665 0.66665l154.24-0.20489 47.408 104.43c0.11066 0.24533 0.35465 0.39066 0.60665 0.39066" fill="#a8ceff"/><path d="m343.09 439.72h182.89v-40.55h-182.89z" fill="#263238"/><path d="m15.078 439.72h329.06v-40.55h-329.06z" fill="#3d4e52"/><path d="m343.09 399.17h182.89v7.4478h-510.91v-7.4478z" fill="#bcc5d9"/><path d="m335.09 401.1h199.72v-9.9304h-199.72z" fill="#3d4e52"/><path d="m7.0777 401.1h329.06v-9.9304h-329.06z" fill="#56686b"/><path d="m389.27 178.42h64.564c3.9946 0 7.2345-3.2386 7.2345-7.2345v-32.233c0-3.9946-3.2399-7.2345-7.2345-7.2345h-64.564c-3.9959 0-7.2345 3.2399-7.2345 7.2345v32.233c0 3.9959 3.2386 7.2345 7.2345 7.2345" fill="#fff"/><path d="m363.63 155.06 24.249-10.232v20.463z" fill="#fff"/><g fill="#003c89"><path d="m432.4 155.06c0 2.4666 2 4.4666 4.4666 4.4666s4.4666-2 4.4666-4.4666c0-2.4679-2-4.4666-4.4666-4.4666s-4.4666 1.9986-4.4666 4.4666"/><path d="m417.08 155.06c0 2.4666 2 4.4666 4.4666 4.4666s4.4666-2 4.4666-4.4666c0-2.4679-2-4.4666-4.4666-4.4666s-4.4666 1.9986-4.4666 4.4666"/><path d="m401.76 155.06c0 2.4666 2 4.4666 4.4666 4.4666s4.4666-2 4.4666-4.4666c0-2.4679-2-4.4666-4.4666-4.4666s-4.4666 1.9986-4.4666 4.4666"/></g><path d="m60.568 32.553h149.05c9.5731 0 17.333 7.7598 17.333 17.333v70.712c0 9.5718-7.7598 17.333-17.333 17.333h-13.361c-0.37466 6.4092 0.54398 15.945 5.8958 28.137-17.221-7.9438-27.137-19.872-32.317-28.137h-109.27c-9.5731 0-17.333-7.7611-17.333-17.333v-70.712c0-9.5731 7.7598-17.333 17.333-17.333" fill="#9ec8ff"/><path d="m124.16 66.259h73.929c2.032 0 3.6786-1.6466 3.6786-3.6772 0-2.032-1.6466-3.6786-3.6786-3.6786h-73.929c-2.0306 0-3.6786 1.6466-3.6786 3.6786 0 2.0306 1.648 3.6772 3.6786 3.6772" fill="#fff"/><g fill="#cbe7ff"><path d="m71.143 87.685h128.36c1.244 0 2.2533-1.008 2.2533-2.2519 0-1.2453-1.0093-2.2533-2.2533-2.2533h-128.36c-1.244 0-2.2519 1.008-2.2519 2.2533 0 1.244 1.008 2.2519 2.2519 2.2519"/><path d="m71.143 100.19h128.36c1.244 0 2.2533-1.008 2.2533-2.2533 0-1.244-1.0093-2.2519-2.2533-2.2519h-128.36c-1.244 0-2.2519 1.008-2.2519 2.2519 0 1.2453 1.008 2.2533 2.2519 2.2533"/><path d="m99.145 113.52h100.36c1.244 0 2.2533-1.0093 2.2533-2.2533s-1.0093-2.2519-2.2533-2.2519h-100.36c-1.2453 0-2.2533 1.008-2.2533 2.2519s1.008 2.2533 2.2533 2.2533"/></g><path d="m72.151 66.259h35.267c2.032 0 3.6786-1.6466 3.6786-3.6772 0-2.032-1.6466-3.6786-3.6786-3.6786h-35.267c-2.0306 0-3.6772 1.6466-3.6772 3.6786 0 2.0306 1.6466 3.6772 3.6772 3.6772" fill="#fff"/><path d="m161.04 228.87h40.044c1.4733 0 2.6666-1.1946 2.6666-2.6666v-27.357c0-1.472-1.1933-2.6666-2.6666-2.6666h-40.044c-1.472 0-2.6666 1.1946-2.6666 2.6666v27.357c0 1.472 1.1946 2.6666 2.6666 2.6666" fill="#fff"/><g fill="#75a1de"><path d="m180.78 217.42c0.22532 0 0.45199-0.076 0.63731-0.22932l21.793-18c0.42666-0.352 0.48532-0.98265 0.13467-1.408-0.35466-0.42666-0.98398-0.48399-1.408-0.13466l-21.139 17.461-20.601-17.926c-0.41599-0.36133-1.0493-0.31866-1.4106 0.0987-0.36399 0.41599-0.31866 1.048 0.0973 1.4106l21.241 18.482c0.18667 0.16266 0.42133 0.24532 0.65599 0.24532"/><path d="m202.58 228.12c0.248 0 0.49599-0.0907 0.68932-0.27599 0.39999-0.37999 0.41599-1.0133 0.0347-1.4133l-15.242-16.024c-0.37733-0.39999-1.0133-0.41732-1.412-0.036-0.40132 0.38133-0.41732 1.0146-0.036 1.4146l15.242 16.024c0.196 0.20666 0.45999 0.31066 0.72398 0.31066"/><path d="m159.54 227.54c0.25599 0 0.51332-0.0973 0.70798-0.29333l15.181-15.222c0.38933-0.39199 0.38933-1.0253-3e-3 -1.4146-0.39199-0.39066-1.0253-0.38933-1.4146 1e-3l-15.18 15.222c-0.38933 0.39199-0.38933 1.0253 3e-3 1.4146 0.19466 0.19466 0.45066 0.29199 0.70532 0.29199"/></g><path d="m187.66 194.96c0 7.3892 5.9892 13.38 13.378 13.38s13.378-5.9905 13.378-13.38-5.9892-13.378-13.378-13.378-13.378 5.9892-13.378 13.378" fill="#9ec8ff"/><text x="192.36746" y="199.76099" fill="#ffffff" font-family="Quicksand" font-size="16px" font-weight="bold"><tspan x="192.36746 201.77524" y="199.76099" font-family="'JetBrainsMono NF'" font-size="13.333px" font-weight="normal" stroke-width="1.3333" style="font-variant-caps:normal;font-variant-east-asian:normal;font-variant-ligatures:normal;font-variant-numeric:normal">85</tspan></text><path d="m21.916 190.24h78.159c2.9453 0 5.3332-2.3879 5.3332-5.3332v-12.229c0-2.9453-2.3879-5.3332-5.3332-5.3332h-78.159c-2.9453 0-5.3332 2.3879-5.3332 5.3332v12.229c0 2.9453 2.3879 5.3332 5.3332 5.3332" fill="#9ec8ff"/><g fill="#fff"><path d="m94.438 184.8c0.35199 0 0.63332-0.124 0.84531-0.37466 0.21333-0.24933 0.30666-0.56265 0.28133-0.93731l-0.33732-2.9653c-0.02533-0.0747-0.01333-0.124 0.036-0.14933 0.052-0.0253 0.11333-0.0133 0.18933 0.0373l2.4386 1.7626c0.29999 0.22533 0.61332 0.308 0.93864 0.244 0.32399-0.0613 0.58665-0.256 0.78798-0.58132 0.22533-0.39999 0.26799-0.75065 0.13066-1.0506-0.136-0.29999-0.36932-0.51199-0.69332-0.63732l-2.7399-1.2386c-0.07466-0.0253-0.11333-0.0627-0.11333-0.112 0-0.0507 0.03867-0.088 0.11333-0.11333l2.7399-1.2386c0.35066-0.14933 0.57598-0.38665 0.67465-0.71198 0.1-0.32533 0.06266-0.65065-0.112-0.97598-0.20133-0.32532-0.46399-0.51865-0.78798-0.58265-0.32532-0.0613-0.63865 8e-3 -0.93864 0.208l-2.4386 1.8013c-0.076 0.0493-0.13733 0.0613-0.18933 0.036-0.04933-0.024-0.06133-0.0747-0.036-0.14933l0.33732-2.9652c0.02533-0.37466-0.07466-0.68799-0.30132-0.93731-0.22533-0.25066-0.52399-0.37466-0.89998-0.37466-0.34932 0-0.63732 0.124-0.86264 0.37466-0.22533 0.24932-0.31199 0.56265-0.26133 0.93731l0.33732 2.9652c0.024 0.0747 0.012 0.12534-0.03867 0.14933-0.04933 0.0253-0.11333 0.0133-0.188-0.036l-2.4399-1.764c-0.29866-0.22666-0.61732-0.30666-0.95598-0.24533-0.33732 0.064-0.59332 0.25733-0.76798 0.58265-0.22533 0.39999-0.27066 0.75065-0.13066 1.0506 0.136 0.3 0.36799 0.51333 0.69332 0.63732l2.7386 1.2386c0.07466 0.0253 0.112 0.0627 0.112 0.11333 0 0.0493-0.03733 0.0867-0.112 0.112l-2.7386 1.2386c-0.35066 0.14933-0.58265 0.38799-0.69332 0.71198-0.11333 0.32666-0.07066 0.65199 0.13066 0.97598 0.17466 0.32532 0.43066 0.51999 0.76798 0.58132 0.33866 0.064 0.65732-7e-3 0.95598-0.20533l2.4399-1.8013c0.07466-0.0507 0.13866-0.0627 0.188-0.0373 0.05067 0.0253 0.06267 0.0747 0.03867 0.14933l-0.33732 2.9653c-0.05066 0.37466 0.04267 0.68798 0.27999 0.93731 0.23866 0.25066 0.54532 0.37466 0.91864 0.37466"/><path d="m78.268 184.8c0.35066 0 0.63198-0.124 0.84398-0.37466 0.21333-0.24933 0.30666-0.56265 0.28266-0.93731l-0.33866-2.9653c-0.02533-0.0747-0.012-0.124 0.03733-0.14933 0.05067-0.0253 0.112-0.0133 0.188 0.0373l2.4386 1.7626c0.29999 0.22533 0.61332 0.308 0.93864 0.244 0.32399-0.0613 0.58665-0.256 0.78798-0.58132 0.22533-0.39999 0.26799-0.75065 0.13066-1.0506-0.136-0.29999-0.36799-0.51199-0.69332-0.63732l-2.7399-1.2386c-0.07466-0.0253-0.11333-0.0627-0.11333-0.112 0-0.0507 0.03867-0.088 0.11333-0.11333l2.7399-1.2386c0.35066-0.14933 0.57599-0.38665 0.67598-0.71198 0.09866-0.32533 0.06133-0.65065-0.11333-0.97598-0.20133-0.32532-0.46399-0.51865-0.78798-0.58265-0.32532-0.0613-0.63865 8e-3 -0.93864 0.208l-2.4386 1.8013c-0.076 0.0493-0.13733 0.0613-0.188 0.036-0.04933-0.024-0.06266-0.0747-0.03733-0.14933l0.33866-2.9652c0.024-0.37466-0.076-0.68799-0.30133-0.93731-0.22533-0.25066-0.52399-0.37466-0.90131-0.37466-0.34932 0-0.63732 0.124-0.86265 0.37466-0.22533 0.24932-0.31199 0.56265-0.26133 0.93731l0.33732 2.9652c0.02533 0.0747 0.012 0.12534-0.03866 0.14933-0.04933 0.0253-0.11333 0.0133-0.18666-0.036l-2.4399-1.764c-0.29866-0.22666-0.61865-0.30666-0.95598-0.24533-0.33732 0.064-0.59465 0.25733-0.76931 0.58265-0.224 0.39999-0.26933 0.75065-0.13066 1.0506 0.136 0.3 0.36799 0.51333 0.69332 0.63732l2.7386 1.2386c0.076 0.0253 0.112 0.0627 0.112 0.11333 0 0.0493-0.036 0.0867-0.112 0.112l-2.7386 1.2386c-0.34932 0.14933-0.58265 0.38799-0.69332 0.71198-0.11333 0.32666-0.07067 0.65199 0.13066 0.97598 0.17466 0.32532 0.43199 0.51999 0.76931 0.58132 0.33732 0.064 0.65732-7e-3 0.95598-0.20533l2.4399-1.8013c0.07333-0.0507 0.13733-0.0627 0.18666-0.0373 0.05066 0.0253 0.064 0.0747 0.03866 0.14933l-0.33732 2.9653c-0.05067 0.37466 0.04266 0.68798 0.28133 0.93731 0.23733 0.25066 0.54399 0.37466 0.91864 0.37466"/><path d="m62.102 184.8c0.35066 0 0.63332-0.124 0.84531-0.37466 0.21333-0.24933 0.30666-0.56265 0.28133-0.93731l-0.33866-2.9653c-0.024-0.0747-0.012-0.124 0.03733-0.14933 0.05067-0.0253 0.11333-0.0133 0.188 0.0373l2.4399 1.7626c0.29999 0.22533 0.61332 0.308 0.93731 0.244 0.32532-0.0613 0.58798-0.256 0.78798-0.58132 0.22666-0.39999 0.26933-0.75065 0.13066-1.0506-0.136-0.29999-0.36799-0.51199-0.69332-0.63732l-2.7399-1.2386c-0.07333-0.0253-0.112-0.0627-0.112-0.112 0-0.0507 0.03867-0.088 0.112-0.11333l2.7399-1.2386c0.35066-0.14933 0.57732-0.38665 0.67598-0.71198s0.06133-0.65065-0.11333-0.97598c-0.2-0.32532-0.46266-0.51865-0.78798-0.58265-0.32399-0.0613-0.63732 8e-3 -0.93731 0.208l-2.4399 1.8013c-0.07467 0.0493-0.13733 0.0613-0.188 0.036-0.04933-0.024-0.06133-0.0747-0.03733-0.14933l0.33866-2.9652c0.02533-0.37466-0.076-0.68799-0.30133-0.93731-0.22533-0.25066-0.52399-0.37466-0.90131-0.37466-0.34932 0-0.63598 0.124-0.86131 0.37466-0.22666 0.24932-0.31332 0.56265-0.26133 0.93731l0.33599 2.9652c0.02533 0.0747 0.01333 0.12534-0.03867 0.14933-0.04933 0.0253-0.112 0.0133-0.18666-0.036l-2.4399-1.764c-0.29866-0.22666-0.61732-0.30666-0.95598-0.24533-0.33732 0.064-0.59465 0.25733-0.76931 0.58265-0.22399 0.39999-0.26933 0.75065-0.13066 1.0506 0.136 0.3 0.36932 0.51333 0.69332 0.63732l2.7386 1.2386c0.076 0.0253 0.11333 0.0627 0.11333 0.11333 0 0.0493-0.03733 0.0867-0.11333 0.112l-2.7386 1.2386c-0.34932 0.14933-0.58132 0.38799-0.69332 0.71198-0.112 0.32666-0.06933 0.65199 0.13066 0.97598 0.17466 0.32532 0.43199 0.51999 0.76931 0.58132 0.33866 0.064 0.65732-7e-3 0.95598-0.20533l2.4399-1.8013c0.07467-0.0507 0.13733-0.0627 0.18666-0.0373 0.052 0.0253 0.064 0.0747 0.03867 0.14933l-0.33599 2.9653c-0.052 0.37466 0.04267 0.68798 0.27999 0.93731 0.23733 0.25066 0.54532 0.37466 0.91864 0.37466"/><path d="m45.937 184.8c0.35066 0 0.63198-0.124 0.84398-0.37466 0.21333-0.24933 0.30666-0.56265 0.28133-0.93731l-0.33732-2.9653c-0.02533-0.0747-0.01333-0.124 0.03733-0.14933 0.05067-0.0253 0.112-0.0133 0.188 0.0373l2.4386 1.7626c0.29999 0.22533 0.61332 0.308 0.93864 0.244 0.32399-0.0613 0.58665-0.256 0.78798-0.58132 0.22533-0.39999 0.26799-0.75065 0.13066-1.0506-0.136-0.29999-0.36932-0.51199-0.69332-0.63732l-2.7399-1.2386c-0.07467-0.0253-0.11333-0.0627-0.11333-0.112 0-0.0507 0.03867-0.088 0.11333-0.11333l2.7399-1.2386c0.35066-0.14933 0.57599-0.38665 0.67465-0.71198 0.1-0.32533 0.06267-0.65065-0.112-0.97598-0.20133-0.32532-0.46399-0.51865-0.78798-0.58265-0.32532-0.0613-0.63865 8e-3 -0.93864 0.208l-2.4386 1.8013c-0.076 0.0493-0.13733 0.0613-0.188 0.036-0.05067-0.024-0.06267-0.0747-0.03733-0.14933l0.33732-2.9652c0.02533-0.37466-0.07467-0.68799-0.29999-0.93731-0.22666-0.25066-0.52532-0.37466-0.90131-0.37466-0.34932 0-0.63732 0.124-0.86264 0.37466-0.22533 0.24932-0.31199 0.56265-0.26133 0.93731l0.33732 2.9652c0.024 0.0747 0.012 0.12534-0.03867 0.14933-0.04933 0.0253-0.11333 0.0133-0.188-0.036l-2.4386-1.764c-0.29999-0.22666-0.61865-0.30666-0.95731-0.24533-0.33599 0.064-0.59332 0.25733-0.76798 0.58265-0.22533 0.39999-0.27066 0.75065-0.13066 1.0506 0.136 0.3 0.36799 0.51333 0.69332 0.63732l2.7386 1.2386c0.07466 0.0253 0.112 0.0627 0.112 0.11333 0 0.0493-0.03733 0.0867-0.112 0.112l-2.7386 1.2386c-0.35066 0.14933-0.58265 0.38799-0.69332 0.71198-0.11333 0.32666-0.07066 0.65199 0.13066 0.97598 0.17466 0.32532 0.43199 0.51999 0.76798 0.58132 0.33866 0.064 0.65732-7e-3 0.95731-0.20533l2.4386-1.8013c0.07467-0.0507 0.13866-0.0627 0.188-0.0373 0.05067 0.0253 0.06267 0.0747 0.03867 0.14933l-0.33732 2.9653c-0.05067 0.37466 0.04267 0.68798 0.27999 0.93731 0.23866 0.25066 0.54532 0.37466 0.91998 0.37466"/></g><path d="m29.771 184.8c0.35066 0 0.63198-0.124 0.84398-0.37466 0.21333-0.24933 0.30666-0.56265 0.28266-0.93731l-0.33866-2.9653c-0.02533-0.0747-0.012-0.124 0.03733-0.14933 0.05066-0.0253 0.112-0.0133 0.188 0.0373l2.4386 1.7626c0.29999 0.22533 0.61332 0.308 0.93864 0.244 0.32399-0.0613 0.58665-0.256 0.78798-0.58132 0.22533-0.39999 0.26799-0.75065 0.13066-1.0506-0.136-0.29999-0.36799-0.51199-0.69332-0.63732l-2.7399-1.2386c-0.07466-0.0253-0.11333-0.0627-0.11333-0.112 0-0.0507 0.03867-0.088 0.11333-0.11333l2.7399-1.2386c0.35066-0.14933 0.57599-0.38665 0.67598-0.71198 0.09866-0.32533 0.06133-0.65065-0.11333-0.97598-0.20133-0.32532-0.46399-0.51865-0.78798-0.58265-0.32532-0.0613-0.63865 8e-3 -0.93864 0.208l-2.4386 1.8013c-0.076 0.0493-0.13733 0.0613-0.188 0.036-0.04933-0.024-0.06267-0.0747-0.03733-0.14933l0.33866-2.9652c0.024-0.37466-0.076-0.68799-0.30133-0.93731-0.22533-0.25066-0.52399-0.37466-0.90131-0.37466-0.34932 0-0.63732 0.124-0.86264 0.37466-0.22533 0.24932-0.31199 0.56265-0.26133 0.93731l0.33732 2.9652c0.02533 0.0747 0.012 0.12534-0.03866 0.14933-0.04933 0.0253-0.112 0.0133-0.18666-0.036l-2.4399-1.764c-0.29866-0.22666-0.61865-0.30666-0.95598-0.24533-0.33732 0.064-0.59465 0.25733-0.76932 0.58265-0.22399 0.39999-0.26933 0.75065-0.13066 1.0506 0.136 0.3 0.36799 0.51333 0.69332 0.63732l2.7386 1.2386c0.076 0.0253 0.11333 0.0627 0.11333 0.11333 0 0.0493-0.03733 0.0867-0.11333 0.112l-2.7386 1.2386c-0.34932 0.14933-0.58265 0.38799-0.69332 0.71198-0.11333 0.32666-0.07066 0.65199 0.13066 0.97598 0.17466 0.32532 0.43199 0.51999 0.76932 0.58132 0.33732 0.064 0.65732-7e-3 0.95598-0.20533l2.4399-1.8013c0.07466-0.0507 0.13733-0.0627 0.18666-0.0373 0.05066 0.0253 0.064 0.0747 0.03866 0.14933l-0.33732 2.9653c-0.05066 0.37466 0.04267 0.68798 0.28133 0.93731 0.23733 0.25066 0.54399 0.37466 0.91864 0.37466" fill="#247afd"/></g></svg>
