<?xml version="1.0" encoding="UTF-8"?>
<!-- Created with Inkscape (http://www.inkscape.org/) -->
<svg width="1323.1" height="541.15" version="1.1" viewBox="0 0 1323.1 541.15" xml:space="preserve" xmlns="http://www.w3.org/2000/svg"><defs><clipPath id="clipPath274"><path d="m0 500h750v-500h-750z"/></clipPath><clipPath id="clipPath344"><path d="m653.46 109.78h45.857v-55.872h-45.857z"/></clipPath><clipPath id="clipPath1122"><path d="m0 500h750v-500h-750z"/></clipPath></defs><g transform="matrix(1.3333 0 0 -1.3333 154.74 612.33)"><g><path d="m733.76 299.35h142.49l-23.212-16.75v-32.954c0-3.801-3.081-6.882-6.881-6.882h-112.4c-3.801 0-6.882 3.081-6.882 6.882v42.823c0 3.8 3.081 6.881 6.882 6.881" fill="#c4dae9"/><path d="m592.98 275.36c0-0.138 21.491-0.249 47.995-0.249 26.514 0 48 0.111 48 0.249 0 0.137-21.486 0.249-48 0.249-26.504 0-47.995-0.112-47.995-0.249" fill="#e1e1e1"/><path d="m592.98 262.71c0-0.138 21.491-0.249 47.995-0.249 26.514 0 48 0.111 48 0.249 0 0.137-21.486 0.249-48 0.249-26.504 0-47.995-0.112-47.995-0.249" fill="#e1e1e1"/></g><g fill="#d1e1f1"><path d="m370.62 420.25h-6.668v-22.337h6.668z"/><path d="m314.92 423.49h-6.668v-25.573h6.668z"/><path d="m328.85 428.82h-6.668v-30.903h6.668z"/><path d="m342.77 427.13h-6.668v-29.208h6.668z"/><path d="m356.7 437.01h-6.668v-39.089h6.668z"/><path d="m384.55 436.82h-6.668v-38.899h6.668z"/><path d="m398.47 424.04h-6.668v-26.123h6.668z"/><path d="m412.39 435.1h-6.668v-37.186h6.668z"/><path d="m426.32 443.48h-6.668v-45.562h6.668z"/><path d="m440.24 435.29h-6.668v-37.376h6.668z"/></g><g><path d="m745.98 403.47 55.146 8.426c4.622-30.252-16.468-58.949-46.72-63.572-30.252-4.622-58.949 16.468-63.572 46.72-4.622 30.252 16.467 58.949 46.719 63.572 4.817 0.735 9.709 0.837 14.552 0.302z" fill="#9abae7"/><path d="m763.88 458.74-6.695-42.748 41.961 7.88s-6.17 23.957-35.266 34.868" fill="#5188d5"/><path d="m93.275 296.94c-0.116 7.241-6.074 13.038-13.282 12.921-7.208-0.116-12.978-6.102-12.862-13.343s6.074-13.038 13.282-12.922c7.208 0.117 12.978 6.103 12.862 13.344m-40.412-0.652c-0.242 15.144 11.826 27.664 26.901 27.907s27.537-11.88 27.779-27.025-11.826-27.664-26.901-27.907-27.537 11.88-27.779 27.025" fill="#0c9ef5"/><path d="m52.863 296.29c-0.242 15.145 11.826 27.664 26.9 27.907l0.23-14.333c-7.209-0.116-12.979-6.103-12.862-13.344 0.115-7.241 6.073-13.038 13.282-12.921l0.229-14.333c-15.075-0.244-27.537 11.879-27.779 27.024" fill="#67b7e7"/><path d="m77.309 326.4c17.637 0.285 31.706-13.403 31.989-31.121l-16.692-0.269c-0.135 8.472-6.581 13.806-15.014 13.669z" fill="#cce7f7"/><path d="m230.5 158.53h-34.755v41.318h34.755z" fill="#f5f5f5"/><path d="m196.95 155.93h-157.07v46.609h157.07z" fill="#a1ead8"/><path d="m231.56 198.62h-38.821v3.92h38.821c1.082 0 1.959-0.877 1.959-1.96 0-1.082-0.877-1.96-1.959-1.96" fill="#e1e1e1"/><path d="m231.56 155.93h-38.821v3.919h38.821c1.082 0 1.959-0.877 1.959-1.96 0-1.082-0.877-1.959-1.959-1.959" fill="#e1e1e1"/><path d="m166.04 155.93h18.557v46.609h-18.557z" fill="#ececec"/><path d="m54.816 155.42h18.557v46.61h-18.557z" fill="#5fb9d8"/></g><g fill="#e1e1e1"><path d="m230.5 193.01c0-0.114-7.522-0.207-16.799-0.207-9.28 0-16.8 0.093-16.8 0.207 0 0.113 7.52 0.206 16.8 0.206 9.277 0 16.799-0.093 16.799-0.206"/><path d="m230.5 186.82c0-0.114-7.522-0.206-16.799-0.206-9.28 0-16.8 0.092-16.8 0.206s7.52 0.207 16.8 0.207c9.277 0 16.799-0.093 16.799-0.207"/><path d="m230.5 179.19c0-0.114-7.522-0.206-16.799-0.206-9.28 0-16.8 0.092-16.8 0.206s7.52 0.207 16.8 0.207c9.277 0 16.799-0.093 16.799-0.207"/><path d="m230.5 171.56c0-0.114-7.522-0.206-16.799-0.206-9.28 0-16.8 0.092-16.8 0.206s7.52 0.206 16.8 0.206c9.277 0 16.799-0.092 16.799-0.206"/><path d="m230.5 163.93c0-0.114-7.522-0.206-16.799-0.206-9.28 0-16.8 0.092-16.8 0.206s7.52 0.206 16.8 0.206c9.277 0 16.799-0.092 16.799-0.206"/></g><g><path d="m156.06 174.99h-70.662v8.393h70.662z" fill="#5fb9d8"/><path d="m230.15 129.84h-35.288v25.176h35.288z" fill="#fafafa"/><path d="m195.26 128.93h-150.18v27.003h150.18z" fill="#87cbe2"/><path d="m194.16 154.11h37.929c0.504 0 0.913 0.409 0.913 0.913 0 0.505-0.409 0.914-0.913 0.914h-37.929z" fill="#f5f5f5"/><path d="m194.16 128.93h38.423c0.231 0 0.419 0.187 0.419 0.419v0.988c0 0.233-0.188 0.42-0.419 0.42h-38.423z" fill="#f5f5f5"/></g><g fill="#e1e1e1"><path d="m230.15 150.24c0-0.114-7.812-0.207-17.446-0.207-9.637 0-17.448 0.093-17.448 0.207 0 0.113 7.811 0.206 17.448 0.206 9.634 0 17.446-0.093 17.446-0.206"/><path d="m230.15 145.47c0-0.114-7.812-0.207-17.446-0.207-9.637 0-17.448 0.093-17.448 0.207 0 0.113 7.811 0.206 17.448 0.206 9.634 0 17.446-0.093 17.446-0.206"/><path d="m230.15 140.71c0-0.114-7.812-0.206-17.446-0.206-9.637 0-17.448 0.092-17.448 0.206s7.811 0.207 17.448 0.207c9.634 0 17.446-0.093 17.446-0.207"/><path d="m230.15 135.95c0-0.114-7.812-0.206-17.446-0.206-9.637 0-17.448 0.092-17.448 0.206s7.811 0.206 17.448 0.206c9.634 0 17.446-0.092 17.446-0.206"/></g><g><path d="m235.5 58.283h-36.019v68.247h36.019z" fill="#ececec"/><path d="m199.48 54.931h-169.07v73.998h169.07z" fill="#aac5eb"/><text transform="scale(1,-1)" x="91.451813" y="-81.93264" fill="#ffffff" font-family="'Britannic Bold'" font-size="30px" stroke-width=".75" style="font-variant-caps:normal;font-variant-east-asian:normal;font-variant-ligatures:normal;font-variant-numeric:normal" xml:space="preserve"><tspan x="91.451813" y="-81.93264" fill="#ffffff" font-family="'Britannic Bold'" font-size="30px" stroke-width=".75" style="font-variant-caps:normal;font-variant-east-asian:normal;font-variant-ligatures:normal;font-variant-numeric:normal">DATA</tspan></text></g><g fill="#e1e1e1"><path d="m238.32 54.931h-43.459v4.799h43.459c1.325 0 2.4-1.074 2.4-2.4 0-1.325-1.075-2.399-2.4-2.399"/><path d="m239.62 124.13h-44.758v4.799h44.758c0.608 0 1.101-0.493 1.101-1.102v-2.596c0-0.609-0.493-1.101-1.101-1.101"/><path d="m235.5 117.38c0-0.114-8.063-0.207-18.008-0.207-9.949 0-18.011 0.093-18.011 0.207 0 0.113 8.062 0.206 18.011 0.206 9.945 0 18.008-0.093 18.008-0.206"/><path d="m235.5 108.63c0-0.113-8.063-0.206-18.008-0.206-9.949 0-18.011 0.093-18.011 0.206 0 0.114 8.062 0.207 18.011 0.207 9.945 0 18.008-0.093 18.008-0.207"/><path d="m235.5 99.875c0-0.113-8.063-0.206-18.008-0.206-9.949 0-18.011 0.093-18.011 0.206 0 0.114 8.062 0.207 18.011 0.207 9.945 0 18.008-0.093 18.008-0.207"/><path d="m235.5 91.122c0-0.114-8.063-0.206-18.008-0.206-9.949 0-18.011 0.092-18.011 0.206s8.062 0.206 18.011 0.206c9.945 0 18.008-0.092 18.008-0.206"/><path d="m235.5 82.369c0-0.114-8.063-0.207-18.008-0.207-9.949 0-18.011 0.093-18.011 0.207s8.062 0.206 18.011 0.206c9.945 0 18.008-0.092 18.008-0.206"/><path d="m235.5 73.616c0-0.114-8.063-0.207-18.008-0.207-9.949 0-18.011 0.093-18.011 0.207 0 0.113 8.062 0.206 18.011 0.206 9.945 0 18.008-0.093 18.008-0.206"/><path d="m235.5 64.862c0-0.113-8.063-0.206-18.008-0.206-9.949 0-18.011 0.093-18.011 0.206 0 0.114 8.062 0.207 18.011 0.207 9.945 0 18.008-0.093 18.008-0.207"/></g><g fill="#ececec"><path d="m88.267 87.881v-4.117c0-4.958-2.479-7.792-7.261-7.792-4.781 0-7.26 2.834-7.26 7.792v16.115c0 4.959 2.479 7.792 7.26 7.792 4.782 0 7.261-2.833 7.261-7.792v-3.011h-4.604v3.322c0 2.212-0.974 3.054-2.524 3.054-1.549 0-2.523-0.842-2.523-3.054v-16.736c0-2.214 0.974-3.01 2.523-3.01 1.55 0 2.524 0.796 2.524 3.01v4.427z"/><path d="m145.94 107.32v-23.906c0-2.214 0.974-3.011 2.523-3.011 1.55 0 2.524 0.797 2.524 3.011v23.906h4.604v-23.597c0-4.959-2.479-7.792-7.26-7.792-4.782 0-7.261 2.833-7.261 7.792v23.597z"/><path d="m163.78 102.89v-9.519h1.903c1.816 0 2.923 0.797 2.923 3.277v3.054c0 2.214-0.753 3.188-2.48 3.188zm5.312-26.563c-0.265 0.796-0.442 1.284-0.442 3.807v4.87c0 2.877-0.974 3.94-3.188 3.94h-1.682v-12.617h-4.87v30.99h7.349c5.047 0 7.216-2.346 7.216-7.127v-2.436c0-3.187-1.018-5.268-3.187-6.287 2.435-1.017 3.232-3.364 3.232-6.596v-4.782c0-1.505 0.044-2.611 0.531-3.762z"/></g><g fill="#e1e1e1"><path d="m150.14 140.52c0 1.482-0.906 2.358-2.487 2.358-1.884 0-3.263-1.48-3.263-3.549 0-1.483 0.905-2.345 2.486-2.345 1.884 0 3.264 1.48 3.264 3.536m1.035 0.058c0-2.601-1.811-4.498-4.284-4.498-1.438 0-2.445 0.588-2.876 1.653l-0.862-4.371h-1.021l2.056 10.351h0.977l-0.244-1.209c0.719 0.805 1.725 1.265 2.948 1.265 1.94 0 3.306-1.207 3.306-3.191"/><path d="m160.33 141.31c0-0.273-0.029-0.561-0.087-0.862l-0.862-4.298h-1.021l0.863 4.313c0.043 0.244 0.071 0.474 0.071 0.689 0 1.078-0.647 1.696-1.954 1.696-1.611 0-2.717-0.876-3.077-2.644l-0.805-4.054h-1.021l2.128 10.667h1.02l-0.848-4.24c0.719 0.818 1.726 1.191 2.89 1.191 1.711 0 2.703-0.92 2.703-2.458"/><path d="m169.88 143.72-5.521-8.541c-0.934-1.438-1.639-1.883-2.731-1.883-0.705 0-1.424 0.245-1.797 0.676l0.546 0.747c0.331-0.345 0.762-0.547 1.337-0.547 0.647 0 1.15 0.303 1.74 1.223l0.532 0.804-1.883 7.521h1.034l1.567-6.44 4.126 6.44z"/></g><g><path d="m192.66 454.5h-153.39l24.987-18.031v-35.474c0-4.091 3.316-7.407 7.407-7.407h120.99c4.091 0 7.408 3.316 7.408 7.407v46.098c0 4.091-3.317 7.407-7.408 7.407" fill="#dddef9"/><path d="m186.26 429.43c0-0.148-23.134-0.268-51.665-0.268-28.541 0-51.67 0.12-51.67 0.268s23.129 0.268 51.67 0.268c28.531 0 51.665-0.12 51.665-0.268" fill="#e1e1e1"/><path d="m186.26 415.81c0-0.148-23.134-0.268-51.665-0.268-28.541 0-51.67 0.12-51.67 0.268s23.129 0.268 51.67 0.268c28.531 0 51.665-0.12 51.665-0.268" fill="#e1e1e1"/><path d="m497.3 436.3-2.23-1.72c-18.804-14.502-28.487-37.999-24.397-61.17 0.525-2.979 1.267-5.921 2.227-8.797 6.919-20.709 25.031-37.375 46.438-42.726 12.589-3.147 26.645-2.846 37.194-10.313 13.73-9.717 16.236-28.544 17.577-45.193 1.34-16.65 3.896-35.484 17.669-45.142 8.626-6.048 20.035-7 30.485-5.263 27.666 4.595 50.381 26.776 59.988 52.826 9.608 26.049 7.463 55.212-1.002 81.597-11.857 36.961-36.818 70.577-71.572 88.572-34.753 17.995-79.416 18.532-112.38-2.671" fill="#dddaf3"/><path d="m28.131 369.07c0-39.817-32.278-72.095-72.095-72.095-39.816 0-72.094 32.278-72.094 72.095 0 39.816 32.278 72.094 72.094 72.094 39.817 0 72.095-32.278 72.095-72.094" fill="#cce7f7"/></g><g clip-path="url(#clipPath274)"><g transform="translate(723.27 53.646)"><path d="m0 0c0-0.144-156.83-0.26-350.25-0.26-193.48 0-350.28 0.116-350.28 0.26s156.8 0.261 350.28 0.261c193.42 0 350.25-0.117 350.25-0.261" fill="#1a2e35"/></g></g><g fill-opacity=".9451"><path d="m657.45 104.69s-26.508 30.509-36.511 61.018c-10.003 30.508-5.251 27.007-5.251 27.007s13.504-29.636 23.756-43.952c10.254-14.314 28.509-35.321 28.509-35.321z" fill="#92c38e"/><path d="m662.73 187.96c-0.855 1.489-3.132 0.715-2.875-0.983 1.615-10.716 5.109-35.865 4.972-52.175-0.178-21.189 7e-3 -29.379 7e-3 -29.379h11.033s-1.959 43.802-4.452 57.156c-1.748 9.363-5.458 19.759-8.685 25.381" fill="#92c38e"/><path d="m668.75 108.98s6.944 14.601 9.081 32.94c0.909 7.8-0.712 18.34-3.123 32.407-1.168 6.813-1.433 11.998-1.395 15.593 0.029 2.716 3.614 3.604 4.943 1.235 1.331-2.376 5.185-10.493 6.164-15.581 2.671-13.889 5.697-20.833 3.383-34.009-2.315-13.177-10.862-33.475-10.862-33.475z" fill="#92c28e"/></g><path d="m678.68 108.09s29.104 62.545 31.121 71.824 8.875 30.661 9.683 29.45c0.806-1.21 2.016-12.505-3.228-25.416-5.245-12.91-27.638-77.764-27.638-77.764h-9.938" fill="#92c28e"/><g fill="#3c6839"><path d="m665.56 110.89c-0.013-0.017-0.293 0.177-0.815 0.561-0.517 0.391-1.301 0.941-2.255 1.721-1.937 1.522-4.656 3.837-7.822 6.905-6.353 6.101-14.26 15.507-21.115 27.1-6.869 11.59-11.488 22.924-14.412 31.221-1.464 4.154-2.532 7.555-3.225 9.917-0.356 1.179-0.6 2.102-0.772 2.727-0.168 0.626-0.246 0.957-0.226 0.964 0.021 6e-3 0.139-0.314 0.346-0.928 0.219-0.668 0.514-1.565 0.883-2.691 0.763-2.338 1.893-5.713 3.407-9.84 3.025-8.243 7.693-19.511 14.534-31.053 6.826-11.543 14.637-20.945 20.889-27.104 3.114-3.097 5.78-5.455 7.666-7.031 0.929-0.807 1.688-1.386 2.178-1.81 0.497-0.415 0.753-0.641 0.739-0.659"/><path d="m668.74 140.9c-0.043-3e-3 -0.134 0.651-0.261 1.836-0.138 1.295-0.319 2.981-0.537 5.014-0.461 4.231-1.18 10.066-2.208 16.476-1.033 6.412-2.18 12.18-3.067 16.342-0.431 1.997-0.788 3.656-1.063 4.929-0.25 1.165-0.369 1.814-0.327 1.824 0.042 0.011 0.239-0.618 0.563-1.766 0.326-1.147 0.756-2.817 1.255-4.89 0.999-4.145 2.217-9.913 3.253-16.34 1.031-6.425 1.682-12.284 2.032-16.533 0.176-2.124 0.291-3.846 0.34-5.038 0.053-1.191 0.063-1.851 0.02-1.854"/><path d="m675.56 191.65c0.02 8e-3 0.138-0.267 0.344-0.795 0.22-0.589 0.51-1.36 0.872-2.323 0.385-1.008 0.827-2.251 1.249-3.724 0.432-1.47 0.993-3.125 1.415-5.008 0.229-0.939 0.47-1.921 0.721-2.941 0.244-1.024 0.417-2.107 0.64-3.22 0.475-2.22 0.769-4.629 1.122-7.156 0.569-5.07 0.88-10.685 0.695-16.574-0.237-5.891-0.949-11.47-1.88-16.488-0.532-2.496-0.998-4.876-1.631-7.058-0.303-1.093-0.553-2.161-0.87-3.165-0.323-1.001-0.633-1.962-0.93-2.882-0.555-1.849-1.232-3.46-1.769-4.894-0.526-1.439-1.056-2.647-1.512-3.625-0.43-0.933-0.775-1.683-1.037-2.254-0.242-0.512-0.38-0.777-0.4-0.768-0.019 9e-3 0.08 0.291 0.286 0.819 0.235 0.582 0.543 1.346 0.928 2.298 0.421 0.989 0.917 2.207 1.409 3.654 0.505 1.441 1.152 3.056 1.677 4.906 0.283 0.919 0.579 1.881 0.888 2.881 0.304 1.003 0.541 2.069 0.831 3.16 0.608 2.177 1.053 4.55 1.567 7.035 0.896 4.997 1.586 10.545 1.822 16.402 0.183 5.858-0.108 11.44-0.643 16.488-0.336 2.515-0.608 4.914-1.06 7.128-0.211 1.109-0.372 2.189-0.602 3.211-0.236 1.02-0.463 2-0.679 2.938-0.392 1.883-0.922 3.54-1.321 5.013-0.388 1.478-0.796 2.728-1.146 3.746-0.315 0.976-0.567 1.76-0.76 2.358-0.167 0.542-0.247 0.83-0.226 0.838"/><path d="m719.15 208.11c0.011-2e-3 3e-3 -0.097-0.022-0.28-0.036-0.22-0.079-0.487-0.13-0.813-0.128-0.712-0.289-1.768-0.574-3.113-0.562-2.69-1.498-6.563-2.954-11.26-1.45-4.699-3.438-10.208-5.796-16.26-2.347-6.055-5.077-12.652-7.661-19.674-2.623-7.012-4.644-13.855-6.544-20.065-1.881-6.215-3.667-11.792-5.392-16.397-1.709-4.612-3.354-8.243-4.596-10.696-0.596-1.239-1.132-2.164-1.477-2.798-0.164-0.288-0.297-0.523-0.408-0.716-0.094-0.159-0.147-0.239-0.157-0.234-0.01 6e-3 0.024 0.095 0.102 0.264 0.094 0.201 0.211 0.445 0.352 0.744 0.309 0.653 0.81 1.593 1.37 2.845 1.172 2.479 2.75 6.124 4.401 10.742 1.668 4.612 3.406 10.19 5.257 16.412 1.869 6.215 3.878 13.081 6.509 20.112 2.59 7.041 5.336 13.631 7.711 19.67 2.385 6.035 4.41 11.514 5.909 16.184 1.506 4.667 2.505 8.511 3.138 11.18 0.32 1.333 0.52 2.381 0.687 3.084 0.076 0.321 0.138 0.584 0.189 0.8 0.047 0.18 0.075 0.271 0.086 0.269"/></g><path d="m629.41 221.93c-1.834 1.822-4.884-0.083-4.125-2.555 0.77-2.507 1.936-5.747 3.657-9.404 4.001-8.503 15.754-39.012 21.256-55.767 5.502-16.753 13.254-48.013 13.254-48.013l11.748 1.906s-10.748 51.359-21.251 69.864c-8.439 14.869-16.878 36.358-24.539 43.969" fill="#92c38e" fill-opacity=".9451"/><g fill="#3c6839"><path d="m653.41 143.72c0.041 0.014 0.254-0.487 0.605-1.408 0.348-0.922 0.822-2.267 1.355-3.945 1.082-3.351 2.406-8.032 3.74-13.232 1.33-5.203 2.439-9.936 3.212-13.366 0.353-1.624 0.649-2.987 0.884-4.071 0.196-0.964 0.284-1.502 0.242-1.513-0.041-0.01-0.209 0.509-0.477 1.456-0.287 1.071-0.647 2.419-1.077 4.024-0.898 3.534-2.08 8.178-3.386 13.316-1.332 5.194-2.586 9.884-3.559 13.259-0.464 1.593-0.852 2.931-1.163 3.995-0.28 0.942-0.416 1.47-0.376 1.485"/><path d="m669.35 107.14c-0.011-1e-3 -0.033 0.105-0.066 0.313-0.036 0.245-0.08 0.549-0.133 0.926-0.124 0.812-0.234 2.018-0.482 3.558-0.43 3.086-1.201 7.533-2.463 12.958-1.253 5.428-3.084 11.811-5.499 18.769-2.41 6.96-5.432 14.481-8.857 22.264-6.912 15.549-13.816 29.34-18.354 39.537-2.292 5.087-4.068 9.24-5.238 12.133-0.596 1.442-1.022 2.576-1.321 3.342-0.132 0.357-0.239 0.644-0.325 0.876-0.071 0.199-0.102 0.303-0.092 0.306 0.01 4e-3 0.06-0.091 0.15-0.282 0.102-0.225 0.228-0.506 0.383-0.852 0.346-0.798 0.823-1.899 1.429-3.295 1.236-2.863 3.071-6.986 5.414-12.045 4.636-10.143 11.6-23.897 18.522-39.469 3.431-7.795 6.445-15.339 8.83-22.328 2.393-6.986 4.184-13.402 5.387-18.857 1.21-5.454 1.916-9.924 2.275-13.026 0.211-1.547 0.282-2.759 0.365-3.576 0.029-0.38 0.053-0.687 0.072-0.932 0.013-0.211 0.014-0.319 3e-3 -0.32"/><path d="m675.2 108.09c-0.043-6e-3 -0.182 0.697-0.396 1.974-0.234 1.38-0.541 3.2-0.915 5.401-0.809 4.552-2.045 10.821-3.823 17.645-1.759 6.831-3.741 12.906-5.266 17.27-0.749 2.103-1.369 3.842-1.837 5.16-0.441 1.217-0.665 1.898-0.625 1.913 0.04 0.017 0.34-0.634 0.849-1.825 0.507-1.192 1.214-2.929 2.026-5.099 1.633-4.334 3.689-10.41 5.455-17.263 1.783-6.847 2.955-13.151 3.655-17.73 0.334-2.293 0.591-4.149 0.721-5.439 0.14-1.287 0.199-2.002 0.156-2.007"/></g><path d="m699.31 53.908h-45.857v55.872h45.857z" fill="#5d767d"/><g transform="translate(0,-2e-4)" opacity=".36563"><g clip-path="url(#clipPath344)" opacity=".3"><path d="m699.31 53.908h-45.857v55.872h45.857z"/></g></g><path d="m684.68 53.908h-40.685v55.872h40.685z" fill="#5d767d"/><path d="m88.526 129.2c-7.812 5.003-18.638 5.098-26.24-0.216-7.218-5.046-10.883-14.228-10.564-23.028 0.318-8.801 4.584-19.554 12.557-24.177l23.403 0.092c7.473 5.495 12.526 14.348 12.879 23.617 0.352 9.269-4.224 18.709-12.035 23.712" fill="#477b43"/><g fill="#1a2e35"><path d="m77.003 80.934c-0.051 0-0.102 0.717-0.147 2.014-0.041 1.439-0.093 3.282-0.156 5.489-0.118 4.634-0.301 11.033-0.61 18.098-0.312 7.066-0.692 13.458-0.982 18.085-0.131 2.204-0.241 4.043-0.327 5.481-0.067 1.295-0.081 2.014-0.029 2.019 0.051 3e-3 0.162-0.707 0.319-1.995 0.16-1.288 0.353-3.155 0.564-5.465 0.424-4.621 0.889-11.017 1.201-18.092 0.31-7.074 0.409-13.486 0.392-18.125-7e-3 -2.321-0.037-4.197-0.081-5.495-0.044-1.297-0.092-2.014-0.144-2.014"/><path d="m54.081 107.95c-0.017-0.206-1.289-0.27-2.84-0.143-1.552 0.128-2.796 0.398-2.779 0.604 0.017 0.205 1.288 0.268 2.84 0.142 1.551-0.127 2.796-0.398 2.779-0.603"/><path d="m54.517 115.85c-0.084-0.188-1.181 0.115-2.45 0.678s-2.231 1.173-2.147 1.361c0.084 0.189 1.18-0.115 2.45-0.679 1.269-0.562 2.23-1.172 2.147-1.36"/><path d="m58.58 121.71c-0.107-0.171-1.34 0.41-2.622 1.474-1.285 1.06-2.086 2.163-1.937 2.299 0.153 0.145 1.169-0.698 2.413-1.724 1.24-1.029 2.259-1.871 2.146-2.049"/><path d="m62.666 127.24c-0.188-0.083-0.779 0.841-1.319 2.063-0.541 1.223-0.826 2.281-0.637 2.365 0.189 0.083 0.78-0.84 1.32-2.063 0.54-1.222 0.825-2.281 0.636-2.365"/><path d="m69.076 131.16c-0.184-0.086-0.82 0.896-1.242 2.26-0.426 1.361-0.459 2.531-0.259 2.565 0.207 0.036 0.562-1.034 0.973-2.344 0.404-1.311 0.719-2.394 0.528-2.481"/><path d="m79.774 135.59c0.195-0.068 0.076-0.908-0.265-1.875s-0.776-1.694-0.97-1.626c-0.195 0.068-0.076 0.908 0.265 1.875s0.776 1.694 0.97 1.626"/><path d="m87.709 132.18c0.14-0.151-0.369-0.851-1.137-1.561s-1.504-1.164-1.644-1.012c-0.14 0.151 0.369 0.85 1.137 1.561 0.768 0.71 1.504 1.163 1.644 1.012"/><path d="m94.694 127.67c0.116-0.171-0.505-0.794-1.386-1.391-0.882-0.597-1.69-0.942-1.806-0.772-0.116 0.171 0.505 0.794 1.387 1.391 0.881 0.597 1.689 0.942 1.805 0.772"/><path d="m99.654 120.95c0.081-0.19-0.897-0.789-2.185-1.339-1.288-0.549-2.397-0.84-2.478-0.65-0.081 0.189 0.897 0.789 2.185 1.338 1.288 0.548 2.397 0.84 2.478 0.651"/><path d="m101.61 113.61c0.025-0.204-0.969-0.496-2.222-0.651-1.254-0.156-2.29-0.116-2.315 0.089s0.97 0.497 2.223 0.652c1.252 0.155 2.289 0.115 2.314-0.09"/><path d="m102.62 104.58c-0.083-0.189-1.143 0.089-2.368 0.622-1.226 0.533-2.153 1.118-2.071 1.308 0.083 0.189 1.143-0.09 2.369-0.622 1.225-0.534 2.152-1.12 2.07-1.308"/><path d="m101.73 96.833c-0.065-0.188-1.406 0.131-2.807 1.051-1.406 0.914-2.236 2.013-2.089 2.149 0.151 0.15 1.169-0.662 2.498-1.524 1.321-0.87 2.474-1.477 2.398-1.676"/><path d="m97.694 89.778c-0.123-0.16-1.19 0.467-2.214 1.573-1.029 1.104-1.575 2.213-1.406 2.324 0.174 0.119 0.969-0.76 1.953-1.815 0.98-1.06 1.798-1.917 1.667-2.082"/><path d="m59.386 88.95c0.096-0.183-1.025-0.955-2.502-1.725-1.478-0.769-2.753-1.244-2.849-1.061-0.095 0.183 1.025 0.955 2.503 1.724 1.478 0.77 2.753 1.245 2.848 1.062"/><path d="m55.888 95.331c0.085-0.188-0.814-0.779-2.007-1.32-1.194-0.542-2.231-0.828-2.316-0.64s0.813 0.778 2.007 1.32c1.194 0.541 2.231 0.827 2.316 0.64"/><path d="m53.315 100.98c0.029-0.204-1.077-0.53-2.47-0.729-1.394-0.197-2.547-0.191-2.575 0.013-0.03 0.204 1.076 0.53 2.47 0.728 1.393 0.197 2.546 0.192 2.575-0.012"/><path d="m61.752 104.1c0.062-0.191-1.018-0.695-2.457-0.855-1.439-0.166-2.603 0.084-2.586 0.286 0.014 0.211 1.14 0.298 2.502 0.456 1.363 0.15 2.48 0.316 2.541 0.113"/><path d="m68.761 111.07c0.061-0.193-0.798-0.628-1.956-0.739-1.158-0.116-2.085 0.142-2.063 0.343 0.02 0.209 0.914 0.291 1.99 0.4 1.076 0.102 1.969 0.197 2.029-4e-3"/><path d="m70.1 116.66c-0.067-0.195-0.997-0.051-2.076 0.322s-1.9 0.834-1.832 1.029c0.067 0.195 0.997 0.05 2.076-0.323s1.899-0.833 1.832-1.028"/><path d="m72.67 122.31c-0.143-0.143-0.782 0.278-1.237 1.07-0.458 0.791-0.503 1.555-0.307 1.608 0.202 0.057 0.545-0.533 0.954-1.234 0.403-0.705 0.742-1.298 0.59-1.444"/><path d="m69.572 99.176c0.049-0.2-0.756-0.569-1.798-0.824-0.601-0.147-1.151-0.224-1.511-0.222l-0.147 0.436c0.269 0.048 0.444 0.037 0.478-0.042 0.036-0.08-0.074-0.216-0.293-0.381l-0.147 0.435c0.318 0.167 0.841 0.353 1.443 0.5 1.041 0.254 1.926 0.298 1.975 0.098"/><path d="m71.016 89.271c0.075-0.191-0.951-0.774-2.292-1.302-1.342-0.527-2.49-0.799-2.566-0.606-0.075 0.191 0.951 0.774 2.293 1.302 1.341 0.527 2.489 0.798 2.565 0.606"/><path d="m63.099 93.672c0.066-0.196-0.618-0.605-1.529-0.915s-1.703-0.403-1.769-0.208c-0.067 0.195 0.617 0.605 1.528 0.915s1.704 0.402 1.77 0.208"/><path d="m63.704 113.83c-0.047-0.197-1.239-0.079-2.616 0.41-1.378 0.486-2.379 1.146-2.291 1.328 0.09 0.19 1.202-0.151 2.54-0.624 1.337-0.475 2.417-0.911 2.367-1.114"/><path d="m82.864 116.02c0.113-0.172-0.558-0.814-1.499-1.436-0.941-0.621-1.796-0.984-1.91-0.812-0.113 0.173 0.557 0.815 1.499 1.436 0.941 0.621 1.796 0.985 1.91 0.812"/><path d="m83.905 106.08c0.042-0.202-0.664-0.52-1.575-0.709-0.912-0.189-1.685-0.179-1.727 0.023s0.663 0.519 1.575 0.708c0.912 0.19 1.685 0.179 1.727-0.022"/><path d="m85.116 94.893c-0.086-0.187-1.102 0.1-2.268 0.639-1.166 0.54-2.04 1.13-1.954 1.316 0.087 0.188 1.102-0.099 2.268-0.639 1.166-0.539 2.041-1.129 1.954-1.316"/><path d="m82.554 84.006c-0.16-0.132-0.819 0.408-1.473 1.204s-1.055 1.547-0.895 1.679c0.159 0.131 0.819-0.408 1.472-1.205 0.654-0.796 1.055-1.547 0.896-1.678"/><path d="m82.03 123.35c0.126-0.159-0.309-0.708-1.056-1.081-0.746-0.376-1.446-0.398-1.499-0.201-0.056 0.202 0.491 0.528 1.164 0.869 0.675 0.336 1.264 0.579 1.391 0.413"/><path d="m91.419 113.32c0.069-0.19-0.8-0.668-1.988-0.831-1.189-0.168-2.155 0.056-2.14 0.257 0.011 0.21 0.93 0.326 2.037 0.483 1.107 0.151 2.023 0.29 2.091 0.091"/><path d="m89.548 122.32c0.091-0.182-0.771-0.797-1.998-1.187-1.225-0.394-2.285-0.393-2.314-0.193-0.034 0.208 0.922 0.529 2.087 0.905 1.166 0.371 2.132 0.662 2.225 0.475"/><path d="m93.468 99.368c-3e-3 -0.201-1.478-0.332-3.257-6e-3 -1.781 0.319-3.116 0.96-3.047 1.149 0.068 0.2 1.463-0.106 3.18-0.414 1.716-0.315 3.13-0.517 3.124-0.729"/><path d="m89.98 86.286c-0.124-0.16-1.21 0.479-2.293 1.57-1.087 1.089-1.722 2.178-1.561 2.301 0.166 0.13 1.039-0.722 2.09-1.773 1.047-1.056 1.894-1.933 1.764-2.098"/><path d="m74.638 132.97c0.111-0.16-2.979-1.413-6.549-5.176-3.569-3.679-7.251-10.179-8.158-18.032-0.434-3.902-0.062-7.679 0.492-11.049 0.583-3.374 1.357-6.37 2.069-8.866 0.717-2.496 1.376-4.496 1.818-5.883 0.443-1.386 0.68-2.157 0.629-2.176-0.046-0.016-0.375 0.721-0.903 2.079-0.527 1.359-1.264 3.337-2.049 5.828-0.782 2.489-1.615 5.494-2.242 8.9-0.597 3.403-1.002 7.24-0.556 11.254 0.926 8.033 4.78 14.653 8.52 18.312 1.861 1.86 3.61 3.1 4.886 3.819 0.619 0.391 1.154 0.6 1.495 0.776 0.349 0.163 0.537 0.237 0.548 0.214"/><path d="m84.826 81.304c-0.162 0.081 1.679 2.915 3.358 8.023 1.729 5.045 3.159 12.517 2.008 20.632-0.539 4.046-1.71 7.796-3.182 11.001-1.528 3.161-3.498 5.75-5.425 7.556-1.992 1.762-3.95 2.773-5.315 3.359-1.382 0.576-2.209 0.711-2.197 0.775 3e-3 0.023 0.213 0.012 0.61-0.048 0.393-0.072 0.973-0.202 1.692-0.455 1.427-0.516 3.455-1.467 5.559-3.234 2.049-1.829 4.082-4.412 5.697-7.655 1.54-3.261 2.75-7.072 3.3-11.195 1.173-8.267-0.372-15.853-2.248-20.908-0.422-1.29-0.965-2.397-1.37-3.392-0.481-0.964-0.878-1.802-1.242-2.465-0.761-1.31-1.2-2.019-1.245-1.994"/></g><g><g><path d="m55.888 83.071h41.182l0.253-8.242h-41.435z" fill="#5d767d"/><path d="m59.386 78.95 2.366-25.162h30.107l2.418 24.886z" fill="#5d767d"/><path d="m97.322 74.729c0-0.206-9.274-0.373-20.711-0.373-11.441 0-20.713 0.167-20.713 0.373 0 0.207 9.272 0.374 20.713 0.374 11.437 0 20.711-0.167 20.711-0.374" fill="#1a2e35"/><path d="m93.138 67.065c0.04-0.024-0.238-0.603-0.882-1.572-0.646-0.965-1.674-2.32-3.194-3.772l-0.19-0.181-0.187 0.196c-1.983 2.081-4.707 4.631-8.07 7.065l0.455 0.02c-1.15-1.009-2.348-2.061-3.578-3.141-1.462-1.272-2.879-2.507-4.23-3.682l-0.234-0.204-0.235 0.197c-2.564 2.156-4.896 4.117-6.876 5.781l0.401 0.043c-1.421-1.732-2.614-3.188-3.558-4.34-0.856-1.016-1.352-1.563-1.396-1.529-0.045 0.035 0.368 0.647 1.149 1.723 0.892 1.192 2.019 2.699 3.362 4.494l0.171 0.229 0.229-0.186c2.009-1.628 4.376-3.547 6.979-5.658l-0.468-6e-3c1.346 1.181 2.757 2.421 4.214 3.701 1.234 1.075 2.436 2.123 3.59 3.128l0.22 0.192 0.235-0.173c3.39-2.491 6.102-5.127 8.032-7.293l-0.376 0.016c3.055 2.771 4.319 5.042 4.437 4.952" fill="#1a2e35"/></g><text transform="scale(1,-1)" x="87.27211" y="-137.3721" fill="#ffffff" font-family="'Lucida Bright'" font-size="14px" stroke-width=".75" style="font-variant-caps:normal;font-variant-east-asian:normal;font-variant-ligatures:normal;font-variant-numeric:normal" xml:space="preserve"><tspan x="87.27211" y="-137.3721" fill="#ffffff" font-family="'Lucida Bright'" font-size="14px" stroke-width=".75" style="font-variant-caps:normal;font-variant-east-asian:normal;font-variant-ligatures:normal;font-variant-numeric:normal">Statistics</tspan></text><path d="m587.95 60.694h-435.92c-8.045 0-14.567 6.521-14.567 14.567v278.4c0 8.046 6.522 14.568 14.567 14.568h435.92c8.045 0 14.567-6.522 14.567-14.568v-278.4c0-8.046-6.522-14.567-14.567-14.567" fill="#75a1de"/><g transform="translate(608.29 53.646)" fill="#75a1de"><path d="m0 0h-468.26c-9.83 0-17.798 7.969-17.798 17.798v9.111h503.85v-9.111c0-9.829-7.969-17.798-17.798-17.798" fill="#75a1de"/></g><g transform="translate(324.15 83.439)" fill="#1956aa"><path d="m0 0 6.252-9.945h87.979l5.806 9.945z" fill="#1956aa"/></g><g transform="translate(598.52 83.44)" fill="#1956aa"><path d="m0 0c0-0.167-103.22-0.302-230.52-0.302-127.34 0-230.54 0.135-230.54 0.302 0 0.166 103.2 0.301 230.54 0.301 127.3 0 230.52-0.135 230.52-0.301" fill="#1956aa"/></g><path d="m584.11 91.571h-430.06c-1.807 0-3.273 1.465-3.273 3.273v252.43c0 1.807 1.465 3.272 3.273 3.272h430.06c1.808 0 3.272-1.465 3.272-3.272v-252.43c0-1.807-1.464-3.272-3.272-3.272"/></g><g transform="translate(586.92 91.192)"><path d="m0 0h-436.6l0.467 240h436.13z" fill="#fff"/></g><g><path d="m186.59 340.54c0-1.926-1.561-3.487-3.487-3.487s-3.486 1.561-3.486 3.487 1.56 3.487 3.486 3.487 3.487-1.561 3.487-3.487" fill="#d6ca18"/><path d="m165.46 340.54c0-1.926-1.561-3.487-3.487-3.487-1.925 0-3.487 1.561-3.487 3.487s1.562 3.487 3.487 3.487c1.926 0 3.487-1.561 3.487-3.487" fill="#d80000"/><path d="m175.6 340.54c0-1.926-1.561-3.487-3.487-3.487s-3.487 1.561-3.487 3.487 1.561 3.487 3.487 3.487 3.487-1.561 3.487-3.487" fill="#782eb7"/><path d="m587.38 91.192h-437.07v23.175h437.07z" fill="#1956aa"/></g><g transform="translate(166.83 100.1)"><path d="m0 0v-0.742h-3.48v0.587l1.875 1.781c0.459 0.437 0.54 0.715 0.54 0.978 0 0.43-0.297 0.68-0.878 0.68-0.458 0-0.843-0.154-1.106-0.492l-0.613 0.473c0.363 0.492 1.018 0.782 1.793 0.782 1.026 0 1.687-0.519 1.687-1.356 0-0.458-0.128-0.877-0.782-1.491l-1.262-1.2z" fill="#fff"/></g><g transform="translate(167.3 99.868)"><path d="m0 0c0 0.338 0.249 0.56 0.553 0.56 0.303 0 0.553-0.222 0.553-0.56 0-0.323-0.25-0.56-0.553-0.56-0.304 0-0.553 0.237-0.553 0.56m0 2.57c0 0.337 0.249 0.56 0.553 0.56 0.303 0 0.553-0.223 0.553-0.56 0-0.323-0.25-0.559-0.553-0.559-0.304 0-0.553 0.236-0.553 0.559" fill="#fff"/></g><g transform="translate(170.6 104.08)"><path d="m0 0v-4.723h-0.876v3.987h-0.999v0.736z" fill="#fff"/></g><g transform="translate(175.75 100.43)"><path d="m0 0h-0.837v-1.072h-0.85v1.072h-2.59v0.607l2.327 3.043h0.938l-2.193-2.908h1.545v0.951h0.823v-0.951h0.837z" fill="#fff"/></g><path d="m541.7 100.68h-358.24v1.633h358.24z" fill="#fff"/><path d="m295.14 99.718h-111.95v4.355h111.95z" fill="#ff735d"/><g transform="translate(298.76 101.5)"><path d="m0 0c0-3.01-2.44-5.45-5.45-5.45s-5.451 2.44-5.451 5.45 2.441 5.45 5.451 5.45 5.45-2.44 5.45-5.45" fill="#ff735d"/></g><g transform="translate(549.87 101.51)"><path d="m0 0c0 0.492-0.371 0.802-0.944 0.802-0.567 0-0.958-0.344-0.958-0.81 0-0.444 0.35-0.795 0.978-0.795 0.546 0 0.924 0.311 0.924 0.803m0.85 0.041c0-0.939-0.763-1.533-1.727-1.533-1.288 0-2.044 0.83-2.044 2.348 0 1.62 0.944 2.509 2.314 2.509 0.472 0 0.924-0.1 1.241-0.302l-0.323-0.662c-0.257 0.169-0.567 0.23-0.898 0.23-0.891 0-1.45-0.554-1.45-1.626v-8e-3c0.283 0.331 0.735 0.493 1.261 0.493 0.931 0 1.626-0.566 1.626-1.449" fill="#fff"/></g><g transform="translate(551.15 100.6)"><path d="m0 0c0 0.338 0.248 0.56 0.553 0.56 0.302 0 0.552-0.222 0.552-0.56 0-0.323-0.25-0.56-0.552-0.56-0.305 0-0.553 0.237-0.553 0.56m0 2.57c0 0.337 0.248 0.561 0.553 0.561 0.302 0 0.552-0.224 0.552-0.561 0-0.323-0.25-0.559-0.552-0.559-0.305 0-0.553 0.236-0.553 0.559" fill="#fff"/></g><g transform="translate(555.88 102.45)"><path d="m0 0c0 1.141-0.444 1.667-1.093 1.667-0.64 0-1.086-0.526-1.086-1.667 0-1.14 0.446-1.665 1.086-1.665 0.649 0 1.093 0.525 1.093 1.665m-3.063 0c0 1.552 0.85 2.429 1.97 2.429 1.127 0 1.977-0.877 1.977-2.429 0-1.55-0.85-2.429-1.977-2.429-1.12 0-1.97 0.879-1.97 2.429" fill="#fff"/></g><g transform="translate(560.42 102.45)"><path d="m0 0c0 1.141-0.444 1.667-1.093 1.667-0.64 0-1.086-0.526-1.086-1.667 0-1.14 0.446-1.665 1.086-1.665 0.649 0 1.093 0.525 1.093 1.665m-3.063 0c0 1.552 0.85 2.429 1.97 2.429 1.127 0 1.977-0.877 1.977-2.429 0-1.55-0.85-2.429-1.977-2.429-1.12 0-1.97 0.879-1.97 2.429" fill="#fff"/></g><g transform="translate(568.93 102.74)"><path d="m0 0h-1.633v4.709h4.699v-1.634h-3.066z" fill="#fff"/></g><g transform="translate(572 96.595)"><path d="m0 0h-4.708v4.699h1.633v-3.065h3.075z" fill="#fff"/></g><g transform="translate(579.5 96.595)"><path d="m0 0h-4.7v1.634h3.066v3.076h1.634z" fill="#fff"/></g><g transform="translate(579.5 102.75)"><path d="m0 0h-1.633v3.065h-3.075v1.634h4.708z" fill="#fff"/></g><g transform="translate(210.19 316.92)"><path d="m0 0h-25.734l-12.867-22.286 12.867-22.286h25.734l12.867 22.286z" fill="#ececec"/></g><g><g transform="translate(186.55 290.27)"><path d="m0 0c-1.15 1.272-2.31 2.56-3.148 4.056-0.838 1.497-1.338 3.244-1.06 4.937 0.162 0.989 0.583 1.932 0.649 2.933 0.092 1.378-0.487 2.817 2e-3 4.108 0.763 2.018 3.479 2.329 5.126 3.723 1.282 1.086 1.907 2.848 3.317 3.761 1.233 0.797 2.816 0.78 4.269 0.575 1.454-0.206 2.916-0.573 4.371-0.377 1.037 0.139 2.014 0.559 3.03 0.81 1.015 0.252 2.149 0.318 3.053-0.208 0.905-0.526 1.413-1.81 0.82-2.672 1.686 0.778 3.827-0.537 4.289-2.334 0.461-1.799-0.463-3.741-1.891-4.927-1.429-1.186-3.276-1.738-5.1-2.081-5.165-0.974-10.768-0.425-15.219 2.37"/></g><path d="m210.41 284.77c-0.174 3.19-1.066 9.729-1.943 15.638-0.942 6.356-6.606 10.923-13.018 10.495l-0.637-0.043c-6.84-0.861-9.931-7.151-8.882-13.965l2.008-24.549h16.696s-0.395 4.307-0.397 4.349c0 0 6.533 1.469 6.173 8.075" fill="#e9c6af"/><g transform="translate(204.24 276.79)" fill="#e0ae8e"><path d="m0 0s-4.149-0.618-8.769 1.87c0 0 2.352-4.614 8.899-3.579z" fill="#e0ae8e"/></g></g><g transform="translate(206.34 294.75)"><path d="m0 0c0.051-0.497-0.328-0.949-0.845-1.012-0.517-0.062-0.978 0.288-1.029 0.785s0.328 0.95 0.844 1.013c0.518 0.062 0.979-0.289 1.03-0.786" fill="#1a2e35"/></g><g transform="translate(207.27 297.09)"><path d="m0 0c-0.108-0.131-0.858 0.35-1.872 0.279-1.014-0.055-1.724-0.627-1.842-0.51-0.058 0.051 0.046 0.281 0.355 0.539 0.303 0.256 0.832 0.521 1.464 0.56s1.179-0.158 1.5-0.375c0.329-0.219 0.449-0.434 0.395-0.493" fill="#1a2e35"/></g><g transform="translate(196.76 294.06)"><path d="m0 0c0.051-0.497-0.328-0.949-0.845-1.012s-0.978 0.288-1.029 0.785c-0.05 0.497 0.328 0.95 0.845 1.013 0.517 0.062 0.978-0.289 1.029-0.786" fill="#1a2e35"/></g><g transform="translate(197.31 296.23)"><path d="m0 0c-0.108-0.131-0.859 0.35-1.873 0.279-1.013-0.055-1.723-0.627-1.841-0.51-0.058 0.051 0.045 0.281 0.355 0.539 0.303 0.256 0.832 0.521 1.464 0.561 0.632 0.038 1.179-0.159 1.5-0.376 0.328-0.219 0.449-0.434 0.395-0.493" fill="#1a2e35"/></g><g transform="translate(201.49 288.96)"><path d="M 0,0 C -0.009,0.058 0.615,0.209 1.627,0.408 1.885,0.452 2.126,0.52 2.158,0.699 2.207,0.891 2.08,1.163 1.934,1.456 1.648,2.066 1.35,2.706 1.036,3.377 -0.216,6.114 -1.14,8.372 -1.029,8.421 -0.919,8.47 0.186,6.292 1.437,3.555 1.74,2.879 2.029,2.236 2.304,1.62 2.421,1.332 2.612,1.009 2.506,0.612 2.449,0.414 2.269,0.261 2.105,0.205 1.943,0.143 1.797,0.13 1.669,0.114 0.645,-0.01 0.008,-0.057 0,0" fill="#1a2e35"/></g><g transform="translate(197.3 300.23)"><path d="m0 0c-0.082-0.283-1.103-0.22-2.284-0.443-1.185-0.199-2.121-0.612-2.296-0.375-0.078 0.114 0.072 0.384 0.442 0.677 0.367 0.293 0.964 0.587 1.673 0.714 0.709 0.126 1.371 0.056 1.816-0.091 0.449-0.147 0.684-0.348 0.649-0.482" fill="#1a2e35"/></g><g transform="translate(206.7 300)"><path d="m0 0c-0.163-0.242-0.877-0.05-1.719-0.095-0.842-0.015-1.541-0.259-1.721-0.029-0.08 0.113 0.017 0.351 0.313 0.59 0.292 0.238 0.793 0.45 1.371 0.471 0.579 0.02 1.093-0.155 1.402-0.372 0.312-0.216 0.425-0.447 0.354-0.565" fill="#1a2e35"/></g><g><g transform="translate(186.8 292.05)" fill="#e9c6af"><path d="m0 0c-0.116 0.042-4.625 1.038-4.179-3.465s5.326-3.035 5.321-2.906c-5e-3 0.13-1.142 6.371-1.142 6.371" fill="#e9c6af"/></g><g transform="translate(185.94 287.15)" fill="#e0ae8e"><path d="m0 0c-0.021 0.012-0.073-0.063-0.199-0.137-0.124-0.071-0.342-0.134-0.586-0.07-0.492 0.128-0.968 0.843-1.07 1.653-0.052 0.408-5e-3 0.807 0.108 1.145 0.105 0.343 0.295 0.594 0.531 0.66 0.232 0.079 0.416-0.048 0.484-0.169 0.073-0.12 0.053-0.212 0.078-0.218 0.013-0.01 0.089 0.085 0.034 0.267-0.027 0.088-0.09 0.189-0.205 0.265-0.117 0.077-0.28 0.106-0.446 0.072-0.344-0.059-0.625-0.409-0.75-0.78-0.143-0.374-0.206-0.823-0.147-1.282 0.119-0.904 0.667-1.707 1.337-1.831 0.325-0.052 0.58 0.071 0.706 0.19 0.128 0.125 0.142 0.228 0.125 0.235" fill="#e0ae8e"/></g><g transform="translate(208.14 306.58)"><path d="m0 0c-0.309-1.792-3.945-3.435-6.959-3.347-2.779 0.081-4.151 1.46-6.171 2.44-1.278 0.62-1.278 0.62-3.012 0.338-1.402-0.228-2.13-1.882-2.917-3.065 1.499-3.269 0.893-7.071 0.258-10.612-0.071-0.391-0.157-0.813-0.456-1.076-0.507-0.446-1.327-0.178-1.825 0.277-0.797 0.73-1.16 1.812-1.421 2.861-0.596 2.389-0.824 4.89-0.446 7.323 0.377 2.432 1.384 4.796 3.046 6.611 2.077 2.27 5.114 3.578 8.186 3.736 3.073 0.158 6.159-0.793 8.732-2.479 1.194-0.782 2.311-1.749 2.985-3.007"/></g><g transform="translate(202.16 286.68)" fill="#e0ae8e"><path d="m0 0c-0.765 0.356-1.53 0.713-2.295 1.07-0.132 0.062-0.273 0.125-0.418 0.106-0.162-0.022-0.292-0.144-0.397-0.27-0.532-0.645-0.666-1.618-0.254-2.346 0.412-0.727 1.382-1.112 2.154-0.792 0.814 0.337 1.209 1.282 1.272 2.16z" fill="#e0ae8e"/></g></g><g transform="translate(201.02 284.28)"><path d="m0 0c0.036-0.045-0.479-0.369-1.346-0.121-0.417 0.126-0.895 0.447-1.19 0.968-0.3 0.506-0.411 1.23-0.151 1.882 0.124 0.323 0.318 0.608 0.556 0.834 0.121 0.113 0.243 0.205 0.39 0.292 0.145 0.107 0.457 0.124 0.605 0.035 0.525-0.292 0.878-0.541 1.23-0.766 0.673-0.447 1.071-0.754 1.035-0.816-0.037-0.062-0.5 0.132-1.22 0.497-0.418 0.219-0.824 0.43-1.225 0.64-0.096 0.026-0.086 0.026-0.178-0.022-0.09-0.058-0.196-0.14-0.283-0.228-0.179-0.178-0.327-0.402-0.424-0.653-0.199-0.503-0.131-1.046 0.086-1.465 0.216-0.425 0.563-0.705 0.898-0.853 0.69-0.295 1.203-0.141 1.217-0.224" fill="#1a2e35"/></g><g transform="translate(200.29 294.64)"><path d="m0 0c-0.051-2e-3 -0.045 0.419-0.246 1.124-0.198 0.691-0.679 1.698-1.723 2.468-1.01 0.772-2.661 1.198-4.254 0.599-1.58-0.548-2.94-2.23-2.923-4.19-0.018-1.961 1.343-3.643 2.923-4.192 1.593-0.599 3.244-0.173 4.254 0.6 1.044 0.769 1.525 1.776 1.723 2.467 0.201 0.706 0.195 1.126 0.246 1.124 0.018 0 0.03-0.103 0.037-0.303 0.011-0.199-8e-3 -0.496-0.086-0.87-0.146-0.736-0.597-1.839-1.697-2.711-1.061-0.873-2.865-1.395-4.641-0.759-1.76 0.581-3.301 2.45-3.28 4.644-0.02 2.193 1.52 4.062 3.28 4.642 1.776 0.636 3.58 0.115 4.641-0.758 1.099-0.872 1.551-1.976 1.697-2.712 0.078-0.373 0.097-0.671 0.086-0.87-7e-3 -0.199-0.019-0.303-0.037-0.303" fill="#1a2e35"/></g><g transform="translate(211.52 295.08)"><path d="m0 0c-0.05-2e-3 -0.045 0.408-0.241 1.094-0.195 0.674-0.663 1.654-1.68 2.402-0.983 0.751-2.591 1.165-4.141 0.583-1.537-0.535-2.86-2.171-2.843-4.079-0.017-1.908 1.306-3.543 2.843-4.079 1.55-0.582 3.158-0.168 4.141 0.583 1.017 0.748 1.485 1.728 1.68 2.402 0.196 0.686 0.191 1.096 0.241 1.094 0.018 0 0.031-0.101 0.038-0.295 0.011-0.194-7e-3 -0.484-0.083-0.849-0.141-0.717-0.581-1.794-1.653-2.645-1.034-0.852-2.794-1.361-4.527-0.74-1.718 0.565-3.221 2.389-3.2 4.53-0.02 2.14 1.483 3.963 3.2 4.529 1.732 0.62 3.493 0.111 4.527-0.741 1.072-0.851 1.511-1.927 1.653-2.645 0.076-0.365 0.094-0.654 0.083-0.849-7e-3 -0.194-0.02-0.295-0.038-0.295" fill="#1a2e35"/></g><g transform="translate(202.36 296.11)"><path d="m0 0c-0.103-0.096-0.548 0.192-1.149 0.173-0.602 0-1.034-0.306-1.141-0.215-0.138 0.072 0.282 0.721 1.132 0.735 0.848 0.013 1.291-0.615 1.158-0.693" fill="#1a2e35"/></g><g transform="translate(191.17 295.3)"><path d="m0 0c0.086-0.116-0.788-0.913-1.951-1.781-1.163-0.869-2.176-1.479-2.262-1.364s0.787 0.913 1.951 1.781c1.163 0.868 2.176 1.479 2.262 1.364" fill="#1a2e35"/></g><g transform="translate(283.99 294.86)"><path d="m0 0c0-0.144-11.568-0.26-25.835-0.26-14.272 0-25.838 0.116-25.838 0.26s11.566 0.26 25.838 0.26c14.267 0 25.835-0.116 25.835-0.26" fill="#1a2e35"/></g><g transform="translate(260.09 289.45)"><path d="m0 0c0-0.144-6.143-0.26-13.719-0.26-7.578 0-13.72 0.116-13.72 0.26s6.142 0.26 13.72 0.26c7.576 0 13.719-0.116 13.719-0.26" fill="#1a2e35"/></g><g><path d="m438.79 254.91s13.734-6.692 18.558-23.97c4.823-17.28 19.594-62.279 19.594-62.279s8.441-9.929 9.345-17.284c0.904-7.353-0.904-25.139-3.617-28.455s-6.582-2.767-6.582-2.767l-35.528 3.37-13.991 93.676z" fill="#7aaefd"/><path d="m321.31 256.54s-25.403-7.968-31.733-14.901l20.8-96.768-0.332-30.532h120.44c0 1.508 1.081 101.37 1.081 101.37l7.235 39.19-42.807 7.536-8.441 6.632-47.63-2.411-7.235-7.235z" fill="#7aaefd"/><path d="m330.96 172.59c-0.371 0.821-0.901 1.708-1.784 1.89-1.451 0.299-2.421-1.415-2.914-2.813-3.913-11.076-9.089-21.264-15.822-30.891l-0.309-14.858c7.021 5.908 13.945 12.237 18.42 20.248 4.476 8.011 6.188 18.062 2.409 26.424" opacity=".3"/><path d="m289.57 241.64s-8.371-11.411-11.846-18.859c-3.476-7.449-32.277-70.015-34.014-76.47-1.738-6.455-6.207-26.814 6.951-31.531h27.063l27.162 54.925 1.39 63.751z" fill="#7aaefd"/></g><g fill="#1a2e35"><path d="m279.46 154.46c-0.036-0.041-0.604 0.532-1.85 1.241-1.243 0.703-3.175 1.511-5.68 2.058-1.25 0.274-2.639 0.487-4.14 0.581-1.5 0.095-3.112 0.067-4.747-0.309-3.282-0.731-6.544-2.805-9.11-5.718-2.606-2.912-4.214-6.348-5.159-9.591-0.959-3.251-1.369-6.298-1.627-8.854-0.254-2.559-0.349-4.643-0.437-6.082-0.042-0.673-0.077-1.222-0.104-1.657-0.029-0.379-0.053-0.578-0.071-0.577-0.018 0-0.03 0.2-0.034 0.58 1e-3 0.436 3e-3 0.986 6e-3 1.661 0.027 1.442 0.065 3.531 0.272 6.108 0.214 2.573 0.588 5.651 1.535 8.955 0.931 3.293 2.563 6.826 5.229 9.801 2.625 2.983 5.993 5.112 9.396 5.842 1.697 0.377 3.363 0.387 4.88 0.273 1.525-0.116 2.932-0.353 4.194-0.655 2.528-0.599 4.469-1.472 5.701-2.241 0.615-0.389 1.06-0.738 1.342-0.996 0.278-0.264 0.416-0.407 0.404-0.42"/><path d="m266.63 165.4c-3e-3 0.036 0.32 0.087 0.91 0.146 0.589 0.073 1.45 0.09 2.51 0.036 1.062-0.047 2.32-0.229 3.691-0.546 1.365-0.343 2.838-0.837 4.31-1.529 1.465-0.709 2.776-1.544 3.901-2.387 1.11-0.866 2.043-1.73 2.747-2.527 0.71-0.789 1.239-1.469 1.553-1.971 0.325-0.497 0.489-0.78 0.459-0.799-0.08-0.057-0.813 1.027-2.279 2.517-0.726 0.75-1.666 1.569-2.767 2.395-1.118 0.806-2.407 1.609-3.838 2.302-1.439 0.676-2.874 1.173-4.203 1.534-1.336 0.335-2.562 0.551-3.603 0.643-2.08 0.201-3.385 0.088-3.391 0.186"/><path d="m291.09 168.41c-6e-3 -0.035-0.453 1e-3 -1.252 0.096-0.798 0.102-1.957 0.218-3.39 0.325-2.863 0.217-6.844 0.268-11.195-0.246-4.351-0.527-8.208-1.516-10.939-2.403-1.368-0.44-2.466-0.827-3.218-1.115-0.754-0.281-1.179-0.421-1.193-0.387-0.015 0.032 0.383 0.235 1.116 0.575 0.731 0.346 1.815 0.788 3.176 1.277 2.72 0.982 6.603 2.039 10.996 2.569 4.394 0.521 8.416 0.41 11.29 0.097 1.438-0.154 2.596-0.327 3.388-0.492 0.793-0.157 1.227-0.261 1.221-0.296"/><path d="m368.18 221.86c-0.011-8e-3 -0.104 0.104-0.275 0.325-0.194 0.259-0.437 0.585-0.739 0.989-0.663 0.919-1.578 2.187-2.72 3.769-2.336 3.297-5.595 7.894-9.426 13.3l0.42 0.059c-1.458-4.282-3.067-9.006-4.761-13.979l-0.107-0.315-0.273 0.176c-0.178 0.114-0.369 0.238-0.561 0.362-2.24 1.419-4.216 3.126-5.893 4.975-1.67 1.858-3.056 3.84-4.207 5.818-2.301 3.966-3.688 7.878-4.63 11.193-0.936 3.324-1.426 6.077-1.753 7.973-0.158 0.908-0.283 1.633-0.379 2.181-0.045 0.249-0.096 0.432-0.127 0.557-0.047 0.116-0.07 0.18-0.063 0.185 0.11 0.048 0.404-1.001 0.768-2.886 0.389-1.884 0.932-4.616 1.908-7.908 0.981-3.281 2.394-7.148 4.69-11.053 1.149-1.947 2.523-3.894 4.17-5.717 1.656-1.814 3.597-3.485 5.794-4.879 0.189-0.121 0.377-0.242 0.551-0.354l-0.381-0.139c1.709 4.967 3.332 9.686 4.804 13.965l0.153 0.445 0.267-0.386c3.769-5.45 6.974-10.085 9.271-13.408 1.096-1.614 1.975-2.909 2.61-3.846 0.277-0.422 0.5-0.762 0.678-1.032 0.149-0.236 0.222-0.363 0.211-0.37"/></g><path d="m399.53 175.67c-1.115-11.188 1.354-22.706 6.959-32.452 5.604-9.746 13.815-18.434 24.046-23.096 0.331 9.931-0.147 21.629 0.184 31.561z" opacity=".3"/><path d="m398.4 188.74s-4.375-1.215-1.094-10.177c3.282-8.963 4.375-8.421 6.563-16.805 2.187-8.385 4.739-16.037 8.566-20.776 3.828-4.739 18.046-14.399 18.046-14.399l12.76 12.03s-2.103 8.966-1.599 15.055c0.505 6.09 1.781 21.036 1.599 23.588-0.183 2.552-2.916 8.75-2.916 8.75v4.239l-6.563 20.186s-3.645 1.64-4.922-4.192l-2.187 6.19s-3.463 0.554-4.374-6.555 0.728-16.952 0.728-16.952l-1.822-12.395-2.734-8.385-2.369-0.364s-3.568 0.974-5.521 7.687-7.239 14.733-12.161 13.275" fill="#e9c6af"/><g fill="#e0ae8e"><path d="m438.97 157.03c-0.014 0-0.033 0.157-0.059 0.46-0.024 0.348-0.054 0.789-0.092 1.336-0.066 1.223-0.157 2.913-0.27 5.019-0.196 4.353-0.47 10.41-0.788 17.481l0.057-0.148c-0.585 0.702-1.632 0.911-2.582 0.673-0.966-0.233-1.83-0.835-2.366-1.733-1.114-1.794-1.175-4.131-1.524-6.387-0.691-5.108-1.351-9.973-1.951-14.407-0.304-2.215-0.624-4.322-1.056-6.273-0.42-1.953-1.01-3.729-1.582-5.316-0.564-1.592-1.063-3.032-1.372-4.329-0.312-1.295-0.436-2.44-0.412-3.375 0.038-1.884 0.585-2.839 0.504-2.859-0.017-7e-3 -0.121 0.232-0.306 0.699-0.15 0.474-0.362 1.195-0.401 2.152-0.056 0.953 0.042 2.127 0.331 3.448 0.287 1.323 0.766 2.785 1.308 4.384 0.551 1.599 1.11 3.35 1.508 5.288 0.409 1.935 0.712 4.032 1.002 6.245 0.588 4.436 1.234 9.302 1.911 14.413 0.161 1.139 0.284 2.264 0.483 3.386 0.201 1.115 0.511 2.237 1.125 3.204 0.583 0.984 1.602 1.705 2.683 1.949 1.066 0.267 2.341 0.035 3.07-0.847l0.054-0.067 3e-3 -0.081c0.243-7.074 0.451-13.133 0.601-17.488 0.055-2.108 0.099-3.801 0.13-5.025 6e-3 -0.548 0.011-0.99 0.013-1.339-1e-3 -0.304-7e-3 -0.462-0.022-0.463"/><path d="m431.99 180.01c-0.031-0.013-0.234 0.388-0.538 1.141-0.299 0.754-0.697 1.862-1.068 3.267-0.373 1.404-0.718 3.108-0.916 5.023-0.098 0.956-0.167 1.978-0.055 3.044 0.109 1.055 0.423 2.177 1.1 3.125 0.576 0.822 1.399 1.477 2.333 1.751l0.197 0.057 0.099-0.177c1.848-3.259 3.453-6.137 4.582-8.207 0.518-0.969 0.953-1.785 1.307-2.447 0.298-0.578 0.447-0.902 0.419-0.918-0.027-0.015-0.231 0.278-0.577 0.828-0.39 0.641-0.87 1.431-1.441 2.37-1.208 2.026-2.869 4.871-4.735 8.121l0.295-0.119c-0.804-0.24-1.53-0.814-2.054-1.56-0.613-0.858-0.907-1.878-1.018-2.881-0.114-1.005-0.059-1.998 0.025-2.941 0.17-1.892 0.473-3.58 0.796-4.98 0.321-1.402 0.664-2.518 0.902-3.288 0.243-0.77 0.383-1.195 0.347-1.209"/><path d="m428.94 178.36c-0.036-1e-3 -0.076 0.413-0.118 1.162-0.035 0.859-0.078 1.92-0.129 3.173-0.086 2.68-0.169 6.381-0.229 10.471-0.03 4.085-0.189 7.799 0.163 10.491 0.17 1.341 0.438 2.408 0.683 3.122 0.243 0.716 0.442 1.085 0.468 1.074 0.091-0.029-0.557-1.578-0.785-4.235-0.254-2.649-0.038-6.354-8e-3 -10.445 0.059-4.089 0.084-7.792 0.076-10.473-0.015-1.254-0.027-2.315-0.037-3.175-0.021-0.75-0.049-1.165-0.084-1.165"/><path d="m418.15 144.75c-0.074 0.061 0.725 1.001 1.712 2.705 0.5 0.848 1.008 1.905 1.484 3.112 0.454 1.215 0.863 2.585 1.138 4.058 0.257 1.476 0.353 2.902 0.353 4.2-0.024 1.298-0.13 2.467-0.302 3.436-0.329 1.941-0.749 3.1-0.657 3.133 0.033 0.011 0.16-0.269 0.362-0.79 0.213-0.518 0.443-1.297 0.656-2.275 0.222-0.977 0.369-2.168 0.421-3.494 0.027-1.327-0.057-2.791-0.32-4.303-0.282-1.508-0.715-2.908-1.204-4.141-0.513-1.225-1.067-2.288-1.617-3.126-0.542-0.842-1.03-1.492-1.41-1.903-0.372-0.418-0.589-0.635-0.616-0.612"/></g><path d="m440.55 151.02 11.073-3.843s10.573 5.468 17.864 0c7.291-5.469 13.625-19.881 11.619-25.714 0 0-5.032-6.213-8.86-7.124s-18.709 2.694-24.9 3.997c-6.208 1.307-16.867 8.244-16.867 8.244z" fill="#e9c6af"/><path d="m441.91 134.71c-0.035-1e-3 -0.076 0.349-0.118 0.98-0.044 0.75-0.097 1.64-0.157 2.675-0.118 2.26-0.27 5.383-0.317 8.84-0.052 3.458 0.047 6.594 0.256 8.855 0.098 1.13 0.222 2.042 0.335 2.667 0.114 0.625 0.193 0.966 0.23 0.962 0.081-0.014-0.092-1.401-0.198-3.655-0.114-2.254-0.153-5.373-0.101-8.822 0.062-3.38 0.119-6.436 0.163-8.835 0.012-1.132 0.01-2.049-8e-3 -2.683-0.021-0.633-0.049-0.984-0.085-0.984" fill="#e0ae8e"/><g fill="#1a2e35"><path d="m478.42 147.61c-0.083-0.077-1.217 1.499-3.683 3.32-2.425 1.818-6.367 3.756-11.034 4.018-4.669 0.254-8.8-1.24-11.411-2.78-2.65-1.54-3.95-2.982-4.024-2.896-0.022 0.021 0.285 0.39 0.912 0.988 0.625 0.601 1.602 1.402 2.924 2.224 2.607 1.648 6.828 3.245 11.628 2.984 4.798-0.269 8.818-2.318 11.228-4.244 1.223-0.962 2.106-1.865 2.661-2.531 0.558-0.664 0.822-1.064 0.799-1.083"/><path d="m477 156.85c-0.071-0.107-1.55 1.386-4.606 2.541-3.009 1.179-7.676 1.723-12.467 0.374-2.391-0.668-4.576-1.623-6.447-2.683-1.868-1.07-3.429-2.239-4.669-3.299-1.244-1.06-2.194-1.986-2.845-2.63-0.652-0.646-1.014-1.002-1.042-0.977-0.026 0.023 0.287 0.425 0.895 1.116 0.609 0.69 1.525 1.662 2.749 2.768 1.223 1.107 2.784 2.325 4.672 3.437 1.892 1.103 4.109 2.089 6.547 2.77 4.908 1.383 9.699 0.762 12.74-0.533 1.536-0.631 2.68-1.356 3.409-1.924 0.375-0.27 0.627-0.53 0.81-0.689 0.179-0.165 0.266-0.257 0.254-0.271"/><path d="m477.09 164.85c-0.028-0.103-1.964 0.489-5.18 0.925-1.605 0.228-3.535 0.355-5.675 0.359-2.141-0.031-4.493-0.207-6.929-0.623-2.433-0.441-4.704-1.079-6.727-1.78-2.011-0.735-3.782-1.513-5.213-2.276-2.874-1.506-4.491-2.723-4.551-2.636-0.022 0.029 0.373 0.343 1.108 0.885 0.364 0.278 0.819 0.604 1.375 0.941 0.552 0.342 1.165 0.761 1.894 1.135 1.422 0.811 3.197 1.634 5.223 2.402 2.038 0.735 4.336 1.396 6.801 1.842 2.468 0.421 4.852 0.585 7.019 0.591 2.167-0.031 4.115-0.199 5.729-0.476 0.813-0.102 1.531-0.287 2.167-0.42 0.638-0.127 1.177-0.278 1.613-0.414 0.877-0.261 1.356-0.42 1.346-0.455"/><path d="m392.26 262.77s0.514-0.958 0.767-2.944c0.272-1.973 0.234-4.928-0.42-8.589-0.329-1.83-0.773-3.841-1.432-5.987-0.687-2.149-1.729-4.347-2.907-6.651-2.385-4.6-5.387-9.614-8.862-14.962l-0.407-0.625-1e-3 0.748c-5e-3 3.533-0.01 7.243-0.016 11.095l0.388-0.186c-2.976-2.403-6.11-4.933-9.339-7.538l0.082 0.118c-2.165-6.858-3.589-14.496-4.154-22.448-0.914-12.17-0.177-23.81 0.397-34.37 0.492-10.575 0.814-20.097 1.144-28.093 0.317-7.996 0.606-14.465 0.847-18.933 0.131-2.214 0.233-3.942 0.304-5.143 0.038-0.569 0.067-1.013 0.089-1.337 0.017-0.302 0.013-0.457 0.013-0.457s-0.032 0.152-0.066 0.452c-0.034 0.323-0.081 0.766-0.14 1.334-0.111 1.173-0.255 2.905-0.402 5.139-0.304 4.465-0.649 10.934-1.013 18.929-0.357 8.001-0.783 17.519-1.255 28.084-0.6 10.552-1.354 22.217-0.437 34.434 0.567 7.984 2.005 15.664 4.194 22.563l0.023 0.072 0.059 0.047c3.233 2.599 6.373 5.123 9.355 7.519l0.389 0.313-1e-3 -0.499c-6e-3 -3.852-0.011-7.562-0.016-11.095l-0.408 0.122c6.87 10.654 12.457 19.911 13.318 27.401 0.688 3.634 0.765 6.565 0.539 8.527-0.096 0.985-0.289 1.72-0.41 2.216-0.158 0.486-0.222 0.744-0.222 0.744"/></g><g fill="#fff"><path d="m374.32 133.78-0.357 0.013c-1.447-0.041-2.736-1.365-2.741-2.812-4e-3 -1.447 1.277-2.777 2.723-2.828 1.447-0.05 2.818 1.189 2.914 2.633 0.095 1.444-1.099 2.852-2.539 2.994"/><path d="m374.32 172.32-0.357 0.013c-1.447-0.042-2.736-1.365-2.741-2.812-4e-3 -1.447 1.277-2.778 2.723-2.828 1.447-0.051 2.818 1.188 2.914 2.632 0.095 1.444-1.099 2.853-2.539 2.995"/><path d="m373.95 206.8c1.447-0.051 2.817 1.187 2.913 2.632 0.096 1.444-1.099 2.853-2.538 2.995l-0.358 0.012c-1.447-0.041-2.736-1.364-2.74-2.812-5e-3 -1.447 1.277-2.777 2.723-2.827"/></g><g><path d="m330.77 307.93c-3.506 3.881-7.043 7.805-9.599 12.369-2.555 4.564-4.079 9.889-3.234 15.051 0.495 3.018 1.778 5.893 1.982 8.945 0.28 4.2-1.485 8.588 4e-3 12.525 2.327 6.152 10.609 7.103 15.63 11.353 3.91 3.31 5.815 8.684 10.115 11.467 3.758 2.432 8.586 2.378 13.018 1.752 4.431-0.628 8.89-1.746 13.326-1.149 3.162 0.425 6.14 1.704 9.238 2.471 3.097 0.767 6.553 0.969 9.312-0.634 2.758-1.603 4.307-5.519 2.498-8.148 5.14 2.371 11.669-1.636 13.077-7.119 1.406-5.483-1.409-11.406-5.766-15.022-4.355-3.615-9.988-5.297-15.551-6.346-15.748-2.968-32.831-1.293-46.402 7.23"/><path d="m386.14 254.99c-0.769 5.961-1.398 10.935-1.437 11.553 0 0 19.921 4.477 18.824 24.62-0.531 9.735-3.256 29.697-5.93 47.726-2.872 19.364-20.155 33.264-39.687 31.957l-1.942-0.13c-20.859-2.624-30.284-21.805-27.083-42.583l11.254-69.671s4.803-15.412 15.076-18.08l12.965-18.52 2.142 7.973 9.664 8.412s2.216 2.399 4.763 7.093c2.082 3.835 1.645 7.779 1.391 9.65" fill="#e9c6af"/><path d="m384.71 266.83s-12.651-1.885-26.738 5.703c0 0 7.171-14.071 27.134-10.914z" fill="#e0ae8e"/></g><g fill="#1a2e35"><path d="m391.12 321.58c0.155-1.514-0.999-2.894-2.577-3.085-1.576-0.191-2.982 0.878-3.137 2.393-0.154 1.514 0.999 2.896 2.574 3.087 1.579 0.191 2.985-0.881 3.14-2.395"/><path d="m393.93 328.72c-0.332-0.398-2.616 1.068-5.71 0.853-3.092-0.171-5.255-1.914-5.616-1.558-0.176 0.157 0.141 0.858 1.082 1.643 0.925 0.782 2.538 1.59 4.465 1.71 1.927 0.119 3.595-0.481 4.575-1.146 1.001-0.666 1.368-1.322 1.204-1.502"/><path d="m361.9 319.49c0.155-1.514-0.999-2.894-2.578-3.085-1.575-0.191-2.981 0.878-3.136 2.393-0.155 1.514 0.999 2.896 2.575 3.087 1.578 0.191 2.984-0.881 3.139-2.395"/><path d="m363.57 326.11c-0.332-0.398-2.62 1.067-5.71 0.852-3.092-0.171-5.256-1.914-5.617-1.557-0.175 0.157 0.139 0.856 1.083 1.642 0.925 0.783 2.537 1.59 4.464 1.711 1.928 0.118 3.595-0.482 4.576-1.146 0.997-0.667 1.367-1.323 1.204-1.502"/><path d="m376.32 303.92c-0.026 0.175 1.874 0.636 4.963 1.243 0.784 0.133 1.521 0.341 1.618 0.889 0.148 0.583-0.239 1.412-0.684 2.305-0.87 1.862-1.781 3.813-2.738 5.859-3.816 8.345-6.635 15.229-6.298 15.38 0.338 0.151 3.705-6.491 7.522-14.838 0.922-2.059 1.804-4.022 2.641-5.9 0.36-0.878 0.942-1.861 0.618-3.072-0.173-0.605-0.724-1.072-1.221-1.242-0.496-0.188-0.941-0.227-1.329-0.276-3.124-0.379-5.068-0.523-5.092-0.348"/><path d="m363.55 338.29c-0.249-0.861-3.364-0.669-6.963-1.35-3.614-0.607-6.469-1.865-7.001-1.144-0.239 0.348 0.218 1.173 1.347 2.066 1.118 0.891 2.938 1.789 5.1 2.178 2.163 0.383 4.181 0.17 5.538-0.279 1.369-0.447 2.083-1.063 1.979-1.471"/><path d="m392.19 337.6c-0.497-0.739-2.677-0.152-5.241-0.29-2.569-0.046-4.7-0.788-5.249-0.086-0.242 0.341 0.052 1.068 0.956 1.796 0.888 0.726 2.416 1.372 4.18 1.436 1.764 0.062 3.333-0.472 4.272-1.132 0.953-0.662 1.299-1.365 1.082-1.724"/></g><g><path d="m331.52 313.34c-0.353 0.126-14.103 3.166-12.743-10.565s16.241-9.256 16.225-8.86c-0.015 0.397-3.482 19.425-3.482 19.425" fill="#e9c6af"/><path d="m328.92 298.42c-0.065 0.038-0.223-0.191-0.609-0.417-0.376-0.219-1.042-0.411-1.784-0.213-1.503 0.389-2.953 2.57-3.265 5.039-0.159 1.246-0.014 2.462 0.33 3.491 0.32 1.046 0.9 1.812 1.618 2.014 0.71 0.24 1.27-0.146 1.476-0.516 0.222-0.366 0.162-0.648 0.237-0.665 0.042-0.03 0.272 0.259 0.106 0.816-0.084 0.266-0.277 0.575-0.626 0.806-0.356 0.236-0.854 0.324-1.357 0.219-1.052-0.178-1.908-1.247-2.288-2.376-0.437-1.14-0.629-2.51-0.45-3.909 0.362-2.759 2.035-5.207 4.077-5.584 0.99-0.157 1.767 0.214 2.151 0.58 0.392 0.381 0.433 0.695 0.384 0.715" fill="#e0ae8e"/><path d="m396.58 357.65c-0.943-5.466-12.028-10.474-21.22-10.206-8.473 0.247-12.658 4.452-18.815 7.439-3.897 1.891-3.897 1.891-9.185 1.032-4.275-0.695-6.494-5.74-8.895-9.345 4.573-9.969 2.725-21.562 0.786-32.357-0.213-1.192-0.479-2.48-1.389-3.281-1.544-1.361-4.046-0.546-5.565 0.844-2.43 2.225-3.536 5.525-4.333 8.722-1.815 7.284-2.512 14.912-1.36 22.329 1.152 7.418 4.221 14.623 9.289 20.16 6.334 6.92 15.592 10.909 24.961 11.391 9.368 0.481 18.778-2.418 26.624-7.559 3.641-2.384 7.045-5.334 9.102-9.169"/><path d="m378.35 296.97c-2.333 1.088-4.666 2.176-6.998 3.264-0.403 0.188-0.833 0.381-1.273 0.321-0.496-0.066-0.893-0.437-1.211-0.822-1.623-1.966-2.033-4.934-0.776-7.152s4.213-3.39 6.569-2.415c2.48 1.027 3.685 3.908 3.879 6.587z" fill="#e0ae8e"/></g><g fill="#1a2e35"><path d="m374.88 289.67c0.02-0.061-0.324-0.262-1.024-0.408-0.694-0.133-1.768-0.186-3.011 0.221-1.231 0.395-2.618 1.353-3.476 2.889-0.873 1.497-1.188 3.611-0.426 5.52 0.363 0.948 0.932 1.785 1.624 2.447 0.351 0.335 0.715 0.609 1.135 0.859 0.219 0.122 0.493 0.241 0.807 0.257 0.31 0.017 0.587-0.062 0.813-0.157 0.457-0.205 0.753-0.424 1.09-0.619 0.326-0.2 0.645-0.396 0.954-0.586 0.604-0.378 1.173-0.734 1.705-1.066 2.076-1.317 3.323-2.195 3.25-2.319-0.072-0.124-1.451 0.528-3.621 1.682-0.552 0.299-1.142 0.618-1.768 0.957-0.318 0.175-0.645 0.355-0.981 0.54-0.334 0.179-0.697 0.408-0.989 0.521-0.319 0.111-0.458 0.103-0.766-0.073-0.305-0.193-0.637-0.447-0.92-0.729-0.575-0.569-1.053-1.284-1.361-2.087-0.64-1.611-0.41-3.363 0.296-4.687 0.699-1.345 1.826-2.219 2.892-2.659 1.074-0.446 2.048-0.513 2.71-0.508 0.667 0.016 1.045 0.081 1.067 5e-3"/><path d="m372.67 321.23c-0.081-7e-3 0.01 1.279-0.547 3.477-0.551 2.155-1.988 5.324-5.228 7.775-1.606 1.197-3.628 2.214-5.958 2.622-2.315 0.392-4.926 0.316-7.41-0.631-1.25-0.436-2.456-1.094-3.564-1.924-1.12-0.813-2.137-1.823-2.975-2.994-1.733-2.305-2.709-5.269-2.737-8.323 0.027-3.055 1.003-6.019 2.736-8.326 0.838-1.171 1.855-2.181 2.976-2.995 1.107-0.83 2.313-1.488 3.564-1.923 2.484-0.948 5.096-1.024 7.411-0.631 2.33 0.408 4.352 1.424 5.957 2.622 3.241 2.452 4.677 5.621 5.228 7.775 0.557 2.198 0.466 3.483 0.547 3.476 9e-3 0 0.014-0.079 0.015-0.232-3e-3 -0.186-6e-3 -0.411-9e-3 -0.685 1e-3 -0.302-0.015-0.674-0.088-1.11-0.057-0.437-0.112-0.945-0.268-1.498-0.235-1.123-0.739-2.455-1.551-3.871-0.82-1.411-2.013-2.889-3.65-4.148-1.633-1.248-3.703-2.314-6.102-2.754-2.382-0.424-5.078-0.362-7.654 0.605-1.295 0.444-2.546 1.119-3.696 1.975-1.163 0.839-2.219 1.882-3.091 3.092-1.801 2.386-2.82 5.462-2.846 8.628 0.027 3.166 1.046 6.241 2.847 8.625 0.872 1.211 1.927 2.254 3.091 3.092 1.149 0.855 2.4 1.53 3.695 1.975 2.576 0.966 5.271 1.029 7.653 0.604 2.399-0.439 4.469-1.506 6.102-2.753 1.637-1.259 2.831-2.737 3.65-4.148 0.813-1.416 1.317-2.748 1.551-3.871 0.157-0.553 0.212-1.061 0.269-1.498 0.073-0.436 0.089-0.809 0.088-1.111 3e-3 -0.274 6e-3 -0.499 9e-3 -0.684-1e-3 -0.154-6e-3 -0.233-0.015-0.233"/><path d="m406.91 322.58c-0.079-7e-3 9e-3 1.247-0.535 3.387-0.537 2.099-1.938 5.186-5.095 7.573-1.564 1.167-3.533 2.157-5.804 2.553-2.254 0.383-4.797 0.308-7.216-0.615-1.218-0.424-2.393-1.065-3.471-1.873-1.092-0.793-2.082-1.776-2.899-2.917-1.687-2.245-2.637-5.131-2.666-8.106 0.028-2.975 0.978-5.862 2.665-8.109 0.817-1.14 1.808-2.124 2.899-2.917 1.079-0.809 2.254-1.45 3.472-1.874 2.42-0.923 4.962-0.997 7.217-0.615 2.271 0.397 4.24 1.387 5.804 2.554 3.156 2.387 4.557 5.474 5.094 7.573 0.544 2.14 0.456 3.393 0.535 3.386 0.019 0 0.021-0.307 8e-3 -0.894 1e-3 -0.294-0.014-0.657-0.085-1.082-0.056-0.425-0.11-0.92-0.261-1.46-0.485-2.143-1.856-5.326-5.068-7.816-1.591-1.217-3.609-2.257-5.948-2.686-2.322-0.414-4.95-0.353-7.46 0.589-1.263 0.434-2.483 1.092-3.604 1.925-1.134 0.818-2.163 1.835-3.014 3.015-1.755 2.326-2.748 5.325-2.774 8.411 0.027 3.086 1.02 6.084 2.775 8.409 0.851 1.179 1.88 2.196 3.014 3.013 1.12 0.834 2.34 1.492 3.603 1.925 2.51 0.942 5.138 1.003 7.46 0.589 2.338-0.428 4.356-1.468 5.947-2.685 3.212-2.49 4.584-5.672 5.069-7.816 0.151-0.54 0.205-1.035 0.261-1.461 0.071-0.425 0.086-0.788 0.085-1.082 0.013-0.587 0.011-0.894-8e-3 -0.894"/><path d="m378.97 325.74c-0.057-0.058-0.387 0.22-0.995 0.508-0.603 0.288-1.505 0.571-2.519 0.553-1.014-0.015-1.905-0.33-2.496-0.64-0.596-0.311-0.914-0.604-0.973-0.548-0.048 0.038 0.184 0.438 0.78 0.862 0.587 0.42 1.555 0.83 2.681 0.846 1.125 0.02 2.104-0.354 2.707-0.752 0.612-0.4 0.861-0.788 0.815-0.829"/><path d="m344.85 323.27c0.086-0.115-2.72-2.355-6.267-5.003-3.547-2.649-6.492-4.702-6.578-4.587s2.719 2.355 6.267 5.004c3.546 2.648 6.492 4.701 6.578 4.586"/></g><g><path d="m333.02 258.19c-1.391-13.572 3.769-27.897 14.654-36.121 0.854-0.645 1.926-1.285 2.933-0.921 0.699 0.252 1.147 0.923 1.519 1.567 3.102 5.372 4.144 11.3 3.245 17.437-1.724-4.539-3.204-8.994-4.943-13.741-9.485 5.759-15.396 18.003-17.408 31.779" opacity=".3"/><path d="m369.87 227.33 7.986 2.917 1.323-13.509s8.619 15.709 12.186 22.876c3.566 7.167 1.732 19.816 1.732 19.816s1.275-11.018-7.361-25.072l-6.519-10.595v11.096z" opacity=".3"/><path d="m276.95 158.67c-3.562 1.682-7.66 1.907-11.573 1.452-4.133-0.481-8.281-1.746-11.519-4.359s-5.434-6.73-5.03-10.87l0.401-0.057c2.786 7.542 8.33 13.031 15.478 13.695 7.149 0.663 14.124-2.517 19.031-7.757-0.477 3.91-3.226 6.213-6.788 7.896" opacity=".3"/><path d="m478.94 150.96c-2.676 2.889-6.437 4.639-10.316 5.315-6.812 1.188-14.123-0.928-19.247-5.572l1.524 1.237c3.871 2.266 8.334 3.61 12.817 3.483 4.484-0.127 8.971-1.786 12.218-4.881 2.985-2.845 4.78-6.686 6.492-10.437 0.668 3.879-0.812 7.966-3.488 10.855" opacity=".3"/></g><g><path d="m427.45 213.7c-0.033 0.015 0.096 0.402 0.357 1.092 0.309 0.79 0.689 1.761 1.136 2.906 0.968 2.45 2.295 5.838 3.696 9.603 1.401 3.767 2.61 7.198 3.479 9.685 0.41 1.159 0.758 2.143 1.04 2.943 0.253 0.692 0.408 1.07 0.442 1.059 0.035-0.011-0.055-0.409-0.249-1.121-0.191-0.713-0.493-1.736-0.883-2.996-0.781-2.52-1.937-5.978-3.34-9.752-1.405-3.772-2.788-7.145-3.844-9.562-0.528-1.209-0.969-2.18-1.29-2.845-0.319-0.665-0.512-1.027-0.544-1.012" fill="#1a2e35"/><path d="m301.38 212.72c-0.141-0.028-1.228 4.73-2.427 10.628-1.2 5.9-2.058 10.704-1.917 10.733s1.227-4.729 2.427-10.629c1.2-5.898 2.058-10.704 1.917-10.732" fill="#1a2e35"/><path d="m299.49 153.23c0.316-0.159-3.664 31.162-3.664 31.162s2.512 23.77 3.924 24.868l0.036 8.387s3.888 2.354 4.931-1.447c0 0 3.447 2.993 4.049-4.132 0.603-7.125 0.729-14.406 0.729-14.406l7.673-19.185 1.263-0.638s1.648 15.029 2.607 17.241c0.96 2.212 1.616 7.589 5.253 6.783 3.636-0.808 3.94-3.816 3.286-8.72-0.654-4.903-1.468-9.965-1.165-13.132s1.742-10.136 1.3-15.675c-0.442-5.537-3.475-11.38-6.658-15.482-3.183-4.101-9.264-12.584-12.569-15.14-1.155-0.892-10.995 19.516-10.995 19.516" fill="#e9c6af"/></g><g fill="#e0ae8e"><path d="m303.37 178.72c-0.036 3e-3 -0.026 0.48 0.021 1.341 0.066 0.962 0.15 2.181 0.25 3.638 0.234 3.071 0.593 7.309 1.022 11.987 0.221 2.333 0.431 4.555 0.624 6.594 0.1 1.007 0.164 1.961 0.035 2.827-0.12 0.866-0.461 1.619-0.956 2.161-1.014 1.098-2.316 1.376-3.132 1.375-0.846 6e-3 -1.289-0.224-1.306-0.167-7e-3 0.016 0.099 0.072 0.311 0.164 0.216 0.077 0.546 0.182 0.988 0.206 0.857 0.061 2.259-0.16 3.409-1.327 0.565-0.579 0.967-1.419 1.112-2.345 0.158-0.928 0.104-1.923 0.017-2.937-0.18-2.04-0.377-4.264-0.583-6.599-0.429-4.678-0.846-8.91-1.174-11.973-0.166-1.45-0.305-2.665-0.415-3.623-0.11-0.854-0.187-1.325-0.223-1.322"/><path d="m307.49 191.53c0.075-0.062-0.78-0.814-1.358-2.473-0.619-1.632-0.841-4.086-1.276-6.76-0.413-2.678-0.816-5.097-1.133-6.845-0.317-1.747-0.549-2.822-0.62-2.812-0.071 0.012 0.032 1.107 0.256 2.869 0.224 1.761 0.569 4.19 0.983 6.868 0.433 2.661 0.712 5.134 1.446 6.814 0.348 0.839 0.771 1.452 1.109 1.827 0.336 0.38 0.576 0.532 0.593 0.512"/><path d="m304.67 216.61c0.035 7e-3 0.128-0.345 0.267-0.985 0.14-0.64 0.314-1.573 0.504-2.728 0.383-2.31 0.801-5.523 1.066-9.089 0.262-3.568 0.32-6.807 0.281-9.149-0.018-1.171-0.053-2.118-0.098-2.772-0.042-0.654-0.083-1.014-0.119-1.013-0.077 2e-3 -0.094 1.448-0.151 3.783-0.055 2.336-0.171 5.559-0.433 9.112-0.263 3.552-0.622 6.758-0.91 9.076-0.287 2.318-0.483 3.752-0.407 3.765"/><path d="m326.8 187.25c0.075-0.118-1.122-0.675-2.584-0.22-1.468 0.439-2.151 1.569-2.022 1.624 0.115 0.1 0.883-0.749 2.174-1.126 1.281-0.407 2.391-0.131 2.432-0.278"/></g><g><path d="m299.92 157.13-20.269-8.518h-12.076s-11.944-3.727-13.782-14.923c-1.837-11.198-2.1-16.96 3.15-18.345 5.251-1.385 20.083-1.538 27.434 0.901 7.35 2.44 26.605 17.977 26.605 17.977l1.855 11.24z" fill="#e9c6af"/><path d="m304.67 144.75c-0.026-0.024-0.229 0.164-0.576 0.528-0.361 0.354-0.804 0.935-1.317 1.675-1.002 1.496-2.099 3.766-2.831 6.411-0.757 2.64-1.08 5.108-1.248 6.887-0.154 1.785-0.146 2.893-0.079 2.896 0.077 5e-3 0.198-1.092 0.445-2.853 0.259-1.758 0.637-4.19 1.383-6.787 0.721-2.606 1.739-4.841 2.641-6.358 0.912-1.513 1.654-2.335 1.582-2.399" fill="#e0ae8e"/><path d="m313.5 141.2c-0.109 0.04 0.804 1.581 1.155 4.346 0.168 1.372 0.153 3.042-0.239 4.825-0.388 1.787-1.243 3.628-2.484 5.346-1.231 1.725-2.616 3.228-3.783 4.681-1.179 1.447-2.122 2.862-2.739 4.143-0.622 1.281-0.909 2.412-1.016 3.196-0.102 0.789-0.061 1.229-0.035 1.229 0.102 0.022 0.068-1.788 1.379-4.259 0.644-1.229 1.596-2.591 2.783-4.004 1.175-1.424 2.576-2.921 3.836-4.685 1.269-1.754 2.155-3.691 2.528-5.545 0.38-1.852 0.354-3.575 0.135-4.977-0.22-1.407-0.608-2.499-0.929-3.22-0.155-0.365-0.305-0.634-0.409-0.813-0.104-0.181-0.166-0.271-0.182-0.263" fill="#e0ae8e"/></g><g fill="#fff"><path d="m282.25 190c-0.127-0.066-2.339 3.957-4.938 8.985-2.601 5.031-4.605 9.161-4.478 9.227 0.128 0.066 2.339-3.957 4.94-8.987 2.6-5.029 4.604-9.16 4.476-9.225"/><path d="m315.03 226.49c-0.131 0.059 1.235 3.414 3.053 7.492 1.817 4.081 3.397 7.34 3.528 7.281 0.131-0.058-1.235-3.412-3.053-7.493-1.817-4.079-3.397-7.339-3.528-7.28"/><path d="m347.13 202.81c-0.111-0.092-2.167 2.21-4.593 5.14-2.427 2.931-4.304 5.381-4.193 5.472 0.111 0.092 2.167-2.209 4.594-5.14 2.425-2.93 4.303-5.381 4.192-5.472"/><path d="m339.74 170.24c-0.117 0.085 1.434 2.42 3.461 5.217 2.029 2.797 3.767 4.995 3.884 4.911 0.116-0.085-1.433-2.42-3.462-5.217-2.028-2.797-3.767-4.995-3.883-4.911"/><path d="m329.8 124.23c-0.062-0.03-0.518 0.733-1.174 2.01-0.657 1.275-1.508 3.066-2.365 5.081-0.856 2.016-1.554 3.873-2.017 5.23-0.463 1.359-0.697 2.216-0.631 2.24 0.069 0.025 0.426-0.788 0.976-2.109 0.627-1.504 1.352-3.24 2.152-5.157 0.825-1.906 1.571-3.633 2.218-5.128 0.57-1.313 0.907-2.134 0.841-2.167"/><path d="m358.04 143.79c-0.027-0.142-2.746 0.266-6.071 0.909-3.326 0.645-6 1.28-5.972 1.422 0.027 0.141 2.745-0.267 6.071-0.91 3.326-0.644 5.999-1.28 5.972-1.421"/><path d="m379.95 186.78c-0.105 0.098 2.486 3.064 5.788 6.626 3.304 3.562 6.066 6.37 6.172 6.272 0.105-0.097-2.486-3.064-5.789-6.627-3.303-3.561-6.066-6.369-6.171-6.271"/><path d="m401.98 129.45c-0.111-0.091-3.345 3.651-7.222 8.358-3.879 4.708-6.931 8.598-6.821 8.69 0.111 0.091 3.345-3.651 7.223-8.359 3.878-4.707 6.931-8.597 6.82-8.689"/><path d="m265.2 153.88c0.074-0.144-2.881-1.642-6.1-4.112-3.235-2.453-5.461-4.907-5.579-4.797-0.05 0.044 0.444 0.715 1.36 1.698 0.915 0.984 2.27 2.265 3.903 3.513 1.634 1.245 3.228 2.213 4.418 2.835 1.191 0.624 1.969 0.923 1.998 0.863"/><path d="m273.44 175.98c0.12-0.079-0.932-1.871-2.349-4.002s-2.663-3.794-2.782-3.714c-0.12 0.079 0.931 1.871 2.349 4.002 1.416 2.131 2.662 3.794 2.782 3.714"/><path d="m292 154.28c-0.114-0.067-1.156 1.683-1.7 4.107-0.558 2.424-0.375 4.452-0.243 4.44 0.156 0 0.208-1.974 0.751-4.323 0.525-2.354 1.332-4.157 1.192-4.224"/><path d="m294.75 223.2c0.021-0.143-1.705-0.505-3.852-0.811-2.148-0.305-3.906-0.437-3.926-0.294-0.02 0.142 1.704 0.504 3.853 0.81 2.147 0.306 3.905 0.438 3.925 0.295"/><path d="m308.69 247.93c0.069-0.126-1.44-1.096-3.373-2.167-1.932-1.07-3.555-1.836-3.625-1.711-0.069 0.126 1.44 1.096 3.373 2.167 1.932 1.07 3.555 1.837 3.625 1.711"/><path d="m347.9 237.48c-0.114-0.087-1.841 1.989-3.857 4.636-2.017 2.647-3.558 4.864-3.443 4.951 0.114 0.087 1.841-1.988 3.857-4.636 2.016-2.646 3.558-4.863 3.443-4.951"/><path d="m397.67 212.62c-0.097-0.092-1.915 1.78-3.602 4.503-1.698 2.717-2.573 5.175-2.448 5.221 0.142 0.061 1.218-2.271 2.891-4.946 1.66-2.681 3.276-4.677 3.159-4.778"/><path d="m416.67 206.36c0.131-0.06-0.792-2.376-2.062-5.173-1.269-2.798-2.405-5.017-2.536-4.958-0.131 0.06 0.792 2.375 2.062 5.173 1.269 2.797 2.405 5.017 2.536 4.958"/><path d="m419.33 232.29c-0.11-0.092-2.372 2.444-5.052 5.664-2.68 3.221-4.762 5.905-4.652 5.998 0.11 0.092 2.372-2.444 5.053-5.665 2.678-3.22 4.761-5.905 4.651-5.997"/><path d="m390.31 253.35c-0.145-5e-3 -0.347 2.164-0.452 4.846-0.106 2.683-0.075 4.861 0.069 4.867 0.144 5e-3 0.346-2.164 0.451-4.846 0.106-2.682 0.076-4.861-0.068-4.867"/><path d="m413.97 254.66c0.019-0.143-2.746-0.63-6.174-1.088-3.43-0.459-6.225-0.715-6.244-0.573-0.02 0.143 2.745 0.63 6.175 1.089 3.429 0.458 6.223 0.715 6.243 0.572"/><path d="m451.23 227.29c-0.129-0.062-1.793 3.108-3.715 7.081-1.923 3.975-3.376 7.246-3.246 7.309 0.129 0.062 1.792-3.108 3.715-7.082 1.922-3.973 3.376-7.246 3.246-7.308"/><path d="m444.95 203.64c-0.141 0.028 0.249 2.577 0.871 5.692 0.622 3.116 1.241 5.619 1.382 5.59 0.141-0.028-0.249-2.576-0.871-5.692-0.622-3.115-1.24-5.618-1.382-5.59"/><path d="m462.24 185c-0.136-0.047-1.464 3.394-2.966 7.684-1.502 4.292-2.609 7.809-2.473 7.856 0.135 0.048 1.462-3.392 2.964-7.684 1.502-4.291 2.611-7.808 2.475-7.856"/><path d="m459.83 174.09c-0.025-0.128-2.423 0.372-5.051 1.806-2.637 1.419-4.366 3.154-4.272 3.245 0.101 0.12 1.944-1.404 4.52-2.787 2.566-1.402 4.848-2.113 4.803-2.264"/><path d="m481.97 149.23c-0.132-0.059-0.935 1.459-1.794 3.39-0.858 1.93-1.448 3.544-1.317 3.601 0.132 0.059 0.934-1.459 1.794-3.389 0.858-1.931 1.448-3.543 1.317-3.602"/><path d="m351.21 114.55c-0.143-0.017-0.491 1.966-0.777 4.428-0.286 2.463-0.403 4.471-0.26 4.488s0.491-1.966 0.777-4.428c0.287-2.462 0.403-4.471 0.26-4.488"/><path d="m419.14 116.27c-0.141 0.03 0.152 1.969 0.654 4.33 0.503 2.361 1.024 4.251 1.164 4.222 0.141-0.031-0.152-1.969-0.654-4.33-0.502-2.362-1.023-4.252-1.164-4.222"/></g><g clip-path="url(#clipPath1122)"><g transform="translate(432.16 314.56)"><path d="m0 0 8.783 15.48c-3.886 6.307-6.131 13.732-6.131 21.684 0 22.868 18.537 41.406 41.406 41.406 22.867 0 41.405-18.538 41.405-41.406s-18.538-41.405-41.405-41.405c-9.549 0-18.336 3.241-25.34 8.671l0.013-0.019z" fill="#fafafa"/><path d="m0 0c0.89 0.203 6.819 1.558 18.761 4.287l0.192 0.044-0.12 0.157-0.015 0.019-0.178-0.178c2.362-1.83 5.191-3.633 8.517-5.136 3.33-1.476 7.145-2.683 11.358-3.243 2.102-0.268 4.299-0.442 6.557-0.331 1.128 0.064 2.277 0.091 3.435 0.188 1.151 0.174 2.317 0.35 3.5 0.529 4.689 0.925 9.485 2.706 13.957 5.481 4.471 2.766 8.609 6.521 11.927 11.135 3.312 4.605 5.824 10.067 7 16.001 1.165 5.927 1.068 12.278-0.489 18.426-1.567 6.126-4.495 12.112-8.878 17.035l-1.692 1.861c-0.556 0.626-1.219 1.142-1.821 1.717-0.631 0.542-1.2 1.157-1.878 1.637l-1.988 1.487c-0.644 0.52-1.353 0.939-2.058 1.361-0.702 0.426-1.402 0.852-2.102 1.276-0.735 0.357-1.468 0.713-2.2 1.068-0.737 0.341-1.447 0.743-2.221 0.988-6.016 2.388-12.433 3.297-18.566 2.853-6.136-0.442-12.006-2.203-17.042-5.037-5.052-2.813-9.311-6.567-12.6-10.761-3.297-4.197-5.622-8.824-7.06-13.432-1.43-4.63-1.816-9.222-1.8-13.473 0.123-4.26 0.899-8.186 2.028-11.63 1.133-3.45 2.62-6.417 4.155-8.913l-2e-3 0.125c-5.542-9.927-8.251-14.779-8.677-15.541 0.436 0.756 3.211 5.57 8.89 15.419l0.036 0.062-0.038 0.063c-1.509 2.492-2.969 5.448-4.076 8.878-1.104 3.425-1.856 7.323-1.962 11.548 2e-3 4.215 0.399 8.763 1.828 13.344 1.438 4.56 3.75 9.134 7.022 13.279 3.263 4.142 7.484 7.848 12.483 10.621 4.983 2.795 10.787 4.526 16.85 4.956 6.063 0.434 12.401-0.47 18.343-2.832 0.764-0.241 1.464-0.64 2.193-0.976 0.722-0.351 1.447-0.703 2.172-1.056 0.691-0.419 1.382-0.84 2.075-1.261 0.698-0.417 1.398-0.831 2.034-1.345l1.963-1.469c0.669-0.474 1.231-1.082 1.854-1.618 0.595-0.568 1.251-1.077 1.8-1.696l1.671-1.838c4.33-4.863 7.221-10.774 8.773-16.824 1.54-6.071 1.641-12.348 0.496-18.205-1.155-5.865-3.632-11.265-6.899-15.824-3.274-4.567-7.36-8.289-11.777-11.035-4.418-2.755-9.16-4.529-13.8-5.459-1.171-0.181-2.327-0.358-3.465-0.534-1.148-0.099-2.285-0.13-3.403-0.197-2.237-0.117-4.416 0.047-6.501 0.306-4.177 0.54-7.966 1.72-11.279 3.17-3.307 1.475-6.128 3.25-8.487 5.053l-0.772 0.59 0.592-0.768 0.015-0.019 0.071 0.202c-11.904-2.887-17.816-4.32-18.702-4.535" fill="#1a2e35"/></g><g transform="translate(487.4 353.45)"><path d="m0 0c0-2.235 1.811-4.046 4.046-4.046s4.047 1.811 4.047 4.046-1.812 4.046-4.047 4.046-4.046-1.811-4.046-4.046" fill="#1a2e35"/></g><g transform="translate(471.21 353.45)"><path d="m0 0c0-2.235 1.812-4.046 4.046-4.046 2.235 0 4.047 1.811 4.047 4.046s-1.812 4.046-4.047 4.046c-2.234 0-4.046-1.811-4.046-4.046" fill="#1a2e35"/></g><g transform="translate(455.06 355.47)"><path d="m0 0c-1.117-1.936-0.454-4.41 1.481-5.528 1.936-1.117 4.411-0.454 5.528 1.482 1.117 1.935 0.455 4.41-1.481 5.527-1.935 1.117-4.41 0.455-5.528-1.481" fill="#1a2e35"/></g></g></g></svg>
