<?xml version="1.0" encoding="UTF-8"?>
<!-- Created with Inkscape (http://www.inkscape.org/) -->
<svg width="176.39mm" height="131.45mm" version="1.1" viewBox="0 0 176.39 131.45" xmlns="http://www.w3.org/2000/svg">
 <g fill="#e6f2ff" stroke-width="0">
  <path d="m117.16 118.01h34.43v-0.0882h-34.43z"/>
  <path d="m101.96 120.04h16.463v-0.0882h-16.463z"/>
  <path d="m151.94 121.28h6.7705v-0.0878h-6.7705z"/>
  <path d="m44.617 120.09h32.641v-0.0882h-32.641z"/>
  <path d="m34.455 120.09h7.0217v-0.0882h-7.0217z"/>
  <path d="m20.388 118.6h11.593v-0.0882h-11.593z"/>
 </g>
 <g>
  <path d="m137.96 112.27h-106.55l-6.3535-72.279h106.55z" fill="#cbe4ff"/>
  <path d="m29.197 115.52 2.213-3.2496-6.3539-72.279-1.8796 2.3375z" fill="#c3ddf9"/>
  <path d="m32.818 109.53-5.8529-66.58c-0.06174-0.70203 0.49107-1.3056 1.1956-1.3056h100.84c0.62194 0 1.1409 0.47555 1.1952 1.0954l5.8529 66.58c0.0617 0.70168-0.49106 1.3053-1.1952 1.3053h-100.84c-0.6223 0-1.1412-0.47554-1.1956-1.095" fill="#e6f2ff"/>
  <path d="m46.386 112.27h-16.054l-1.1352 3.247h16.054z" fill="#c3ddf9"/>
  <path d="m46.386 112.27h91.579l-1.1356 3.247h-91.579z" fill="#e6f2ff"/>
  <path d="m89.855 112.27h20.234l-0.21731 2.1258h-20.235z" fill="#c3ddf9"/>
  <path d="m120.52 35.25h25.566c2.1184 14.025-7.6793 25.566-21.704 25.566-4.4873 0-9.0749-1.1814-13.3-3.4251z" fill="#0050b6"/>
  <path d="m120.52 35.25 13.475-19.584c3.2223 2.3996 5.9746 5.3964 8.0634 8.7799 2.0884 3.3835 3.4632 7.0714 4.0273 10.805z" fill="#7aaefd"/>
  <path d="m120.52 35.25-3.8619-25.566c2.9824 0 6.0205 0.52211 8.9771 1.5416 2.9563 1.0202 5.7856 2.5227 8.3598 4.4397z" fill="#247afd"/>
  <path d="m120.52 35.25-9.4386 22.141c-8.5891-4.5614-14.749-13.019-16.127-22.141-2.1184-14.025 7.6793-25.566 21.704-25.566z" fill="#1d66d6"/>
 </g>
 <path d="m88.955 80.87h22.678c0.29951 1.9819 0.33761 3.9553 0.11395 5.8699-0.22366 1.9142-0.70768 3.7528-1.4393 5.4695z" fill="#ececec"/>
 <path d="m88.955 80.87 0.5648-22.334c5.389 0.92534 10.563 3.6731 14.606 7.7565 4.0432 4.0834 6.7028 9.247 7.5078 14.577z" fill="#e1e1e1"/>
 <path d="m88.955 80.87-20.139 7.7565c-1.2802-2.486-2.1396-5.111-2.5393-7.7565-1.8792-12.441 6.8118-22.678 19.253-22.678 1.3201 0 2.6554 0.11501 3.9903 0.34431z" fill="#f0f0f0"/>
 <path d="m88.955 80.87 21.353 11.339c-2.9877 7.0079-9.8354 11.339-17.927 11.339-9.5112 0-18.961-5.9838-23.564-14.922z" fill="#fff"/>
 <path d="m94.635 37.83c-15.734-12.109-42.172-39.98-58.323-14.863-16.033 24.933 14.698 55.898 34.059 64.343 19.572 8.5376 72.215 8.4497 67.662-23.118-3.1323-21.719-26.019-12.988-43.398-26.363" fill="#7aaefd"/>
 <path d="m156.6 127.45c0 2.2063-30.624 3.9945-68.4 3.9945s-68.4-1.7882-68.4-3.9945 30.624-3.9945 68.4-3.9945 68.4 1.7882 68.4 3.9945" fill="#fbfdff"/>
 <path d="m84.875 65.06h-31.776c-2.0168 0-3.8008-1.6499-3.9649-3.6664l-1.591-19.539c-0.16404-2.0168 1.3515-3.6668 3.3683-3.6668h31.776c2.0165 0 3.8008 1.6499 3.9649 3.6668l1.5907 19.539c0.16439 2.0165-1.3515 3.6664-3.368 3.6664" fill="#fff"/>
 <path d="m50.909 38.35c-0.92992 0-1.7773 0.36371-2.3855 1.0234-0.61172 0.66357-0.90664 1.5434-0.83044 2.4783l1.591 19.539c0.15804 1.9438 1.8683 3.526 3.8125 3.526h31.776c0.92993 0 1.7773-0.36407 2.3858-1.0238 0.61136-0.66357 0.90629-1.5434 0.83009-2.4776l-1.5907-19.539c-0.1584-1.9445-1.8687-3.5264-3.8128-3.5264zm33.964 26.872h-31.776c-2.0994 0-3.9462-1.7074-4.1173-3.8065l-1.5907-19.539c-0.0829-1.0206 0.24024-1.983 0.91017-2.71 0.6671-0.7232 1.5942-1.1215 2.6102-1.1215h31.776c2.0994 0 3.9465 1.7078 4.1173 3.8068l1.5907 19.539c0.0833 1.0202-0.23988 1.9826-0.91016 2.7093-0.66675 0.72355-1.5938 1.1218-2.6102 1.1218" fill="#007cff"/>
 <path d="m76.245 59.36c-1.246 1.3568-2.8564 2.3312-4.6704 2.8296l-0.526-1.5067c3.9123-1.0693 6.561-4.7174 6.2078-9.053-0.2106-2.588-1.4496-4.9318-3.2833-6.6273l1.0132-1.1031c4.5865 4.2411 5.1544 11.22 1.2587 15.46" fill="#cbe4ff"/>
 <path d="m74.995 43.9-1.0132 1.1031c-1.8337-1.6958-4.2626-2.7436-6.8506-2.7436s-4.8458 1.0509-6.4008 2.7467l-1.1959-1.1063c1.8835-2.0503 4.5731-3.2018 7.4697-3.2018 2.8995 0 5.7736 1.1515 7.9908 3.2018" fill="#1a2e35"/>
 <path d="m71.575 62.19c-3.6855 1.0082-7.8066-0.0734-10.79-2.8296-4.5829-4.2407-5.1513-11.219-1.2587-15.46l1.1963 1.1063c-1.5579 1.6958-2.4151 4.0361-2.2045 6.6241 0.42122 5.1728 4.9579 9.368 10.131 9.368 0.83714 0 1.6439-0.10972 2.4003-0.31503z" fill="#247afd"/>
 <path d="m41.589 6.915h-2.5478v-0.30515h2.5478z" fill="#007cff"/>
 <path d="m36.572 6.915h-5.8011v-0.30515h5.8011z" fill="#007cff"/>
 <path d="m63.551 34.693h-31.777c-2.0165 0-3.8008-1.6499-3.9649-3.6668l-1.5907-19.539c-0.16439-2.0165 1.3515-3.6668 3.368-3.6668h31.776c2.0168 0 3.8008 1.6503 3.9652 3.6668l1.5907 19.539c0.16405 2.0168-1.3515 3.6668-3.368 3.6668" fill="#fff"/>
 <path d="m29.587 7.974c-0.92992 0-1.7769 0.36371-2.3855 1.0238-0.61172 0.66322-0.90629 1.543-0.83009 2.4779l1.5907 19.539c0.15804 1.9442 1.8683 3.5264 3.8125 3.5264h31.777c0.92957 0 1.7766-0.36371 2.3855-1.0238 0.61136-0.66358 0.90628-1.5434 0.83008-2.4779l-1.5907-19.539c-0.1584-1.9445-1.869-3.5264-3.8128-3.5264zm33.964 26.872h-31.777c-2.0994 0-3.9462-1.7078-4.1173-3.8068l-1.5907-19.539c-0.0829-1.0202 0.24024-1.983 0.91017-2.7097 0.6671-0.72355 1.5942-1.1218 2.6102-1.1218h31.776c2.0994 0 3.9465 1.7078 4.1176 3.8068l1.5903 19.539c0.0833 1.0206-0.23989 1.983-0.91016 2.7097-0.66676 0.72355-1.5939 1.1218-2.6099 1.1218" fill="#007cff"/>
 <path d="m29.093 13.428h16.839l-0.13547-1.6637h-16.839z" fill="#cbe4ff"/>
 <path d="m62.77 13.428h-16.839l-0.13547-1.6637h16.839z" fill="#247afd"/>
 <path d="m29.445 17.758h4.8038l-0.13547-1.6637h-4.8038z" fill="#cbe4ff"/>
 <path d="m63.123 17.758h-28.874l-0.13547-1.6637h28.874z" fill="#247afd"/>
 <path d="m29.798 22.089h14.988l-0.13511-1.6637h-14.989z" fill="#cbe4ff"/>
 <path d="m63.476 22.089h-18.689l-0.13547-1.6637h18.689z" fill="#247afd"/>
 <path d="m30.15 26.419h25.581l-0.13547-1.6637h-25.581z" fill="#cbe4ff"/>
 <path d="m63.828 26.419h-8.097l-0.13547-1.6637h8.097z" fill="#247afd"/>
 <path d="m30.503 30.75h11.831l-0.13547-1.6633h-11.831z" fill="#cbe4ff"/>
 <path d="m64.181 30.75h-21.846l-0.13547-1.6633h21.846z" fill="#247afd"/>
 <path d="m107 34.693h-31.776c-2.0168 0-3.8008-1.6499-3.9652-3.6668l-1.5907-19.539c-0.16405-2.0165 1.3515-3.6668 3.368-3.6668h31.776c2.0168 0 3.8012 1.6503 3.9652 3.6668l1.5907 19.539c0.16404 2.0168-1.3515 3.6668-3.368 3.6668" fill="#fff"/>
 <path d="m73.025 7.974c-0.92957 0-1.7769 0.36336-2.3855 1.0234-0.61137 0.66358-0.90629 1.5434-0.83009 2.4783l1.5907 19.539c0.15839 1.9442 1.8687 3.5264 3.8128 3.5264h31.776c0.92992 0 1.7769-0.36407 2.3855-1.0241 0.61136-0.66322 0.90628-1.543 0.83008-2.4776l-1.5907-19.539c-0.15804-1.9445-1.8687-3.5264-3.8125-3.5264zm33.964 26.872h-31.776c-2.0994 0-3.9465-1.7078-4.1176-3.8068l-1.5907-19.539c-0.0829-1.0206 0.24024-1.983 0.91052-2.71 0.66675-0.7232 1.5938-1.1215 2.6098-1.1215h31.777c2.099 0 3.9462 1.7078 4.1173 3.8068l1.5903 19.539c0.0833 1.0202-0.23989 1.983-0.90981 2.7093-0.6671 0.7239-1.5942 1.1222-2.6102 1.1222" fill="#007cff"/>
 <path d="m91.065 30.75h-0.56092l-1.5455-18.985h0.56092z" fill="#cbe4ff"/>
 <path d="m91.905 22.861h-3.5391l-0.60395-7.4175h3.5391z" fill="#247afd"/>
 <path d="m84.095 30.75h-0.56092l-1.5455-18.985h0.56092z" fill="#cbe4ff"/>
 <path d="m85.075 24.508h-3.5391l-0.52916-6.5024h3.5391z" fill="#247afd"/>
 <path d="m77.135 30.75h-0.56092l-1.5455-18.985h0.56092z" fill="#cbe4ff"/>
 <path d="m77.675 19.159h-3.5391l-0.36371-4.4644h3.5394z" fill="#1a2e35"/>
 <path d="m98.025 30.75h-0.56092l-1.5455-18.985h0.56092z" fill="#cbe4ff"/>
 <path d="m99.215 27.072h-3.5391l-0.9465-11.629h3.5387z" fill="#1a2e35"/>
 <path d="m105 30.75h-0.56092l-1.5455-18.985h0.56092z" fill="#cbe4ff"/>
 <path d="m106.3 28.465h-3.5391l-0.75812-9.313h3.5391z" fill="#247afd"/>
 <path d="m72.985 95.19h-31.776c-2.0168 0-3.8008-1.6499-3.9649-3.6664l-1.591-19.539c-0.16404-2.0168 1.3515-3.6668 3.3683-3.6668h31.776c2.0165 0 3.8008 1.6499 3.9649 3.6668l1.5907 19.539c0.16439 2.0165-1.3515 3.6664-3.368 3.6664" fill="#fff"/>
 <path d="m39.022 68.47c-0.92992 0-1.7773 0.36371-2.3855 1.0234-0.61172 0.66357-0.90664 1.5434-0.83044 2.4783l1.5907 19.539c0.1584 1.9438 1.869 3.526 3.8128 3.526h31.776c0.93027 0 1.7773-0.36407 2.3858-1.0241 0.61137-0.66322 0.90593-1.543 0.83009-2.4772l-1.5907-19.539c-0.15839-1.9445-1.8687-3.5264-3.8128-3.5264zm33.964 26.872h-31.776c-2.0994 0-3.9462-1.7074-4.1173-3.8065l-1.5907-19.539c-0.0829-1.0206 0.24024-1.983 0.91017-2.71 0.6671-0.7232 1.5942-1.1215 2.6102-1.1215h31.776c2.0994 0 3.9465 1.7078 4.1173 3.8068l1.5907 19.539c0.0833 1.0202-0.23988 1.9826-0.90981 2.7093-0.6671 0.72355-1.5942 1.1218-2.6106 1.1218" fill="#007cff"/>
 <path d="m43.321 81.28 6.8488 7.9128 7.8539-12.115 4.8567 6.2604 1.1853-1.8284 7.9389 9.5151-30.492-0.0113z" fill="#247afd"/>
 <path d="m66.185 81.78-3.1828 6.816-10.153-16.12-4.7808 10.237-1.5318-2.4328-5.0221 10.753 30.49-0.0152z" fill="#c3ddf9"/>
 <path d="m131.54 36.73c0.84984 1.5949 1.5801 3.1708 2.268 4.813 0.67028 1.6425 1.2901 3.3112 1.7741 5.074 0.12347 0.4378 0.23071 0.889 0.33302 1.3423 0.0409 0.15381 0.14041 0.64488 0.14005 0.95673 0.0162 0.34608-0.0106 0.65829-0.054 0.95709-0.19121 1.173-0.60184 2.0719-1.0488 2.9214-0.91405 1.6817-2.0161 3.0752-3.2978 4.391-0.38452 0.39511-1.0164 0.40357-1.4111 0.0187-0.32244-0.31397-0.387-0.79234-0.19085-1.1726l0.025-0.0476c0.75635-1.4605 1.5053-3.0007 2.0112-4.4626 0.24342-0.72461 0.43674-1.4658 0.43568-2.0108-4e-3 -0.13052-8e-3 -0.25047-0.0279-0.33372-8e-3 -0.0434-0.0162-0.0826-0.03-0.10407l-0.0653-0.20744c-0.11782-0.38029-0.23847-0.76023-0.37959-1.1434-0.5341-1.5318-1.1948-3.0699-1.881-4.5956-0.68333-1.5212-1.4189-3.0678-2.1459-4.5385l-0.0148-0.0296c-0.48966-0.99095-0.084-2.1911 0.90664-2.6811 0.97155-0.48013 2.1463-0.0959 2.6532 0.85302" fill="#247afd"/>
 <path d="m130.44 55.83-1.6835 0.53022 1.9812 2.3199s0.76483-0.67275 1.0404-1.6475c0.0931-0.32844-0.043-0.68051-0.31962-0.88053l-0.28116-0.20285c-0.21308-0.15416-0.48649-0.19861-0.73731-0.11924" fill="#913c38"/>
 <path d="m126.44 57.79 2.1234 1.6849 2.1773-0.79516-1.9812-2.3199z" fill="#913c38"/>
 <path d="m119.18 24.928c-0.0423 0.20884-0.18732 0.3556-0.32385 0.32773-0.13652-0.02752-0.21272-0.21943-0.17004-0.42792 0.0423-0.20884 0.18733-0.3556 0.32385-0.32808 0.13617 0.02787 0.21237 0.21943 0.17004 0.42827" fill="#1a2e35"/>
 <path d="m119.02 25.287s-0.71931 1.1077-1.3596 1.5822c0.29916 0.41981 0.95885 0.39017 0.95885 0.39017z" fill="#deaa87"/>
 <path d="m120.18 23.924c0.0303 0 0.0607-0.01094 0.085-0.03351 0.0505-0.04692 0.054-0.12559 7e-3 -0.17674-0.46954-0.508-1.0396-0.41769-1.064-0.41381-0.0681 0.01199-0.11394 0.0762-0.1023 0.14464 0.0116 0.06773 0.0769 0.11324 0.14358 0.10231 0.019-0.0032 0.46461-0.06844 0.83926 0.3369 0.0247 0.02681 0.0579 0.04022 0.0917 0.04022" fill="#1a2e35"/>
 <path d="m124.98 28.727c-0.37853 1.9322-0.60748 4.6083 0.74401 5.8974 0 0-0.52776 1.9593-4.1173 1.9593-3.9469 0-1.8986-1.7198-1.8986-1.7198 1.6404-0.50906 1.6263-2.3781 1.251-3.8788z" fill="#e9c6af"/>
 <path d="m119.02 34.561s0.57538-1.3635 1.1635-1.5988c0.58808-0.23495 4.3314-0.85055 5.194-0.30762 0.86219 0.54292 1.4443 2.2871 1.4443 2.2871z" fill="#247afd"/>
 <path d="m122.56 124.38c-0.0441 0-0.0847 5e-3 -0.121 0.0141-0.0575 0.0159-0.0977 0.0445-0.12242 0.0875-0.0441 0.078-0.0282 0.11606-0.0123 0.13864 0.12312 0.17039 0.79057 0.17427 1.2813 0.10513-0.24482-0.12594-0.71684-0.34537-1.0255-0.34537m0.41875 0.51188c-0.33867 0-0.6664-0.0466-0.77611-0.19861-0.0385-0.0536-0.0684-0.14429 5e-3 -0.27376 0.0413-0.0723 0.1083-0.12135 0.19826-0.14605 0.43956-0.11959 1.3624 0.4064 1.4016 0.42863 0.0222 0.0131 0.0346 0.0388 0.0303 0.0646-4e-3 0.0258-0.024 0.0462-0.0494 0.0512-0.16862 0.0339-0.49424 0.0741-0.80997 0.0741" fill="#007cff"/>
 <path d="m123.12 123.75c-0.0123 0-0.0247 7.1e-4 -0.0374 2e-3 -0.11254 0.0113-0.1196 0.0557-0.12207 0.0702-0.0289 0.17921 0.40005 0.62794 0.72532 0.82338-0.0342-0.20778-0.12806-0.63323-0.34855-0.81456-0.0663-0.0543-0.13794-0.0811-0.21731-0.0811m0.64452 1.0707c-9e-3 0-0.0176-2e-3 -0.0257-6e-3 -0.31856-0.14323-0.95003-0.71403-0.9017-1.0128 0.0113-0.0699 0.061-0.15734 0.23284-0.17462 0.12841-0.0131 0.24412 0.0233 0.34678 0.10724 0.33584 0.27587 0.4071 0.98707 0.40992 1.0174 2e-3 0.0219-8e-3 0.0437-0.0258 0.0565-0.0109 8e-3 -0.0236 0.012-0.0363 0.012" fill="#007cff"/>
 <path d="m126.68 124.76h-2.6402l-0.26317-6.115h2.6405z" fill="#e9c6af"/>
 <path d="m124.06 124.45h2.8836c0.10759 0 0.20143 0.0751 0.22471 0.18062l0.52176 2.347c0.054 0.24307-0.13088 0.47378-0.37994 0.46955-1.0403-0.0176-2.5435-0.0787-3.8509-0.0787-1.5286 0-1.7134 0.0836-3.5063 0.0836-1.0841 0-1.385-1.0961-0.93098-1.1956 2.0655-0.45155 2.6169-0.50023 4.402-1.6009 0.19403-0.11959 0.40817-0.20567 0.63606-0.20567" fill="#1a2e35"/>
 <path d="m130.46 34.633c2.4747 0.56726 4.1077 7.2461 4.1077 7.2461l-4.1321 3.1041s-2.2539-1.3966-3.066-4.5572c-0.85055-3.3112 0.55986-6.3733 3.0903-5.793" fill="#0b2854"/>
 <path d="m128.34 39.28c1.3444 1.33 2.2126 3.4294 2.317 5.5354l-0.21907 0.16933s-2.2564-1.3988-3.0685-4.5582c-0.0505-0.19791-0.0935-0.39547-0.12947-0.58949z" opacity=".2"/>
 <path d="m145.3 59.48-20.047 8.0116-5.9584-14.909 20.047-8.0116z" fill="#007cff"/>
 <path d="m145.02 59.6-19.752 7.8938-5.9581-14.909 19.752-7.8938z" fill="#fff" opacity=".5"/>
 <g transform="translate(-34.075,-65.22)" fill="#007cff">
  <path d="m157.53 119.21-1.8701 0.74718-0.52988-1.3257 1.8701-0.74718z" opacity=".5"/>
  <path d="m160.62 117.98-1.8701 0.74718-0.52988-1.3257 1.8701-0.74718z" opacity=".5"/>
  <path d="m163.7 116.74-1.8701 0.74754-0.52988-1.3257 1.8704-0.74719z" opacity=".5"/>
  <path d="m166.79 115.51-1.8701 0.74754-0.52988-1.3257 1.8704-0.74719z" opacity=".5"/>
  <path d="m169.88 114.27-1.8701 0.74754-0.52952-1.3257 1.8701-0.74719z" opacity=".5"/>
  <path d="m172.97 113.04-1.8701 0.74754-0.52988-1.3257 1.8701-0.74719z" opacity=".5"/>
  <path d="m158.4 121.4-1.8701 0.74718-0.52988-1.3254 1.8701-0.74754z" opacity=".5"/>
  <path d="m161.49 120.17-1.8701 0.74718-0.52988-1.3254 1.8704-0.74754z" opacity=".5"/>
  <path d="m164.58 118.93-1.8701 0.74718-0.52988-1.3257 1.8704-0.74718z" opacity=".5"/>
  <path d="m167.67 117.7-1.8701 0.74718-0.52952-1.3254 1.8701-0.74754z" opacity=".5"/>
  <path d="m170.75 116.46-1.8701 0.74718-0.52988-1.3257 1.8701-0.74718z" opacity=".5"/>
  <path d="m173.84 115.23-1.8701 0.74718-0.52988-1.3257 1.8701-0.74718z" opacity=".5"/>
  <path d="m159.28 123.59-1.8701 0.74754-0.52988-1.3257 1.8701-0.74719z" opacity=".5"/>
  <path d="m162.36 122.35-1.8701 0.74754-0.52988-1.3257 1.8704-0.74719z" opacity=".5"/>
  <path d="m165.45 121.12-1.8701 0.74754-0.52988-1.3257 1.8704-0.74719z" opacity=".5"/>
  <path d="m168.54 119.89-1.8701 0.74718-0.52988-1.3254 1.8701-0.74754z" opacity=".5"/>
  <path d="m171.63 118.65-1.8701 0.74754-0.52988-1.3257 1.8701-0.74754z" opacity=".5"/>
  <path d="m174.72 117.42-1.8701 0.74718-0.52988-1.3254 1.8704-0.74754z" opacity=".5"/>
  <path d="m160.15 125.78-1.8701 0.74718-0.52988-1.3257 1.8704-0.74718z" opacity=".5"/>
  <path d="m163.24 124.54-1.8701 0.74718-0.52988-1.3257 1.8704-0.74718z" opacity=".5"/>
  <path d="m166.33 123.31-1.8701 0.74718-0.52988-1.3257 1.8701-0.74718z" opacity=".5"/>
  <path d="m169.42 122.08-1.8701 0.74718-0.52988-1.3257 1.8701-0.74718z" opacity=".5"/>
  <path d="m172.5 120.84-1.8701 0.74718-0.52988-1.3257 1.8701-0.74718z" opacity=".5"/>
  <path d="m175.59 119.61-1.8701 0.74754-0.52988-1.3257 1.8704-0.74719z" opacity=".5"/>
  <path d="m161.03 127.97-1.8701 0.74718-0.52988-1.3254 1.8704-0.74754z" opacity=".5"/>
  <path d="m164.11 126.73-1.8701 0.74718-0.52952-1.3254 1.8701-0.74754z" opacity=".5"/>
  <path d="m167.2 125.5-1.8701 0.74718-0.52988-1.3254 1.8701-0.74754z" opacity=".5"/>
  <path d="m170.29 124.26-1.8701 0.74718-0.52988-1.3254 1.8704-0.74754z" opacity=".5"/>
  <path d="m173.38 123.03-1.8701 0.74718-0.52988-1.3257 1.8704-0.74718z" opacity=".5"/>
  <path d="m176.47 121.8-1.8701 0.74718-0.52988-1.3257 1.8704-0.74718z" opacity=".5"/>
  <path d="m161.9 130.15-1.8701 0.74754-0.52988-1.3257 1.8704-0.74719z" opacity=".5"/>
  <path d="m164.99 128.92-1.8701 0.74754-0.52988-1.3257 1.8701-0.74719z" opacity=".5"/>
  <path d="m168.08 127.69-1.8701 0.74754-0.52988-1.3257 1.8701-0.74719z" opacity=".5"/>
  <path d="m171.16 126.45-1.8701 0.74754-0.52988-1.3257 1.8704-0.74719z" opacity=".5"/>
  <path d="m174.25 125.22-1.8701 0.74754-0.52988-1.3257 1.8704-0.74719z" opacity=".5"/>
  <path d="m177.34 123.98-1.8701 0.74754-0.52952-1.3257 1.8701-0.74754z" opacity=".5"/>
 </g>
 <g transform="translate(-34.075,-65.22)" fill="#fff">
  <path d="m171.77 114.52c-0.11465-0.28681 0.025-0.61242 0.31186-0.72743 0.28716-0.11465 0.61277 0.0254 0.72742 0.31221 0.11466 0.28681-0.025 0.61278-0.31185 0.72708-0.28716 0.11465-0.61278-0.0251-0.72743-0.31186"/>
  <path d="m171.3 122.32c-0.11465-0.28681 0.025-0.61242 0.31186-0.72743 0.2868-0.1143 0.61242 0.0254 0.72707 0.31221 0.11501 0.28716-0.0247 0.61278-0.31186 0.72743-0.2868 0.1143-0.61242-0.0254-0.72707-0.31221"/>
  <path d="m164.25 122.6c-0.11465-0.28681 0.025-0.61242 0.31186-0.72743 0.28716-0.11465 0.61277 0.0254 0.72707 0.31186 0.11501 0.28716-0.0247 0.61277-0.3115 0.72743-0.28716 0.11465-0.61278-0.0251-0.72743-0.31186"/>
  <path d="m159.83 129.45c-0.11465-0.28681 0.025-0.61242 0.31186-0.72743 0.2868-0.11465 0.61277 0.025 0.72707 0.31186 0.11501 0.28716-0.0247 0.61277-0.3115 0.72743-0.28716 0.11465-0.61278-0.025-0.72743-0.31186"/>
  <path d="m160.35 129.45c-0.0385 0-0.0776-0.0106-0.11254-0.0335-0.0959-0.0621-0.12347-0.1905-0.0614-0.28646l4.4263-6.8456c0.0367-0.0568 0.0984-0.0921 0.16581-0.0945l6.8629-0.27234 0.45226-7.613c7e-3 -0.11394 0.10795-0.19931 0.21943-0.19438 0.1143 7e-3 0.20143 0.10478 0.19473 0.21943l-0.46355 7.8003c-6e-3 0.10654-0.0924 0.1905-0.19861 0.19473l-6.9434 0.27517-4.3677 6.7553c-0.0395 0.0614-0.10618 0.0949-0.17427 0.0949"/>
 </g>
 <path d="m114.82 37.28c-0.53975 2.8526 0.65796 14.863 2.225 26.464l12.999-2.2325c-0.25506-2.0119-1.6758-16.664 0.41543-26.879 0 0-2.4211-0.48578-4.7279-0.5969-1.8048-0.08678-4.4171-0.14464-6.0036 3.53e-4 -0.66216 0.06033-1.3123 0.15593-1.8916 0.25823-1.5268 0.27023-2.7277 1.4623-3.0159 2.9859" fill="#0b2854"/>
 <path d="m117.04 41.67-2.6529 0.21167c-0.0952 3.4325 0.14111 8.442 1.1218 15.706h0.127c1.591-5.2317 3.7006-12.711 1.4041-15.917" opacity=".2"/>
 <path d="m123.78 118.64 0.13511 3.1521h2.6416l-0.13511-3.1521z" opacity=".2"/>
 <path d="m126.24 25.9c-0.67839 2.5312-0.94686 4.0474-2.509 5.0998-2.3495 1.5829-5.2747-0.23389-5.3664-2.9168-0.0825-2.4148 1.0407-6.1486 3.7571-6.659 2.6765-0.502 4.7967 1.9449 4.1183 4.476" fill="#e9c6af"/>
 <path d="m120.32 25.917-1.372 0.35666 1.2767-3.3112c-0.13829-0.25294-0.502-1.4037-0.11747-2.5541 0.1016-0.30339 0.37994-0.5087 0.69955-0.5147 2.8441-0.05503 5.8166 1.5409 7.3148 2.7481 0.28857 0.23248 0.35913 0.64206 0.16581 0.9585-0.32773 0.53693-0.75248 0.94791-1.2876 1.4922-0.0282 0.9271-1.5424 5.1163-2.3802 5.5869-0.83785 0.47025-2.4402 0.27905-2.8663-0.48507-0.42616-0.76447-1.8669-1.7787-1.4333-4.2774"/>
 <path d="m121.58 25.969c-0.15416 0.66887-0.57503 1.252-1.0224 1.6041-0.6731 0.52987-1.1998 0.04092-1.1719-0.73801 0.0247-0.70062 0.40499-1.821 1.1571-2.0489 0.74084-0.22437 1.2136 0.41804 1.0372 1.1829" fill="#e9c6af"/>
 <path d="m146.24 123.56c-3.5e-4 -0.0441-5e-3 -0.0847-0.0148-0.121-0.0162-0.0575-0.0451-0.0974-0.0885-0.12171-0.078-0.0437-0.11642-0.0279-0.13829-0.0116-0.17004 0.12418-0.16969 0.79128-0.097 1.282 0.12418-0.24553 0.34079-0.71931 0.33867-1.0276m-0.50941 0.42157c-2e-3 -0.33867 0.0423-0.66604 0.19403-0.77682 0.0529-0.0388 0.14358-0.0695 0.2734 4e-3 0.0727 0.0406 0.12241 0.10725 0.14746 0.1972 0.12241 0.43886-0.39758 1.3649-0.4198 1.4041-0.0131 0.0222-0.0385 0.0353-0.0642 0.031-0.0257-4e-3 -0.0462-0.0236-0.0515-0.0494-0.0346-0.16792-0.0773-0.49353-0.0794-0.80962" fill="#007cff"/>
 <path d="m146.88 124.13c0-0.0123-7.1e-4 -0.025-2e-3 -0.0374-0.0123-0.11289-0.0568-0.1196-0.0713-0.12171-0.17921-0.0279-0.62512 0.40357-0.81844 0.73025 0.20743-0.0349 0.63253-0.13194 0.81174-0.35384 0.0543-0.0663 0.0804-0.13794 0.0801-0.21731m-1.0661 0.65087c-3.6e-4 -9e-3 1e-3 -0.0173 5e-3 -0.0257 0.14076-0.31961 0.70802-0.95461 1.0068-0.90805 0.0698 0.0109 0.15769 0.06 0.17603 0.23178 0.0141 0.12841-0.0215 0.24447-0.10477 0.34748-0.27376 0.33761-0.98461 0.41346-1.015 0.41663-0.0219 2e-3 -0.0437-8e-3 -0.0568-0.0258-8e-3 -0.0106-0.0116-0.0233-0.0116-0.0363" fill="#007cff"/>
 <path d="m145.84 124.8-2.5767 0.18274-1.4474-6.1641 2.5763-0.18274z" fill="#e9c6af"/>
 <path d="m145.84 124.2-2.8723-0.25435c-0.10759-9e-3 -0.20708 0.0571-0.23989 0.15981l-0.72636 2.292c-0.0755 0.23777 0.0882 0.48401 0.3369 0.5013 1.0379 0.0741 2.5404 0.14605 3.8424 0.26141 1.5229 0.13441 0.53658 0.13123 2.3223 0.28928 1.0798 0.0953 1.476-0.96979 1.0329-1.1088-2.0179-0.63218-2.383-1.0686-3.0804-1.8796-0.14888-0.17287-0.38841-0.2406-0.6156-0.26106" fill="#1a2e35"/>
 <path d="m121.12 62.88s5.4657 14.997 7.7704 22.526c2.5234 8.2444 12.126 35.596 12.126 35.596l4.6556-1.023s-6.5772-23.5-9.3049-34.998c-2.0948-8.8318-6.3309-23.466-6.3309-23.466z" fill="#247afd"/>
 <path d="m141.82 118.82 0.74577 3.1771 2.5778-0.18274-0.74577-3.1771z" opacity=".2"/>
 <path d="m140.2 119.56c-0.0215 2e-3 0.45791 1.8182 0.45791 1.8182l5.6-0.60114-0.0254-1.6644z" fill="#1a2e35"/>
 <path d="m123.88 66.99c3.3606 0.44309 4.699 12.156 5.2024 19.029-0.0639-0.21767-0.13088-0.42404-0.18944-0.61913-1.2576-4.1109-3.6392-12.032-5.5436-18.372 0.15769-0.0526 0.33726-0.0639 0.53058-0.0377" opacity=".3"/>
 <path d="m116.9 63.3s0.63412 14.047 1.5115 22.088c0.91264 8.3644 4.3392 35.8 4.3392 35.8h4.4732s-0.54222-26.935-0.72249-35.16c-0.1965-8.9676-3.4046-23.383-3.4046-23.383z" fill="#247afd"/>
 <path d="m122.06 119.4c-0.0208 0 0.25224 1.857 0.25224 1.857h5.4416l0.14711-1.6577z" fill="#1a2e35"/>
 <path d="m108.74 68.4c1.9622 3.1126 1.0298 7.227-2.0828 9.1895-3.1133 1.9625-7.2281 1.0301-9.1906-2.0824-1.9628-3.1136-1.0298-7.2281 2.0835-9.1906 3.1122-1.9625 7.227-1.0298 9.1899 2.0835m-12.333 7.7752c2.3312 3.6978 7.22 4.8052 10.918 2.474 3.6982-2.3315 4.8059-7.2192 2.4744-10.917-2.3312-3.6978-7.2192-4.8066-10.917-2.4751-3.6978 2.3312-4.8059 7.2207-2.4747 10.918" fill="#1a2e35"/>
 <path d="m109.06 73.3c-0.74542 3.2882-4.016 5.3502-7.3046 4.6052-3.2893-0.74612-5.3513-4.0164-4.6059-7.3046 0.74577-3.2896 4.0164-5.3513 7.3057-4.6059 3.2886 0.74542 5.3502 4.016 4.6048 7.3053" fill="#007cff" opacity=".2"/>
 <path d="m110.02 66.77 0.74224 1.1772c0.11254 0.17886 0.0589 0.41522-0.11994 0.52775-0.17851 0.11254-0.41522 0.0593-0.52776-0.11959l-0.74189-1.1772c-0.11289-0.17885-0.0593-0.41522 0.11959-0.52775 0.17886-0.11254 0.41522-0.0593 0.52776 0.11959" fill="#1a2e35"/>
 <path d="m114.82 63.43c-0.8576 0.58596-1.7089 1.1825-2.5499 1.7949-0.83996 0.61348-1.6732 1.2386-2.4818 1.9022-0.18168 0.14887-0.24694 0.40746-0.14287 0.62971 0.12312 0.26317 0.43638 0.37641 0.6992 0.25329 0.94756-0.44344 1.8708-0.92569 2.7866-1.4192 0.91546-0.4946 1.8207-1.0058 2.7189-1.5268 0.76412-0.44486 1.5226-0.89888 2.2772-1.3596 0.21696-0.13264 0.28328-0.41804 0.14746-0.63359l-0.61101-0.96943c-0.13582-0.2152-0.42192-0.27834-0.63535-0.13935-0.74083 0.4819-1.4774 0.97014-2.2084 1.4679" fill="#1a2e35"/>
 <path d="m118.74 38.27c-0.4318 2.1177-0.895 4.228-1.3762 6.3334l-1.463 6.2992c-0.47342 2.0532-0.87876 4.1356-1.2499 6.2477l-1.1102 6.3514-3e-3 0.0145c-0.0945 0.54186-0.61066 0.90417-1.1522 0.80927-0.47237-0.0825-0.80822-0.48577-0.82409-0.9465-0.0759-2.2049-0.042-4.3854 0.0811-6.58 0.13123-2.1876 0.33408-4.3953 0.69426-6.5906 0.34361-2.1583 0.73025-4.2922 1.1437-6.4241 0.41204-2.1311 0.86007-4.2531 1.3483-6.3655 0.24906-1.077 1.324-1.748 2.4006-1.4993 1.059 0.24483 1.7251 1.2919 1.5102 2.3506" fill="#247afd"/>
 <path d="m113.24 62.93c-0.17851-0.18874-0.44697-0.26741-0.69956-0.20708l-0.57397 0.13688c-0.29386 0.0699-0.51399 0.31397-0.5528 0.61383l-0.16616 1.2735c-0.0476 0.36512 0.0303 0.73519 0.22049 1.0502l0.7874 1.3032c0.20743 0.27446 0.55492 0.40428 0.89147 0.33267l0.82091-0.17427c0.5147-0.10901 0.82197-0.63994 0.65969-1.1405l-0.21519-0.66393s-0.013-1.2986-1.1723-2.5245" fill="#e9c6af"/>
 <path d="m121.5 37.04c1.2838 3.4057-3.1567 8.2624-3.1567 8.2624l-5.6187-1.8584s0.43004-4.6468 2.3802-7.2665c2.4091-3.236 5.4176-1.73 6.3952 0.86254" fill="#0b2854"/>
</svg>
