<?xml version="1.0" encoding="UTF-8"?>
<!-- Created with Inkscape (http://www.inkscape.org/) -->
<svg width="794.34" height="636.68" version="1.1" viewBox="0 0 794.34 636.68" xml:space="preserve" xmlns="http://www.w3.org/2000/svg"><g transform="matrix(1.3333 0 0 -1.3333 -27.383 636.68)"><g><path d="m616.26 195.6c-4.156-64.308-53.484-125.71-120.29-129.52-76.733-5.878-147.16 36.202-223.6 36.647-38.975 3.341-75.527-11.582-113.51-16.401-85.786-3.148-98.856 97.663-82.857 162.64 67.473 306.34 544.93 264.66 540.26-53.37" fill="#e1edff"/><path d="m295.24 159.81v-0.01s-18.591-20.801-61.292-27.913c-20.392-3.404-46.282-3.686-78.269 2.922l1.864 20.141c13.585-6.692 90.953-11.783 132.12 7.698 1.948 0.922 3.445 2.357 4.44 4.043z" fill="#fff"/><path d="m233.95 131.88-19.334-131.88h-71.43l12.495 134.81c31.986-6.609 57.877-6.326 78.269-2.922" fill="#0145ac"/><path d="m321.76 0h-64.832l-22.979 131.88c42.701 7.111 61.292 27.912 61.292 27.912z" fill="#0145ac"/><path d="m444.04 325.56-70.969-59.804c-9.835-8.285-23.932-9.123-34.678-2.074l-58.558 38.386c5.142-20.958 12.809-122.87 12.809-122.87 0.073-0.084 0.157-0.168 0.23-0.241 3.216-3.519 3.446-8.515 1.226-12.265v-0.01c-0.995-1.686-2.493-3.121-4.441-4.043-41.161-19.481-118.53-14.391-132.11-7.698-11.511 5.677-4.661 15.909-4.661 15.909l6.211 69.493-10.097 27.179-31.127-50.703c-10.338-16.842-35.736-13.417-41.256 5.551l-19.03 65.533c1.152 1.749 2.503 3.31 4.011 4.693 0.985 0.911 2.032 1.749 3.121 2.513 6.745 4.755 15.198 6.923 20.958 7.908 0.513 0.094 1.005 0.167 1.477 0.241 3.131 0.471 5.174 0.555 5.174 0.555l7.761-18.046s19.355 48.671 24.068 57.06c3.435 6.106 23.733 17.889 23.733 17.889-3.488 7.907 0.524 14.967 9.95 27.545 1.624 2.179 3.928 4.148 6.452 5.876l43.466 7.71c13.937-6.26 20.632-10.439 21.093-19.178 0 0 41.476-0.042 55.636-9.552 14.171-9.521 70.655-60.957 70.655-60.957l65.418 39.014c14.747-3.1 23.482-25.618 23.482-25.618" fill="#2e80fe"/><path d="m87.148 303.26c-0.471-0.073-0.964-0.147-1.477-0.241-5.76-0.984-14.212-3.152-20.957-7.907-1.09-0.765-2.137-1.603-3.122-2.514-1.707 3.54-3.634 6.975-5.771 10.285-0.984 0.723-1.916 1.519-2.775 2.367-2.472 2.451-4.493 5.3-6.504 8.148-2.451 3.467-4.902 6.934-7.353 10.401-0.974 0.785-1.979 1.55-3.006 2.272-5.016 3.53-10.787 6.243-14.705 10.977-0.628 0.764-1.235 1.812-0.785 2.702 0.314 0.628 1.068 0.922 1.77 0.901 0.702-0.032 1.362-0.325 1.99-0.608 5.279-2.388 10.453-4.996 15.522-7.803-5.918 6.148-11.259 12.852-15.951 19.984-0.66 0.995-1.289 2.357-0.545 3.278 0.45 0.555 1.267 0.692 1.959 0.524 0.691-0.168 1.298-0.597 1.874-1.016 6.787-4.985 12.851-10.955 17.963-17.658-4.724 7.425-9.458 14.841-14.182 22.266-0.67 1.048-1.361 2.179-1.382 3.436-0.021 1.246 0.942 2.608 2.189 2.524 0.806-0.052 1.456-0.66 2.021-1.225 6.913-6.903 13.249-14.36 18.947-22.299 0 0-8.945 17.921-12.694 27.19-0.398 0.984-0.754 2.241-0.021 3.016 0.565 0.597 1.56 0.576 2.273 0.189 0.722-0.388 1.236-1.058 1.728-1.718 7.593-10.17 15.187-20.319 22.78-30.489 0 3.582 0.021 7.185 0.586 10.715 0.587 3.603 1.771 7.164 3.939 10.086 0.785 1.068 1.969 2.147 3.267 1.854 0.912-0.199 1.561-1.048 1.812-1.938 0.252-0.89 0.178-1.843 0.115-2.765-0.356-5.478-0.178-10.997 0.514-16.443 0.785-6.149 2.231-12.192 3.194-18.308 0.576-3.677 0.974-7.405 0.953-11.113 1.948-3.027 3.896-6.054 5.834-9.07" fill="#ffa8a7"/></g><g fill="#0948a9"><path d="m113.6 251.15-9.124 25.621c-0.858 2.411-1.717 4.822-2.575 7.233-0.226 0.635-1.203 0.255-0.976-0.38 3.041-8.541 6.082-17.081 9.123-25.622 0.859-2.411 1.718-4.822 2.576-7.233 0.226-0.635 1.202-0.255 0.976 0.381"/><path d="m117.47 260.89c-2.2 3.561-4.658 6.956-7.356 10.156-0.433 0.513-1.283-0.099-0.848-0.615 2.698-3.201 5.157-6.595 7.357-10.157 0.354-0.574 1.2 0.045 0.847 0.616"/><path d="m191.2 331.4c-10.91 6.675-21.832 13.361-32.24 20.807-2.901 2.076-5.718 4.276-8.715 6.213-0.561 0.363-1.229-0.445-0.663-0.81 2.68-1.733 5.208-3.685 7.794-5.552 2.619-1.891 5.272-3.732 7.951-5.536 5.293-3.564 10.685-6.98 16.108-10.341 3.103-1.924 6.218-3.829 9.332-5.735 0.574-0.351 1.001 0.607 0.433 0.954"/><path d="m228.13 377.69c-5.94-12.105-12.486-23.913-19.628-35.35-2.009-3.218-4.066-6.408-6.167-9.568-0.37-0.557 0.438-1.225 0.811-0.664 7.491 11.271 14.414 22.918 20.722 34.891 1.788 3.394 3.526 6.814 5.216 10.258 0.298 0.606-0.658 1.037-0.954 0.433"/></g><path d="m352.9 308.4c-2.688-5.977-5.375-11.955-8.063-17.932-0.277-0.615 0.678-1.048 0.954-0.433 2.688 5.977 5.375 11.955 8.063 17.932 0.277 0.616-0.677 1.048-0.954 0.433" fill="#ff8d00"/><path d="m350.2 308.77c-2.882-3.808-5.763-7.616-8.645-11.423-0.406-0.538 0.404-1.202 0.811-0.664 2.882 3.808 5.763 7.616 8.645 11.423 0.406 0.538-0.404 1.202-0.811 0.664" fill="#ff8d00"/><g fill="#0948a9"><path d="m245.85 281.51c-7.961-3.973-15.92-7.956-23.719-12.242-7.798-4.287-15.439-8.887-22.676-14.074-4.083-2.926-8.03-6.042-11.793-9.371-0.501-0.443 0.11-1.294 0.616-0.847 6.631 5.866 13.832 11.049 21.326 15.754 7.52 4.722 15.326 8.969 23.216 13.036 4.451 2.294 8.93 4.532 13.411 6.768 0.598 0.299 0.224 1.278-0.381 0.976"/><path d="m222.33 255.12c-6.373-2.603-12.746-5.206-19.119-7.809-0.623-0.254-0.246-1.231 0.381-0.976l19.119 7.809c0.623 0.255 0.245 1.232-0.381 0.976"/><path d="m193.71 219.08c-1.73-11.265-5.937-22.13-12.256-31.618-1.796-2.696-3.76-5.277-5.875-7.732-0.441-0.512 0.371-1.174 0.811-0.664 7.541 8.755 13.103 19.143 16.265 30.253 0.897 3.152 1.592 6.358 2.09 9.597 0.102 0.666-0.933 0.831-1.035 0.164"/><path d="m268.85 181.54c-7.08 9.061-12.171 19.657-14.798 30.856-0.74 3.156-1.283 6.355-1.634 9.578-0.073 0.669-1.114 0.555-1.041-0.117 1.262-11.583 5.069-22.841 11.059-32.833 1.686-2.812 3.548-5.516 5.567-8.1 0.414-0.53 1.263 0.083 0.847 0.616"/><path d="m255.97 176.47c-3.557-1.935-7.457-3.078-11.424-3.815-4.14-0.77-8.353-1.205-12.55-1.512-8.753-0.64-17.559-0.488-26.285 0.454-2.403 0.26-4.8 0.579-7.188 0.958-2.229 0.353-4.648 0.621-6.548 1.943-0.551 0.383-1.218-0.426-0.664-0.811 1.592-1.107 3.454-1.558 5.339-1.885 2.198-0.382 4.408-0.701 6.623-0.976 4.461-0.553 8.948-0.899 13.441-1.039 8.815-0.275 17.738 0.142 26.449 1.565 4.564 0.746 9.103 1.92 13.188 4.142 0.584 0.318 0.211 1.298-0.381 0.976"/><path d="m233.57 224.2c-8.089-0.567-16.205-0.724-24.31-0.459-0.665 0.021-0.837-1.013-0.164-1.035 8.2-0.268 16.407-0.12 24.591 0.453 0.672 0.047 0.556 1.088-0.117 1.041"/></g><g><path d="m190.79 327.25c-2.247-11.255-4.494-22.51-6.742-33.765-0.396-1.985 2.708-2.473 3.104-0.492l6.741 33.765c0.397 1.985-2.707 2.473-3.103 0.492" fill="#e1edff"/><path d="m215.29 294.1c-4.202 10.621-7.955 21.414-11.248 32.352-0.583 1.935-3.509 0.787-2.928-1.142 3.293-10.938 7.046-21.731 11.248-32.352 0.744-1.879 3.674-0.744 2.928 1.142" fill="#e1edff"/><path d="m54.584 345.01c-4.885-3.709-9.444-7.831-13.628-12.315-0.461-0.494 0.353-1.155 0.81-0.664 4.125 4.42 8.619 8.476 13.434 12.132 0.537 0.407-0.078 1.256-0.616 0.847" fill="#f28f8f"/><path d="m60.352 332.52c-1.433-4.811-2.866-9.622-4.3-14.432-0.192-0.644 0.845-0.802 1.035-0.164 1.433 4.81 2.866 9.621 4.299 14.432 0.192 0.644-0.844 0.802-1.034 0.164" fill="#f28f8f"/><path d="m206.87 415.14 0.869-4.535c0.566-2.975 0.545-5.939 0.011-8.756-0.524-2.765-1.54-5.404-2.964-7.782v-0.01c-3.352-5.572-8.934-9.751-15.763-11.06-6.839-1.32-13.584 0.502-18.748 4.451-2.388 1.812-4.43 4.074-5.991 6.692-1.361 2.284-2.346 4.829-2.88 7.573l-0.869 4.535c-12.914-2.482-16.685 13.647-11.888 18.297 0.126 0.126 0.262 0.241 0.388 0.346 3.341 2.838 6.525 0.513 7.666-0.534 0.116 0.042 0.22 0.105 0.325 0.178 6.557 3.634 11.175 10.568 12.003 18.025 4.179-2.241 9.185-2.891 13.804-1.791 4.608 1.1 8.787 3.948 11.5 7.834 0.974-5.959 4.273-11.51 9.039-15.218l0.105-0.586s1.372 3.938 4.838 4.231c0.817 0.073 1.749-0.053 2.818-0.492 6.179-2.535 8.661-18.926-4.263-21.398" fill="#ffa8a7"/><path d="m212.46 372.38-13.867-39.831-27.42 31.902-0.325 8.285-0.576 14.716c5.164-3.949 11.909-5.771 18.748-4.452 6.829 1.309 12.411 5.488 15.763 11.06z" fill="#ffa8a7"/><path d="m208.32 437.06v-0.031c-3.467-0.294-4.839-4.232-4.839-4.232l-0.105 0.587c-4.765 3.707-8.064 9.258-9.038 15.218-2.713-3.886-6.892-6.735-11.5-7.834-4.619-1.1-9.626-0.451-13.805 1.791-0.827-7.458-5.446-14.391-12.002-18.025-0.105-0.074-0.21-0.137-0.325-0.178-1.142 1.047-4.326 3.372-7.667 0.534-1.56 0.408-3.026 1.34-4.179 2.566-1.152 1.225-2 2.744-2.325 4.325-0.639 3.174 0.671 6.662 3.237 8.631-3.478 1.969-5.352 6.409-4.336 10.285 1.015 3.864 4.838 6.807 8.839 6.807-2.472 2.022-3.341 5.604-2.587 8.704 0.765 3.09 2.922 5.708 5.53 7.562 6.525 4.629 15.491 4.619 22.979 1.801 7.405-2.796 13.637-7.97 19.471-13.312l0.356 0.388c1.948 2.032 5.425 1.99 7.75 0.398 2.326-1.592 3.603-4.368 4.064-7.143 0.472-2.776 0.231-5.614 0.147-8.431-0.115-3.467 0-6.955 0.335-10.411"/><path d="m204.79 394.06s-4.996-24.969-33.935-21.324l-0.576 14.715c5.164-3.948 11.909-5.771 18.748-4.451 6.829 1.309 12.411 5.488 15.763 11.06" fill="#f28f8f"/><path d="m187.92 409.02c-2.727-0.96-5.473-1.865-8.233-2.725-0.188 6.393-0.465 12.784-0.842 19.169-0.04 0.673-1.078 0.532-1.038-0.138 0.389-6.597 0.677-13.2 0.864-19.806 0.011-0.372 0.434-0.502 0.724-0.413 2.997 0.924 5.976 1.907 8.934 2.949 0.636 0.223 0.226 1.188-0.409 0.964" fill="#f28f8f"/><path d="m194.8 408.54c0.5-4.104-1.419-8.301-4.824-10.636-0.556-0.381 0.088-1.207 0.643-0.826 3.703 2.539 5.762 7.15 5.219 11.6-0.081 0.669-1.12 0.532-1.038-0.138" fill="#34314c"/><path d="m171.77 419.59c0.574-1.926-0.226-3.865-1.787-4.329-1.56-0.465-3.29 0.72-3.864 2.646-0.573 1.927 0.226 3.865 1.787 4.33 1.56 0.464 3.29-0.721 3.864-2.647"/><path d="m193.41 425.21c0.574-1.926-0.226-3.865-1.787-4.329-1.56-0.465-3.29 0.72-3.864 2.646-0.573 1.927 0.226 3.865 1.787 4.33 1.56 0.464 3.29-0.721 3.864-2.647"/><path d="m464.81 291.64-1.833-1.079-2.074-1.225-31.347-18.497-2.734-1.612-8.012 14.704-14.925-31.536-14.192-29.975c0.849-3.928 1.624-8.431 2.346-13.406 1.048-7.217 1.959-15.438 2.776-24.341-12.799 1.1-24.131 2.859-34.144 5.08-45.759 10.138-64.057 29.745-69.995 38.092 5.907 11.312 10.316 18.455 10.316 18.455l0.964 46.167-12.034-7.96-2.095 3.059-22.162 32.353-2.137 3.121s29.222 24.917 45.393 27.263c0.303 0.042 0.607 0.073 0.9 0.104 9.647 0.912 21.409 1.153 29.211 1.205h0.189v-1.184c2.105-7.719 7.75-14.401 15.04-17.731 7.51-3.436 16.601-3.205 23.932 0.607 7.08 3.666 12.38 10.61 14.087 18.381 3.362 0 7.258-0.01 11.396-0.063 5.247-0.062 11.761-0.23 18.182-1.602 8.651-1.833 17.145-5.844 22.183-14.705 8.777-15.428 20.769-43.675 20.769-43.675" fill="#0256d7"/><path d="m395.96 170.64c-3.969-0.995-7.96-1.812-11.95-2.472-5.3-0.88-10.6-1.487-15.857-1.843-46.493-3.257-89.822 11.709-97.95 14.705 6.159 17.931 14.161 34.741 20.466 46.817 5.938-8.348 24.236-27.954 69.995-38.093 10.013-2.22 21.345-3.98 34.144-5.079 0.366-4.001 0.712-8.138 1.026-12.38 0.042-0.545 0.084-1.1 0.126-1.655" fill="#b16668"/><path d="m287.82 287.56c-0.89-0.45-45.11-22.581-57.783-24.351-13.291-1.854-23.524 8.871-19.083 21.534l29.452 84.145c-2.702 15.228-11.835 28.467-17.564 42.847-0.503 1.257-0.828 3.006 0.335 3.697 1.194 0.702 2.576-0.482 3.446-1.56 3.76-4.692 7.457-9.437 11.07-14.234-2.524 8.002-4.252 16.255-5.174 24.592-0.125 1.163-0.073 2.629 0.985 3.132 1.288 0.597 2.545-0.828 3.236-2.074 4.472-8.086 8.013-16.716 10.505-25.629-1.131 9.154-1.623 18.392-1.477 27.619 0.032 1.477 0.409 3.362 1.865 3.592 0.764 0.116 1.529-0.356 1.979-0.974 0.451-0.628 0.66-1.393 0.859-2.147 2.42-9.311 4.357-18.727 5.813-28.226-0.869 9.217-0.545 18.538 0.943 27.671 0.209 1.288 0.618 2.786 1.833 3.247 1.078 0.398 2.304-0.272 2.922-1.236s0.764-2.147 0.9-3.278c1.582-13.375 3.163-26.739 4.745-40.114 3.477 3.896 7.604 7.227 12.149 9.803 1.226 0.702 2.86 1.32 3.959 0.43 0.807-0.65 0.922-1.886 0.555-2.86-0.356-0.963-1.089-1.738-1.78-2.513-2.723-3.038-5.069-6.4-6.976-10.003-2.157-4.063-3.76-8.42-6.168-12.338-2.305-3.749-7.522-7.63-7.522-7.63l-7.733-48.472 11.547 7.683z" fill="#b16668"/><path d="m540.22 287.86c-27.273-30.112-50.64-48.325-65.806-58.464-9.52-6.368-22.445-2.974-27.598 7.238l-17.26 34.206 31.347 18.497 5.949-15.302 62.601 30.855z" fill="#ff893f"/><path d="m303.5 308.77c-0.71-5.028-1.206-10.083-1.486-15.153-0.037-0.666 0.997-0.837 1.034-0.164 0.28 5.07 0.776 10.125 1.486 15.153 0.095 0.667-0.94 0.833-1.034 0.164" fill="#092856"/><path d="m418.41 287.02c-1.475 3.859-2.722 7.8-3.734 11.806-0.164 0.652-1.139 0.266-0.976-0.381 1.013-4.005 2.259-7.947 3.734-11.806 0.241-0.629 1.217-0.25 0.976 0.381" fill="#009789"/><path d="m420.51 298.12c-0.374-3.247-0.747-6.495-1.121-9.742-0.077-0.668 0.957-0.835 1.035-0.164 0.373 3.247 0.747 6.495 1.12 9.742 0.077 0.668-0.957 0.835-1.034 0.164" fill="#009789"/><path d="m343.85 272.85c-9.098-3.366-19.461-2.258-27.585 3.067-2.134 1.399-4.101 3.055-5.829 4.933-0.452 0.491-1.304-0.119-0.848-0.615 6.626-7.197 16.286-11.05 26.054-10.268 2.935 0.235 5.829 0.886 8.589 1.907 0.632 0.234 0.253 1.21-0.381 0.976" fill="#092856"/><path d="m404.25 269.34c-8.448-4.768-18.855-5.32-27.722-1.353-2.329 1.042-4.534 2.365-6.539 3.945-0.524 0.413-1.268-0.326-0.739-0.743 7.685-6.053 17.834-8.323 27.354-5.999 2.86 0.699 5.614 1.8 8.177 3.247 0.587 0.331 0.057 1.235-0.531 0.903" fill="#092856"/><path d="m260.5 402.09c-7.461-0.143-14.87-1.389-21.973-3.675-0.642-0.206-0.26-1.182 0.381-0.975 7.018 2.258 14.338 3.468 21.709 3.609 0.673 0.013 0.553 1.054-0.117 1.041" fill="#a15254"/><path d="m255.98 362.58c-3.187 1.538-6.373 3.076-9.559 4.614-0.609 0.294-1.04-0.661-0.434-0.954 3.187-1.538 6.374-3.076 9.56-4.614 0.608-0.294 1.039 0.661 0.433 0.954" fill="#a15254"/><path d="m389.82 386.62-0.272-4.367c-0.409-6.515-3.603-12.223-8.348-16.025-4.2-3.383-9.625-5.279-15.406-4.912-6.379 0.398-11.982 3.477-15.784 8.054-3.54 4.242-5.53 9.782-5.153 15.689l0.272 4.368c-12.464 0.785-12.097 16.506-6.588 19.638 4.127 2.346 6.693-1.016 7.426-2.21 0.157-0.241 0.23-0.398 0.23-0.398l0.032 0.461c11.877 3.069 23.073 8.714 32.604 16.433 1.226 0.995 2.42 2.011 3.582 3.079l0.115-0.125c0.136-1.079 0.315-2.148 0.524-3.216 1.32-6.787 4.011-13.312 7.855-19.051l-0.021-0.377s3.341 5.037 7.918 1.623c1.048-0.786 1.812-2.074 2.263-3.613 0.062-0.22 0.115-0.451 0.167-0.681 1.288-5.97-1.895-14.967-11.416-14.37" fill="#b16668"/><path d="m392.28 351.68c-1.707-7.771-7.007-14.715-14.087-18.381-7.332-3.813-16.423-4.043-23.932-0.608-7.29 3.331-12.935 10.013-15.04 17.732v1.184h0.209c4.692 0.031 7.845-0.021 8.107-0.021l0.356 2.566 2.126 15.218c3.802-4.577 9.405-7.656 15.784-8.054 5.781-0.367 11.206 1.529 15.406 4.912l2.032-14.59c1.959 0.021 5.132 0.042 9.039 0.042" fill="#b16668"/><path d="m421.85 350.02c-6.42 1.372-12.935 1.54-18.182 1.602-4.137 0.053-8.033 0.063-11.395 0.063-3.907 0-7.081-0.021-9.039-0.042l-2.032 14.59c4.744 3.802 7.939 9.51 8.347 16.025l0.273 4.367c9.52-0.597 12.704 8.4 11.416 14.37-0.052 0.23-0.105 0.461-0.168 0.681-0.45 1.539-1.215 2.828-2.262 3.613-4.577 3.415-7.918-1.623-7.918-1.623l0.021 0.377c-3.844 5.739-6.536 12.265-7.855 19.051-0.21 1.069-0.388 2.137-0.524 3.216l-0.115 0.125c-1.163-1.068-2.357-2.084-3.582-3.079-9.531-7.719-20.727-13.364-32.604-16.433-0.084-0.021-0.178-0.042-0.262-0.063-0.733 1.194-3.3 4.556-7.426 2.21-5.509-3.131-5.876-18.852 6.588-19.638l-0.272-4.367c-0.378-5.907 1.612-11.448 5.152-15.69l-2.482-17.784c-0.262 0-3.414 0.052-8.106 0.021h-0.398c-7.803-0.052-19.565-0.293-29.211-1.204-0.293-0.032-0.597-0.063-0.901-0.105-5.132 2.074-8.431 8.012-7.384 13.469 1.341 7.059 8.431 11.448 11.71 17.836 3.896 7.594 1.906 16.811 3.54 25.189 2.419 12.401 13.741 22.487 26.341 23.472 2.199 9.772 10.515 17.889 20.34 19.847 9.646 1.927 20.235-2.189 26.089-10.086 5.635 0.953 11.584-2.503 14.601-7.467 3.278-5.373 3.686-12.045 2.953-18.298-0.471-4.064-1.351-8.368-0.304-12.212 0.053-0.189 0.105-0.377 0.168-0.566 0.168-0.502 0.356-0.984 0.597-1.466 1.602-3.226 4.734-5.362 7.342-7.855 2.65-2.545 4.87-5.624 5.98-9.123 1.1-3.498 1.027-7.446-0.638-10.714-0.817-1.613-2.032-3.205-1.854-4.996 0.136-1.362 1.047-2.493 1.791-3.634 2.587-4.001 3.068-9.144 1.665-13.679" fill="#cb3434"/><path d="m370.22 386.16c-2.744 0.037-5.486 0.13-8.227 0.267 1.926 5.757 3.771 11.541 5.525 17.353 0.185 0.613-0.786 0.826-0.97 0.217-1.813-6.005-3.717-11.981-5.713-17.928-0.113-0.335 0.222-0.589 0.51-0.604 2.972-0.159 5.947-0.258 8.924-0.298 0.639-9e-3 0.59 0.984-0.049 0.993" fill="#a15254"/></g><g><path d="m359.3 400.87c-0.119-1.904-1.467-3.369-3.009-3.272s-2.695 1.718-2.576 3.622c0.12 1.904 1.467 3.369 3.009 3.273 1.542-0.097 2.695-1.719 2.576-3.623"/><path d="m380.42 398.78c-0.119-1.904-1.467-3.369-3.009-3.272s-2.695 1.718-2.576 3.622c0.12 1.904 1.467 3.369 3.009 3.273 1.542-0.097 2.695-1.719 2.576-3.623"/><path d="m373.39 407.4c0.77285 2.4578 10.901-0.48184 9.9378-3.3832-0.63163-2.1504-2.149 0.51686-5.1533 1.4063-2.7146 0.804-5.6114-0.59592-4.7844 1.9769z" stroke="#000" stroke-width=".75px"/><path d="m184.05 431.65c0.0319 2.5763 10.578 2.6797 10.491-0.3762 0.0148-2.2412-2.2068-0.12429-5.34-0.13822-2.8311-0.0123-5.2017-2.1875-5.1512 0.51446z" stroke="#000" stroke-width=".75px"/></g><g><path d="m381.2 366.23s-9.901-11.977-32.807-8.427l1.617 11.569c3.801-4.577 9.405-7.656 15.783-8.054 5.782-0.367 11.207 1.529 15.407 4.912" fill="#a15254"/><path d="m358.52 379.83c3.6461-4.5428 10.23-3.6318 13.583-2.2286 1.1135 0.79509 2.2077 0.42485 1.9442-1.1757-1.507-8.1116-12.441-7.2378-15.726-2.8151-1.8953 2.6978-3.7244 7.662 0.19849 6.2193z" fill="#f9e9dc"/><path d="m400.76 0h-55.908l-15.428 122.92-31.452-122.92h-60.852s18.057 128.74 29.117 168.33c1.194 4.263 2.535 8.504 3.969 12.694 9.741-3.593 70.038-24.372 125.76-10.39 5.226-70.76 4.797-170.64 4.797-170.64" fill="#0256d7"/></g><g fill="#13438d"><path d="m400.77 96.127c-52.305 7.866-73.389 62.894-73.389 62.894-34.835-38.826-74.53-42.125-74.53-42.125 1.844 31.599 17.795 73.064 23.21 86.355 0.754 1.854 3.257 2.137 4.43 0.513 14.674-20.287 32.007-32.112 48.818-38.815 30.771-12.265 59.804-7.342 67.638-5.645 1.152 0.251 2.294-0.461 2.545-1.613 6.347-28.823 1.278-61.564 1.278-61.564"/><path d="m327.38 162.22-18.923-90.841s16.45-9.609 39.597 0l-9.899 85.018z"/><path d="m327.38 159.02 0.388-97.249s16.938-7.424 35.135 6.988l-24.748 87.639z"/><path d="m347.41 155.53c-2.906-4.396-5.125-10.09-9.939-12.694-6.916-1.567-17.744 2.664-19.167 10.275-0.886 5.345 4.549 20.076 12.033 18.172 5.804-2.232 20.615-7.704 17.073-15.753"/></g><g fill="#0d2e60"><path d="m346.7 156.26c-1.198-3.745-3.732-6.971-7.121-8.978-3.8-2.25-8.566-2.741-12.767-1.418-0.636 0.2-1.075-0.752-0.433-0.954 6.842-2.154 14.438 0.192 18.732 5.974 1.112 1.498 1.975 3.166 2.543 4.943 0.203 0.635-0.749 1.074-0.954 0.433"/><path d="m329.47 142.99c-0.313-9.676-0.626-19.353-0.939-29.029-0.314-9.72-0.628-19.44-0.942-29.16-0.177-5.448-0.353-10.896-0.529-16.345-0.021-0.665 1.013-0.837 1.035-0.164 0.312 9.677 0.625 19.353 0.938 29.029 0.314 9.72 0.629 19.44 0.943 29.16 0.176 5.448 0.352 10.897 0.528 16.345 0.022 0.665-1.012 0.837-1.034 0.164"/><path d="m335.43 166.22c-6.435-3.59-10.946-10.268-11.911-17.568-0.089-0.668 0.945-0.834 1.034-0.164 0.933 7.056 5.281 13.419 11.493 16.885 0.588 0.328-0.034 1.172-0.616 0.847"/><path d="m317.52 162.07c-7.54 5.296-15.234 10.37-23.07 15.215-2.218 1.371-4.448 2.723-6.688 4.057-0.579 0.345-1.006-0.612-0.433-0.954 7.838-4.669 15.539-9.565 23.09-14.685 2.158-1.463 4.304-2.945 6.437-4.444 0.55-0.386 1.216 0.423 0.664 0.811"/><path d="m315.41 160.2c-8.416 1.747-16.742 3.925-24.929 6.545-2.317 0.741-4.623 1.518-6.918 2.327-0.632 0.223-1.069-0.73-0.433-0.954 8.155-2.875 16.458-5.329 24.869-7.337 2.407-0.575 4.824-1.112 7.247-1.615 0.661-0.137 0.823 0.897 0.164 1.034"/><path d="m384.77 140.46c-8.857 2.61-17.621 5.538-26.268 8.775-2.45 0.917-4.889 1.86-7.32 2.825-0.625 0.249-1.06-0.704-0.433-0.954 8.664-3.442 17.45-6.576 26.339-9.387 2.498-0.79 5.005-1.553 7.518-2.293 0.645-0.19 0.803 0.846 0.164 1.034"/><path d="m370.13 132.16c-7.929 4.926-15.356 10.645-22.161 17.033-0.493 0.463-1.153-0.351-0.664-0.81 6.876-6.454 14.382-12.201 22.392-17.177 0.572-0.355 0.998 0.603 0.433 0.954"/><path d="m333.5 70.176c-0.017 0.673-1.058 0.554-1.041-0.117 0.065-2.653 0.13-5.306 0.196-7.958 0.016-0.673 1.057-0.554 1.041 0.117-0.066 2.652-0.131 5.305-0.196 7.958"/><path d="m339.06 74.932c-0.021 0.673-1.062 0.554-1.041-0.117 0.13-4.206 0.26-8.411 0.391-12.617 0.021-0.673 1.061-0.554 1.041 0.117-0.131 4.206-0.261 8.411-0.391 12.617"/><path d="m344.12 69.207c-0.091 0.666-1.133 0.553-1.041-0.117 0.292-2.135 0.585-4.27 0.877-6.405 0.091-0.666 1.133-0.553 1.041 0.117-0.292 2.135-0.585 4.27-0.877 6.405"/><path d="m350.63 64.473c-1.042 3.818-1.83 7.7-2.372 11.621-0.092 0.666-1.134 0.553-1.041-0.117 0.554-4.011 1.371-7.979 2.437-11.885 0.177-0.649 1.152-0.265 0.976 0.381"/><path d="m355.43 66.815-1.359 4.464c-0.082 0.271-0.429 0.395-0.678 0.298-0.28-0.109-0.38-0.407-0.298-0.678 0.453-1.488 0.906-2.976 1.359-4.465 0.082-0.27 0.429-0.394 0.678-0.297 0.281 0.109 0.381 0.406 0.298 0.678"/><path d="m360.43 68.971c-1.363 3.233-2.727 6.466-4.09 9.7-0.261 0.619-1.239 0.242-0.976-0.381l4.09-9.7c0.261-0.619 1.239-0.242 0.976 0.381"/><path d="m313.6 82.537c-0.514-3.106-1.027-6.213-1.541-9.319-0.11-0.665 0.924-0.83 1.034-0.164 0.514 3.106 1.028 6.213 1.541 9.319 0.11 0.665-0.924 0.83-1.034 0.164"/><path d="m317.12 76.016c-0.24-1.676-0.479-3.351-0.719-5.027-0.095-0.667 0.939-0.833 1.034-0.164 0.24 1.676 0.48 3.351 0.719 5.027 0.096 0.667-0.938 0.833-1.034 0.164"/><path d="m323.14 81.656-0.896-11.353c-0.052-0.668 0.982-0.837 1.035-0.164l0.895 11.353c0.053 0.668-0.981 0.837-1.034 0.164"/></g><g><path d="m532.07 238.89-0.3-5.05c27.66-51.97 34.17-176.73 34.17-176.73-1.63-0.38-3.24-0.75-4.85-1.09-20.53-4.43-40.03-5.61-57.92-4.79-13.37 0.59-25.85 2.32-37.17 4.64-31.4 6.41-53.97 17.4-62.42 21.97-2.4 1.29-3.67 2.06-3.67 2.06 8.09 57.14 42.77 121.82 42.77 121.82l-2.39 11.33c0.67-4.73 0.62-15.45-10.74-24.53-7.13-5.69-21.03-11.59-33.71-16.23-0.32 4.24-0.66 8.38-1.03 12.38-0.82 8.9-1.73 17.13-2.78 24.34l15.82 12.34s-1.73 12.65-3.97 31.04c-0.41 3.37-0.82 6.74-1.19 9.99-2.43 21.04 2.24 39.46 13.38 44.33 4.91 2.16 14.15 5.98 21.88 9.11 11.41-13.63 25.16-25.29 40.45-34.33 10.11 14 17.22 30.17 20.7 47.1 0.02 0.09 0.04 0.19 0.06 0.28 3.25 0.33 8.83 0.94 12.23 1.4 10.58 1.41 24.17-5.97 28.83-15.77 4.65-9.8 14.46-42.45 14.46-42.45l5.24 15.74 0.67-0.12 22.2-4.1 1.78-0.32c1.07-62.6-8.49-74.34-20.09-75.12-11.59-0.78-16.79 8.15-16.79 8.15z" fill="#7aaefd"/><path d="m466 55.866-27.399-55.866h-51.551l16.527 77.84c8.453-4.567 31.023-15.564 62.423-21.974" fill="#e9c6af"/><path d="m564.39 0h-51.635l-9.583 51.226c17.889-0.817 37.391 0.367 57.919 4.797z" fill="#e9c6af"/><path d="m439.8 215.38c0.084-0.283 0.304-1.089 0.482-2.294z" fill="#ffb444"/><path d="m605 340.51c-2.357-6.923-6.776-12.956-9.751-19.638-1.979-4.441-3.31-9.154-5.048-13.699-1.676-4.389-3.781-8.694-7.007-12.098-0.136-3.833-0.272-7.656-0.409-11.5l-22.204 4.096c0.66 3.644 1.31 7.3 1.949 10.945-2.546 3.676-3.698 8.148-4.63 12.547-0.995 4.661-1.801 9.447-4.011 13.668-1.927 3.697-4.923 7.017-5.488 11.144-0.126 0.963-0.042 2.084 0.733 2.671 0.544 0.408 1.309 0.419 1.948 0.188 0.639-0.23 1.183-0.66 1.697-1.1 4.451-3.759 8.085-8.462 10.609-13.699 1.571 6.232 3.132 12.474 4.703 18.716 1.393 5.52 2.786 11.061 4.755 16.392 0.22 0.586 0.503 1.225 1.089 1.424 0.807 0.262 1.582-0.492 1.948-1.257 0.702-1.435 0.744-3.1 0.754-4.692 0.032-8.578-0.407-15.706-1.8-24.169 1.958 8.683 3.759 15.916 6.535 24.368 0.722 2.21 1.539 4.462 3.11 6.169 0.451 0.492 1.079 0.963 1.718 0.785 0.702-0.199 0.963-1.026 1.089-1.728 0.964-5.341 0.283-10.85-0.827-16.161-0.912-4.409-2.116-8.766-2.902-13.186 2.776 7.217 5.625 14.412 9.144 21.304 0.765 1.508 1.582 3.026 2.775 4.231 0.577 0.576 1.393 1.1 2.148 0.817 0.837-0.314 1.047-1.383 1.057-2.283 0.011-1.938-0.366-3.876-0.838-5.761-0.816-3.31-1.948-6.535-3.079-9.751-1.529-4.357-3.058-8.714-4.598-13.071 3.781 5.541 8.013 10.798 12.621 15.679 0.503 0.545 1.257 1.121 1.917 0.765 0.681-0.377 0.544-1.383 0.293-2.116" fill="#e9c6af"/><path d="m589.19 325.15c-4.795 2.891-10.069 4.915-15.562 5.995-0.661 0.13-0.824-0.904-0.163-1.034 5.404-1.063 10.576-3.072 15.292-5.915 0.577-0.348 1.004 0.61 0.433 0.954" fill="#e1b090"/><path d="m576.55 293.76c-2.955 0.986-5.91 1.972-8.865 2.958-0.634 0.211-1.072-0.741-0.433-0.954 2.955-0.986 5.91-1.972 8.865-2.958 0.634-0.211 1.072 0.741 0.433 0.954" fill="#e1b090"/></g><g fill="#5891ed"><path d="m442.29 211.89c-3.172 12.316-6.343 24.631-9.515 36.947l-2.672 10.375c-0.168 0.651-1.143 0.267-0.976-0.38 3.172-12.316 6.343-24.632 9.515-36.947l2.672-10.376c0.168-0.651 1.143-0.266 0.976 0.381"/><path d="m476.94 238.05c-7.167-6.722-17.288-9.969-27.038-8.941-2.766 0.292-5.484 0.926-8.086 1.908-0.628 0.238-1.064-0.715-0.433-0.954 9.452-3.568 20.343-2.669 29.205 2.131 2.527 1.37 4.871 3.042 6.968 5.009 0.485 0.455-0.125 1.308-0.616 0.847"/><path d="m524.21 247c-7.167-6.722-17.288-9.969-27.038-8.941-2.766 0.292-5.484 0.926-8.086 1.908-0.628 0.238-1.064-0.715-0.433-0.954 9.452-3.568 20.343-2.669 29.205 2.131 2.527 1.37 4.871 3.042 6.968 5.009 0.485 0.455-0.125 1.308-0.616 0.847"/><path d="m527.93 270.18c-0.352 2.637-0.703 5.274-1.054 7.911-0.089 0.667-1.131 0.554-1.041-0.117 1.227-9.208 2.454-18.416 3.681-27.625 0.352-2.637 0.703-5.274 1.055-7.911 0.088-0.667 1.13-0.554 1.041 0.117-1.228 9.208-2.455 18.417-3.682 27.625"/><path d="m526.11 262.75c-2.382 4.266-4.408 8.723-6.073 13.316-0.23 0.634-1.206 0.254-0.976-0.381 1.697-4.679 3.775-9.205 6.202-13.551 0.328-0.588 1.172 0.034 0.847 0.616"/><path d="m552.9 269.96c-1.772-6.992-3.232-14.059-4.374-21.181-0.107-0.665 0.927-0.83 1.034-0.164 1.143 7.122 2.603 14.189 4.374 21.181 0.166 0.653-0.87 0.813-1.034 0.164"/></g><g><path d="m489.48 206.85c0.632 6.216 3.324 12.322 8.552 16.001 1.112 0.784 2.863 2.053 4.299 1.474 1.698-0.684 1.246-2.921 0.633-4.184-1.362-2.807-3.57-5.261-5.852-7.353-2.379-2.182-4.997-4.078-7.632-5.938m-9.87 2.623c-2.838 1.501-5.719 3.546-7.637 6.161-0.954 1.3-1.672 3.091-0.593 4.54 0.859 1.151 2.418 1.644 3.806 1.463 3.225-0.419 5.856-3.4 7.689-5.857 2.151-2.882 3.725-6.132 5.249-9.377-2.954 0.667-5.833 1.652-8.514 3.07m56.008 14.39c-11.234-5.998-23.059-10.872-35.253-14.546-3.023-0.911-6.068-1.747-9.132-2.509 2.276 1.627 4.516 3.308 6.574 5.206 1.271 1.172 2.477 2.416 3.554 3.771 1.085 1.366 2.201 2.9 2.829 4.54 0.535 1.398 0.602 3.075-0.456 4.256-1.172 1.309-3.009 0.994-4.416 0.281-2.984-1.513-5.478-4.045-7.252-6.852-1.926-3.047-3.045-6.517-3.514-10.075-1.337 2.807-2.752 5.59-4.575 8.113-2.004 2.775-4.86 6-8.418 6.593-3.086 0.514-6.484-1.817-5.636-5.206 0.443-1.77 1.739-3.188 3.011-4.43 1.305-1.275 2.757-2.391 4.3-3.361 2.874-1.806 6.037-3.079 9.312-3.94-7.736-1.72-15.578-2.967-23.467-3.73-7.119-0.689-14.276-0.976-21.427-0.868-0.672 0.011-0.55-1.03 0.117-1.041 12.772-0.194 25.556 0.89 38.117 3.217 2.712 0.502 5.411 1.073 8.099 1.69-0.25-2.694-0.722-5.372-1.479-7.971-0.349-1.2-0.829-2.478-1.889-3.229-1-0.708-2.589-0.647-3.016 0.684-0.206 0.642-1.181 0.261-0.976-0.38 0.408-1.271 1.785-1.995 3.078-1.793 1.434 0.223 2.506 1.352 3.128 2.599 0.774 1.552 1.128 3.383 1.478 5.069 0.334 1.605 0.553 3.229 0.705 4.86 1.847-3.017 3.911-6.048 7.159-7.67 2.989-1.492 6.844-1.316 9.169 1.287 0.45 0.505-0.363 1.166-0.811 0.664-2.19-2.452-5.847-2.229-8.488-0.693-2.756 1.603-4.547 4.334-6.175 7.009 9.079 2.176 18.006 4.993 26.68 8.446 6.646 2.646 13.141 5.664 19.45 9.033 0.587 0.313 0.215 1.293-0.38 0.976" fill="#13438d"/><path d="m544.89 177.15c-7.246 6.198-13.07 14.018-16.932 22.736-1.097 2.476-2.033 5.02-2.81 7.614-0.193 0.646-1.168 0.263-0.976-0.38 2.783-9.293 7.678-17.939 14.209-25.112 1.829-2.009 3.78-3.902 5.845-5.669 0.514-0.439 1.176 0.373 0.664 0.811" fill="#5891ed"/><path d="m455.2 194.27c-2.544-9.588-7.53-18.486-14.322-25.71-1.935-2.058-4.016-3.97-6.225-5.731-0.526-0.419 0.087-1.268 0.616-0.847 7.953 6.341 14.264 14.68 18.218 24.052 1.106 2.622 2.018 5.322 2.748 8.072 0.172 0.651-0.864 0.81-1.035 0.164" fill="#5891ed"/><path d="m518.95 344.32v-0.01c-2.32-1.57-4.95-2.69-7.69-3.28 0 0-1.167 5.901-5.059 13.082 0.834-6.857 1.219-13.752 1.219-13.752-3.65-1.76-19.16-4.97-21.06-5.46l-1.5 5.81c3.65 3.65 6.03 8.53 6.52 13.85 0.16 1.59 0.13 3.24-0.08 4.91l-0.56 4.37c10.03 1.28 11.08 11.75 8.11 17.22-0.27 0.5-0.57 0.95-0.9 1.35-0.54 0.67-1.18 1.2-1.87 1.54-4.91 2.38-7.27-2.55-7.5-3.06-0.02 0.02-0.03 0.05-0.04 0.07-2.53 5.86-4.31 12.05-5.29 18.36-0.34 2.2-0.58 4.41-0.72 6.64 0.03-2.26-0.05-4.52-0.24-6.76-0.33-3.97-1-7.92-1.91-11.78-3.15-1.81-6.46-3.32-9.89-4.52 0.51 4.92 0.54 9.87 0.1 14.8-0.22 2.36-0.54 4.72-0.98 7.06-0.06-2.41-0.17-4.83-0.35-7.23-0.32-4.56-0.84-9.11-1.57-13.62-3.06-1.48-23.93-8.48-23.99-8.52-0.85 0.95-4.09 4.05-7.83 0.86-4.84-4.14-2.22-19.73 10.23-18.14l0.56-4.35c0.82-6.38 4.27-11.79 9.1-15.32l-0.01-5.36c-7.7-1.06-15.62-0.48-23.08 1.71-1.05 5.61-1.29 11.35-0.73 17.02-2.34-5.29-4-10.89-4.89-16.61-4.1 0.33-8.11 1.74-11.51 4.05-0.59 6.85 1.22 13.76 3.73 20.18 2.67 6.77 6.13 13.23 8.63 20.06 3.23 8.86 4.91 18.48 10.22 26.27 3.68 5.41 8.97 9.62 14.89 12.46 4.68 1.46 9.53 2.41 14.4 2.36h0.05c6-0.08 12.07-1.75 16.79-5.46 6.46-5.07 9.57-13.18 13.32-20.49 1.86-3.65 3.94-7.17 6.06-10.68 0.3-0.5 0.61-1 0.91-1.5 2.42-4.01 4.85-8 7.02-12.14 4.23-8.05 7.51-16.9 7.39-25.99"/><path d="m490.74 363.84 0.56-4.37c0.21-1.67 0.24-3.32 0.08-4.91-0.49-5.32-2.87-10.2-6.52-13.85-3.4-3.41-7.91-5.77-13.02-6.42-5.91-0.76-11.59 0.88-16.08 4.15-4.83 3.53-8.28 8.94-9.1 15.32l-0.56 4.35c-12.45-1.59-15.07 14-10.23 18.14 3.74 3.19 6.98 0.09 7.83-0.86 0.06 0.04 20.93 7.04 23.99 8.52 0.73 4.51 1.25 9.06 1.57 13.62 0.18 2.4 0.29 4.82 0.35 7.23 0.44-2.34 0.76-4.7 0.98-7.06 0.44-4.93 0.41-9.88-0.1-14.8 3.43 1.2 6.74 2.71 9.89 4.52 0.91 3.86 1.58 7.81 1.91 11.78 0.19 2.24 0.27 4.5 0.24 6.76 0.14-2.23 0.38-4.44 0.72-6.64 0.98-6.31 2.76-12.5 5.29-18.36l0.02-0.11s0 0.01 0.02 0.03v0.01c0.23 0.51 2.59 5.44 7.5 3.06 0.69-0.34 1.33-0.87 1.87-1.54 0.33-0.4 0.63-0.85 0.9-1.35 2.97-5.47 1.92-15.94-8.11-17.22" fill="#e9c6af"/><path d="m499.16 328.87c-0.02-0.09-0.04-0.19-0.06-0.28-3.48-16.93-10.59-33.1-20.7-47.1-15.29 9.04-29.04 20.7-40.45 34.33 9.32 3.81 17.78 7.18 17.78 7.18h0.01v2.36l0.01 7.72 0.01 5.36c4.49-3.27 10.17-4.91 16.08-4.15 5.11 0.65 9.62 3.01 13.02 6.42l1.5-5.81 1.84-6.99c1.69 0.12 5.95 0.46 10.96 0.96" fill="#e9c6af"/><path d="m471.19 358.22c-2.585-0.461-5.178-0.869-7.778-1.236 0.769 5.757 1.456 11.525 2.054 17.303 0.063 0.609-0.888 0.634-0.951 0.028-0.617-5.969-1.326-11.929-2.127-17.877-0.045-0.335 0.316-0.513 0.589-0.476 2.821 0.389 5.635 0.834 8.438 1.334 0.603 0.107 0.377 1.031-0.225 0.924" fill="#e1b090"/><path d="m458.27 370.06c0.232-1.811-0.769-3.431-2.235-3.618-1.467-0.188-2.844 1.127-3.076 2.938-0.232 1.81 0.769 3.43 2.236 3.618 1.466 0.188 2.843-1.127 3.075-2.938"/><path d="m478.49 371.92c0.232-1.811-0.769-3.431-2.235-3.618-1.467-0.188-2.844 1.127-3.076 2.938-0.232 1.81 0.769 3.43 2.236 3.618 1.466 0.188 2.843-1.127 3.075-2.938"/><path d="m484.86 340.71s-2.208-14.647-29.114-15.346l0.01 7.723 0.01 5.355c4.486-3.267 10.171-4.906 16.076-4.146 5.115 0.649 9.621 3.007 13.018 6.414" fill="#e1b090"/><path d="m488.54 328.63c-4.47-8.113-9.391-15.97-14.729-23.541-6.454 6.026-12.603 12.372-18.408 19.026-0.42 0.481-1.232-0.102-0.809-0.587 5.981-6.855 12.317-13.396 18.98-19.589 0.188-0.175 0.554-0.141 0.703 0.07 5.508 7.776 10.575 15.861 15.173 24.208 0.311 0.564-0.602 0.973-0.91 0.413" fill="#34314c"/><path d="m478.45 300.97c0-2.25-1.824-4.074-4.074-4.074-2.249 0-4.073 1.824-4.073 4.074s1.824 4.074 4.073 4.074c2.25 0 4.074-1.824 4.074-4.074" fill="#ffa928"/><path d="m547.19 307.6c-0.848-3.289-2.776-6.934-5.855-8.641-1.393-0.764-3.226-0.618-3.739 1.121-0.534 1.801 0.796 3.613 1.351 5.247 1.163 3.373 1.393 7.038 0.733 10.537-1.246-3.341-2.513-6.672-4.011-9.908-0.765-1.655-1.592-3.279-2.503-4.86-0.807-1.414-1.634-3.037-2.933-4.064-1.12-0.89-2.786-1.194-3.969-0.251-1.205 0.974-1.372 2.671-1.079 4.095 0.346 1.707 0.995 3.393 1.571 5.048-0.429-0.932-0.859-1.864-1.288-2.796-0.733-1.582-1.351-3.488-2.671-4.682-1.047-0.963-2.776-1.372-3.949-0.408-1.277 1.047-1.256 3.006-1.12 4.493 0.167 2.042 0.827 4.011 1.456 5.938 0.639 1.938 1.309 3.865 2 5.782 0.702 1.958 1.424 3.896 2.158 5.844-1.341-2.304-2.671-4.608-4.012-6.913-1.079-1.864-2.168-3.739-3.247-5.613-0.796-1.352-1.539-2.996-3.037-3.708-1.341-0.649-2.943-0.283-3.613 1.11-0.671 1.393-0.356 3.153-0.126 4.619 0.922 5.855 3.603 11.228 6.965 16.087-1.089 0.315-2.179 0.639-3.257 0.954-0.367-0.587-0.765-1.153-1.226-1.666-1.162-1.278-2.618-2.293-4.231-2.911-1.257-0.493-3.027-0.807-4.064 0.282-1.183 1.247-0.304 3.341 0.105 4.745 0.482 1.623 1.131 3.268 2.315 4.514 1.277 1.351 2.995 1.98 4.765 2.399 2.084 0.492 4.2 0.879 6.316 1.214 4.252 0.692 8.693 0.995 12.893-0.178 3.906-1.089 7.373-3.299 10.641-5.645 1.55-1.121 3.069-2.346 4.231-3.875 1.184-1.561 1.854-3.394 2.283-5.289 0.901-4.054 1.184-8.568 0.147-12.621" fill="#b16668"/></g><g fill="#a15254"><path d="m532.86 325.16-6.437-18.914c-0.216-0.634 0.736-1.071 0.954-0.433l6.437 18.914c0.215 0.633-0.737 1.071-0.954 0.433"/><path d="m539.92 321.87c-0.214-1.847-0.428-3.695-0.642-5.542-0.078-0.668 0.956-0.835 1.034-0.164 0.214 1.848 0.428 3.695 0.642 5.542 0.078 0.668-0.956 0.835-1.034 0.164"/><path d="m527.16 326.98c-0.199 0.163-0.584 0.166-0.737-0.074-1.346-2.112-2.5-4.334-3.432-6.659-0.251-0.625 0.703-1.06 0.954-0.433 0.897 2.237 1.993 4.395 3.289 6.429 0.151 0.238 0.163 0.543-0.074 0.737"/><path d="m519.37 328.51c-0.084 0.106-0.203 0.194-0.342 0.209-0.128 0.015-0.29-1e-3 -0.389-0.093-0.582-0.535-1.164-1.069-1.745-1.604-0.106-0.098-0.186-0.193-0.21-0.342-0.02-0.127 0.013-0.287 0.094-0.389 0.084-0.107 0.203-0.194 0.342-0.21 0.128-0.014 0.29 2e-3 0.39 0.094 0.581 0.534 1.163 1.069 1.744 1.604 0.106 0.097 0.186 0.193 0.21 0.341 0.02 0.127-0.013 0.288-0.094 0.39"/></g><path d="m462.55 349.61c4.6334-2.7525 10.219 0.1121 12.777 2.3785 0.74907 1.0355 1.8365 1.0631 2.0902-0.39601 1.1332-7.4493-8.8709-10.155-13.146-7.3915-2.5111 1.7199-5.6549 5.409-1.721 5.409z" fill="#f9e9dc"/><g stroke="#000" stroke-width=".75px"><path d="m469.95 376.98c-0.30167 2.5588 10.142 4.0255 10.452 0.98414 0.30459-2.2205-2.1722-0.40872-5.2772-0.82786-2.8057-0.37842-4.875-2.8421-5.1744-0.15624z"/><path d="m449.03 374.64c-0.49972 2.5276 9.7984 4.8019 10.343 1.7938 0.47633-2.1901-2.1338-0.57638-5.1969-1.2357-2.7678-0.59542-4.6393-3.2125-5.1466-0.55813z"/><path d="m350.59 406.45c-0.49972 2.5276 9.7984 4.8019 10.343 1.7938 0.47633-2.1901-2.1338-0.57638-5.1969-1.2357-2.7678-0.59542-4.6393-3.2125-5.1466-0.55813z"/><path d="m161.75 422.69c-1.1323 2.3143 8.2359 7.158 9.5355 4.3908 1.023-1.9942-1.9141-1.1052-4.705-2.5293-2.5219-1.2865-3.6583-4.2965-4.8305-1.8616z"/></g></g></svg>
