<?xml version="1.0" encoding="UTF-8"?>
<!-- Created with Inkscape (http://www.inkscape.org/) -->
<svg width="1e3" height="666.67" version="1.1" viewBox="0 0 1e3 666.67" xml:space="preserve" xmlns="http://www.w3.org/2000/svg"><path d="m678.44 406.41h-56.06v-7.4892h56.06z" fill="#e0e0e0" stroke-width="1.3333"/><g fill="#fafafa" stroke-width="1.3333"><path d="m630.02 399.24c0.19466 0 0.35332 1.572 0.35332 3.5092 0 1.9373-0.15866 3.5092-0.35332 3.5092s-0.35332-1.572-0.35332-3.5092c0-1.9373 0.15866-3.5092 0.35332-3.5092"/><path d="m628.8 399.08c0.19466 0 0.35199 1.572 0.35199 3.5092 0 1.9373-0.15733 3.5092-0.35199 3.5092s-0.35332-1.572-0.35332-3.5092c0-1.9373 0.15866-3.5092 0.35332-3.5092"/><path d="m674.1 399.24c0.19466 0 0.35332 1.572 0.35332 3.5092 0 1.9373-0.15866 3.5092-0.35332 3.5092s-0.35199-1.572-0.35199-3.5092c0-1.9373 0.15733-3.5092 0.35199-3.5092"/><path d="m672.89 399.08c0.19466 0 0.35332 1.572 0.35332 3.5092 0 1.9373-0.15866 3.5092-0.35332 3.5092s-0.35199-1.572-0.35199-3.5092c0-1.9373 0.15733-3.5092 0.35199-3.5092"/><path d="m665.57 402.9c0 0.19466-6.4212 0.35332-14.34 0.35332-7.9211 0-14.341-0.15866-14.341-0.35332s6.4198-0.35332 14.341-0.35332c7.9185 0 14.34 0.15866 14.34 0.35332"/></g><g stroke-width="1.3333"><path d="m678.2 447.62h-56.059v-14.977h56.059z" fill="#e0e0e0"/><path d="m678.92 443.41c5e-3 0.012-0.0973 0.0707-0.30399 0.17466-0.20533 0.10667-0.51732 0.25066-0.93465 0.42666-0.83331 0.34132-2.0906 0.82264-3.7999 1.088-1.68 0.23866-3.9346 0.30666-6.1665-0.87598-1.096-0.58532-2.1386-1.4733-2.9306-2.6546-0.77464-1.176-1.2733-2.7146-1.0186-4.3132 0.13333-0.79598 0.46532-1.5826 1.0293-2.232 0.54799-0.64931 1.428-1.1293 2.3653-1.0733 0.93865 0.0427 1.7866 0.58132 2.3759 1.2813 0.59332 0.70398 0.99998 1.6026 1.084 2.5546 0.22133 1.9-0.57732 3.8692-1.932 5.3092-1.3333 1.492-3.3266 2.3999-5.3879 2.6319-2.0746 0.24666-4.2186-0.0813-6.2532-0.77599-2.036-0.70131-4.0439-1.844-5.4639-3.6719-0.69598-0.90798-1.1986-2.0373-1.2733-3.2333-0.104-1.1933 0.27599-2.4759 1.1933-3.3652 0.45466-0.44265 1.0933-0.74131 1.7533-0.76931 0.66132-0.0307 1.3 0.184 1.8333 0.51599 1.0813 0.67198 1.772 1.82 2.0626 3.0213 0.52532 2.4493-0.44265 5.0012-2.2106 6.5998-1.772 1.6106-4.0959 2.3279-6.3118 2.5679-2.2306 0.22399-4.4746 0.0573-6.5425-0.64399-2.0586-0.68531-3.9119-2.04-4.9772-3.8692-1.084-1.7866-1.44-4.0519-0.62265-5.9492 0.38265-0.94131 1.2493-1.776 2.2866-1.9373 1.0093-0.188 2.044 0.092 2.8239 0.68265 1.5813 1.256 1.8466 3.4079 1.3346 5.0465-0.51865 1.6853-1.652 2.9759-2.8253 3.9799-2.3973 2.0226-5.2332 2.8999-7.6878 2.9866-2.4799 0.0867-4.5666-0.59599-6.0905-1.384-1.5386-0.79864-2.5479-1.7066-3.1759-2.3546-0.31065-0.33066-0.53598-0.59066-0.67198-0.77865-0.14133-0.184-0.20666-0.28266-0.19866-0.29066 0.072-0.0973 1.1226 1.636 4.1679 3.1786 1.512 0.73464 3.5546 1.3573 5.9505 1.2346 2.3746-0.11999 5.1039-1.0053 7.3812-2.9706 1.12-0.97464 2.1733-2.2199 2.6293-3.7559 0.45732-1.484 0.16-3.4066-1.1666-4.4252-0.64798-0.48932-1.5386-0.71865-2.3559-0.55599-0.83198 0.13867-1.492 0.77065-1.8333 1.5906-0.70798 1.664-0.39732 3.7252 0.61199 5.3692 0.99064 1.6786 2.6893 2.9199 4.6386 3.5652 1.948 0.65731 4.1132 0.81597 6.2505 0.59465 2.12-0.23333 4.2986-0.92398 5.9132-2.4013 1.5933-1.4293 2.4639-3.7759 1.9946-5.9212-0.25333-1.048-0.85464-2.0306-1.7466-2.5813-0.87598-0.58132-2.02-0.56265-2.7346 0.16533-0.72398 0.69865-1.0746 1.784-0.97864 2.8066 0.0627 1.0413 0.49732 2.0346 1.1293 2.8653 1.2853 1.672 3.1946 2.7813 5.1305 3.4519 1.9586 0.67465 4.0106 0.99064 5.9598 0.76798 1.9453-0.21599 3.7679-1.0386 5.0092-2.4119 1.2653-1.3266 1.9946-3.1252 1.8066-4.8225-0.13733-1.6466-1.3933-3.2533-2.9079-3.3546-0.74664-0.0507-1.4626 0.31733-1.9466 0.87598-0.49199 0.55599-0.80265 1.2613-0.92798 1.9666-0.24533 1.4466 0.18933 2.8719 0.90398 3.9892 0.72931 1.1173 1.7093 1.98 2.7413 2.5533 2.0933 1.1546 4.2906 1.1453 5.9412 0.94664 1.6813-0.21732 2.9426-0.65065 3.7866-0.94531 0.84264-0.30799 1.2773-0.49732 1.2893-0.47065" fill="#fafafa"/><path d="m678.2 432.62h-51.052v-25.986h51.052z" fill="#ebebeb"/></g><g fill="#e0e0e0" stroke-width="1.3333"><path d="m635.62 407.53c0.19466 0 0.35332 5.6319 0.35332 12.577 0 6.9478-0.15866 12.577-0.35332 12.577s-0.35332-5.6292-0.35332-12.577c0-6.9452 0.15866-12.577 0.35332-12.577"/><path d="m639.5 407.2c0.19466 0 0.35332 5.5599 0.35332 12.417s-0.15866 12.416-0.35332 12.416-0.35332-5.5585-0.35332-12.416 0.15866-12.417 0.35332-12.417"/><path d="m672.42 406.37c0.19466 0 0.35332 5.8545 0.35332 13.076 0 7.2225-0.15866 13.074-0.35332 13.074s-0.35332-5.8518-0.35332-13.074c0-7.2212 0.15866-13.076 0.35332-13.076"/><path d="m667.88 406.72c0.19466 0 0.35332 5.7025 0.35332 12.738 0 7.0358-0.15866 12.738-0.35332 12.738s-0.35199-5.7025-0.35199-12.738c0-7.0358 0.15733-12.738 0.35199-12.738"/><path d="m667.36 339.05h-344.18v-228.3h344.18z"/></g><g stroke-width="1.3333"><path d="m134.48 126.04c-0.24666-15.444-12.954-27.806-28.327-27.558-15.373 0.24799-27.679 13.014-27.433 28.458 0.24799 15.444 12.956 27.807 28.329 27.559 15.373-0.248 27.679-13.016 27.431-28.459m-86.19 1.3906c-0.51599-32.299 25.222-59 57.373-59.52 32.151-0.51732 58.731 25.338 59.247 57.639 0.51598 32.301-25.221 59-57.373 59.52-32.151 0.51865-58.729-25.338-59.247-57.639" fill="#f5f5f5"/><path d="m48.292 127.44c-0.51599-32.301 25.221-59.001 57.372-59.52l0.48932 30.57c-15.373 0.24799-27.679 13.014-27.433 28.458 0.24799 15.444 12.956 27.806 28.329 27.558l0.48932 30.571c-32.153 0.51865-58.731-25.338-59.247-57.637" fill="#e0e0e0"/><path d="m100.43 63.218c37.615-0.60665 67.622 28.586 68.226 66.374l-35.6 0.57332c-0.28933-18.068-14.037-29.443-32.022-29.153z" fill="#ebebeb"/><path d="m327.26 597.3c-1.4986-1.2853-4.8412-5.3572-2.2639-10.093 0.94531-1.7373 2.9533-2.5973 4.7692-3.3612 1.8186-0.76531 3.7279-1.4306 5.2305-2.7093 2.8359-2.4133 3.6186-6.4198 5.5012-9.6398 2.16-3.6932 6.1932-6.4612 10.454-6.2678 4.8799 0.22133 8.9491 4.2079 10.794 8.7518 1.8453 4.5439 1.9093 9.5891 1.948 14.497 0.02 2.7133-0.1 5.7732-2.092 7.6052-1.8373 1.6893-4.6026 1.7106-7.0918 1.6333-8.8891-0.27333-17.778-0.54665-26.667-0.81865" fill="#f5f5f5"/></g><g fill="#e0e0e0" stroke-width="1.3333"><path d="m375.11 544.92h-7.0572l1.7293-20.246h7.7038zm-6.0238 51.339h-5.4199l1.6226-18.992h6.0252zm-52.963-71.585c0.27733 1.464 1.5573 9.4304 3.2719 20.246h-7.0385l-3.3959-20.246zm42.619 20.246 0.67198-20.246h9.6691l-1.7293 20.246zm-1.7066 51.339 0.63065-18.992h6.9238l-1.6226 18.992zm-32.542-18.992c1.032 6.5705 2.0466 13.052 2.9759 18.992h-6.5025l-3.1852-18.992zm-0.82398-5.2439h-6.7665l-3.6666-21.861h6.9892c1.068 6.7558 2.2519 14.276 3.4439 21.861m9.3651-21.861 1.6986 21.861h-10.358c-0.34933-2.2173-0.70132-4.4626-1.0546-6.7065-0.81198-5.1612-1.6253-10.32-2.3893-15.154zm-0.40665-5.2425h-12.526c-0.44399-2.7959-0.86531-5.4425-1.244-7.8238-1.3066-8.1865-1.7986-11.264-2.072-12.422h14.269zm12.537 0h-11.84l-1.5733-20.246h12.946zm0.69598 0-0.46666-20.246h13.322l-0.67199 20.246zm0.62398 27.103-0.50399-21.861h11.889l-0.72665 21.861zm-11.053 0-1.7-21.861h11.553l0.50399 21.861zm1.1853 24.235h-8.4438c-0.80131-5.1279-1.8453-11.792-2.9759-18.992h9.9438zm-0.77865-18.992h10.072l0.43599 18.992h-9.0318zm11.205 18.992-0.43732-18.992h10.364l-0.63065 18.992zm20.561-46.096h6.8905l-2.5653 21.861h-6.1932zm-2.5666 21.861h-7.1972l0.72665-21.861h8.3385zm13.23-48.048h-70.129l12.632 75.326c0.55332 3.2906 2.9333 5.8252 5.9878 6.7052 0.08 0.0267 0.16399 0.0453 0.24533 0.068 0.20932 0.0533 0.41065 0.124 0.62531 0.16133 0.46133 0.096 0.93998 0.14533 1.4253 0.164l0.012 0.072 0.34133-0.0533h31.258c0.58799 0 1.1626-0.0613 1.7173-0.17199 3.6919-0.57066 6.6452-3.5319 7.0945-7.3612l6.0905-51.901 0.27465-2.064h-0.0333l2.4119-20.554z"/><path d="m885.75 206.67h-15.1v-60.322h15.1z"/><path d="m907.96 206.67h-15.1v-47.164h15.1z"/><path d="m930.51 206.67h-15.101v-36.39h15.101z"/><path d="m951.39 206.67h-15.1v-21.61h15.1z"/></g><g stroke-width="1.3333"><path d="m909.76 336.29c-9.3544 9.9544-25.111 10.486-35.124 1.1893-10.013-9.2984-10.55-24.961-1.196-34.914 9.3531-9.9531 25.111-10.486 35.124-1.188 10.013 9.2971 10.55 24.959 1.196 34.912m17.318-54.615c-20.942-19.446-53.897-18.33-73.459 2.4866-19.564 20.817-18.441 53.572 2.5026 73.018 20.942 19.446 53.896 18.332 73.46-2.4866 19.564-20.817 18.441-53.572-2.5026-73.018" fill="#f5f5f5"/><path d="m853.63 284.16c19.564-20.817 52.519-21.931 73.461-2.4866l-18.516 19.702c-10.013-9.2984-25.77-8.7638-35.124 1.188-9.3531 9.9544-8.8171 25.615 1.1973 34.914l-18.517 19.701c-20.942-19.446-22.065-52.2-2.5013-73.018" fill="#ebebeb"/><path d="m924.96 273.23c25.655 23.822 28.727 62.548 4.7612 88.047l-26.026-22.543c11.46-12.194 13.949-28.474 1.6813-39.864z" fill="#fafafa"/><path d="m363.48 408.61h-138.65c-2.3786 0-4.3079-1.928-4.3079-4.3066v-32.866c0-2.3799 1.9293-4.3079 4.3079-4.3079h138.65c2.3786 0 4.3066 1.928 4.3066 4.3079v32.866c0 2.3786-1.928 4.3066-4.3066 4.3066" fill="#e0e0e0"/><path d="m251.57 394.8c-3.0999 3.8839-8.7491 4.5079-12.614 1.3933-3.8666-3.1146-4.4879-8.7891-1.3866-12.673 3.0999-3.8839 8.7478-4.5079 12.613-1.3933 3.8666 3.1146 4.4879 8.7878 1.388 12.673" fill="#f5f5f5"/><path d="m249.61 386.09c0.13466 0.13733-2.0266 2.4719-4.8252 5.2132-0.40666 0.39466-0.80132 0.77598-1.1853 1.148l-0.24399 0.236-0.23199-0.23866c-2.18-2.2413-3.7172-3.9812-3.6012-4.0972 0.116-0.116 1.848 1.432 4.0799 3.6212l-0.47599-4e-3c0.38133-0.37599 0.77065-0.76265 1.1733-1.1613 2.7986-2.7426 5.1759-4.8546 5.3105-4.7172" fill="#e0e0e0"/><path d="m353.3 384.7c0 0.19333-19.766 0.34799-44.144 0.34799-24.385 0-44.148-0.15466-44.148-0.34799 0-0.192 19.764-0.34666 44.148-0.34666 24.378 0 44.144 0.15466 44.144 0.34666" fill="#fafafa"/><path d="m353.68 392.21c0 0.192-19.766 0.34666-44.143 0.34666-24.386 0-44.148-0.15466-44.148-0.34666 0-0.19333 19.762-0.34799 44.148-0.34799 24.377 0 44.143 0.15466 44.143 0.34799" fill="#fafafa"/><path d="m818.74 397.68-2.6946 209.33h120.44v-206.47z" fill="#f5f5f5"/><path d="m883.63 399.25-1.0653 207.75h53.925v-206.47z" fill="#e0e0e0"/><path d="m822.53 401.45v42.815h57.049v-40.791z" fill="#e0e0e0"/><path d="m842.19 413.22v6.3238h17.454v-6.8985z" fill="#f5f5f5"/><path d="m842.19 424.86h18.026v2.5866h-18.026z" fill="#f5f5f5"/><path d="m822.53 551.48v42.815h57.049v-40.791z" fill="#e0e0e0"/><path d="m842.19 563.26v6.3238h17.454v-6.8985z" fill="#f5f5f5"/><path d="m842.19 574.9h18.026v2.5866h-18.026z" fill="#f5f5f5"/><path d="m822.53 449.72v42.815h57.049v-40.791z" fill="#e0e0e0"/><path d="m842.19 461.49v6.3238h17.454v-6.8985z" fill="#f5f5f5"/><path d="m842.19 473.13h18.026v2.5866h-18.026z" fill="#f5f5f5"/><path d="m821.78 543.79h57.048v-42.815h-57.048z" fill="#e0e0e0"/><path d="m841.83 520.27v5.9452h16.408v-6.4838z" fill="#f5f5f5"/><path d="m841.83 531.22h16.945v2.4306h-16.945z" fill="#f5f5f5"/><path d="m782.42 399.6c31.022-12.888 58.236-31.09 79.021-53.656 25.911-28.131 35.442-43.844 46.594-72.493 19.337-49.672 4.0412-94.988-10.289-136.24-15.232-43.854-63.674-78.394-119.05-87.823-55.379-9.4278-115.51 5.4852-157 36.466-26.345 19.673-45.802 45.334-75.398 61.745-48.591 26.945-113.31 23.354-171.4 14.961-58.088-8.3931-118.44-20.441-175.06-7.0532-71.093 16.809-116.21 76.414-116.55 136.12-0.45066 79.587 83.713 135.2 160.45 153.18 47.317 11.086 124.96 25.578 219.89 23.538 140.96-3.0293 260.61-44.574 318.79-68.744" fill="#7aaefd" opacity=".22303"/><path d="m941.02 605.2c0 0.192-197.46 0.34666-441 0.34666-243.62 0-441.04-0.15466-441.04-0.34666s197.42-0.34799 441.04-0.34799c243.54 0 441 0.15599 441 0.34799" fill="#263238"/><path d="m655.16 350.16h-356.43v-233.78h356.43z" fill="#fafafa"/><path d="m658.98 350.28c-3e-3 -2.2493-0.10799-91.198-0.27599-233.78l0.27599 0.27599c-97.812 0.0187-221.85 0.044-356.4 0.0707h-0.028l0.34666-0.34666c-0.0107 83.142-0.0187 162.26-0.028 233.78l-0.31866-0.31866c209.71 0.188 353.58 0.31599 356.43 0.31866-2.8546 3e-3 -146.72 0.132-356.43 0.31866h-0.31866v-0.31866c-9e-3 -71.525-0.0187-150.65-0.0293-233.78v-0.34666h0.37599c134.54 0.0267 258.59 0.0507 356.4 0.0707h0.276v0.276c-0.168 142.58-0.27333 231.54-0.276 233.78" fill="#263238"/><path d="m411.48 245.59 35.058 0.48266c-0.268 18.684-16.01 33.91-35.058 33.91h-0.20533z" fill="#455a64"/></g><g fill="#263238" stroke-width="1.3333"><path d="m469.45 293.07c0 0.0213-0.25866 0.0413-0.74931 0.06-0.55466 0.0147-1.2666 0.0333-2.144 0.056-1.9333 0.0227-4.5946 0.0533-7.8331 0.0907l-0.0987 1e-3 -0.064-0.08c-3.1279-3.9399-7.1638-9.0251-11.565-14.572-3.4186-4.3586-6.6158-8.4345-9.3224-11.888l0.18 0.088c-4.2212-0.0387-7.7558-0.072-10.318-0.096-1.1906-0.0267-2.152-0.048-2.8853-0.064-0.66532-0.0227-1.02-0.0453-1.02-0.0707 0-0.024 0.35466-0.048 1.02-0.0707 0.73331-0.0147 1.6946-0.0373 2.8853-0.0627 2.5626-0.024 6.0972-0.0573 10.318-0.096l0.11066-1e-3 0.0707 0.0893c2.7239 3.4386 5.9425 7.4985 9.3824 11.84 4.3652 5.5759 8.3664 10.686 11.469 14.648l-0.16266-0.0787c3.2386 0.0373 5.8998 0.068 7.8331 0.0907 0.87864 0.0227 1.5893 0.0413 2.144 0.056 0.49065 0.0187 0.74931 0.0387 0.74931 0.06"/><path d="m482.03 297.11c0 0.14799-5.0785 0.26932-11.342 0.26932-6.2652 0-11.344-0.12133-11.344-0.26932 0-0.148 5.0785-0.268 11.344-0.268 6.2638 0 11.342 0.12 11.342 0.268"/><path d="m482.03 301.31c0 0.14933-5.0785 0.26933-11.342 0.26933-6.2652 0-11.344-0.12-11.344-0.26933 0-0.148 5.0785-0.26799 11.344-0.26799 6.2638 0 11.342 0.11999 11.342 0.26799"/></g><path d="m405.94 240.6-0.49199 34.388c-19.046-0.26133-34.568-15.704-34.568-34.388 0-18.868 15.826-34.392 35.06-34.392 19.234 0 35.062 15.525 35.062 34.392z" fill="#e8505b" stroke-width="1.3333"/><g fill="#263238" stroke-width="1.3333"><path d="m392.24 229.36c3e-3 0.0227-0.208 0.072-0.60932 0.14267-0.47599 0.0773-1.052 0.16799-1.744 0.27866-1.6093 0.22666-3.7479 0.52665-6.2972 0.88397l-0.104 0.0147-0.0773-0.076c-2.3973-2.3319-5.2852-5.1412-8.4011-8.1718-4.0346-3.9586-7.6665-7.5638-10.276-10.192-1.2453-1.2693-2.2786-2.3239-3.0719-3.1319-0.71732-0.74798-1.1013-1.1746-1.0746-1.2 0.0253-0.0267 0.45999 0.34799 1.2213 1.0506 0.82398 0.77731 1.8973 1.7906 3.1906 3.0106 2.6786 2.5586 6.3518 6.1198 10.386 10.078 3.0906 3.0572 5.9558 5.8905 8.3331 8.2411l-0.18133-0.0613c2.5586-0.28132 4.7052-0.51865 6.3212-0.69598 0.69731-0.0627 1.2786-0.116 1.7586-0.16 0.40532-0.0293 0.62265-0.0347 0.62532-0.012"/><path d="m351.71 206.39c0 0.148-5.0785 0.26933-11.342 0.26933-6.2665 0-11.344-0.12133-11.344-0.26933 0-0.14799 5.0772-0.26799 11.344-0.26799 6.2638 0 11.342 0.12 11.342 0.26799"/><path d="m351.71 210.59c0 0.148-5.0785 0.26933-11.342 0.26933-6.2665 0-11.344-0.12133-11.344-0.26933s5.0772-0.26799 11.344-0.26799c6.2638 0 11.342 0.11999 11.342 0.26799"/></g><g stroke-width="1.3333"><path d="m528.59 172.66-0.13866-21.371c-6.2932 0.0373-12.71 2.5253-17.632 6.8745-5.7972 5.1225-9.5078 12.825-8.4958 22.134 0.11067 1.016 0.27066 2.0506 0.49866 3.1052 5e-3 0.0253 8e-3 0.0493 0.0147 0.0747l3e-3 -1e-3 25.75-5.7932z" fill="#247afd"/><path d="m528.59 172.66-0.13866-21.371c-6.2932 0.0373-12.71 2.5253-17.632 6.8745-5.7972 5.1225-9.5078 12.825-8.4958 22.134 0.11066 1.016 0.27066 2.0506 0.49865 3.1053 5e-3 0.0253 8e-3 0.0493 0.0147 0.0747l3e-3 -1e-3 25.75-5.7932z" fill="#fff" opacity=".3"/><path d="m555.13 166.08c-3.5999-7.5158-10.689-13.537-20.785-14.55-0.26932-0.0267-0.54132-0.052-0.81464-0.0707-0.17333-0.0133-0.34399-0.0307-0.51999-0.04-0.50932-0.028-1.0266-0.0427-1.5506-0.0453-0.024 0-0.0467-1e-3 -0.0707-1e-3h-4e-3c-0.0213 0-0.0427-3e-3 -0.064-3e-3v4e-3l0.13866 21.371 0.032 5.0225 25.759 5.6199 0.0307 7e-3c0.39466-1.8053 0.58266-3.6666 0.57199-5.5412-0.02-4.0052-0.95064-8.0678-2.7239-11.773" fill="#115ecd"/><path d="m529.97 180.35-25.75 5.7945c2.6413 11.789 13.164 20.602 25.75 20.602 12.649 0 23.214-8.8984 25.791-20.777l-25.759-5.6199" fill="#247afd"/></g><g fill="#263238" stroke-width="1.3333"><path d="m630.21 176.51c0 0.192-13.314 0.34799-29.734 0.34799-16.425 0-29.737-0.15599-29.737-0.34799 0-0.19199 13.312-0.34666 29.737-0.34666 16.42 0 29.734 0.15467 29.734 0.34666"/><path d="m630.21 169.72c0 0.192-13.314 0.34666-29.734 0.34666-16.425 0-29.737-0.15466-29.737-0.34666 0-0.19199 13.312-0.34665 29.737-0.34665 16.42 0 29.734 0.15466 29.734 0.34665"/><path d="m630.21 162.95c0 0.192-13.314 0.34799-29.734 0.34799-16.425 0-29.737-0.15599-29.737-0.34799s13.312-0.34666 29.737-0.34666c16.42 0 29.734 0.15466 29.734 0.34666"/><path d="m630.21 182.82c0 0.192-13.314 0.34666-29.734 0.34666-16.425 0-29.737-0.15466-29.737-0.34666s13.312-0.34666 29.737-0.34666c16.42 0 29.734 0.15466 29.734 0.34666"/><path d="m611.8 189.67c0 0.192-9.1438 0.34799-20.421 0.34799-11.282 0-20.425-0.15599-20.425-0.34799 0-0.19199 9.1424-0.34666 20.425-0.34666 11.277 0 20.421 0.15467 20.421 0.34666"/></g><g fill="#247afd" stroke-width="1.3333"><path d="m514.49 307.15h-6.1252v-68.41h6.1252z"/><path d="m526.32 307.15h-6.1265v-45.175h6.1265z"/><path d="m538.15 307.51h-6.1252v-60.254h6.1252z"/><path d="m549.97 307.15h-6.1265v-65.768h6.1265z"/><path d="m561.8 307.15h-6.1252v-43.784h6.1252z"/><path d="m573.63 307.15h-6.1265v-35.198h6.1265z"/><path d="m585.45 307.15h-6.1252v-61.388h6.1252z"/><path d="m597.28 307.15h-6.1265v-50.32h6.1265z"/><path d="m609.1 307.15h-6.1265v-59.165h6.1265z"/><path d="m620.93 307.15h-6.1265v-40.307h6.1265z"/><path d="m632.76 307.15h-6.1252v-47.977h6.1252z"/></g><g fill="#263238" stroke-width="1.3333"><path d="m635.25 311.92c0 0.13866-29.057 0.25199-64.89 0.25199-35.846 0-64.896-0.11333-64.896-0.25199s29.05-0.25199 64.896-0.25199c35.834 0 64.89 0.11333 64.89 0.25199"/><path d="m517.11 317.31c0 0.13866-2.0346 0.25066-4.5452 0.25066-2.5106 0-4.5452-0.112-4.5452-0.25066s2.0346-0.25199 4.5452-0.25199c2.5106 0 4.5452 0.11333 4.5452 0.25199"/><path d="m532.19 317.57c0 0.13866-2.4319 0.25199-5.4319 0.25199-3.0013 0-5.4332-0.11333-5.4332-0.25199s2.4319-0.25066 5.4332-0.25066c2.9999 0 5.4319 0.112 5.4319 0.25066"/><path d="m545.05 317.57c0 0.13866-2.4333 0.25199-5.4332 0.25199-2.9999 0-5.4319-0.11333-5.4319-0.25199s2.4319-0.25066 5.4319-0.25066c2.9999 0 5.4332 0.112 5.4332 0.25066"/><path d="m557.91 317.57c0 0.13866-2.4319 0.25199-5.4319 0.25199-3.0013 0-5.4332-0.11333-5.4332-0.25199s2.4319-0.25066 5.4332-0.25066c2.9999 0 5.4319 0.112 5.4319 0.25066"/><path d="m570.77 317.57c0 0.13866-2.4319 0.25199-5.4319 0.25199-3.0013 0-5.4332-0.11333-5.4332-0.25199s2.4319-0.25066 5.4332-0.25066c2.9999 0 5.4319 0.112 5.4319 0.25066"/><path d="m583.63 317.57c0 0.13866-2.4333 0.25199-5.4332 0.25199-3.0013 0-5.4319-0.11333-5.4319-0.25199s2.4306-0.25066 5.4319-0.25066c2.9999 0 5.4332 0.112 5.4332 0.25066"/><path d="m596.49 317.57c0 0.13866-2.4319 0.25199-5.4319 0.25199-3.0013 0-5.4332-0.11333-5.4332-0.25199s2.4319-0.25066 5.4332-0.25066c2.9999 0 5.4319 0.112 5.4319 0.25066"/><path d="m609.36 317.57c0 0.13866-2.4319 0.25199-5.4319 0.25199-3.0012 0-5.4332-0.11333-5.4332-0.25199s2.4319-0.25066 5.4332-0.25066c2.9999 0 5.4319 0.112 5.4319 0.25066"/><path d="m622.21 317.57c0 0.13866-2.4333 0.25199-5.4332 0.25199-2.9999 0-5.4319-0.11333-5.4319-0.25199s2.4319-0.25066 5.4319-0.25066c2.9999 0 5.4332 0.112 5.4332 0.25066"/><path d="m635.08 317.57c0 0.13866-2.4319 0.25199-5.4319 0.25199-3.0013 0-5.4332-0.11333-5.4332-0.25199s2.4319-0.25066 5.4332-0.25066c2.9999 0 5.4319 0.112 5.4319 0.25066"/></g><g fill="#fff" stroke-width="1.3333"><path d="m526.32 307.15h-6.1265v-45.175h6.1265z" opacity=".3"/><path d="m549.97 307.15h-6.1265v-65.768h6.1265z" opacity=".3"/><path d="m573.63 307.15h-6.1265v-35.198h6.1265z" opacity=".3"/><path d="m597.28 307.15h-6.1265v-50.32h6.1265z" opacity=".3"/><path d="m620.93 307.15h-6.1265v-40.307h6.1265z" opacity=".3"/></g><g fill="#e8505b" stroke-width="1.3333"><path d="m345.86 160.43c0 3.2559-2.6386 5.8959-5.8958 5.8959-3.2559 0-5.8959-2.6399-5.8959-5.8959s2.6399-5.8958 5.8959-5.8958c3.2572 0 5.8958 2.6399 5.8958 5.8958"/><path d="m447.23 155.78c0 0.19199-19.881 0.34665-44.399 0.34665-24.526 0-44.403-0.15466-44.403-0.34665 0-0.192 19.877-0.348 44.403-0.348 24.518 0 44.399 0.156 44.399 0.348"/><path d="m394.07 162.91c0 0.048-0.49066 0.0933-1.376 0.13466-0.88531 0.0413-2.1666 0.08-3.7506 0.11067-3.1666 0.0627-7.5412 0.10133-12.373 0.10133-4.8346 0-9.2104-0.0387-12.377-0.10133-1.584-0.0307-2.8653-0.0693-3.7506-0.11067-0.88531-0.0413-1.3746-0.0867-1.3746-0.13466 0-0.048 0.48932-0.0933 1.3746-0.136 0.88531-0.0413 2.1666-0.0787 3.7506-0.10933 3.1666-0.0627 7.5425-0.10266 12.377-0.10266 4.8319 0 9.2064 0.04 12.373 0.10266 1.584 0.0307 2.8653 0.068 3.7506 0.10933 0.88531 0.0427 1.376 0.088 1.376 0.136"/></g><path d="m295.3 350.54h-186.54v-212.9h186.54z" fill="#fafafa" stroke-width="1.3333"/><path d="m295.3 350.54s-0.012-0.34666-0.0173-1.012c-4e-3 -0.67465-0.0107-1.6613-0.0173-2.9586-8e-3 -2.6119-0.0213-6.4692-0.036-11.49-0.0187-10.052-0.0467-24.761-0.0813-43.439-0.0373-37.327-0.0907-90.514-0.15467-154l0.30666 0.30666c-54.935 0.0133-118.76 0.0267-186.53 0.0413h-0.0187l0.34666-0.34799c-0.02 78.493-0.0387 151.69-0.0533 212.9l-0.29332-0.29332c56.121 0.0627 102.72 0.11466 135.3 0.15199 16.305 0.032 29.099 0.0587 37.83 0.0747 4.3612 0.016 7.7051 0.0267 9.9718 0.0347 2.2586 0.0107 3.4399 0.032 3.4399 0.032s-1.1386 0.0227-3.3759 0.032c-2.2546 8e-3 -5.5785 0.02-9.9158 0.0347-8.7158 0.0173-21.487 0.0427-37.763 0.076-32.629 0.0373-79.293 0.088-135.49 0.15199h-0.29333v-0.29466c-0.016-61.21-0.0347-134.41-0.0547-212.9v-0.34666h0.36665c67.765 0.0147 131.59 0.028 186.53 0.04h0.30666v0.30666c-0.064 63.566-0.11733 116.82-0.15466 154.2-0.0347 18.649-0.0627 33.335-0.0813 43.37-0.0147 4.9959-0.028 8.8318-0.036 11.43-7e-3 1.2826-0.0133 2.2586-0.0173 2.9253-5e-3 0.65465-0.0173 0.97731-0.0173 0.97731" fill="#263238" stroke-width="1.3333"/><g fill="#e8505b" stroke-width="1.3333"><path d="m279.26 246.36c-0.0613 0.12666-2.0653-1.0346-5.9985-2.2786-3.9012-1.2106-9.9211-2.3799-17.202-1.2773-3.6119 0.57865-7.5251 1.6706-11.346 3.6452-3.8479 1.9293-7.5145 4.7879-11.156 8.0238-3.6586 3.2292-7.2905 6.8945-11.478 10.282-4.1906 3.3346-8.9971 6.4892-14.65 7.9291-2.8066 0.72265-5.7452 0.91065-8.5545 0.51599-2.8146-0.38399-5.4732-1.3053-7.9265-2.4479-4.9132-2.3146-9.1144-5.3572-13.277-7.8945-4.1319-2.5879-8.2851-4.6399-12.488-5.5985-4.1746-1.016-8.2305-1.2213-11.878-0.91065-7.3412 0.64132-12.896 3.2399-16.397 5.3385-3.5172 2.1493-5.1772 3.7679-5.2719 3.6546-0.0293-0.0333 0.37999-0.43466 1.192-1.172 0.79731-0.75065 2.0706-1.7626 3.8172-2.9039 3.4666-2.2546 9.0691-5.0425 16.576-5.8145 3.7292-0.37732 7.8958-0.22266 12.209 0.77998 4.3386 0.93864 8.6758 3.0413 12.854 5.6225 4.2172 2.5373 8.4198 5.5399 13.189 7.7638 4.7199 2.2733 10.272 3.2852 15.644 1.8306 5.3719-1.364 10.061-4.4066 14.181-7.6678 4.1226-3.3119 7.7705-6.9532 11.482-10.189 3.6972-3.2413 7.4692-6.1385 11.456-8.0851 3.9572-1.9906 7.9891-3.0613 11.693-3.5946 7.4731-1.012 13.581 0.32666 17.488 1.6973 1.9733 0.68265 3.4412 1.38 4.4066 1.896 0.96397 0.52266 1.4573 0.81598 1.4373 0.85465"/><path d="m160.09 317.85h15.86v-42.892h-15.86z"/><path d="m227.39 317.85h15.86v-42.892h-15.86z"/><path d="m249.82 317.85h15.86v-68.081h-15.86z"/><path d="m139.57 318.79h15.86v-14.436h-15.86z"/><path d="m182.53 317.85h15.86v-23.523h-15.86z"/><path d="m204.95 317.85h15.86v-28.922h-15.86z"/></g><g fill="#263238" stroke-width="1.3333"><path d="m176.6 322.91c0 0.35199-3.8359 0.63732-8.5678 0.63732-4.7332 0-8.5691-0.28533-8.5691-0.63732s3.8359-0.63732 8.5691-0.63732c4.7319 0 8.5678 0.28533 8.5678 0.63732"/><path d="m156.86 322.91c0 0.35199-3.8372 0.63732-8.5678 0.63732-4.7332 0-8.5691-0.28533-8.5691-0.63732s3.8359-0.63732 8.5691-0.63732c4.7306 0 8.5678 0.28533 8.5678 0.63732"/><path d="m268.81 322.91c0 0.35199-4.3372 0.63732-9.6851 0.63732-5.3519 0-9.6864-0.28533-9.6864-0.63732s4.3346-0.63732 9.6864-0.63732c5.3479 0 9.6851 0.28533 9.6851 0.63732"/><path d="m245.25 322.91c0 0.35199-4.3372 0.63732-9.6864 0.63732-5.3505 0-9.6864-0.28533-9.6864-0.63732s4.3359-0.63732 9.6864-0.63732c5.3492 0 9.6864 0.28533 9.6864 0.63732"/><path d="m220.82 322.91c0 0.35333-3.8372 0.63865-8.5691 0.63865s-8.5678-0.28532-8.5678-0.63865c0-0.35199 3.8359-0.63732 8.5678-0.63732s8.5691 0.28533 8.5691 0.63732"/><path d="m197.64 322.91c0 0.35333-3.8372 0.63865-8.5678 0.63865-4.7332 0-8.5691-0.28532-8.5691-0.63865 0-0.35199 3.8359-0.63732 8.5691-0.63732 4.7306 0 8.5678 0.28533 8.5678 0.63732"/></g><g stroke-width="1.3333"><path d="m268.81 222.52h-129.61v-53.825h129.61z" fill="#e0e0e0"/><path d="m166.13 185.7c0 3.3372-2.7053 6.0425-6.0425 6.0425s-6.0412-2.7053-6.0412-6.0425 2.7039-6.0425 6.0412-6.0425 6.0425 2.7053 6.0425 6.0425" fill="#263238"/><path d="m214.26 183.87h-42.102v-2.3373h42.102z" fill="#263238"/><path d="m254.06 189.18h-81.899v-2.3373h81.899z" fill="#fff"/><path d="m166.13 204.28c0 3.3372-2.7053 6.0425-6.0425 6.0425s-6.0412-2.7053-6.0412-6.0425 2.7039-6.0425 6.0412-6.0425 6.0425 2.7053 6.0425 6.0425" fill="#e8505b"/><path d="m193.66 202.44h-21.499v-2.3373h21.499z" fill="#e8505b"/><path d="m254.06 207.75h-81.899v-2.3373h81.899z" fill="#fff"/><path d="m881.31 333.22h-204.85v-233.79h204.85z" fill="#fafafa"/><path d="m881.32 333.22s-0.012-0.37999-0.0187-1.1106c-4e-3 -0.73731-9e-3 -1.8213-0.016-3.2466-8e-3 -2.8666-0.0213-7.0998-0.0373-12.614-0.0173-11.036-0.0453-27.187-0.08-47.697-0.0387-40.992-0.092-99.4-0.15467-169.12l0.30666 0.30666c-60.324 0.01333-130.41 0.02667-204.82 0.04133h-0.0213l0.34666-0.34799c-0.02 86.194-0.0373 166.57-0.0533 233.79l-0.29333-0.29333c61.633 0.0627 112.81 0.11466 148.58 0.15066 17.904 0.032 31.954 0.0587 41.539 0.076 4.7892 0.0147 8.4611 0.0267 10.946 0.0347 2.4786 0.0107 3.7746 0.032 3.7746 0.032s-1.252 0.0213-3.7106 0.032c-2.4746 8e-3 -6.1265 0.02-10.89 0.0347-9.5704 0.0173-23.597 0.0427-41.474 0.076-35.824 0.036-87.064 0.088-148.77 0.15066h-0.29333v-0.29332c-0.0147-67.217-0.0347-147.6-0.0533-233.79v-0.34666h0.36799c74.414 0.01467 144.5 0.02933 204.82 0.04h0.30533v0.30666c-0.0627 69.801-0.116 128.28-0.15333 169.32-0.0347 20.481-0.0627 36.61-0.0813 47.628-0.016 5.4879-0.028 9.7024-0.036 12.554-7e-3 1.4106-0.0133 2.4839-0.0173 3.2133-5e-3 0.71865-0.0173 1.076-0.0173 1.076" fill="#263238"/><path d="m858.81 251.25h-165.94v-133.12h165.94z" fill="#e0e0e0"/></g><g fill="#263238" stroke-width="1.3333"><path d="m709.9 229.15h-5.4465v-1.5693h5.4465z"/><path d="m723.74 237.55h-6.9665v-1.5693h6.9665z"/><path d="m747.98 237.55h-6.9652v-1.5693h6.9652z"/><path d="m772.23 237.55h-6.9652v-1.5693h6.9652z"/><path d="m796.49 237.55h-6.9665v-1.5693h6.9665z"/><path d="m820.73 237.55h-6.9652v-1.5693h6.9652z"/><path d="m844.98 237.55h-6.9652v-1.5693h6.9652z"/><path d="m709.9 208.19h-5.4465v-1.5693h5.4465z"/><path d="m709.9 168.74h-5.4465v-1.5693h5.4465z"/><path d="m709.9 148.91h-5.4465v-1.5693h5.4465z"/><path d="m710.18 188.47h-5.4465v-1.5693h5.4465z"/><path d="m844.78 229.15c0 0.012-0.19733 0.024-0.58399 0.0347-0.41732 9e-3 -0.98664 0.0213-1.7146 0.0347-1.5413 0.0147-3.7546 0.0373-6.5892 0.0653-5.7572 0.0267-14.029 0.064-24.237 0.11066-20.495 0.0267-48.751 0.0613-79.962 0.10133-6.4918-1e-3 -12.854-3e-3 -18.949-5e-3h-0.34265v-0.34132c0.0467-26.73 0.088-50.255 0.11733-67.136 0.044-8.3985 0.0787-15.142 0.10266-19.825 0.0253-2.2959 0.0453-4.0852 0.06-5.3372 0.0133-0.58265 0.0227-1.04 0.0307-1.3813 0.0107-0.31066 0.0213-0.46932 0.032-0.46932s0.0213 0.15866 0.032 0.46932c7e-3 0.34133 0.0173 0.79865 0.0307 1.3813 0.0133 1.252 0.0333 3.0413 0.0587 5.3372 0.0253 4.6826 0.0587 11.426 0.104 19.825 0.0293 16.881 0.0693 40.406 0.11733 67.136l-0.34266-0.34266c6.0945-1e-3 12.457-3e-3 18.949-5e-3 31.211 0.04 59.467 0.076 79.962 0.10133 10.208 0.048 18.48 0.0853 24.237 0.11067 2.8346 0.028 5.0479 0.0507 6.5892 0.0653 0.72798 0.0147 1.2973 0.0267 1.7146 0.0347 0.38666 0.012 0.58399 0.024 0.58399 0.036"/><path d="m846.31 187.68c0 0.192-28.723 0.34666-64.146 0.34666-35.436 0-64.156-0.15466-64.156-0.34666 0-0.19199 28.719-0.34665 64.156-0.34665 35.423 0 64.146 0.15466 64.146 0.34665"/><path d="m846.31 167.95c0 0.192-28.723 0.34666-64.146 0.34666-35.436 0-64.156-0.15466-64.156-0.34666 0-0.19199 28.719-0.34799 64.156-0.34799 35.423 0 64.146 0.156 64.146 0.34799"/><path d="m846.31 148.12c0 0.192-28.723 0.348-64.146 0.348-35.436 0-64.156-0.156-64.156-0.348 0-0.19199 28.719-0.34665 64.156-0.34665 35.423 0 64.146 0.15466 64.146 0.34665"/><path d="m846.31 207.4c0 0.192-28.723 0.34666-64.146 0.34666-35.436 0-64.156-0.15466-64.156-0.34666 0-0.19199 28.719-0.34799 64.156-0.34799 35.423 0 64.146 0.156 64.146 0.34799"/></g><path d="m719.33 224.91v-17.501l10.909-16.936 7.3998 5.6799 15.194-23.601 8.9611 6.3105 12.466-21.773 10.129 8.2531 15.193-28.882 16.364 32.281 13.245-16.152 15.584-4.4599v76.779z" fill="#455a64" stroke-width="1.3333"/><g fill="#247afd" stroke-width="1.3333"><path d="m846.31 141.91c0 8e-3 -0.092 0.0173-0.27465 0.0267-0.212 7e-3 -0.47733 0.0147-0.81198 0.0253-0.75599 0.012-1.8106 0.0293-3.1626 0.0507-2.8079 0.0213-6.8492 0.0507-11.957 0.0907l0.152-0.076c-3.4826 4.5639-7.8145 10.237-12.796 16.761l-0.0813 0.108h-0.136c-9.3158 0.016-20.225 0.0373-32.082 0.0587l0.28666-0.16133c-4.2226 7.0305-8.7758 14.616-13.486 22.457-4.5959 7.6358-9.0438 15.028-13.245 22.009l-0.26132 0.43199-0.29599-0.40799c-6.3318-8.7158-12.189-16.777-17.368-23.903l0.46799-0.0147c-6.6038 10.265-12.056 18.738-15.88 24.682-1.9 2.9186-3.3946 5.2145-4.4372 6.8172-0.50132 0.75332-0.89464 1.344-1.1826 1.776-0.27066 0.39865-0.42799 0.59332-0.42799 0.59332s0.10799-0.22533 0.35465-0.63865c0.27066-0.44399 0.64132-1.048 1.112-1.8213 1.0133-1.6226 2.4639-3.9466 4.3092-6.8998 3.7746-5.9758 9.1558-14.494 15.676-24.813l0.22133-0.35066 0.24532 0.33599c5.2012 7.1078 11.088 15.149 17.449 23.843l-0.55598 0.024c4.1946-6.9852 8.6358-14.381 13.224-22.021 4.7172-7.8371 9.2784-15.417 13.508-22.443l0.0973-0.16266 0.18933 1e-3c11.857 0.0213 22.766 0.0413 32.082 0.0587l-0.21733 0.10666c5.0319-6.4852 9.4064-12.125 12.925-16.661l0.0587-0.0773 0.0947 1e-3c5.1079 0.0387 9.1491 0.0693 11.957 0.0907 1.352 0.0213 2.4066 0.0387 3.1626 0.0493 0.33465 0.0107 0.59998 0.02 0.81198 0.0267 0.18266 8e-3 0.27465 0.0173 0.27465 0.0267"/><path d="m746.29 184.83c0 0.65465-0.55065 1.1853-1.2306 1.1853-0.68131 0-1.232-0.53066-1.232-1.1853s0.55066-1.1853 1.232-1.1853c0.67999 0 1.2306 0.53065 1.2306 1.1853"/><path d="m783.29 163.79c0 0.65465-0.55065 1.1853-1.2306 1.1853s-1.2306-0.53065-1.2306-1.1853 0.55066-1.1853 1.2306-1.1853 1.2306 0.53065 1.2306 1.1853"/><path d="m812.06 158.63c0 0.65465-0.55065 1.1853-1.2306 1.1853-0.67998 0-1.2306-0.53065-1.2306-1.1853s0.55065-1.1853 1.2306-1.1853c0.67999 0 1.2306 0.53066 1.2306 1.1853"/></g><g fill="#263238" stroke-width="1.3333"><path d="m851.33 271.04c0 0.192-35.018 0.34666-78.203 0.34666-43.202 0-78.21-0.15466-78.21-0.34666 0-0.19199 35.008-0.34666 78.21-0.34666 43.186 0 78.203 0.15467 78.203 0.34666"/><path d="m851.33 279.49c0 0.192-35.018 0.34666-78.203 0.34666-43.202 0-78.21-0.15466-78.21-0.34666 0-0.19199 35.008-0.34665 78.21-0.34665 43.186 0 78.203 0.15466 78.203 0.34665"/><path d="m851.33 287.96c0 0.19199-35.018 0.34666-78.203 0.34666-43.202 0-78.21-0.15467-78.21-0.34666 0-0.192 35.008-0.34666 78.21-0.34666 43.186 0 78.203 0.15466 78.203 0.34666"/><path d="m851.33 296.41c0 0.192-35.018 0.34666-78.203 0.34666-43.202 0-78.21-0.15466-78.21-0.34666s35.008-0.34666 78.21-0.34666c43.186 0 78.203 0.15466 78.203 0.34666"/></g><g stroke-width="1.3333"><path d="m789.55 293.09c4.2799-7.1838 5.5279-16.765 6.6292-25.054 0.51732-3.9012 1.424-9.4544-1.3133-11.904-2.9319-2.6239-3.2026-6.6558-6.5745-8.6838-3.3732-2.028-7.9545-2.2093-11.148 0.092"/><path d="m777.69 318.55c-6.5305 0.50132-12.169-4.5266-12.42-11.072-0.24266-6.2852-0.45332-12.64-0.45332-12.64s-9.5251-0.89197-10.214-10.317c-0.69198-9.4264-0.37732-31.187-0.37732-31.187 10.636-5.3585 23.335-4.5412 33.196 2.1333l-0.58798 33.175v17.848c-0.0627 5.9865-3.1733 11.601-9.1438 12.06" fill="#e9c6af"/><path d="m763.99 273.01c1.6266-2.0159 4.2692-2.8173 6.4412-1.4066 2.1719 1.4106 3.0066 4.5466 1.8253 6.8505-0.83331 1.6266-2.7319 3.0999-4.6252 3.4972-1.78 0.372-3.0413 2.0906-2.8346 3.8972 0.27333 2.3653 4.2092 3.2546 5.9852 5.2132 2.7626 3.0453 8.8264 4.3346 12.909 4.8172 4.0159 0.47465 3.5319 0.51332 5.8665-2.7853 1.7-2.4013 2.2333-4.7132 2.2933-7.6531 0.144-6.9505 0.28666-13.901 0.43199-20.85 0.0507-2.5053 0.1-5.0426-0.47599-7.4812-0.57465-2.4386-1.852-4.8092-3.9466-6.1865-2.2919-1.5093-5.1959-1.6373-7.8078-2.4826-3.2639-1.056-6.0358-3.2212-9.0904-4.7839-3.0546-1.5613-6.7998-2.4959-9.8664-0.95597-2.2013 1.104-3.6772 3.3012-5.8172 4.5186-3.0466 1.7333-7.1958 1.34-8.6758 5.8198-0.51199 1.5493-0.47332 3.2493 0.0507 4.7932 2.0666 6.0985 9.6198 8.5571 15.058 5.9212 0.108 1.0333-0.91064 3.3319 0.17867 6.5945 0.34799 1.0426 0.47065 2.6333 2.0999 2.6626"/><path d="m765.67 278.89c0.072-0.06 0.39332 0.49865 1.1786 0.44932 0.75065-0.0347 1.7293-0.92664 1.7626-2.152 0.0933-1.24-0.85464-2.0986-1.6186-2.3466-0.77598-0.28533-1.332-0.13867-1.356-0.248-0.0413-0.064 0.51732-0.42532 1.492-0.22266 0.47199 0.1 1.028 0.35599 1.48 0.85065 0.45999 0.48532 0.74265 1.236 0.69599 2.0013-0.044 1.5693-1.3933 2.7079-2.4533 2.6079-0.53332-0.032-0.88931-0.30665-1.0533-0.52932-0.168-0.23066-0.16666-0.39599-0.128-0.41065" fill="#dba27d"/></g><g fill="#455a64" stroke-width="1.3333"><path d="m775.49 250.47c-0.024-0.02 0.20399-0.36132 0.78931-0.79864 0.57865-0.43733 1.5586-0.92398 2.8626-1.1133 1.2973-0.18133 2.9173-0.0413 4.5119 0.68798 1.5973 0.72665 3.0559 2.0613 4.1586 3.7172 2.2146 3.3692 2.6333 7.0518 2.9279 9.5438 0.248 2.5373 0.33466 4.1026 0.24933 4.1159-0.10266 0.0147-0.36399-1.544-0.73598-4.0519-0.41466-2.4706-0.91464-6.0345-3.0173-9.2224-1.0466-1.568-2.3999-2.8253-3.8559-3.5252-1.4573-0.70265-2.9626-0.88664-4.1826-0.77731-2.5039 0.23333-3.6372 1.5573-3.7079 1.424"/><path d="m748.94 260.12c-4e-3 0.02-0.128 0.0253-0.35866-0.028-0.22666-0.0493-0.56399-0.16532-0.93864-0.42132-0.372-0.25466-0.78665-0.64932-1.0933-1.2293-0.30799-0.56932-0.48666-1.36-0.29599-2.1826 0.17999-0.81465 0.69065-1.6506 1.5293-2.2 0.85598-0.58265 1.9786-0.60132 2.9813-0.58532 1.0266 0.0253 2.0293-0.0533 2.8466-0.71998 0.83598-0.62665 1.472-1.5933 2.3026-2.4853 1.6693-1.804 3.8319-2.9026 5.8705-3.3866 2.048-0.50799 3.9826-0.45066 5.5305-0.12267 1.552 0.324 2.7333 0.86265 3.4759 1.3346 0.74264 0.47065 1.1 0.80398 1.076 0.83198-0.072 0.14533-1.6066-1.1786-4.6399-1.684-1.4973-0.25466-3.3466-0.25599-5.2852 0.25999-1.932 0.49332-3.9559 1.5506-5.5159 3.2373-0.78531 0.83331-1.4413 1.8386-2.4066 2.5586-0.47733 0.35999-1.0466 0.62798-1.624 0.72931-0.57466 0.108-1.1253 0.096-1.6386 0.0867-1.0226-0.0347-1.964-0.0213-2.6666 0.43199-0.70931 0.43599-1.1773 1.1386-1.3573 1.8293-0.37732 1.4293 0.45466 2.5866 1.0733 3.0786 0.65198 0.53332 1.1573 0.59999 1.1346 0.66665"/><path d="m774.17 286.33c-0.0227-0.0573 0.47466-0.23333 1.2453-0.75198 0.76265-0.50932 1.8106-1.412 2.5706-2.8653 0.76398-1.4266 1.104-3.4759 0.43332-5.5252-0.32799-1.0186-0.89331-2.008-1.7133-2.8333-0.81598-0.83198-1.8413-1.5173-2.9453-2.1546-1.1013-0.63999-2.2226-1.2333-3.2452-1.932-1.0253-0.69599-1.924-1.5413-2.6093-2.4586-1.38-1.844-2.0293-3.8746-2.2066-5.5799-0.208-1.716 0.0547-3.1132 0.30799-4.0279 0.12933-0.45999 0.26399-0.80398 0.37732-1.0306 0.104-0.22799 0.16933-0.34132 0.192-0.33332 0.16533 0.0253-0.86131 2.016-0.38933 5.3279 0.22933 1.6266 0.89998 3.5399 2.2253 5.2532 0.66399 0.85598 1.4986 1.6266 2.4839 2.2866 0.98798 0.66265 2.092 1.244 3.2146 1.896 1.12 0.64665 2.2039 1.3693 3.0839 2.2786 0.88531 0.90531 1.5 2.008 1.8346 3.1172 0.69465 2.232 0.26266 4.4559-0.61198 5.9492-0.87065 1.5213-2.028 2.4066-2.8613 2.8626-0.84397 0.46532-1.3773 0.55332-1.3866 0.52132"/><path d="m790.51 272.51c8e-3 0.0467-0.42132 0.14133-1.2133 0.27066-0.79332 0.1-1.9546 0.19733-3.3892 0.10266-2.8533-0.13466-6.8638-1.1146-10.514-3.6146-3.6412-2.4693-6.1638-5.8385-6.8985-8.6784-0.38399-1.412-0.32399-2.6293-0.14-3.4159 0.192-0.79198 0.43866-1.1746 0.46666-1.1613 0.14266 0.0107-0.72398 1.7466 0.14533 4.4399 0.80798 2.6533 3.2879 5.8478 6.8158 8.2411 3.5332 2.4186 7.3878 3.4439 10.165 3.6999 2.7986 0.30533 4.5492-0.0267 4.5626 0.116"/></g><g stroke-width="1.3333"><path d="m792.01 266.05c3.2666-3.6786 8.0825-6.1625 12.994-5.8865 4.9132 0.27599 9.7038 3.6706 10.904 8.4425 0.90264 3.5906-0.2 7.3345-0.66399 11.009-0.46665 3.6746-0.016 7.9691 2.9813 10.145 1.8066 1.312 4.1439 1.5506 6.3118 2.0786 2.1693 0.52932 4.4879 1.6133 5.2332 3.7172 0.85597 2.4133-0.89865 5.1545-3.2453 6.1745-2.3493 1.02-5.0545 0.71065-7.5425 0.104 1.136 2.7039-0.26132 6.0798-2.7946 7.5558-2.5359 1.476-5.8719 1.18-8.3731-0.34933-2.5013-1.5306-4.2172-4.1399-5.1132-6.9332-1.612 2.8386-5.8558 3.4359-8.5744 1.6293-2.7173-1.8053-3.8892-5.3825-3.4679-8.6184 0.42266-3.2359 2.2013-6.1532 4.3439-8.6158 1.0786-1.2386 2.2706-2.4093 3.0346-3.8639 0.76531-1.4533 1.032-3.2986 0.19066-4.7092-0.83998-1.4106-3.0239-1.9933-4.1946-0.84264"/><path d="m797.67 275.95c0.0587 0.052-1.0866 0.61199-2.8333-0.032-1.704-0.57732-3.6986-2.5893-4.1106-5.3665-0.21732-1.368-0.0253-2.7266 0.44799-3.8266 0.46533-1.1053 1.148-1.96 1.8053-2.5586 1.34-1.208 2.4693-1.4466 2.4799-1.3813 0.0573 0.11066-0.97064 0.51199-2.1346 1.7306-1.16 1.1706-2.3493 3.3946-1.912 5.9279 0.37999 2.5253 2.1013 4.3786 3.6132 5.0199 1.5293 0.70265 2.6359 0.36399 2.6439 0.48666" fill="#247afd"/><path d="m764.5 294.68c-4e-3 0.076-0.84398 0.12133-2.152-0.21199-1.3013-0.32666-3.0426-1.12-4.5972-2.4879-1.552-1.3733-2.5559-3.0026-3.0412-4.2532-0.49333-1.256-0.55332-2.096-0.47733-2.1093 0.11067-0.028 0.34 0.75731 0.92398 1.9053 0.57999 1.1493 1.588 2.6359 3.0533 3.9372 1.472 1.292 3.0732 2.108 4.2852 2.5386 1.212 0.43733 2.02 0.56799 2.0053 0.68132" fill="#dba27d"/><path d="m800.79 302.4c-5e-3 0.024-0.16266 0-0.46265-0.068-0.29599-0.0733-0.72398-0.24-1.2266-0.54665-0.98531-0.62399-2.1799-2.0093-2.6773-4.0732-0.24267-1.02-0.34133-2.2013-0.116-3.4266 0.19866-1.2213 0.64798-2.4733 1.244-3.7092 1.188-2.4866 3.0626-4.8465 4.4479-7.5891 0.68798-1.3706 1.2066-2.7839 1.3946-4.1959 0.18933-1.4106 0.024-2.7959-0.45332-4.0092-0.94398-2.4533-2.9173-4.0946-4.7839-4.7292-1.888-0.66132-3.5772-0.51999-4.6652-0.29066-1.1053 0.23199-1.668 0.54398-1.696 0.48132-0.0107-0.0213 0.12266-0.108 0.38932-0.25733 0.27066-0.13733 0.68132-0.32932 1.2426-0.48532 1.1026-0.31866 2.8626-0.55199 4.8879 0.0867 2.0053 0.61466 4.1706 2.332 5.2212 4.9599 0.53199 1.3 0.72665 2.8199 0.53199 4.3306-0.19333 1.516-0.73998 3.0053-1.448 4.4199-1.4373 2.8359-3.3186 5.1665-4.4959 7.5611-1.2186 2.3679-1.696 4.7932-1.2226 6.7438 0.41199 1.9613 1.468 3.3012 2.3533 3.9612 0.90932 0.65198 1.5586 0.76531 1.5346 0.83598" fill="#455a64"/><path d="m815.01 309.31c0 0.024-0.20266 0.0347-0.59465 0.0333-0.38932-0.016-0.96931-0.0787-1.6826-0.29999-1.424-0.41199-3.3906-1.596-4.9092-3.8266-1.5626-2.2079-2.2999-5.4852-2.1186-8.9838 0.12666-3.5252 1.1573-7.2505 1.8173-11.161 0.31999-1.9586 0.50932-3.8932 0.39732-5.7399-0.112-1.848-0.51332-3.6132-1.208-5.1532-0.69198-1.5373-1.6786-2.8519-2.8719-3.7546-1.1693-0.93731-2.5039-1.46-3.7439-1.768-2.5146-0.58798-4.6626-0.27333-6.0678 0.0213-1.4213 0.31733-2.1746 0.63199-2.1973 0.57332-9e-3 -0.0227 0.17066-0.11733 0.52665-0.27599 0.35333-0.15733 0.89198-0.36399 1.6053-0.55999 1.412-0.37999 3.6012-0.78664 6.2425-0.23732 1.3 0.28932 2.7213 0.81198 3.9866 1.7906 1.2866 0.94264 2.3573 2.3319 3.1026 3.9452 0.74665 1.616 1.1773 3.4572 1.304 5.3745 0.12533 1.9253-0.0653 3.9066-0.39199 5.8959-0.67065 3.9719-1.7066 7.6491-1.8613 11.081-0.20932 3.4092 0.45066 6.5412 1.888 8.6811 1.4026 2.168 3.2399 3.3666 4.5866 3.8412 1.3586 0.50132 2.1986 0.43999 2.1906 0.52265" fill="#455a64"/></g><g fill="#e9c6af" stroke-width="1.3333"><path d="m817.85 352.24-20.077 15.662 8.4264 13.832 24.177-17.812z"/><path d="m764.14 299.61s0.0973-1.6746-4.2799-1.916c-4.3772-0.24-4.8652-0.16266-4.8652-0.16266s-1.9733-2.5239-2.096-4.0599c-0.12133-1.5373 0.93731-4.1252 0.93731-4.1252l4.4319-0.40666-1.204-3.0079-3.1226 0.21599-8.8198 1.0586-3.5092 15.441-24.071 44.935c-3.9159 5.8585-1.748 13.825 4.5959 16.892 6.2225 3.0079 14.562-3.3772 16.868-9.8931l13.322-49.98 4.6852-3.6599 6.7145-1.232"/><path d="m709.28 598.69 32.775-188.56-0.0467-0.0107c0.0693-0.28 0.13733-0.54399 0.20666-0.81732l7e-3 -0.0347h1e-3c5.5772-22.115 14.176-29.206 14.176-29.206l50.156 3.1479c4.2639 7.6665 4.8052 26.058 4.8052 26.058 0.58398 2.2533-10.597 184.96-10.597 184.96l-16.774-0.45998-9.0971-172.85-48.809 178.49z"/></g><g stroke-width="1.3333"><path d="m708.88 600.38 0.064-1.7026 17.253 0.49865-0.14799 5.6172-1.068 0.0347c-4.7466 0.11733-24.146 0.28533-27.287-0.69332-3.5039-1.0906 11.186-3.7546 11.186-3.7546" fill="#115ecd"/><path d="m719.82 604.5c0.28533-1.3266 1.1226-2.5453 2.2973-3.3466 1.1746-0.79865 2.6039-1.1986 4.0506-1.052l-0.13466 4.4626z" fill="#fff" opacity=".60001"/><path d="m701.69 601.92s-5.1572 1.2346-4.5439 2.0346c0.61332 0.80131 20.226 1.3173 28.898 0.83997l-0.0173-0.35732-22.881-0.41999s-0.45732-2.0306-1.456-2.0973" fill="#fff" opacity=".60001"/></g><g fill="#263238" stroke-width="1.3333"><path d="m726.3 604.43c1e-3 7e-3 -0.10133 0.0147-0.29599 0.0227-0.25466 7e-3 -0.53332 0.0147-0.84931 0.0253-0.84931 0.0107-1.8933 0.0267-3.1253 0.0413-2.6399 0.02-6.2865 0-10.313-0.10133-4.0279-0.10399-7.6705-0.27199-10.305-0.42532-1.2293-0.08-2.2706-0.14666-3.1186-0.20133-0.31332-0.0267-0.59198-0.0493-0.84664-0.0693-0.19333-0.0187-0.29333-0.0307-0.29333-0.0387 0-5e-3 0.10266-5e-3 0.29599-1e-3 0.256 9e-3 0.53466 0.0213 0.84932 0.0333 0.84931 0.0373 1.8906 0.0853 3.1212 0.14 2.6346 0.12 6.2785 0.26533 10.302 0.36932 4.0239 0.10267 7.6691 0.14267 10.308 0.15867 1.232 8e-3 2.276 0.0147 3.1253 0.0187 0.31466 4e-3 0.59465 8e-3 0.84931 0.0107 0.19466 5e-3 0.29599 0.0107 0.29599 0.0173"/><path d="m703.14 604.26c-0.064 7e-3 -0.092-0.68931-0.54132-1.4-0.43599-0.71998-1.068-1.0906-1.0306-1.1386 0.0133-0.048 0.74132 0.27199 1.2106 1.0413 0.47998 0.76531 0.41199 1.5106 0.36132 1.4973"/><path d="m708.29 602.01c-0.0493 0.028-0.28399-0.25333-0.52399-0.62799-0.23733-0.37332-0.39199-0.69731-0.34266-0.72531 0.0493-0.028 0.284 0.25332 0.52266 0.62665 0.23999 0.37332 0.39332 0.69865 0.34399 0.72665"/><path d="m709.7 601.36c-0.0387 0.0373-0.30533-0.13733-0.59332-0.39199-0.28933-0.25466-0.48932-0.49333-0.45066-0.53199 0.04-0.0387 0.30533 0.136 0.59332 0.39199 0.28933 0.25466 0.49066 0.49332 0.45066 0.53199"/><path d="m710.62 599.88c-1e-3 0.0533-0.40399 0.0893-0.89997 0.0827-0.49599-8e-3 -0.89731-0.0573-0.89598-0.11067 1e-3 -0.0547 0.40399-0.0907 0.89998-0.0827 0.49465 8e-3 0.89731 0.0573 0.89597 0.11066"/><path d="m710.96 598.82c0.0187 0.048-0.42399 0.22-1.008 0.244-0.58265 0.0267-1.0413-0.10533-1.028-0.156 0.0107-0.0547 0.46399-0.0107 1.0173-0.0387 0.55465-0.0213 1.0026-0.10399 1.0186-0.0493"/><path d="m707.74 600.6c1e-3 0.0227-0.42399 0.0587-1.1026-0.0347-0.33999-0.048-0.73998-0.13333-1.168-0.272-0.21333-0.0773-0.43599-0.13733-0.66532-0.27599-0.10666-0.0707-0.22533-0.168-0.26266-0.32666-0.0427-0.15466 0.052-0.32532 0.17866-0.40399 1.0706-0.48132 2.1093 0.0987 2.4866 0.61599 0.20799 0.26399 0.29866 0.51865 0.33865 0.69331 0.04 0.17733 0.0333 0.27599 0.02 0.27866-0.0387 0.012-0.0627-0.40665-0.47465-0.88931-0.20533-0.23733-0.51732-0.46932-0.92664-0.59332-0.38666-0.11866-0.93998-0.16133-1.3173 0.048-0.17999 0.116-0.11733 0.30933 0.0747 0.42132 0.17866 0.11467 0.41066 0.18667 0.61332 0.264 0.41332 0.14399 0.79864 0.24132 1.128 0.30399 0.65865 0.12666 1.0786 0.14 1.0773 0.17066"/><path d="m707.46 600.64c-0.016 0.012-0.17066-0.25466-0.10533-0.71598 0.0333-0.22533 0.132-0.49199 0.32399-0.74132 0.20133-0.22266 0.46266-0.52932 0.93465-0.49865 0.25599 0.0373 0.37332 0.31199 0.32532 0.48265-0.024 0.17866-0.11733 0.33199-0.19999 0.45332-0.172 0.252-0.36399 0.45466-0.53999 0.60665-0.35599 0.30533-0.63332 0.41866-0.64532 0.39866-0.0173-0.024 0.22533-0.17866 0.53999-0.49465 0.156-0.15867 0.32799-0.35999 0.48132-0.60399 0.15733-0.21199 0.27333-0.59865-3e-3 -0.65332-0.27466-0.032-0.56532 0.216-0.73999 0.41599-0.17999 0.21733-0.28399 0.45466-0.33199 0.65865-0.0973 0.41599-3e-3 0.68532-0.04 0.69199"/><path d="m726.09 600.05c-4e-3 0.036-0.49065-0.056-1.2693 9e-3 -0.77064 0.0587-1.8506 0.32399-2.8013 0.98797s-1.5226 1.5546-1.7986 2.2266c-0.28266 0.67865-0.32266 1.1373-0.36133 1.132-0.0133 0-0.016-0.11599 9e-3 -0.32266 0.024-0.20532 0.0853-0.50265 0.21332-0.85597 0.24666-0.70265 0.82132-1.6413 1.8133-2.3346 0.99198-0.69332 2.12-0.94531 2.9159-0.97064 0.39999-0.0147 0.72398 0.012 0.94398 0.0467 0.21866 0.036 0.33732 0.0693 0.33465 0.0813"/><path d="m717.72 602.89c7e-3 0.0493-1.1186 0.192-2.5146 0.16533-1.3973-0.0227-2.5133-0.20266-2.5066-0.25332 7e-3 -0.056 1.1266 0.0373 2.5106 0.06 1.3826 0.0253 2.5053-0.028 2.5106 0.028"/><path d="m721.08 602.97c0.04 0.04-0.0987 0.21866-0.22133 0.45599-0.12533 0.23466-0.19066 0.44666-0.25066 0.44132-0.0547-3e-3 -0.08-0.25599 0.064-0.52798 0.14266-0.272 0.37199-0.40799 0.40799-0.36933"/><path d="m722.4 601.54c0.04 0.0387-0.076 0.20133-0.25732 0.36533-0.184 0.16266-0.36399 0.26399-0.40399 0.22399-0.04-0.0373 0.076-0.20133 0.25866-0.36399s0.36399-0.26266 0.40265-0.22533"/><path d="m724.22 600.91c-0.0133 0.0533-0.24266 0.0453-0.49598 0.12266-0.256 0.0707-0.43999 0.19467-0.48399 0.15733-0.0467-0.0307 0.10533-0.25332 0.42265-0.34265 0.316-0.092 0.57732 0.0133 0.55732 0.0627"/><path d="m725.53 600.63c0.02 0.0507-0.0827 0.13066-0.22533 0.17733-0.144 0.048-0.27733 0.0453-0.29733-5e-3 -0.0173-0.0493 0.0827-0.12933 0.22667-0.17733 0.14533-0.0467 0.27599-0.0453 0.29599 5e-3"/><path d="m793.14 304.92s6.1598 0.61466 13.276 5.2279c15.86 10.28 42.379 32.019 40.18 42.087-1.8733 8.5704-22.559 18.976-22.559 18.976l-13.433-16.158 8.2345-4.7092-20.246-13.469z"/><path d="m802.18 337.65-0.65865 2.4106-2.3319 11.141-0.57465 16.332c12.03 15.488 12.209 28.53 12.209 28.53l-60.76 7.0972c0.0107-12.002 4.3892-27.117 4.3892-27.117 3.5159-5.9639 3.3466-23.803 2.6893-24.454-3.7959-3.7612-4.7159-6.5212-1.6853-11.34 0 0-18.837 19.786-20.775 21.565-6.6558 6.0998-13.057 4.3986-16.028 1.748-8.3211-7.4251 0.22133-17 0.22133-17l31.726-36.363c2.1666-2.4839 5.0386-4.2706 8.2451-5.0265 3.3812-0.79865 6.7945-1.2053 6.7945-1.2053l21.185 0.18133s4.0626 0.14133 6.3118 0.77065c0 0 7.3518 2.3613 9.2504 11.466 1.8973 9.1051-0.20799 21.263-0.20799 21.263"/></g><g fill="#455a64" stroke-width="1.3333"><path d="m802.85 323.08c0.048 0 0.0907 0.62532 0.13067 1.76 0.0267 1.136 5e-3 2.7799-0.116 4.8065-0.23599 4.0546-0.93064 9.6278-2.092 15.708-0.39599 2.0746-0.81464 4.0706-1.252 5.9198l9e-3 -0.064c-0.188 4.7199-0.37466 8.8011-0.53599 11.701-0.0853 1.3493-0.15866 2.4786-0.21733 3.3972-0.064 0.79332-0.11733 1.2226-0.15599 1.2213-0.04-3e-3 -0.0627-0.43333-0.0707-1.2293 5e-3 -0.91864 0.0133-2.052 0.0227-3.4039 0.0427-2.9039 0.14266-6.9892 0.28932-11.71v-0.0293l8e-3 -0.036c0.41733-1.836 0.82532-3.8332 1.2226-5.8972 1.156-6.0572 1.9226-11.59 2.2839-15.614 0.18133-2.0106 0.27866-3.6426 0.33333-4.7719 0.0453-1.1293 0.092-1.756 0.13999-1.7573"/><path d="m803.06 339.41c0.108-0.15732 5.0759 3.0906 11.092 7.2532 6.0185 4.1639 10.808 7.6665 10.698 7.8251-0.10933 0.15733-5.0759-3.0892-11.094-7.2545-6.0145-4.1626-10.805-7.6651-10.696-7.8238"/><path d="m763.77 315.6c0.0173-0.0173 0.124 0.064 0.31199 0.23599 0.2 0.16266 0.44799 0.44532 0.75732 0.82398 0.59598 0.76531 1.292 2.044 1.6426 3.7666 0.35866 1.712 0.33333 3.8626-0.34665 6.0878-0.73065 2.192-1.8533 4.4692-3.4079 6.6225-0.77198 1.0786-1.6213 2.0613-2.5053 2.9466-0.88264 0.89732-1.8266 1.636-2.6533 2.3906-1.68 1.5053-3.1292 2.9346-4.3266 4.1532-1.1986 1.2213-2.1426 2.232-2.7973 2.9319-0.65332 0.69865-1.0213 1.0826-1.06 1.0506-0.0347-0.0293 0.26133-0.47199 0.85598-1.2266 0.59332-0.75598 1.4853-1.8226 2.6439-3.0919 1.1586-1.2706 2.5799-2.7439 4.2519-4.2906 0.83598-0.78531 1.7626-1.528 2.6026-2.3959 0.85197-0.86664 1.6733-1.8253 2.4253-2.8733 1.508-2.0866 2.6279-4.3199 3.3612-6.4105 0.67865-2.1066 0.75598-4.1599 0.47332-5.8065-0.55999-3.3719-2.3746-4.8385-2.2293-4.9145"/><path d="m756.7 369.32 0.70265-8.1625h41.439l-0.224 6.3785z"/><path d="m721.36 344.96c0.0773 0.104-1.0466 0.78398-2.2973 2.3999-1.244 1.5773-2.5293 4.2532-2.4119 7.3492 0.13333 3.0946 1.632 5.6585 3.0013 7.1292 1.376 1.5093 2.5506 2.0946 2.4826 2.2053-0.02 0.0373-0.32933-0.068-0.84665-0.352-0.51732-0.28132-1.228-0.77198-1.9906-1.5133-1.52-1.444-3.1959-4.1252-3.3412-7.4425-0.12399-3.3146 1.3293-6.1238 2.7266-7.6865 0.70132-0.79864 1.3693-1.3466 1.8626-1.6693 0.49199-0.32399 0.79198-0.45465 0.81465-0.41999"/></g><g stroke-width="1.3333"><path d="m800.75 594.23 4.6986 10.933-21.029-0.24932-0.44399-11.145z" fill="#115ecd"/><path d="m784.27 603.02c-1e-3 0.056 1.124 0.11999 2.9453 0.14933 1.8213 0.0333 4.3372 0.0227 7.1105-0.0213 2.6466-0.0547 5.0426-0.10399 7.0998-0.14799 1.816-0.0467 2.9399-0.0893 2.9413-0.148 1e-3 -0.056-1.124-0.11733-2.9453-0.14399-1.8213-0.0293-4.3372-0.0187-7.1118 0.0253-2.6453 0.0533-5.0399 0.10266-7.0972 0.14399-1.816 0.0453-2.9413 0.084-2.9426 0.14267" fill="#263238"/><path d="m793.03 593.99c-0.18533 9e-3 -0.224 1.996-0.088 4.4346 0.13466 2.4399 0.39332 4.4092 0.57732 4.3986 0.18399-9e-3 0.22266-1.9946 0.088-4.4346-0.136-2.4399-0.39333-4.4092-0.57732-4.3986" fill="#263238"/><path d="m805.42 605.39-21.019-0.70398-0.13333-1.9933 20.097 0.17067 1.064 2.2879" fill="#fff" opacity=".60001"/><path d="m809.49 385.53c15.821 49.932-4.5759 110.54 0.31466 168.73 0.48265 5.7158 2.8013 12.556-2.5439 15.808-1.4373 0.87598-3.1412 1.2333-4.8239 1.1786-4.2719-0.14-7.8398-2.3546-11.652-3.8772-7.2452-2.8919-15.486-3.2106-22.933-0.88931-5.0479 1.5746-10.053 4.3559-15.281 3.5652-6.9425-1.0493-11.442-7.9131-17.833-10.821-5.9838-2.7226-12.894-1.708-19.466-1.872-0.0653-1e-3 -0.13199-4e-3 -0.19732-5e-3 -9.4798-0.29466-16.117-9.5251-13.618-18.676 9.5504-34.979 41.226-148.61 55.245-169.36l41.919-1.784c3.8626 4.6679 8.8264 11.64 10.869 18.001" fill="#247afd"/><path d="m794.81 409.04c0.0693 0.064-0.80132 1.1586-2.28 2.8653-1.4906 1.696-3.5719 4.0439-6.1892 6.3278-2.6266 2.2786-5.3172 3.9399-7.3025 5.0212-1.9973 1.0733-3.2892 1.616-3.3279 1.54-0.14533-0.23999 4.9799-2.6253 10.176-7.0878 2.5759-2.2466 4.7012-4.5252 6.2825-6.1332 1.5693-1.6186 2.5679-2.5986 2.6413-2.5333" fill="#206ee4"/><path d="m776.3 427.88c-13.2 33.78-15.69 71.658-7.0225 106.88 0.75198 3.0519 1.52 6.5225-0.21866 9.1411-2.2493 3.3906-7.6958 3.1572-10.778 0.49732-3.0799-2.6599-4.3092-6.8478-5.0812-10.844-5.7558-29.79 4.6679-59.725 15.926-87.9" opacity=".10001"/><path d="m538.53 448.57h-79.445v-3.8639h79.445z" fill="#263238"/><path d="m446.78 448.57-14.902-55.844h62.033l13.493 55.844z" fill="#263238"/><path d="m503.69 444.34h-55.416l-12.9-49.035h55.703z" fill="#f5f5f5"/><path d="m436.3 398.84h55.712l-0.93731-3.5252h-55.701z" fill="#ebebeb"/></g><g fill="#fafafa" stroke-width="1.3333"><path d="m442.31 397.08c0 0.33599 0.27333 0.60798 0.60932 0.60798 0.33466 0 0.60798-0.27199 0.60798-0.60798s-0.27332-0.60932-0.60798-0.60932c-0.33599 0-0.60932 0.27333-0.60932 0.60932"/><path d="m440.22 397.08c0 0.33599 0.27199 0.60798 0.60932 0.60798 0.33466 0 0.60798-0.27199 0.60798-0.60798s-0.27332-0.60932-0.60798-0.60932c-0.33733 0-0.60932 0.27333-0.60932 0.60932"/><path d="m438.12 397.08c0 0.33599 0.27333 0.60798 0.60932 0.60798 0.33466 0 0.60798-0.27199 0.60798-0.60798s-0.27332-0.60932-0.60798-0.60932c-0.33599 0-0.60932 0.27333-0.60932 0.60932"/></g><path d="m478.16 420.32 6.1012 6.9798c2.3733-1.6946 3.7572-4.2852 3.7452-7.0185-0.0187-4.8799-4.4799-8.8784-9.8811-8.8584-5.4025 0.0213-9.8304 4.0559-9.8118 8.9358z" fill="#247afd" stroke-width="1.3333"/><g fill="#263238" stroke-width="1.3333"><path d="m477.39 421.44c0.0253-0.0573 0.64932 0.57732 1.74 1.7453 1.0906 1.1693 2.6479 2.8746 4.5106 4.9585l0.21066 0.23733-0.26133 0.19733c-2.4719 1.8546-6.5892 2.6399-10.285 1.008-1.76-0.73998-3.2172-1.9826-4.2319-3.4012-1.0053-1.44-1.512-3.0746-1.5693-4.5826l-0.012-0.30932 0.30533-1e-3c2.9186-0.016 5.3372-4e-3 7.0105 0.0227 1.6746 0.0267 2.6093 0.068 2.5826 0.12533-0.0253 0.0573-1.0053 0.128-2.6853 0.20666-1.68 0.0787-4.0572 0.16533-6.8985 0.24l0.29199-0.31066c0.0853 1.396 0.57465 2.8946 1.52 4.2226 0.95598 1.3066 2.3173 2.4586 3.9626 3.1519 3.4532 1.5253 7.3132 0.83464 9.6691-0.85198l-0.052 0.43199c-1.7666-2.068-3.2239-3.8106-4.2412-5.0532-1.016-1.2413-1.592-1.9813-1.5666-2.0373"/><path d="m473.4 415.05c1e-3 0.30533 0.24933 0.55199 0.55465 0.55065 0.30533-1e-3 0.55066-0.24932 0.55066-0.55465-1e-3 -0.30399-0.24933-0.55065-0.55466-0.55065-0.30532 1e-3 -0.55198 0.24932-0.55065 0.55465"/><path d="m462.43 411.06c-1e-3 -0.192 2.9493-0.35999 6.5905-0.37332h1.0226l0.1 0.1c2.2773 2.2906 3.9372 4.1426 3.8132 4.2679-0.124 0.12399-1.9893-1.5213-4.2986-3.7799l0.24399 0.0987c-0.28399 3e-3 -0.57865 5e-3 -0.87864 8e-3 -3.6399 0.0133-6.5932-0.12933-6.5932-0.32133"/><path d="m449.96 418.04c-0.036 0.0453-0.25599-0.87731-0.63065-2.5733-0.37332-1.6933-0.90265-4.1679-1.5093-7.1972l-0.0667-0.33199 0.34399-4e-3c3.9226-0.0333 8.6651-0.0747 13.786-0.11867-0.072-0.0627 0.65065 0.53466 0.34533 0.284v3e-3l1e-3 5e-3 1e-3 0.0107 4e-3 0.02 0.024 0.124 0.0307 0.16399 0.0613 0.32933 0.124 0.65332c0.0827 0.43465 0.16266 0.86531 0.24399 1.2933 0.15866 0.85464 0.31733 1.696 0.47066 2.5199 0.30266 1.6413 0.59331 3.2173 0.86797 4.7052l0.0693 0.37466-0.37733-1e-3c-4.1412-0.0107-7.6265-0.06-10.046-0.10933-1.108-0.0293-2.036-0.0547-2.7973-0.0733-0.63865-0.0253-0.96931-0.0493-0.94664-0.0773 0.0227-0.0267 0.39599-0.0547 1.0666-0.0827 0.77865-0.028 1.7266-0.0587 2.8586-0.0987 2.4359-0.068 5.8452-0.144 9.8624-0.18666l-0.308 0.37199c-0.28932-1.4853-0.59465-3.0573-0.91464-4.6972-0.15866-0.82398-0.31999-1.664-0.48266-2.5159-0.0827-0.42933-0.16532-0.85998-0.24799-1.2933l-0.124-0.65332-0.0627-0.32799-0.0307-0.16533-0.024-0.124-4e-3 -0.0213-1e-3 -0.0107-1e-3 -4e-3v-3e-3c-0.30666-0.25333 0.41599 0.34132 0.34132 0.28132-5.1225-4e-3 -9.8651-7e-3 -13.789-0.0107l0.27733-0.33466c0.52265 2.9293 0.92531 5.3665 1.2 7.0958 0.27466 1.7266 0.41999 2.7359 0.38399 2.7799"/><path d="m472.59 426.16c1e-3 0.30533 0.24933 0.55065 0.55465 0.55065 0.30533-3e-3 0.55199-0.24932 0.55066-0.55465-1e-3 -0.30533-0.24933-0.55199-0.55466-0.55065-0.30532 1e-3 -0.55198 0.24932-0.55065 0.55465"/><path d="m463.12 426.2c0-0.19333 2.2413-0.35732 5.0065-0.36666 2.7666-0.012 5.0092 0.13467 5.0105 0.32666 0 0.192-2.2413 0.35599-5.0079 0.36666-2.7653 0.012-5.0092-0.13466-5.0092-0.32666"/><path d="m450 430.54c-0.0307 0.04-0.24133-0.61198-0.60665-1.8426-0.36266-1.2293-0.88398-3.0439-1.4986-5.3065l-0.0867-0.32133 0.33866-5e-3c3.7546-0.068 8.7491-0.12 14.217-0.14267-0.29999-0.23332 0.41332 0.31733 0.33999 0.26133v3e-3l1e-3 4e-3 1e-3 7e-3 4e-3 0.016 8e-3 0.0293 0.0147 0.06 0.0307 0.11867 0.0613 0.23866 0.12133 0.47332 0.24 0.93864c0.15866 0.62132 0.31466 1.236 0.46799 1.84 0.30399 1.2066 0.59731 2.3733 0.87997 3.4919l0.10267 0.40799-0.41733-1e-3c-4.2172-7e-3 -7.8105-0.056-10.32-0.10667-1.1466-0.0307-2.1106-0.0573-2.9093-0.08-0.66665-0.0253-1.0133-0.0533-0.99064-0.0827 0.0227-0.0293 0.41466-0.06 1.1133-0.092 0.81598-0.028 1.8013-0.0613 2.9706-0.10266 2.5226-0.0707 6.0372-0.148 10.133-0.18666l-0.31333 0.40665c-0.29199-1.116-0.59732-2.2813-0.91064-3.4852-0.15733-0.60266-0.31599-1.216-0.47599-1.8373l-0.24266-0.93864-0.12133-0.47333-0.0613-0.23732-0.0307-0.12-0.0147-0.06-0.012-0.044-3e-3 -8e-3v-4e-3l-1e-3 -1e-3c-0.0733-0.0573 0.63865 0.49199 0.33732 0.26133-5.4692 0.02-10.465 7e-3 -14.218-0.0307l0.25199-0.32666c0.52666 2.1813 0.93198 3.9746 1.208 5.2412 0.276 1.2653 0.42133 1.9973 0.39066 2.0386"/><path d="m451.06 411.22c-1e-3 -0.192 2.1106-0.35599 4.7146-0.36532 2.6053-0.0107 4.7172 0.13599 4.7186 0.32799 1e-3 0.19199-2.1093 0.35466-4.7159 0.36532-2.6039 0.0107-4.7172-0.13599-4.7172-0.32799"/><path d="m451.16 412.77c0-0.192 2.1226-0.35599 4.7426-0.36532 2.6213-0.0107 4.7452 0.13599 4.7466 0.32799 1e-3 0.19066-2.1226 0.35466-4.7426 0.36532-2.6213 0.0107-4.7452-0.13599-4.7466-0.32799"/><path d="m451.44 414.26c0-0.192 2.0493-0.35599 4.5772-0.36532 2.5293-9e-3 4.5799 0.13733 4.5812 0.32932 0 0.19066-2.0493 0.35466-4.5786 0.36533-2.5279 9e-3 -4.5799-0.13733-4.5799-0.32933"/><path d="m451.32 426.06c0-0.19333 2.012-0.35599 4.4946-0.36532 2.4839-9e-3 4.4972 0.13733 4.4986 0.32932 0 0.19066-2.012 0.35466-4.4959 0.36399-2.4826 0.0107-4.4972-0.13599-4.4972-0.32799"/><path d="m451.88 427.77c0-0.192 1.716-0.35466 3.8332-0.36132 2.1173-8e-3 3.8332 0.13999 3.8346 0.33199 1e-3 0.19066-1.7146 0.35332-3.8332 0.36132-2.116 9e-3 -3.8346-0.13866-3.8346-0.33199"/><path d="m365 448.4v7.3225h4.7959v148.28h9.8411v-148.28h52.227v148.28h9.8411v-148.28h226.57v148.24h9.8411v-148.24h4.2586v-7.3225z"/><path d="m578.39 503.63c0 0.148 2.8653 0.26799 6.3998 0.26799s6.3998-0.11999 6.3998-0.26799-2.8653-0.26799-6.3998-0.26799-6.3998 0.11999-6.3998 0.26799"/></g><g stroke-width="1.3333"><path d="m485.17 505.15c-0.192 0-0.34666-0.076-0.34666-0.16933 0-0.0933 0.15466-0.17066 0.34666-0.17066s0.34666 0.0773 0.34666 0.17066c0 0.0933-0.15466 0.16933-0.34666 0.16933" fill="#455a64"/><path d="m547.88 373.17-36.756-37.342-0.79598-4.0426c-0.15199-0.73998-0.30666-1.5653-0.44799-2.5039-0.16666-1.0933-0.14133-2.2079 0.0573-3.2892 0.24133-1.3106 0.63199-3.0399 1.1333-3.9146 0.61865-1.0813-0.37332-2.3853-1.396-1.9386-1.024 0.44665-2.8026 3.3839-3.1852 7.4171-0.38266 4.0332-3.8252-1.3186-5.1132-3.2466-1.288-1.9266-5.5452-7.7025-6.4332-7.7705-1.3013-0.10133-1.6333 1.3093-0.30399 3.2039 1.3466 1.9186 4.9305 7.8611 3.9119 8.4998 0 0-0.0133-3e-3 -0.0387-7e-3 -2.072-0.35199-4.1172 0.67331-5.0772 2.5186-0.92798 1.7813-1.9626 4.3092-1.1146 5.4732 1.596 2.1959 5.8599 6.2078 5.8599 6.2078l1.2306 1.0586c3e-3 3e-3 31.801 46.078 38.731 47.575 4.3106 0.93065 70.949 6.4585 70.949 6.4585l5.0279-18.358z" fill="#e9c6af"/><path d="m492.04 335.45c1.1333 1.088 2.2666 2.1773 3.3999 3.2652 0.384 0.37066 0.78265 0.74932 1.28 0.93998 0.49732 0.19199 1.1253 0.15199 1.4866-0.24 0.32799-0.35465 0.35866-0.90931 0.2-1.3653-0.15867-0.45733-0.47466-0.83865-0.78265-1.2093-1.1013-1.324-2.2026-2.6479-3.3052-3.9719" fill="#e9c6af"/><path d="m494.32 332.88c0.0733-0.0613 0.71198 0.57065 1.6853 1.64 0.54265 0.61732 1.1013 1.2493 1.68 1.9053 0.30132 0.36 0.67065 0.73199 0.93731 1.268 0.25999 0.52532 0.36666 1.2746-0.0933 1.8893-0.50266 0.60665-1.2946 0.62532-1.86 0.42666-0.58398-0.21333-0.98664-0.60266-1.332-0.93865-0.61199-0.62398-1.204-1.2253-1.78-1.812-0.99864-1.0453-1.5826-1.728-1.516-1.7973 0.0653-0.0693 0.77065 0.48665 1.856 1.4426 0.60932 0.55199 1.2333 1.1173 1.8813 1.7026 0.34399 0.316 0.70532 0.62399 1.112 0.75865 0.39066 0.13466 0.88131 0.0707 1.0946-0.21333 0.22666-0.28666 0.21466-0.78131 0.0227-1.1653-0.188-0.40666-0.51732-0.77465-0.81465-1.1533-0.53865-0.68665-1.06-1.3506-1.5666-1.9986-0.87597-1.1506-1.38-1.8933-1.3066-1.9546" fill="#dba27d"/><path d="m494.45 333.08c1.1333 1.088 2.2666 2.1773 3.3999 3.2666 0.38533 0.36799 0.78399 0.74664 1.2813 0.93864 0.49732 0.19066 1.124 0.15066 1.4853-0.24133 0.32933-0.35332 0.35866-0.90798 0.2-1.364-0.15867-0.45599-0.47332-0.83865-0.78265-1.2106-1.1013-1.3226-2.2026-2.6466-3.3039-3.9706" fill="#e9c6af"/><path d="m496.73 330.49c0.0733-0.0613 0.71198 0.57065 1.684 1.64 0.54398 0.61732 1.1026 1.2493 1.6813 1.904 0.30132 0.36133 0.67065 0.73332 0.93731 1.2693 0.25999 0.52666 0.36666 1.2746-0.0933 1.888-0.50266 0.60798-1.2946 0.62665-1.86 0.42799-0.58398-0.21333-0.98664-0.60266-1.332-0.93731-0.61199-0.62399-1.204-1.2266-1.78-1.8133-0.99864-1.0466-1.584-1.728-1.5173-1.7973 0.0667-0.0693 0.77198 0.48799 1.8573 1.4426 0.60799 0.55199 1.2333 1.1173 1.8813 1.704 0.34266 0.31466 0.70532 0.62265 1.112 0.75731 0.39066 0.13466 0.87998 0.072 1.0946-0.21333 0.22666-0.28666 0.21466-0.78131 0.0227-1.1666-0.188-0.40533-0.51732-0.77465-0.81465-1.152-0.53999-0.68798-1.06-1.352-1.5666-1.9986-0.87597-1.1506-1.38-1.8933-1.3066-1.9546" fill="#dba27d"/><path d="m497.11 331.13 3.3999 3.2652c0.38532 0.36933 0.78398 0.74798 1.2813 0.93998 0.49732 0.19066 1.124 0.15066 1.4853-0.24133 0.32933-0.35332 0.35866-0.90798 0.2-1.364-0.15733-0.45732-0.47332-0.83864-0.78265-1.2106-1.1013-1.324-2.2026-2.6466-3.3039-3.9706" fill="#e9c6af"/><path d="m499.39 328.55c0.0733-0.0613 0.71198 0.56932 1.684 1.64 0.54398 0.61598 1.1026 1.2493 1.6813 1.904 0.30133 0.36133 0.67065 0.73332 0.93731 1.2693 0.25999 0.52532 0.36532 1.2746-0.092 1.888-0.50399 0.60798-1.2973 0.62531-1.8613 0.42799-0.58398-0.21333-0.98664-0.60266-1.332-0.93865-0.61199-0.62398-1.204-1.2253-1.78-1.812-0.99864-1.0466-1.584-1.728-1.5173-1.7973 0.0667-0.0693 0.77198 0.48665 1.8573 1.4426 0.60932 0.55199 1.2333 1.1173 1.8813 1.7026 0.34399 0.316 0.70532 0.62399 1.1106 0.75865 0.39199 0.13466 0.88131 0.0707 1.096-0.21333 0.22666-0.28666 0.21466-0.78131 0.0227-1.1666-0.188-0.40533-0.51732-0.77332-0.81465-1.152-0.53998-0.68798-1.06-1.352-1.5666-1.9986-0.87597-1.1506-1.3813-1.8933-1.3066-1.9546" fill="#dba27d"/><path d="m502.48 336.78c-9e-3 -0.11066 0.84398-0.28133 2.072 0.096l-0.39066 0.33599c-0.16133-0.65598-0.23599-1.48-0.088-2.3359 0.19333-1.228 0.75865-2.2346 1.2733-2.8426 0.52398-0.61065 0.96664-0.85198 1.0213-0.78664 0.14667 0.13199-1.268 1.4973-1.6093 3.7399-0.13333 0.76798-0.10133 1.5026-0.02 2.108l0.072 0.53332-0.46399-0.19866c-1.0626-0.45332-1.872-0.51332-1.8666-0.64932" fill="#dba27d"/><path d="m596.03 317.19 0.156 51.151-19.945 0.95198-0.80665-12.26s-9.6224 1.4613-11.633-5.7772c-1.2853-4.6252-0.96531-40.362-0.96531-40.362z" fill="#e9c6af"/><path d="m557.88 315.93c1.4773 3.0559 8.5171 8.6491 8.5171 8.6491l3.1786 8.5211c2.7626-2.1613 6.4705-2.0373 7.1732 2.8159 0.50666 3.5066-3.8532 4.2159-3.8532 4.2159 2.5386 4.3212 4.2599 7.8158 7.9558 11.924 3.9999 4.4479 6.2412 4.8959 10.58 4.9679h4.7839s9.7904-8.1798 7.8558-29.726c-1.936-21.545-21.305-15.258-25.929-20.642-7.5292-8.7664-25.197-0.92931-20.262 9.2744"/><path d="m578.76 591.5-6.5198-8.3638 15.592-12.312 9.6664 12.136-0.91865 0.82532c-4.1132 3.6359-21.17 18.198-24.734 19.598-3.9759 1.56 6.9145-11.884 6.9145-11.884" fill="#115ecd"/><path d="m573.63 598.3s-3.5852 5.0065-2.4026 5.3119c1.1826 0.30799 18.974-13.76 26.278-20.651l-0.29999-0.32799-20.611 16.585s-2.0266-1.596-2.9639-0.91731" fill="#fff" opacity=".39999"/></g><g fill="#263238" stroke-width="1.3333"><path d="m597.44 582.43c5e-3 7e-3 -0.08 0.088-0.24533 0.24133-0.21999 0.19599-0.45999 0.41065-0.73198 0.65465-0.74398 0.64131-1.6586 1.4293-2.7359 2.3599-2.3239 1.9786-5.5719 4.6666-9.2211 7.5585-3.6506 2.8906-7.0145 5.4359-9.4718 7.2452-1.1533 0.83731-2.1293 1.5453-2.9253 2.1226-0.29866 0.208-0.56265 0.39333-0.80531 0.56265-0.184 0.12533-0.28399 0.18933-0.28933 0.18267-5e-3 -7e-3 0.0853-0.0827 0.26133-0.22266 0.23466-0.17867 0.48932-0.37599 0.77865-0.59866 0.78265-0.59331 1.744-1.3226 2.8786-2.1826 2.4293-1.8426 5.7732-4.4079 9.4238-7.2972 3.6479-2.8893 6.9092-5.5559 9.2611-7.4998 1.0973-0.90798 2.0266-1.676 2.7839-2.3026 0.28266-0.23066 0.53332-0.43332 0.76131-0.61999 0.17733-0.13999 0.272-0.21066 0.27733-0.20399"/><path d="m576.79 599.46c-0.0507 0.0533-0.63065-0.58665-1.5973-0.93331-0.96131-0.36266-1.8173-0.24666-1.8226-0.31999-0.0267-0.056 0.87464-0.29066 1.9053 0.0947 1.036 0.37199 1.5706 1.1333 1.5146 1.1586"/><path d="m579.55 593.49c-0.0227 0.0627-0.45332-0.0307-0.96398-0.20933-0.51065-0.17866-0.90664-0.37332-0.88531-0.43599 0.0227-0.064 0.45466 0.0293 0.96531 0.208 0.51066 0.17866 0.90665 0.37465 0.88398 0.43732"/><path d="m580.28 591.83c-4e-3 0.0667-0.37999 0.0973-0.83998 0.068-0.45865-0.0293-0.82664-0.10533-0.82265-0.172 4e-3 -0.0667 0.37866-0.096 0.83865-0.068 0.45999 0.0293 0.82798 0.10534 0.82398 0.172"/><path d="m579.91 589.72c0.0427 0.052-0.28533 0.38666-0.73065 0.74798-0.44532 0.35999-0.84131 0.61065-0.88264 0.55732-0.0413-0.052 0.28532-0.38532 0.73065-0.74531 0.44665-0.36133 0.84131-0.61066 0.88264-0.55999"/><path d="m579.36 588.47c0.0547 0.032-0.19999 0.52532-0.69865 0.97998-0.49599 0.45998-1.0066 0.67331-1.036 0.61598-0.0333-0.0613 0.40265-0.35599 0.87331-0.79198 0.47332-0.43332 0.80264-0.84265 0.86131-0.80398"/><path d="m577.93 592.55c0.0173 0.02-0.32933 0.37066-1.0066 0.78531-0.33866 0.20667-0.75998 0.42133-1.252 0.60799-0.25066 0.084-0.49465 0.19333-0.80931 0.23066-0.15067 0.0133-0.33466 7e-3 -0.49332-0.11466-0.16-0.11733-0.21333-0.34933-0.16533-0.52132 0.56532-1.252 1.9493-1.4706 2.6959-1.2573 0.39466 0.0973 0.67865 0.27333 0.85464 0.40933 0.176 0.13999 0.25066 0.23999 0.24 0.25066-0.0253 0.04-0.37866-0.34133-1.132-0.49332-0.36933-0.0747-0.83332-0.064-1.2933 0.11999-0.43733 0.17467-0.96265 0.54399-1.1306 1.024-0.0653 0.24399 0.14399 0.38132 0.40532 0.34799 0.24799-0.024 0.51199-0.128 0.75198-0.204 0.48132-0.16933 0.90265-0.36399 1.244-0.54665 0.68265-0.36932 1.0653-0.66932 1.0906-0.63865"/><path d="m577.72 592.8c-7e-3 0.024-0.35732-0.116-0.66532-0.60265-0.15066-0.24133-0.27732-0.56799-0.30666-0.94798 1e-3 -0.36266-0.012-0.84798 0.43199-1.1693 0.25466-0.15466 0.57599 0.0213 0.67332 0.21733 0.12 0.19066 0.16133 0.40399 0.18266 0.58265 0.0493 0.36799 0.0427 0.70265 7e-3 0.97997-0.072 0.55466-0.22666 0.86798-0.252 0.85732-0.0373-9e-3 0.0573-0.336 0.0827-0.87198 0.012-0.26666 1e-3 -0.58665-0.056-0.93198-0.0293-0.32132-0.23599-0.77465-0.52265-0.62265-0.26933 0.17466-0.32799 0.62665-0.32399 0.94664 0.0133 0.34133 0.11066 0.64399 0.23066 0.87465 0.24666 0.46932 0.54532 0.65598 0.51865 0.68798"/><path d="m593.75 578.42c0.0253 0.0373-0.47865 0.30933-1.1186 0.95064-0.63465 0.62932-1.38 1.6826-1.692 3.0213-0.31199 1.3386-0.10933 2.6119 0.18267 3.4586 0.29066 0.85598 0.62265 1.3226 0.58398 1.3466-0.012 8e-3 -0.10533-0.0987-0.24933-0.31332-0.14266-0.21466-0.32399-0.54532-0.49465-0.97598-0.34266-0.85198-0.58132-2.1746-0.25733-3.5706 0.32533-1.396 1.1253-2.4759 1.8093-3.0906 0.34266-0.31066 0.65198-0.52532 0.87465-0.65465 0.22266-0.13067 0.35465-0.18533 0.36132-0.172"/><path d="m587.01 573.21c0.052-0.0413 1.2453 1.344 2.6653 3.0933 1.4213 1.752 2.5306 3.2052 2.4786 3.2466-0.0507 0.0413-1.244-1.3426-2.6653-3.0932-1.42-1.7506-2.5306-3.2039-2.4786-3.2466"/><path d="m588.59 587.33c0.0453 0.0427-0.83865 1.0133-2.096 2.024-1.256 1.0146-2.3893 1.672-2.4239 1.6186-0.0373-0.0587 1.0293-0.79998 2.272-1.8066 1.2466-1.0013 2.1986-1.8853 2.2479-1.836"/><path d="m591.64 584.92c0.068 8e-3 0.0867 0.28133 0.168 0.59599 0.076 0.31865 0.18799 0.56798 0.13199 0.60665-0.0507 0.04-0.27599-0.18133-0.36665-0.54799-0.0907-0.36532 3e-3 -0.66665 0.0667-0.65465"/><path d="m591.67 582.57c0.0667 7e-3 0.0933 0.24933 0.0613 0.53865-0.032 0.292-0.11066 0.52132-0.17733 0.51466-0.0667-8e-3 -0.0933-0.24933-0.0613-0.53999s0.11067-0.52132 0.17733-0.51332"/><path d="m592.79 580.62c0.0307 0.0613-0.17733 0.22266-0.34266 0.48399-0.17066 0.25866-0.23466 0.51465-0.30132 0.51065-0.0653 5e-3 -0.10933-0.31999 0.1-0.63998 0.20667-0.32399 0.52132-0.41599 0.54399-0.35466"/><path d="m593.72 579.38c0.0573 0.0333 0.0307 0.184-0.0587 0.33599-0.0893 0.15333-0.20799 0.248-0.26532 0.21466-0.0573-0.032-0.032-0.18399 0.0587-0.33599 0.0893-0.15199 0.208-0.24799 0.26533-0.21466"/></g><g stroke-width="1.3333"><path d="m593.4 578.02-15.772 12.049-1.4586-1.896 16.574-11.237z" opacity=".3"/><path d="m507.08 599.9 0.028-10.605 19.866-0.072 0.12266 15.516-1.232 0.0827c-5.4799 0.32533-27.889 1.264-31.558 0.16533-4.0906-1.224 12.773-5.0865 12.773-5.0865" fill="#115ecd"/><path d="m498.84 602.08s-5.9092 1.728-5.1679 2.6999c0.74131 0.97198 23.422 0.87598 33.423-0.0427l-0.0333-0.44399-26.455 0.33732s-0.60932-2.5066-1.7666-2.5506" fill="#fff" opacity=".39999"/></g><g fill="#263238" stroke-width="1.3333"><path d="m527.37 604.28c1e-3 9e-3 -0.11733 0.0227-0.34132 0.0387-0.29466 0.0187-0.61599 0.04-0.97998 0.0627-0.98131 0.0467-2.1866 0.104-3.6092 0.172-3.0493 0.12266-7.2638 0.23599-11.921 0.25999-4.6572 0.0227-8.8718-0.0493-11.922-0.14-1.424-0.0533-2.6306-0.0987-3.6119-0.13599-0.36265-0.0187-0.68665-0.0373-0.97997-0.0533-0.22533-0.0133-0.34266-0.0253-0.34266-0.0347 1e-3 -8e-3 0.11866-0.0133 0.34399-0.0133 0.29466 3e-3 0.61732 5e-3 0.98131 8e-3 0.98264 0.016 2.1893 0.0347 3.6119 0.0587 3.0506 0.048 7.2638 0.092 11.918 0.0707 4.6546-0.0253 8.8678-0.11067 11.917-0.19067 1.4226-0.036 2.6293-0.0693 3.6106-0.0947 0.36399-7e-3 0.68665-0.012 0.98264-0.0173 0.224-1e-3 0.34266 1e-3 0.34266 9e-3"/><path d="m500.61 604.94c-0.0733 9e-3 -0.13333-0.85331-0.68132-1.7213-0.53332-0.87731-1.2773-1.3146-1.236-1.376 0.0133-0.06 0.86532 0.30933 1.4413 1.2493 0.58399 0.93197 0.53599 1.8613 0.47599 1.848"/><path d="m506.45 601.94c-0.056 0.036-0.33866-0.30399-0.63065-0.75865-0.29066-0.45599-0.48266-0.85331-0.42666-0.88931s0.33866 0.30399 0.63065 0.75865c0.29066 0.45599 0.48266 0.85464 0.42666 0.88931"/><path d="m508.07 601.08c-0.044 0.0493-0.35866-0.15866-0.70132-0.46532-0.34399-0.30533-0.58665-0.59332-0.54398-0.64265 0.0467-0.0493 0.35999 0.15733 0.70398 0.46399 0.34399 0.30532 0.58532 0.59465 0.54132 0.64398"/><path d="m509.07 599.21c1e-3 0.0667-0.46399 0.128-1.036 0.13733-0.57332 7e-3 -1.0386-0.04-1.04-0.10666-1e-3 -0.0653 0.46266-0.12533 1.036-0.13467 0.57331-9e-3 1.0386 0.0373 1.04 0.104"/><path d="m509.41 597.88c0.0227 0.06-0.48265 0.29066-1.1546 0.34132-0.67465 0.056-1.208-0.092-1.196-0.15332 0.0107-0.0693 0.53732-0.0333 1.176-0.0867 0.63999-0.048 1.152-0.16799 1.1746-0.10133"/><path d="m505.77 600.21c3e-3 0.0267-0.48799 0.088-1.276-3e-3 -0.39332-0.0453-0.85998-0.13599-1.3613-0.29466-0.24799-0.0867-0.50798-0.15199-0.77864-0.31599-0.12667-0.084-0.268-0.20133-0.31733-0.39599-0.0533-0.19066 0.048-0.40665 0.192-0.51065 1.2173-0.63732 2.4413 0.044 2.8973 0.67198 0.25066 0.31999 0.36532 0.63465 0.41999 0.85065 0.052 0.21732 0.048 0.34265 0.0333 0.34399-0.044 0.016-0.088-0.50132-0.58532-1.0866-0.24533-0.28666-0.61599-0.56399-1.0933-0.70398-0.45065-0.132-1.0933-0.164-1.5213 0.11066-0.20133 0.15066-0.12133 0.38932 0.104 0.52265 0.21066 0.13467 0.48265 0.216 0.71864 0.30266 0.48533 0.164 0.93465 0.27066 1.3173 0.33733 0.76399 0.13199 1.2506 0.13199 1.2506 0.17066"/><path d="m505.44 600.28c-0.0187 0.0147-0.20799-0.31066-0.15066-0.88531 0.0293-0.28133 0.13066-0.61599 0.34399-0.93331 0.22399-0.28399 0.51199-0.67598 1.0586-0.65465 0.29732 0.036 0.44265 0.37199 0.39732 0.58665-0.0227 0.22399-0.12133 0.41599-0.21466 0.57199-0.18799 0.31865-0.40266 0.57732-0.59998 0.77464-0.39866 0.39333-0.71332 0.54399-0.72799 0.51866-0.0227-0.0307 0.25333-0.22933 0.60266-0.63465 0.17466-0.204 0.36399-0.45999 0.53198-0.76798 0.17466-0.27066 0.29199-0.75599-0.028-0.81332-0.31999-0.0293-0.64398 0.29066-0.83864 0.54532-0.2 0.27733-0.30933 0.57599-0.35733 0.83065-0.096 0.52132 0.024 0.85198-0.0173 0.86131"/><path d="m526.93 598.85c-4e-3 0.0453-0.56932-0.0507-1.4666 0.0587-0.88931 0.10266-2.124 0.47198-3.1959 1.3333-1.072 0.86131-1.6986 1.9893-1.9893 2.8359-0.3 0.85332-0.32533 1.424-0.37199 1.4186-0.0133 0-0.0213-0.14267-3e-3 -0.39866 0.02-0.25866 0.08-0.62932 0.21333-1.0733 0.25599-0.88264 0.88264-2.0706 2-2.9706 1.1186-0.89864 2.4119-1.2533 3.3306-1.3146 0.46132-0.0347 0.83731-0.0133 1.092 0.024 0.25466 0.0347 0.39333 0.072 0.39066 0.0867"/><path d="m524.84 590.59c0.0667-1e-3 0.15066 1.8253 0.18933 4.0799 0.0387 2.2546 0.0147 4.0826-0.0507 4.0839-0.0667 0-0.15199-1.8253-0.18933-4.0799-0.0387-2.2546-0.016-4.0826 0.0507-4.0839"/><path d="m517.37 602.68c9e-3 0.0613-1.284 0.27999-2.8986 0.29999-1.6146 0.024-2.9119-0.15866-2.9066-0.21999 7e-3 -0.0707 1.304 3e-3 2.9039-0.0213 1.5986-0.02 2.8933-0.12933 2.9013-0.0587"/><path d="m521.27 602.66c0.0493 0.0493-0.104 0.27599-0.23599 0.57465-0.13467 0.29599-0.20133 0.56265-0.27066 0.55865-0.064 0-0.104-0.31465 0.0507-0.65865 0.15333-0.34265 0.41332-0.52132 0.45599-0.47465"/><path d="m522.73 600.83c0.048 0.0467-0.08 0.25333-0.28399 0.46399-0.204 0.20799-0.40933 0.34132-0.45732 0.29332-0.0467-0.0453 0.08-0.25332 0.28532-0.46265 0.20533-0.20933 0.40932-0.33999 0.45599-0.29466"/><path d="m524.83 599.98c-0.0133 0.068-0.27733 0.0653-0.56932 0.16933-0.29333 0.0973-0.50132 0.25999-0.55332 0.21599-0.0533-0.036 0.11333-0.31999 0.47599-0.44265 0.36132-0.12667 0.66665-5e-3 0.64665 0.0573"/><path d="m526.32 599.58c0.024 0.0627-0.0893 0.16533-0.25333 0.22933-0.16533 0.0653-0.31866 0.068-0.34266 5e-3 -0.0253-0.0613 0.0893-0.164 0.25333-0.22933 0.164-0.064 0.31733-0.0667 0.34266-5e-3"/></g><g stroke-width="1.3333"><path d="m527.09 598.05-20.026 0.0213 0.0213-2.3919 19.932-0.13199z" opacity=".3"/><path d="m556.11 416.86-7.9545 23.953c-2.148 6.4678-7.7998 7.5758-14.617 7.5758h-44.247v-9.9264l40.424-5.7719 9.6331-24.61z" fill="#e9c6af"/><path d="m484.43 436.4-3.5106-1.6613s-3.7826-7.3145-4.6546-7.0225c-0.87064 0.29332-1.1213 2.4453 0.39732 5.8065l-4.6639-1.332s-10.112 4.6719-9.6651 5.2999c0.44799 0.63065 1.276 2.12 3.4786 0.99331 2.2026-1.1253 5.0879-2.4466 5.0879-2.4466l5.4479 1.556-7.0252 0.89065-6.6078 6.0132s2.1706 1.6226 4.0412-0.1l17.162 3.6879 6.332 0.30399-0.26077-9.8395z" fill="#e9c6af"/><path d="m466.75 444.4c0.0733 0.048 0.39199-0.45999 1.0106-1.1333 0.31199-0.33065 0.73065-0.67598 1.2493-0.9653 0.49866-0.27866 1.148-0.39999 1.8533-0.48399 2.8599-0.33866 5.1679-0.73198 5.1505-0.87998-0.0187-0.14666-2.3506 7e-3 -5.2159 0.34666-0.71865 0.0867-1.4506 0.22933-2.036 0.58798-0.55999 0.34399-0.99064 0.75732-1.2893 1.148-0.58399 0.78665-0.77332 1.3493-0.72265 1.38" fill="#dba27d"/><path d="m469.44 445.09c0.0653 1e-3 0.11866-0.35466 0.59998-0.45732 0.49066-0.0893 1.272-0.18133 2.0853-0.26666 1.648-0.16666 3.0039-0.15333 3.0172-0.30533 0.0173-0.14399-1.3626-0.39999-3.0692-0.22799-0.85865 0.092-1.5906 0.22933-2.16 0.44265-0.29466 0.12-0.48399 0.35999-0.52132 0.53866-0.044 0.18533 0.016 0.28266 0.048 0.27599" fill="#dba27d"/><path d="m559.85 411.64-3.4026 11.528-21.597-9.7784c0.77599-2.4119 4.3492-13.164 11.186-30.222 3.8092-9.5051 12.285-16.365 22.386-18.046 7.0665-1.1746 14.757-2.0919 20.678-2.0266 12.11 0.13333 29.939 7.7025 32.334 19.574 1.8293 9.0624 0.0653 25.061 0.0653 44.499l-1.58 37.143-62.058 2.1053z" fill="#247afd"/><path d="m621.44 418.57c-7.5518 1.544-15.305-0.0133-23.001-0.46932-4.6652-0.27733-9.8411-0.77998-13.53 2.0866-2.9279 2.2733-4.1052 6.0958-4.9492 9.7051-3.2186 13.754-3.8052 22.973-4.5279 37.08l37.356 2.2639z" opacity=".3"/></g><g fill="#263238" stroke-width="1.3333"><path d="m558.27 371.33c-9e-3 0.0547 0.62132 0.0907 1.6493 0.49599 1.0133 0.41599 2.4066 1.3 3.5746 2.8933 1.1853 1.5746 1.9826 3.8559 2.1373 6.4665 0.17999 2.6106-0.20666 5.5012-0.65465 8.5065-0.95731 6.0172-2.4213 11.354-3.4666 15.214-0.51065 1.8613-0.93464 3.4012-1.2546 4.5679-0.29066 1.0826-0.43465 1.6853-0.39865 1.696 0.036 0.0107 0.24799-0.57199 0.59998-1.6346 0.34933-1.064 0.84131-2.6079 1.4186-4.5252 1.14-3.8359 2.6679-9.1758 3.6332-15.234 0.44932-3.0226 0.82797-5.9425 0.61598-8.6265-0.18266-2.6759-1.0546-5.0545-2.3266-6.6585-1.252-1.6253-2.7373-2.4946-3.8039-2.8613-0.54132-0.17599-0.97465-0.26132-1.2706-0.28932-0.29732-0.0253-0.45199-0.0307-0.45332-0.0107"/><path d="m535.53 410.45c-0.032 0.064 1.1253 0.73998 3.0426 1.7453 1.9186 1.0053 4.6026 2.3279 7.6145 3.6866 3.0132 1.3586 5.7812 2.4933 7.8051 3.2653 2.0226 0.77464 3.2946 1.1933 3.3212 1.1253 0.028-0.072-1.196-0.61465-3.1786-1.476s-4.7212-2.0493-7.7278-3.4052c-3.0039-1.356-5.7079-2.6213-7.6665-3.5372-1.9586-0.91597-3.1759-1.4733-3.2106-1.404"/><path d="m525.64 469.23c-10.573 5.7679-14.588 18.936-9.0304 29.622l54.015 92.739 24.921-15.053-41.944-83.73 30.399-19.845"/><path d="m591.41 464.64-74.149 2.6239c-12.038 0.42666-21.519 10.405-21.333 22.449l3.0786 105.9 31.185-0.068-1.04-100.13 62.258-1.6386z"/></g><g stroke-width="1.3333"><path d="m529.15 499.03c0.024 0 0.0533 0.33599 0.088 0.97864 0.032 0.71065 0.072 1.6453 0.12133 2.8106 0.0933 2.4413 0.18799 5.9732 0.27999 10.341 0.18533 8.7304 0.31199 20.797 0.37732 34.12 0.068 13.294 0.12934 25.326 0.17467 34.124 0.0253 4.3092 0.044 7.8225 0.0587 10.341-4e-3 1.168-8e-3 2.1013-0.0107 2.8119-8e-3 0.64398-0.0253 0.98264-0.0493 0.98264-0.024 1e-3 -0.0547-0.33599-0.0893-0.97864-0.0307-0.71065-0.0707-1.644-0.12133-2.8106-0.092-2.4399-0.18799-5.9732-0.27866-10.34-0.18666-8.7318-0.31066-20.799-0.37732-34.127-0.0693-13.289-0.13066-25.319-0.176-34.118-0.024-4.3092-0.0427-7.8238-0.0573-10.342 4e-3 -1.1666 7e-3 -2.1013 9e-3 -2.8133 0.0107-0.64265 0.0253-0.98131 0.0507-0.98131" fill="#455a64"/><path d="m623.53 397.44h-22.433c-9.0318 0-16.352 7.3198-16.352 16.352v78.265h-44.819c-6.2545 0-11.322 5.0705-11.322 11.324h102.33c0-0.0227-3e-3 -0.0427-3e-3 -0.0653 4.9732-0.212 8.9451-4.2999 8.9451-9.3264v-80.197c0-9.0318-7.3225-16.352-16.352-16.352" fill="#455a64"/><path d="m591.27 400.01c0.192 0 0.34799 23.001 0.34799 51.367 0 28.377-0.15599 51.372-0.34799 51.372s-0.34799-22.995-0.34799-51.372c0-28.366 0.15599-51.367 0.34799-51.367" fill="#263238"/><path d="m588.43 585.52v-82.103h-7.2945v82.103c-4.4519 8.7784-14.92 14.717-27.671 19.58h65.018c-13.204-5.3652-25.121-9.4838-30.053-19.58" fill="#455a64"/><path d="m177.69 574.89c-0.0107-7e-3 0.0587-0.17066 0.20266-0.48665 0.16133-0.34399 0.37733-0.80665 0.65332-1.3933 0.55465-1.2306 1.2773-3.0946 1.92-5.5772 1.2706-4.9572 1.7133-12.534-0.16399-21.534-0.87198-4.5066-2.2786-9.3398-3.9946-14.465-1.6906-5.1332-3.6532-10.58-5.2572-16.468-1.5866-5.8745-2.8373-12.252-2.5959-18.936 0.24266-6.6972 2.2253-13.382 4.4066-20.037 2.1759-6.6652 4.4266-13.181 5.1012-19.733 0.76132-6.5412-0.63865-12.962-3.6186-18.225-2.8866-5.3172-6.5172-9.8651-9.2358-14.576-2.7599-4.6972-4.4866-9.5251-5.5505-14.014-2.0626-9.0531-1.34-16.682-0.35199-21.709 1.072-5.0545 2.2653-7.6678 2.2653-7.6678 0.012 5e-3 -0.0333 0.17733-0.13333 0.51065-0.11333 0.36133-0.26533 0.84798-0.45866 1.468-0.39999 1.292-0.91731 3.2212-1.408 5.7398-0.90265 5.0172-1.5413 12.593 0.56265 21.546 1.0853 4.4412 2.8199 9.2051 5.5705 13.836 2.7106 4.6546 6.3585 9.1851 9.3011 14.565 3.0426 5.3185 4.5052 11.95 3.7306 18.594-0.67865 6.6638-2.9453 13.222-5.1172 19.88-2.18 6.6492-4.1399 13.264-4.3866 19.849-0.248 6.5825 0.97331 12.897 2.5333 18.742 1.5786 5.8585 3.5186 11.306 5.1879 16.454 1.696 5.1412 3.0839 10.013 3.9292 14.552 1.828 9.0664 1.3066 16.721-0.056 21.695-0.68799 2.4893-1.4546 4.3506-2.0533 5.5679-0.30266 0.57599-0.53998 1.0293-0.71731 1.3666-0.16533 0.30665-0.25466 0.45998-0.26533 0.45465" fill="#263238"/><path d="m168.81 428.1s-5.5185-17.646 4.3812-27.978c0.34665-0.36399 0.95864-0.19199 1.0493 0.30266 0.52799 2.9146 1.188 11.79-5.4305 27.675" fill="#65a2fe"/><path d="m172.12 406.01c0.0933 0.0187-0.064 1.2586-0.37199 3.2546-0.36266 2.2426-0.78798 4.8759-1.2586 7.7838-0.46132 2.9093-0.87998 5.5412-1.2346 7.7825-0.30266 1.9933-0.48399 3.2293-0.58532 3.2213-0.0893-7e-3 -0.08-1.2626 0.0987-3.2799 0.18266-2.016 0.53865-4.7906 1.0386-7.8358 0.49732-3.0439 1.0293-5.7865 1.4613-7.7611 0.43065-1.9746 0.75865-3.1839 0.85198-3.1652" fill="#263238"/><path d="m175.29 469.73s3.3746-18.18 16.957-22.682c0.47599-0.15867 0.93731 0.27866 0.78531 0.75865-0.89597 2.8226-4.4639 10.977-17.742 21.923" fill="#65a2fe"/><path d="m188.54 451.74c0.0747 0.0613-0.64531 1.084-1.8506 2.7039-1.3706 1.8133-2.9773 3.9399-4.7532 6.2918-1.768 2.3546-3.3679 4.4852-4.7319 6.3012-1.1986 1.62-1.9373 2.6279-2.0226 2.5733-0.076-0.048 0.51999-1.1533 1.6213-2.8519 1.104-1.6973 2.7159-3.9839 4.5826-6.4398 1.864-2.4586 3.6146-4.6346 4.9199-6.1772 1.3053-1.544 2.16-2.4613 2.2346-2.4013" fill="#263238"/><path d="m171.61 515.33s-2.0506-18.374 9.6384-26.629c0.41066-0.28933 0.97731-5e-3 0.97197 0.49732-0.0373 2.9613-1.0826 11.801-10.61 26.131" fill="#65a2fe"/><path d="m179.08 494.27c0.088 0.036-0.30399 1.2253-0.98531 3.1253-0.78398 2.1319-1.7053 4.6346-2.7213 7.3998-1.008 2.7679-1.92 5.2719-2.6973 7.4038-0.67731 1.8986-1.0906 3.0786-1.188 3.0506-0.0867-0.0227 0.16133-1.2546 0.72265-3.2013 0.56399-1.944 1.4413-4.5986 2.5133-7.4918 1.0706-2.8946 2.1146-5.4839 2.9146-7.3412 0.80131-1.8573 1.3533-2.9813 1.4413-2.9453" fill="#263238"/><path d="m181.85 561.2s-1.3906-18.436 10.585-26.266c0.42132-0.27466 0.97864 0.0293 0.95331 0.53198-0.14267 2.9573-1.504 11.754-11.538 25.734" fill="#65a2fe"/><path d="m190.06 540.42c0.0867 0.0387-0.34799 1.212-1.0973 3.0866-0.85998 2.104-1.8693 4.5719-2.9839 7.2985-1.1066 2.7293-2.1079 5.1985-2.9613 7.3038-0.74398 1.8733-1.2 3.0359-1.296 3.0053-0.0853-0.0267 0.20666-1.248 0.83731-3.1719 0.63198-1.924 1.6053-4.5466 2.7799-7.3985 1.172-2.8546 2.3093-5.4052 3.1759-7.2318 0.86531-1.8266 1.4586-2.9306 1.5453-2.8919" fill="#263238"/><path d="m160.88 412.61s-16.389-8.5584-16.71-22.863c-0.012-0.50132 0.54265-0.81465 0.95598-0.52799 2.4359 1.684 9.1851 7.4852 15.754 23.391" fill="#65a2fe"/><path d="m147.57 394.65c0.08-0.052 0.84665 0.93598 2.0426 2.5639 1.3306 1.84 2.8933 4.0012 4.6199 6.3892 1.732 2.3813 3.3012 4.5359 4.6372 6.3718 1.196 1.6213 1.944 2.6226 1.8666 2.6879-0.068 0.0587-0.95064-0.83465-2.2519-2.3866-1.2986-1.5533-3.0106-3.7652-4.8132-6.2692-1.8026-2.5026-3.3692-4.8159-4.4626-6.5158-1.0933-1.7013-1.7173-2.7879-1.6386-2.8413" fill="#263238"/><path d="m178.48 450.5s-16.878-7.5478-18.068-21.807c-0.0427-0.49999 0.49065-0.84532 0.92131-0.58532 2.5333 1.532 9.6224 6.9145 17.146 22.393" fill="#65a2fe"/><path d="m164.1 433.4c0.076-0.0587 0.90131 0.88131 2.1933 2.4333 1.4413 1.7573 3.1319 3.8186 4.9999 6.0958 1.8746 2.2733 3.5706 4.3292 5.0145 6.0798 1.2933 1.5453 2.1 2.4999 2.0266 2.5706-0.064 0.0627-0.99864-0.77598-2.3919-2.2466-1.3906-1.4706-3.2332-3.5732-5.1839-5.9638-1.9533-2.3893-3.6559-4.6039-4.8505-6.2345s-1.884-2.6773-1.808-2.7346" fill="#263238"/><path d="m168.76 492.78s-11.589-14.408-6.1532-27.642c0.19066-0.46532 0.82265-0.52932 1.0866-0.10267 1.5586 2.5186 5.4185 10.54 5.0665 27.745" fill="#65a2fe"/><path d="m163.76 470.99c0.0933-0.016 0.40132 1.196 0.84397 3.1666 0.48266 2.2199 1.0493 4.8252 1.6746 7.7038 0.63332 2.8773 1.2066 5.4799 1.696 7.6971 0.44799 1.964 0.73065 3.1812 0.63331 3.2106-0.0853 0.0267-0.53598-1.1453-1.1066-3.0879-0.56799-1.944-1.2506-4.6559-1.8986-7.6718-0.64932-3.0172-1.1573-5.7638-1.4786-7.7598-0.32133-1.996-0.45866-3.2399-0.36399-3.2586" fill="#263238"/><path d="m180.24 542.52s-16.75-7.8305-17.7-22.107c-0.0333-0.50132 0.50532-0.83732 0.93197-0.57066 2.5079 1.576 9.5051 7.0758 16.768 22.678" fill="#65a2fe"/><path d="m166.16 525.17c0.0773-0.056 0.88664 0.89731 2.1533 2.4719 1.4106 1.7786 3.0666 3.8692 4.8959 6.1785 1.836 2.3039 3.4972 4.3866 4.9119 6.1625 1.268 1.5666 2.0573 2.5346 1.984 2.6039-0.0653 0.0613-0.98664-0.79198-2.3546-2.2853-1.3653-1.4946-3.1732-3.6292-5.0839-6.0518-1.912-2.4213-3.5772-4.6626-4.7439-6.3145-1.168-1.6506-1.84-2.7079-1.7626-2.7653" fill="#263238"/><path d="m213.59 469.82c0.016 1e-3 0.0227 0.13866 0.0213 0.40799-8e-3 0.32132-0.0187 0.70931-0.0293 1.1813-0.0493 1.1106-0.116 2.6106-0.19866 4.4839-0.216 3.9412-0.51599 9.4358-0.87598 16.009l-1e-3 0.0147-4e-3 0.024c-1.196 6.6892-4.6039 14.105-9.1798 21.305-3.3572 5.3039-6.8772 10.125-9.9118 14.61-3.0559 4.4719-5.6345 8.6131-7.4318 12.284-1.8093 3.6652-2.8613 6.8145-3.4759 9.0144-0.29466 1.104-0.51599 1.9666-0.64399 2.5559-0.13733 0.58665-0.22132 0.89331-0.24399 0.88931-0.024-4e-3 0.0133-0.31866 0.108-0.91731 0.0827-0.59998 0.26266-1.4733 0.51865-2.5959 0.53865-2.2333 1.5293-5.4359 3.2972-9.1598 1.756-3.7292 4.3106-7.9251 7.3425-12.426 3.0146-4.5172 6.5158-9.3464 9.8558-14.622 4.5519-7.1638 7.9425-14.468 9.1824-21.05l-5e-3 0.0373c0.46132-6.5678 0.84798-12.057 1.124-15.994 0.152-1.868 0.27333-3.3639 0.36133-4.4719 0.048-0.47066 0.0867-0.85732 0.11866-1.1773 0.032-0.26533 0.056-0.40266 0.072-0.40132" fill="#263238"/><path d="m203.62 511.87s7.0932-17.074-1.8293-28.259c-0.31333-0.39333-0.93864-0.27733-1.072 0.20532-0.79065 2.8546-2.252 11.636 2.9013 28.054" fill="#65a2fe"/><path d="m202.34 489.57c0.0947-0.0107 0.31199 1.224 0.56265 3.2306 0.25066 2.0053 0.53199 4.7839 0.75198 7.8611 0.22266 3.0773 0.32399 5.8732 0.32399 7.8971-4e-3 2.0253-0.10933 3.2759-0.19866 3.2746-0.10133-1e-3 -0.16933-1.2466-0.29066-3.2599-0.15066-2.2653-0.32799-4.9239-0.52532-7.8638-0.20533-2.9386-0.39065-5.5985-0.54798-7.8638-0.12667-2.016-0.17067-3.2666-0.076-3.2759" fill="#263238"/><path d="m181.66 553.02s5.6852-17.593-4.1146-28.019c-0.34399-0.36533-0.95731-0.2-1.052 0.29332-0.55599 2.9093-1.3013 11.778 5.1665 27.726" fill="#65a2fe"/><path d="m178.56 530.9c0.0933-0.0173 0.41065 1.1946 0.82264 3.1746 0.41333 1.9786 0.91865 4.7266 1.3866 7.7745 0.47199 3.0493 0.79998 5.8265 0.96398 7.8451 0.16 2.0186 0.15733 3.2746 0.068 3.2812-0.10133 7e-3 -0.27066-1.2306-0.55332-3.2266-0.33466-2.2453-0.72798-4.8812-1.1613-7.7945-0.44398-2.9133-0.84397-5.5492-1.1866-7.7958-0.288-1.9986-0.43333-3.2399-0.33999-3.2586" fill="#263238"/><path d="m181.66 553.02s5.6852-17.593-4.1146-28.019c-0.344-0.36532-0.95731-0.19999-1.052 0.29333-0.55598 2.9093-1.3013 11.778 5.1665 27.726" opacity=".3"/><path d="m212.66 491.01s15.146-10.604 13.618-24.83c-0.0533-0.49999-0.64265-0.73732-1.016-0.40132-2.1973 1.984-8.1425 8.6104-12.602 25.231" fill="#65a2fe"/><path d="m212.66 491.01s15.146-10.604 13.618-24.83c-0.0533-0.49998-0.64265-0.73731-1.016-0.40132-2.1973 1.984-8.1425 8.6104-12.602 25.231" opacity=".3"/><path d="m223.54 471.49c0.0853 0.0413-0.39333 1.2-1.2586 3.0279-0.86398 1.828-2.1173 4.3226-3.5826 7.0372-1.464 2.7173-2.8773 5.1305-3.9639 6.8385-1.0893 1.7066-1.8493 2.7066-1.924 2.6573-0.0853-0.0547 0.52666-1.144 1.504-2.9066 1.088-1.9933 2.3639-4.3332 3.7746-6.9172 1.404-2.5906 2.6746-4.9345 3.7572-6.9318 0.97464-1.7693 1.608-2.8479 1.6933-2.8053" fill="#263238"/><path d="m187.77 535.58s18.269-2.8479 23.163-16.294c0.17066-0.47199-0.25333-0.94531-0.73598-0.80665-2.8479 0.81331-11.102 4.1426-22.427 17.101" fill="#65a2fe"/><path d="m187.77 535.58s18.269-2.8479 23.163-16.294c0.17066-0.47199-0.25333-0.94531-0.73598-0.80665-2.8479 0.81332-11.102 4.1426-22.427 17.101" opacity=".3"/><path d="m206.13 522.85c0.0573 0.076-0.88264 0.90398-2.4639 2.1639-1.58 1.26-3.8052 2.9479-6.3158 4.7399-2.5106 1.7946-4.8426 3.3399-6.5705 4.3946-1.7306 1.052-2.8519 1.616-2.8986 1.5373-0.052-0.0853 0.97731-0.79598 2.6319-1.9466 1.8533-1.3093 4.0306-2.8493 6.4358-4.5479 2.4013-1.7066 4.5732-3.2532 6.4252-4.5692 1.6546-1.1573 2.6986-1.848 2.7559-1.772" fill="#263238"/><path d="m170.34 569.2-5.3292 35.866h33.21l-4.3052-35.866z" fill="#455a64"/><path d="m195.24 580.32c0 0.19066-5.9972 0.34532-13.392 0.34532-7.3971 0-13.392-0.15466-13.392-0.34532 0-0.192 5.9945-0.34666 13.392-0.34666 7.3945 0 13.392 0.15466 13.392 0.34666" fill="#263238"/><path d="m195.9 583.17c0 0.19066-6.1932 0.34533-13.83 0.34533-7.6398 0-13.832-0.15467-13.832-0.34533 0-0.19199 6.1918-0.34666 13.832-0.34666 7.6371 0 13.83 0.15467 13.83 0.34666" fill="#263238"/></g><g fill="#e8505b" stroke-width="1.3333"><path d="m405.94 240.6-0.49199 34.388c-19.046-0.26133-34.568-15.704-34.568-34.388 0-18.868 15.826-34.392 35.06-34.392 19.234 0 35.062 15.525 35.062 34.392z"/><path d="m345.86 160.43c0 3.2559-2.6386 5.8959-5.8958 5.8959-3.2559 0-5.8959-2.6399-5.8959-5.8959s2.6399-5.8958 5.8959-5.8958c3.2572 0 5.8958 2.6399 5.8958 5.8958"/><path d="m447.23 155.78c0 0.19199-19.881 0.34665-44.399 0.34665-24.526 0-44.403-0.15466-44.403-0.34665 0-0.192 19.877-0.348 44.403-0.348 24.518 0 44.399 0.156 44.399 0.348"/><path d="m394.07 162.91c0 0.048-0.49066 0.0933-1.376 0.13466-0.88531 0.0413-2.1666 0.08-3.7506 0.11067-3.1666 0.0627-7.5412 0.10133-12.373 0.10133-4.8346 0-9.2104-0.0387-12.377-0.10133-1.584-0.0307-2.8653-0.0693-3.7506-0.11067-0.88531-0.0413-1.3746-0.0867-1.3746-0.13466 0-0.048 0.48932-0.0933 1.3746-0.136 0.88531-0.0413 2.1666-0.0787 3.7506-0.10933 3.1666-0.0627 7.5425-0.10266 12.377-0.10266 4.8319 0 9.2064 0.04 12.373 0.10266 1.584 0.0307 2.8653 0.068 3.7506 0.10933 0.88531 0.0427 1.376 0.088 1.376 0.136"/><path d="m279.26 246.36c-0.0613 0.12666-2.0653-1.0346-5.9985-2.2786-3.9012-1.2106-9.9211-2.3799-17.202-1.2773-3.6119 0.57865-7.5251 1.6706-11.346 3.6452-3.8479 1.9293-7.5145 4.7879-11.156 8.0238-3.6586 3.2292-7.2905 6.8945-11.478 10.282-4.1906 3.3346-8.9971 6.4892-14.65 7.9291-2.8066 0.72265-5.7452 0.91065-8.5545 0.51599-2.8146-0.38399-5.4732-1.3053-7.9265-2.4479-4.9132-2.3146-9.1144-5.3572-13.277-7.8945-4.1319-2.5879-8.2851-4.6399-12.488-5.5985-4.1746-1.016-8.2305-1.2213-11.878-0.91065-7.3412 0.64132-12.896 3.2399-16.397 5.3385-3.5172 2.1493-5.1772 3.7679-5.2719 3.6546-0.0293-0.0333 0.37999-0.43466 1.192-1.172 0.79731-0.75065 2.0706-1.7626 3.8172-2.9039 3.4666-2.2546 9.0691-5.0425 16.576-5.8145 3.7292-0.37732 7.8958-0.22266 12.209 0.77998 4.3386 0.93864 8.6758 3.0413 12.854 5.6225 4.2172 2.5373 8.4198 5.5399 13.189 7.7638 4.7199 2.2733 10.272 3.2852 15.644 1.8306 5.3719-1.364 10.061-4.4066 14.181-7.6678 4.1226-3.3119 7.7705-6.9532 11.482-10.189 3.6972-3.2413 7.4692-6.1385 11.456-8.0851 3.9572-1.9906 7.9891-3.0613 11.693-3.5946 7.4731-1.012 13.581 0.32666 17.488 1.6973 1.9733 0.68265 3.4412 1.38 4.4066 1.896 0.96397 0.52266 1.4573 0.81598 1.4373 0.85465"/><path d="m160.09 317.85h15.86v-42.892h-15.86z"/><path d="m227.39 317.85h15.86v-42.892h-15.86z"/><path d="m249.82 317.85h15.86v-68.081h-15.86z"/><path d="m139.57 318.79h15.86v-14.436h-15.86z"/><path d="m182.53 317.85h15.86v-23.523h-15.86z"/><path d="m204.95 317.85h15.86v-28.922h-15.86z"/><path d="m166.13 204.28c0 3.3372-2.7053 6.0425-6.0425 6.0425s-6.0412-2.7053-6.0412-6.0425 2.7039-6.0425 6.0412-6.0425 6.0425 2.7053 6.0425 6.0425"/><path d="m193.66 202.44h-21.499v-2.3373h21.499z"/></g><g fill="#247afd" stroke-width="1.3333"><path d="m405.94 240.6-0.49199 34.388c-19.046-0.26133-34.568-15.704-34.568-34.388 0-18.868 15.826-34.392 35.06-34.392 19.234 0 35.062 15.525 35.062 34.392z"/><path d="m345.86 160.43c0 3.2559-2.6386 5.8959-5.8958 5.8959-3.2559 0-5.8959-2.6399-5.8959-5.8959s2.6399-5.8958 5.8959-5.8958c3.2572 0 5.8958 2.6399 5.8958 5.8958"/><path d="m447.23 155.78c0 0.19199-19.881 0.34665-44.399 0.34665-24.526 0-44.403-0.15466-44.403-0.34665 0-0.192 19.877-0.348 44.403-0.348 24.518 0 44.399 0.156 44.399 0.348"/><path d="m394.07 162.91c0 0.048-0.49066 0.0933-1.376 0.13466-0.88531 0.0413-2.1666 0.08-3.7506 0.11067-3.1666 0.0627-7.5412 0.10133-12.373 0.10133-4.8346 0-9.2104-0.0387-12.377-0.10133-1.584-0.0307-2.8653-0.0693-3.7506-0.11067-0.88531-0.0413-1.3746-0.0867-1.3746-0.13466 0-0.048 0.48932-0.0933 1.3746-0.136 0.88531-0.0413 2.1666-0.0787 3.7506-0.10933 3.1666-0.0627 7.5425-0.10266 12.377-0.10266 4.8319 0 9.2064 0.04 12.373 0.10266 1.584 0.0307 2.8653 0.068 3.7506 0.10933 0.88531 0.0427 1.376 0.088 1.376 0.136"/><path d="m279.26 246.36c-0.0613 0.12666-2.0653-1.0346-5.9985-2.2786-3.9012-1.2106-9.9211-2.3799-17.202-1.2773-3.6119 0.57865-7.5251 1.6706-11.346 3.6452-3.8479 1.9293-7.5145 4.7879-11.156 8.0238-3.6586 3.2292-7.2905 6.8945-11.478 10.282-4.1906 3.3346-8.9971 6.4892-14.65 7.9291-2.8066 0.72265-5.7452 0.91065-8.5545 0.51599-2.8146-0.38399-5.4732-1.3053-7.9265-2.4479-4.9132-2.3146-9.1144-5.3572-13.277-7.8945-4.1319-2.5879-8.2851-4.6399-12.488-5.5985-4.1746-1.016-8.2305-1.2213-11.878-0.91065-7.3412 0.64132-12.896 3.2399-16.397 5.3385-3.5172 2.1493-5.1772 3.7679-5.2719 3.6546-0.0293-0.0333 0.37999-0.43466 1.192-1.172 0.79731-0.75065 2.0706-1.7626 3.8172-2.9039 3.4666-2.2546 9.0691-5.0425 16.576-5.8145 3.7292-0.37732 7.8958-0.22266 12.209 0.77998 4.3386 0.93864 8.6758 3.0413 12.854 5.6225 4.2172 2.5373 8.4198 5.5399 13.189 7.7638 4.7199 2.2733 10.272 3.2852 15.644 1.8306 5.3719-1.364 10.061-4.4066 14.181-7.6678 4.1226-3.3119 7.7705-6.9532 11.482-10.189 3.6972-3.2413 7.4692-6.1385 11.456-8.0851 3.9572-1.9906 7.9891-3.0613 11.693-3.5946 7.4731-1.012 13.581 0.32666 17.488 1.6973 1.9733 0.68265 3.4412 1.38 4.4066 1.896 0.96397 0.52266 1.4573 0.81598 1.4373 0.85465"/><path d="m160.09 317.85h15.86v-42.892h-15.86z"/><path d="m227.39 317.85h15.86v-42.892h-15.86z"/><path d="m249.82 317.85h15.86v-68.081h-15.86z"/><path d="m139.57 318.79h15.86v-14.436h-15.86z"/><path d="m182.53 317.85h15.86v-23.523h-15.86z"/><path d="m204.95 317.85h15.86v-28.922h-15.86z"/><path d="m166.13 204.28c0 3.3372-2.7053 6.0425-6.0425 6.0425s-6.0412-2.7053-6.0412-6.0425 2.7039-6.0425 6.0412-6.0425 6.0425 2.7053 6.0425 6.0425"/><path d="m193.66 202.44h-21.499v-2.3373h21.499z"/></g></svg>
