<?xml version="1.0" encoding="UTF-8"?>
<!-- Created with Inkscape (http://www.inkscape.org/) -->
<svg width="642.43" height="571.31" version="1.1" viewBox="0 0 642.43 571.31" xml:space="preserve" xmlns="http://www.w3.org/2000/svg"><defs><clipPath id="clipPath16"><path d="m0 500h500v-500h-500z"/></clipPath><clipPath id="clipPath28"><path d="m0 500h500v-500h-500z"/></clipPath><clipPath id="clipPath228"><path d="m302.88 313.86h16.109v-24.696h-16.109z"/></clipPath><clipPath id="clipPath412"><path d="m135.04 370.73h32.536v-19.872h-32.536z"/></clipPath><clipPath id="clipPath640"><path d="m182.75 226.22h136.09v-78.571h-136.09z"/></clipPath><clipPath id="clipPath656"><path d="m235.33 176.38h30.52v-17.621h-30.52z"/></clipPath><clipPath id="clipPath868"><path d="m401.78 173.63h54.04v-42.73h-54.04z"/></clipPath><clipPath id="clipPath884"><path d="m343.27 173.63h59.672v-43.083h-59.672z"/></clipPath><clipPath id="clipPath924"><path d="m436.18 215.75h19.061v-52.706h-19.061z"/></clipPath><clipPath id="clipPath968"><path d="m337.29 184.52h56.62v-63.948h-56.62z"/></clipPath><clipPath id="clipPath1148"><path d="m420.88 195.05h24.908v-18.509h-24.908z"/></clipPath><clipPath id="clipPath1204"><path d="m42.669 182.2h54.04v-42.73h-54.04z"/></clipPath><clipPath id="clipPath1220"><path d="m95.55 182.2h59.671v-43.082h-59.671z"/></clipPath><clipPath id="clipPath1244"><path d="m52.131 251.23h64.007v-79.312h-64.007z"/></clipPath><clipPath id="clipPath1260"><path d="m43.246 224.31h19.061v-52.706h-19.061z"/></clipPath><clipPath id="clipPath1440"><path d="m72.772 280.72h10.166v-4.546h-10.166z"/></clipPath><clipPath id="clipPath1460"><path d="m82.117 282.45h22.924v-10.253h-22.924z"/></clipPath><clipPath id="clipPath1488"><path d="m58.31 197.78h28.127v-22.407h-28.127z"/></clipPath></defs><g transform="matrix(1.3333 0 0 -1.3333 -12.116 615.36)"><g fill="#ebf4ff"><g clip-path="url(#clipPath16)" fill="#ebf4ff"><g transform="translate(420.35 255.36)" fill="#ebf4ff"><path d="m0 0c94.082-50.859 94.082-133.32-1e-3 -184.18-94.083-50.859-246.62-50.86-340.7 0-94.083 50.859-94.082 133.32 1e-3 184.18 94.082 50.859 246.62 50.859 340.7 0" fill="#ebf4ff"/></g></g></g><g transform="translate(.033146)" fill="#d1e5ff"><g clip-path="url(#clipPath28)" fill="#d1e5ff"><g transform="translate(171.91 145.1)"><path d="m0 0-82.118 47.411c-1.128 0.651-2.956 0.651-4.084 0l-69.346-40.038c-1.128-0.651-1.128-1.707 0-2.358l82.116-47.411c1.128-0.651 2.956-0.651 4.085 0l5.65 3.262 63.697 36.776c1.127 0.651 1.127 1.707 0 2.358" fill="#d1e5ff"/></g><g transform="translate(192.54 112.19)"><path d="m0 0c18.071-10.433 18.071-27.349 0-37.782-18.071-10.434-47.37-10.434-65.441-1e-3 -18.071 10.434-18.071 27.349 0 37.783 18.071 10.433 47.37 10.433 65.441 0" fill="#d1e5ff"/></g><g transform="translate(324.63 134.36)"><path d="m0 0 82.118 47.411c1.128 0.651 2.956 0.651 4.084 0l69.346-40.038c1.128-0.651 1.128-1.707 0-2.358l-82.116-47.411c-1.128-0.651-2.956-0.651-4.085 0l-69.347 40.038c-1.128 0.651-1.128 1.707 0 2.358" fill="#d1e5ff"/></g><g transform="translate(307.31 108.15)"><path d="m0 0c-18.07-10.433-18.07-27.349 0-37.782 18.071-10.434 47.37-10.434 65.441 0 18.072 10.433 18.072 27.348 0 37.782-18.071 10.433-47.37 10.433-65.441 0" fill="#d1e5ff"/></g><g transform="translate(201.13 178.94)"><path d="m0 0c-27.428-15.836-27.428-41.511 0-57.347 27.429-15.836 71.899-15.836 99.327 0 27.429 15.836 27.429 41.511 0 57.347-27.429 15.835-71.899 15.835-99.327 0" fill="#d1e5ff"/></g><g transform="translate(268.81 248.07)"><path d="m0 0c-24.554-14.177-24.554-37.162 1e-3 -51.338 24.555-14.177 64.365-14.177 88.92 0 24.555 14.176 24.555 37.161 0 51.338s-64.366 14.177-88.921 0" fill="#d1e5ff"/></g><g transform="translate(144.07 251.65)"><path d="m0 0c-24.555-14.177-24.555-37.162 0-51.338 24.555-14.177 64.366-14.177 88.92 0 24.555 14.176 24.555 37.161 0 51.338-24.555 14.176-64.365 14.176-88.92 0" fill="#d1e5ff"/></g></g></g><g fill="#62a6ff"><g transform="translate(81.272 325.56)"><path d="m0 0s-7.469 1.792-8.573 9.234c3.069 4.315 4.879 9.587 4.879 15.285 0 14.586-11.825 26.412-26.411 26.412-14.587 0-26.413-11.826-26.413-26.412 0-14.587 11.826-26.412 26.413-26.412 5.918 0 11.381 1.947 15.785 5.235 2.709-2.536 7.432-5.253 14.32-3.342" fill="#62a6ff"/></g><g transform="translate(441.21 363.41)"><path d="m0 0c-14.587 0-26.412-11.825-26.412-26.412 0-5.662 1.787-10.903 4.82-15.202-1.345-7.039-8.495-8.751-8.495-8.751 6.607-1.833 11.22 0.592 13.976 3.031 4.46-3.439 10.045-5.49 16.111-5.49 14.587 0 26.412 11.825 26.412 26.412s-11.825 26.412-26.412 26.412" fill="#62a6ff"/></g><g transform="translate(124.79 408)"><path d="m0 0s-7.469 1.792-8.572 9.234c3.068 4.315 4.879 9.587 4.879 15.285 0 14.586-11.826 26.411-26.412 26.411-14.587 0-26.412-11.825-26.412-26.411 0-14.587 11.825-26.412 26.412-26.412 5.918 0 11.382 1.947 15.786 5.235 2.708-2.536 7.431-5.253 14.319-3.342" fill="#62a6ff"/></g><g transform="translate(398.3 461.52)"><path d="m0 0c-14.587 0-26.411-11.825-26.411-26.412 0-5.698 1.81-10.97 4.879-15.285-1.104-7.441-8.573-9.233-8.573-9.233 6.887-1.911 11.611 0.805 14.32 3.342 4.403-3.288 9.867-5.236 15.785-5.236 14.587 0 26.412 11.825 26.412 26.412s-11.825 26.412-26.412 26.412" fill="#62a6ff"/></g></g><g transform="translate(318.36 209.2)"><path d="m0 0c0.622 0 1.126 0.503 1.126 1.126v72.383c0 0.622-0.504 1.126-1.126 1.126s-1.126-0.504-1.126-1.126v-72.383c0-0.623 0.504-1.126 1.126-1.126" fill="#455a64"/></g><g transform="translate(273.57 235.54)"><path d="m0 0c0.448 0 0.871 0.27 1.046 0.713l22.196 56.18c0.229 0.578-0.055 1.232-0.633 1.46-0.576 0.23-1.231-0.054-1.461-0.634l-22.195-56.179c-0.228-0.579 0.055-1.233 0.633-1.46 0.136-0.055 0.276-0.08 0.414-0.08" fill="#455a64"/></g><g transform="translate(276.24 242.29)"><path d="m0 0c0.299 0 0.597 0.119 0.818 0.353l41.301 43.705 41.227-43.52c0.427-0.454 1.139-0.472 1.591-0.043 0.452 0.427 0.47 1.14 0.042 1.591l-42.044 44.384c-0.212 0.224-0.508 0.352-0.817 0.352h-1e-3c-0.309 0-0.605-0.128-0.817-0.353l-42.118-44.57c-0.428-0.452-0.407-1.165 0.045-1.591 0.217-0.206 0.495-0.308 0.773-0.308" fill="#455a64"/></g><g transform="translate(363.14 235.54)"><path d="m0 0c0.138 0 0.278 0.025 0.413 0.08 0.578 0.227 0.862 0.881 0.634 1.46l-22.196 56.179c-0.229 0.58-0.883 0.864-1.46 0.634-0.578-0.228-0.863-0.882-0.634-1.46l22.196-56.18c0.175-0.443 0.599-0.713 1.047-0.713" fill="#455a64"/></g><g transform="translate(275.1 244.03)"><path d="m0 0-2.935-7.744c-0.017-0.066-0.026-0.132-0.026-0.198-4e-3 -0.044-4e-3 -0.092 0-0.141 0.026-0.158 0.227-0.36 0.442-0.488 0.494-0.286 1.294-0.286 1.787 0 0.18 0.106 0.295 0.233 0.347 0.365 0 4e-3 0 9e-3 5e-3 0.013l0.022 0.106 2.72 7.26z" fill="#27debf"/></g><g transform="translate(272.2 293.26)" fill="#003f90"><path d="m0 0c4e-3 1.848 1.622 3.818 5.046 6.039 6.328 4.106 20.464 12.345 29.317 17.251 0.018 0.066 0.075 0.072 0.075 0.072 6.812 4.135 13.166 23.824 17.881 38.787 1.608 5.1 3.577 7.986 5.91 9.341 0.553 0.323 2.594 1.447 3.05 1.72 4.627 2.772 10.7-0.558 18.264-4.698 6.968-3.813 12.411-8.696 13.506-21.649 0.667-7.887 0.032-22.961-1.57-34.383 0 1e-3 4e-3 0.01 4e-3 0.01-2.319-19.084-5.167-19.117-9.299-22.31-7.114-5.495-23.135-13.222-29.886-15.877-12.247-4.817-22.255 2.611-29.714 6.295s-16.628 9.43-19.768 11.71c-1.866 1.356-2.832 2.726-2.812 4.171 8e-3 0.574-5e-3 2.923-4e-3 3.521" fill="#003f90"/></g><g transform="translate(294.78 277.41)" fill="#0066eb"><path d="m0 0c-7.459 3.684-16.628 9.431-19.767 11.71-4.244 3.082-3.853 6.235 2.229 10.181 4.533 2.942 4.299 3.2 38.463 21.98 0 0 43.548-25.701 41.675-30.446-1.873-4.746-24.394-16.379-32.886-19.719-12.247-4.818-22.255 2.61-29.714 6.294" fill="#0066eb"/></g><g transform="translate(330.7 364.91)"><path d="m0 0c4.583 2.406 10.541-0.865 17.909-4.902 4.721-2.588 8.743-5.654 11.187-11.391l3.111 1.798c-2.443 5.715-6.458 8.781-11.163 11.361-7.566 4.143-13.638 7.467-18.267 4.697-0.402-0.235-2.01-1.13-2.777-1.563" fill="#455a64"/></g><g transform="translate(348.61 360.01)" fill="#0066eb"><path d="m0 0c-11.321 6.196-19.305 10.599-24.093-4.592-4.715-14.964-11.069-34.653-17.882-38.787 0 0 2.206 1.867 19.151-10.936 5.39-4.074 11.933-7.412 16.231-9.974 8.421-5.019 13.526-7.028 14.333-6.359 4.451 3.69 6.862 36.044 5.767 48.999-1.096 12.953-6.539 17.835-13.507 21.649" fill="#0066eb"/></g><g transform="translate(321.81 374.12)"><path d="m0 0c-10.186 0.691-13.023-2.399-19.742-7.511-4.768-3.628-12.581-9.184-12.581-9.184s-5.226 16.996-5.108 19.256c0.142 2.713 1.339 3.576 2.011 6.406 0.676 2.846 0.69 4.788 1.481 5.932 0.79 1.145-1.578 1.627-2.67 0.212-1.093-1.416-1.37-3.518-2.008-3.082-0.64 0.435-0.749 4.992 0.079 8.205 0.827 3.215-0.927 4.209-1.682 3.225-0.756-0.984-1.064-1.682-1.064-1.682s-2.514 1.095-4.343-0.635c-1.828-1.731-3.566-4.383-3.948-9.218s1.766-8.674 2.258-10.831c0.73-3.215 1.493-20.829 5.333-30.271 1.754-4.313 5.511-4.262 8.909-2.362 5.272 2.951 21.724 12.148 21.724 12.148 6.504 3.161 14.78 14.647 11.351 19.392" fill="#b16668"/></g><g transform="translate(320.24 374.2)" fill="#7aaefd"><path d="m0 0s-5.125 1.632-10.426-1.651-20.006-14.424-20.006-14.424-2.763 7.505-3.172 8.966c0 0-5.56-3.439-10.942-2.223 0 0 0.988-12.793 2.952-18.519 1.964-5.727 4.064-5.896 8.059-4.999 3.995 0.898 26.273 13.222 26.273 13.222z" fill="#7aaefd"/></g><g transform="translate(293.47 238.26)"><path d="m0 0s-0.938-10.797-2.558-14.324c-1.825-3.975-3.629-7.457-6.581-11.252-0.642-0.826-2.125-2.378-2.65-3.047-0.469-0.595-0.516-1.258 0.229-1.899 1.467-1.263 7.408-1.271 10.597 1.391 3.191 2.661 5.738 6.896 7.612 9.002 0.94 1.054 1.821 2.061 2.466 2.803 0.619 0.712 0.823 1.692 0.533 2.591-0.082 0.255-0.173 0.554-0.277 0.905-0.933 3.16 0.62 12.325 0.62 12.325-3.063 3.799-6.435 2.34-9.991 1.505" fill="#b16668"/></g><g transform="translate(303.53 220.27)"><path d="m0 0s0.204-0.875-0.076-1.623c-0.279-0.749-2.289-2.181-3.328-2.76-1.039-0.58-1.823-1.434-2.685-3.084-1.184-2.266-3.008-4.725-5.38-5.962s-5.932-2.155-10.305-1.594c-4.372 0.56-4.853 3.097-4.853 3.097s-0.35 2.391 0.71 2.825 25.917 9.101 25.917 9.101" fill="#263238"/></g><g transform="translate(303.97 223.26)"><path d="m0 0c0.045-1.025-0.049-2.045-0.44-2.989-1.187-1.834-4.174-2.568-5.793-5.072-1.62-2.503-3.502-6.331-9.121-7.745-5.62-1.413-10.017 0.173-11.148 1.735s-0.249 3.133 3.289 5.28c3.756 2.28 8.061 8.076 8.063 8.079 1.004 1.354 1.552 3.117 2.014 4.722 0.508 1.764 0.825 3.583 0.942 5.414 0.015 0.254 0.048 0.545 0.259 0.685 0.295 0.196 0.673-0.048 0.955-0.262 1.539-1.176 3.843-1.916 5.77-1.5 0.362 0.078 0.809 0.091 1.032-0.205 0.148-0.196 0.143-0.462 0.143-0.707-1e-3 -0.56 0.049-1.12 0.149-1.671 0.037-0.203 0.12-0.446 0.324-0.48 0.218-0.038 0.378 0.192 0.478 0.389 0.247 0.487 0.494 0.973 0.741 1.46 0.304 0.599 0.619 1.213 1.123 1.658 0.138 0.122 0.328 0.234 0.496 0.16 0.234-0.103 0.202-0.438 0.145-0.686-0.402-1.761-0.088-3.596 0.212-5.376 0.156-0.929 0.324-1.912 0.367-2.889" fill="#37474f"/></g><g transform="translate(267.9 246.94)"><path d="m0 0s-1.179-11.164-2.638-14.759c-1.646-4.053-3.292-7.611-6.071-11.535-0.605-0.854-2.017-2.471-2.512-3.162-0.442-0.616-0.458-1.28 0.314-1.887 1.522-1.197 7.457-0.939 10.524 1.863 3.068 2.801 5.424 7.146 7.203 9.334 0.89 1.095 1.725 2.139 2.337 2.91 0.587 0.739 0.747 1.728 0.417 2.612-0.094 0.251-0.199 0.546-0.318 0.892-1.072 3.115 1.727 11.759 1.727 11.759-3.23 3.658-7.467 2.966-10.983 1.973" fill="#b16668"/></g><g transform="translate(278.03 229.08)"><path d="m0 0s0.242-0.864-3e-3 -1.625c-0.246-0.76-2.189-2.28-3.202-2.906-1.012-0.626-1.757-1.513-2.544-3.2-1.082-2.317-2.793-4.855-5.108-6.197s-5.83-2.418-10.224-2.054-4.986 2.878-4.986 2.878-0.456 2.373 0.583 2.854 25.484 10.25 25.484 10.25" fill="#263238"/></g><g transform="translate(277.92 236.44)"><path d="m0 0c-0.041-0.371-0.07-0.744-0.085-1.117-0.047-1.142 0.158-2.137 0.324-3.253 0.151-1.007 0.155-2.223-0.124-2.99-1.104-1.886-4.054-2.752-5.56-5.326-1.506-2.573-3.216-6.481-8.766-8.145-5.551-1.663-10.015-0.275-11.214 1.235s-0.388 3.118 3.05 5.422c2.649 1.775 4.757 4.435 6.645 6.968 1.123 1.51 1.886 3.378 2.527 5.143 0.748 2.061 1.261 4.207 1.519 6.384 0.027 0.221 0.075 0.477 0.273 0.576 0.184 0.092 0.402-1e-3 0.589-0.09 1.724-0.82 3.625-1.27 5.535-1.311 0.586-0.013 1.133-0.032 1.449-0.612 0.211-0.386 0.241-0.842 0.267-1.28 0.035-0.605 0.07-1.209 0.105-1.813 0.01-0.179 0.084-0.416 0.262-0.399 0.078 7e-3 0.14 0.067 0.192 0.126 0.991 1.088 1.289 2.701 2.372 3.698 0.266 0.244 0.678 0.446 0.971 0.235 0.304-0.22 0.226-0.683 0.127-1.045-0.214-0.789-0.367-1.594-0.458-2.406" fill="#37474f"/></g><g transform="translate(348.52 315.36)"><path d="m0 0c1.035-5.812-26.258-17.523-26.258-17.523s-3.501-1.929-11.356-5.123c-11.184-4.549-26.51-10.206-26.51-10.206s0.73-3.684-0.146-9.132c-0.61-3.797-1.357-4.984-4.249-14.803-1.923-6.534-0.331-11.469-1.63-16.159-2.458-0.422-8.958-0.229-10.974 1.374 0.383 5.519-0.653 43.883 1.556 48.77 3.819 8.449 39.663 26.62 39.663 26.62z" fill="#27debf"/></g><g transform="translate(350.57 318.63)" fill="#68a3fe"><path d="m0 0-17.415-1.804-24.539 2.348s-35.844-18.171-39.662-26.62c-2.21-4.888-1.174-43.251-1.557-48.771 2.017-1.603 8.516-1.795 10.975-1.374 1.299 4.691 2.469 8.236 3.806 14.915 2.192 10.934 2.316 12.236 2.488 16.077 0.261 5.854-0.27 9.103-0.27 9.103s9.675 3.571 19.26 7.32c-3.639-3.1-6.696-6.048-7.452-7.753-2.175-4.903-3.355-41.978-3.355-46.856 1.606-2.082 9.051-2.544 10.983-1.229 2.273 7.977 3.953 11.823 5.783 18.384 2.914 10.448 1.967 14.688 1.539 18.506 0 0 11.896 7.279 21.079 11.872 9.848 4.925 12.023 7.214 15.239 11.227 4.929 6.151 3.098 19.878 3.098 24.655" fill="#68a3fe"/></g><g clip-path="url(#clipPath228)" opacity=".14999"><g transform="translate(302.88 289.16)"><path d="m0 0 16.108 12.571s-8.837 4.325-10.365 12.124c0 0-0.45-6.932 5.834-12.276z"/></g></g><g transform="translate(335.59 374.34)"><path d="m0 0c8.516-1.573 14.194-3.406 15.802-4.965 3.622-7.418-1.761-37.279-1.761-37.279l1.153-6.634 2.04-11.606c-9.199-7.775-39.182-5.572-44.203 5.322 0 0 0.05 34.341 0.678 40.594 0.726 7.221 4.654 14.781 14.296 15.341z" fill="#f5f5f5"/></g><g transform="translate(341.79 316.95)"><path d="m0 0c2.464 3.786 2.897 13.426 2.897 13.426s-0.264 25.07 0.726 31.051l6.988-9.391c-0.7-9.488-2.772-19.94-2.772-19.94l1.153-6.635 1.361-7.737 0.679-3.869c-0.267-0.226-0.556-0.442-0.858-0.651-0.097-0.067-0.202-0.131-0.304-0.197-0.212-0.139-0.429-0.276-0.656-0.407-0.125-0.072-0.255-0.142-0.385-0.212-0.219-0.118-0.444-0.234-0.676-0.346-0.138-0.067-0.278-0.133-0.421-0.197-0.244-0.111-0.495-0.216-0.751-0.319-0.138-0.056-0.274-0.114-0.417-0.168-0.309-0.118-0.629-0.23-0.955-0.338-0.093-0.031-0.184-0.065-0.28-0.096-0.423-0.135-0.858-0.263-1.304-0.381-0.12-0.032-0.246-0.061-0.368-0.092-0.33-0.084-0.664-0.165-1.005-0.24-0.172-0.038-0.346-0.073-0.519-0.108-0.304-0.062-0.609-0.122-0.918-0.177-0.188-0.034-0.376-0.066-0.567-0.097-0.309-0.05-0.623-0.097-0.939-0.141-0.188-0.027-0.375-0.053-0.564-0.077-0.347-0.044-0.698-0.082-1.05-0.118-0.161-0.017-0.322-0.036-0.485-0.051-0.512-0.047-1.028-0.087-1.55-0.118-0.081-5e-3 -0.162-7e-3 -0.242-0.011-0.445-0.025-0.893-0.044-1.344-0.057-0.192-5e-3 -0.385-7e-3 -0.578-0.01-0.343-6e-3 -0.688-0.01-1.034-0.01-0.216 0-0.431 3e-3 -0.648 6e-3 -0.328 4e-3 -0.657 0.012-0.986 0.022-0.22 7e-3 -0.439 0.014-0.658 0.024-0.338 0.015-0.676 0.034-1.014 0.055-0.207 0.012-0.414 0.023-0.62 0.038-0.407 0.029-0.812 0.066-1.216 0.104-0.135 0.013-0.27 0.023-0.405 0.036-0.527 0.054-1.053 0.117-1.577 0.186-0.183 0.024-0.366 0.053-0.55 0.079-0.347 0.05-0.695 0.101-1.04 0.157-0.215 0.035-0.43 0.074-0.645 0.112-0.31 0.055-0.619 0.112-0.927 0.172-0.222 0.044-0.441 0.089-0.661 0.135-0.3 0.064-0.598 0.13-0.894 0.199-0.213 0.05-0.427 0.099-0.638 0.151-0.317 0.078-0.627 0.162-0.938 0.247-0.182 0.049-0.366 0.096-0.546 0.148-0.472 0.135-0.937 0.277-1.393 0.427-0.137 0.045-0.269 0.095-0.404 0.141-0.328 0.112-0.654 0.226-0.972 0.345-0.184 0.07-0.36 0.142-0.54 0.214-0.264 0.105-0.526 0.211-0.781 0.321-0.186 0.08-0.367 0.162-0.547 0.244-0.242 0.11-0.482 0.224-0.716 0.34-0.175 0.086-0.349 0.173-0.52 0.262-0.236 0.124-0.465 0.253-0.693 0.382-0.152 0.087-0.308 0.172-0.455 0.261-0.281 0.169-0.55 0.344-0.813 0.522-0.083 0.055-0.17 0.107-0.251 0.163 13.527-4.465 26.723-1.564 29.186 2.221" fill="#e6e6e6"/></g><g transform="translate(336.91 399.54)"><path d="m0 0c0-7.065-5.499-12.792-12.281-12.792-6.783 0-10.798 5.885-12.282 12.792-2.715 12.633 5.499 12.792 12.282 12.792 6.782 0 12.281-5.727 12.281-12.792" fill="#263238"/></g><g transform="translate(343.18 394.36)"><path d="m0 0s-1.884-9.218-2.639-10.732c-0.756-1.515-2.316-1.945-2.316-1.945l0.132 6.484z" fill="#263238"/></g><g transform="translate(340.82 407.57)"><path d="m0 0s1.352 0.338 2.786-1.904c1.23-1.922 1.51-6.239-0.422-11.302l-3.548-0.424z" fill="#263238"/></g><g transform="translate(342.12 405.7)"><path d="m0 0 4.351-0.081c0.106 1.248-0.782 2.279-1.983 2.301s-2.262-0.971-2.368-2.22" fill="#263238"/></g><g transform="translate(342.65 406.73)"><path d="M 0,0 3.224,3.101 C 2.428,4.023 1.062,4.077 0.171,3.22 -0.719,2.364 -0.796,0.922 0,0" fill="#263238"/></g><g transform="translate(338.57 393.93)"><path d="m0 0c0.712-0.442 1.727 0.981 2.604 1.937 0.877 0.957 3.633 1.86 5.062-1.276 1.456-3.196-1.006-6.235-3.054-7.253-3.661-1.82-4.823 0.826-4.823 0.826l-0.297-14.601c-1.826-5.05-15.639-6.03-12.644 0.387l0.01 4.443s-3.521-0.556-5.239-0.28c-2.858 0.461-4.656 2.809-5.523 6.031-1.393 5.176-1.921 9.355-0.74 19.534 1.295 11.156 13.754 11.272 20.482 6.862 6.727-4.411 4.162-16.61 4.162-16.61" fill="#b16668"/></g><g transform="translate(323.04 405.42)"><path d="m0 0c2.976 0.297 5.918 0.903 8.901 1.123 0.646 0.047 1.305 0.075 1.93-0.094 2.286-0.616 1.99-3.273 2.354-5.129 0.625-3.196 1.142-8.613 2.345-8.637 0.358-7e-3 1.719 2.345 2.604 3.184 0.574 0.544 0.671 1.717 0.796 2.442 0.226 1.324 0.349 2.667 0.451 4.006 0.086 1.132 0.199 2.286 0.194 3.423-5e-3 1.276 0.021 2.575-0.297 3.821-0.288 1.131-0.818 1.978-1.591 2.861-0.076 0.084-0.151 0.169-0.228 0.251-1.468 1.583-3.34 2.77-5.328 3.589-2.853 1.177-5.944 1.645-9.014 1.959-3.069 0.315-6.163 0.486-9.185 1.107-0.176 0.036-0.365 0.073-0.533 9e-3 -0.262-0.101-0.378-0.406-0.43-0.683-0.267-1.401 0.363-2.933 1.54-3.74-2.057-0.163-4.419 0.908-6.401 1.445-0.334 0.09-0.712 0.175-1.008-3e-3 -0.205-0.124-0.326-0.351-0.398-0.579-0.168-0.526-0.131-1.095-0.056-1.643 0.221-1.62 0.773-3.22 1.772-4.515 1.437-1.864 3.804-3.543 6.136-4.01 1.842-0.37 3.563-0.375 5.446-0.187" fill="#263238"/></g><g transform="translate(325.43 378.4)"><path d="m0 0s6.38 1.339 8.61 2.573c1.494 0.827 2.723 2.26 3.084 3.178 0 0-0.418-1.972-1.752-3.748-1.631-2.172-9.942-3.771-9.942-3.771z" fill="#9a4a4d"/></g><g transform="translate(326.96 395.6)"><path d="m0 0c0-0.764 0.572-1.382 1.278-1.38s1.279 0.623 1.279 1.387-0.573 1.382-1.279 1.38-1.278-0.623-1.278-1.387" fill="#263238"/></g><g transform="translate(329.01 401.11)"><path d="M 0,0 2.735,-1.572 C 3.138,-0.754 2.853,0.262 2.098,0.696 1.342,1.13 0.402,0.818 0,0" fill="#263238"/></g><g transform="translate(326 386.4)"><path d="m0 0-2.919-1.141c0.289-0.871 1.176-1.322 1.982-1.007s1.225 1.276 0.937 2.148" fill="#9a4a4d"/></g><g transform="translate(315.23 399.94)"><path d="m0 0 2.494 2.001c-0.509 0.744-1.479 0.898-2.168 0.346s-0.835-1.603-0.326-2.347" fill="#263238"/></g><g transform="translate(316.33 395.98)"><path d="m0 0c0-0.764 0.573-1.382 1.279-1.38s1.279 0.623 1.279 1.387-0.573 1.382-1.279 1.38-1.279-0.623-1.279-1.387" fill="#263238"/></g><g transform="translate(323.17 397.04)"><path d="m0 0-0.147-8.075-4.583 1.052z" fill="#9a4a4d"/></g><g transform="translate(347.5 371.37)"><path d="m0 0c7.796-1.348 11.158-3.504 13.132-12.125 1.118-4.883 5.867-23.742 6.323-29.801 0.33-4.392-8.798-26.359-14.499-34.61-5.04-7.295-7.381-9.114-11.199-9.937-3.82-0.822-10.015 2.572-8.063 5.203s7.044 6.313 7.129 6.551c0.085 0.239-3.054-1.211-5.007-1.42-1.952-0.209-2.898 0.418-3.019 1.42s0.812 0.832 2.68 1.511c1.867 0.679 4.668 3.468 6.619 4.323 1.952 0.854 3.985 2.039 5.342 4.613 1.359 2.573 6.34 23.278 6.34 23.278l-5.558 19.424s-5.112 13.853-0.22 21.57" fill="#b16668"/></g><g transform="translate(346.67 371.66)" fill="#7aaefd"><path d="m0 0s8.82 0.24 11.978-4.985c3.157-5.226 9.542-35.78 9.144-38.051-0.396-2.271-7.708-19.385-7.708-19.385s-4.689 4.17-11.01 4.621l3.747 16.519-7.237 24.745s-2.617 10.09 1.086 16.536" fill="#7aaefd"/></g><g transform="translate(180.05 211.49)"><path d="m0 0c-0.577 0-1.043 0.486-1.043 1.087v69.877c0 0.6 0.466 1.087 1.043 1.087 0.576 0 1.042-0.487 1.042-1.087v-69.877c0-0.601-0.466-1.087-1.042-1.087" fill="#455a64"/></g><g transform="translate(221.53 236.92)"><path d="m0 0c-0.416 0-0.808 0.26-0.969 0.688l-20.56 54.234c-0.212 0.558 0.051 1.19 0.587 1.41 0.533 0.223 1.14-0.052 1.352-0.611l20.56-54.235c0.212-0.558-0.052-1.19-0.587-1.409-0.125-0.053-0.256-0.077-0.383-0.077" fill="#455a64"/></g><g transform="translate(219.06 243.43)"><path d="m0 0c-0.277 0-0.553 0.115-0.758 0.341l-38.255 42.191-38.187-42.013c-0.396-0.437-1.056-0.456-1.473-0.041-0.419 0.413-0.436 1.1-0.04 1.536l38.944 42.847c0.197 0.217 0.471 0.34 0.757 0.34h1e-3c0.286 0 0.56-0.123 0.757-0.341l39.012-43.027c0.396-0.436 0.377-1.124-0.042-1.536-0.202-0.198-0.458-0.297-0.716-0.297" fill="#455a64"/></g><g transform="translate(138.57 236.92)"><path d="m0 0c-0.127 0-0.257 0.024-0.383 0.077-0.535 0.219-0.798 0.851-0.586 1.409l20.559 54.235c0.212 0.559 0.818 0.834 1.352 0.611 0.536-0.22 0.799-0.852 0.587-1.41l-20.559-54.234c-0.162-0.428-0.554-0.688-0.97-0.688" fill="#455a64"/></g><g transform="translate(226.67 292.58)" fill="#1a7eff"><path d="m0 0c-4e-3 1.945-1.638 4.02-5.098 6.358-6.392 4.322-25.688 14.563-34.631 19.728-0.018 0.07-0.075 0.076-0.075 0.076-6.882 4.354-8.285 23.517-13.049 39.271-1.623 5.369-3.611 8.408-5.968 9.835-0.56 0.338-2.621 1.523-3.083 1.811-4.673 2.918-10.807-0.588-18.449-4.947-7.039-4.015-12.537-9.155-13.644-22.793-0.673-8.304-0.032-24.173 1.586-36.2-1e-3 2e-3 -4e-3 0.011-4e-3 0.011 2.343-20.092 5.219-20.127 9.394-23.488 7.186-5.787 23.371-13.921 30.19-16.717 12.372-5.071 22.482 2.749 30.017 6.627 7.535 3.879 16.797 9.929 19.968 12.329 1.887 1.428 2.862 2.87 2.842 4.392-8e-3 0.604 5e-3 3.077 4e-3 3.707" fill="#1a7eff"/></g><g transform="translate(203.86 275.89)" fill="#62a6ff"><path d="m0 0c7.535 3.879 16.797 9.929 19.968 12.329 4.287 3.245 3.893 6.565-2.252 10.719-8.536 5.772-39.543 22.556-39.543 22.556s-43.302-26.474-41.41-31.47 24.642-17.244 33.22-20.76c12.372-5.073 22.482 2.748 30.017 6.626" fill="#62a6ff"/></g><g transform="translate(167.58 368.01)"><path d="m0 0c-4.63 2.533-10.648-0.911-18.092-5.162-4.768-2.724-8.832-5.952-11.3-11.992l-3.143 1.893c2.469 6.016 6.524 9.244 11.277 11.961 7.643 4.362 13.776 7.862 18.452 4.946 0.407-0.248 2.032-1.191 2.806-1.646" fill="#27debf"/></g><g clip-path="url(#clipPath412)" opacity=".60001"><g transform="translate(167.58 368.01)"><path d="m0 0c-4.63 2.533-10.648-0.911-18.092-5.162-4.768-2.724-8.832-5.952-11.3-11.992l-3.143 1.893c2.469 6.016 6.524 9.244 11.277 11.961 7.643 4.362 13.776 7.862 18.452 4.946 0.407-0.248 2.032-1.191 2.806-1.646" fill="#fff"/></g></g><g transform="translate(149.48 362.85)" fill="#62a6ff"><path d="m0 0c11.437 6.523 19.501 11.159 24.338-4.835 4.764-15.754 6.167-34.917 13.049-39.271 0 0 2.787 0.401-14.33-13.079-5.446-4.289-12.055-7.803-16.397-10.501-8.507-5.284-13.663-7.399-14.479-6.695-4.496 3.885-6.931 37.949-5.825 51.588 1.106 13.638 6.605 18.777 13.644 22.793" fill="#62a6ff"/></g><g transform="translate(179.37 311.32)"><path d="m0 0s-2.21-4.684-4.421-7.564l1.283-1.078s3.138 4.321 3.138 8.642" fill="#263238"/></g><g transform="translate(205.37 238.13)"><path d="m0 0s0.938-10.798 2.557-14.324c1.825-3.976 3.629-7.457 6.581-11.252 0.643-0.827 2.125-2.378 2.651-3.047 0.468-0.596 0.515-1.258-0.23-1.899-1.467-1.264-7.407-1.271-10.597 1.39-3.19 2.662-5.737 6.897-7.612 9.003-0.939 1.054-1.82 2.06-2.465 2.802-0.62 0.713-0.824 1.693-0.534 2.592 0.082 0.254 0.174 0.554 0.278 0.905 0.932 3.16-0.621 12.325-0.621 12.325 3.064 3.798 6.435 2.34 9.992 1.505" fill="#ffa8a7"/></g><g transform="translate(195.3 220.14)"><path d="m0 0s-0.204-0.875 0.076-1.623c0.279-0.749 2.289-2.181 3.328-2.76 1.039-0.58 1.823-1.434 2.685-3.084 1.185-2.265 3.008-4.725 5.38-5.962s5.932-2.154 10.305-1.594 4.853 3.097 4.853 3.097 0.35 2.392-0.71 2.825c-1.059 0.434-25.917 9.101-25.917 9.101" fill="#263238"/></g><g transform="translate(195.66 227.56)" fill="#0050b1"><path d="m0 0c0.042-0.233-0.077-0.856-0.126-1.151-0.196-1.187-0.347-1.926-0.488-3.287-0.105-1.013-0.054-2.229 0.258-2.981 1.187-1.835 4.174-2.568 5.793-5.072 1.62-2.504 3.502-6.332 9.122-7.745 5.618-1.414 10.016 0.173 11.147 1.735 1.13 1.562 0.249 3.132-3.289 5.28-3.756 2.279-8.061 8.076-8.063 8.078-0.431 0.585-0.807 1.229-1.186 1.848-0.435 0.709-0.912 1.416-1.113 2.226-0.208 0.844-0.311 1.707-0.283 2.577 2e-3 0.074 3e-3 0.155-0.043 0.212-0.046 0.056-0.124 0.072-0.195 0.085-2.087 0.347-4.284-5e-3 -6.157-0.988-0.191-0.1-0.385-0.211-0.518-0.382-0.11-0.142-0.171-0.314-0.23-0.484-0.156-0.447-0.312-0.894-0.468-1.342-0.123-0.352-0.286-0.747-0.637-0.874-0.427-0.155-0.866 0.171-1.205 0.475-0.369 0.332-0.54 0.966-0.909 1.297-0.383 0.345-0.896 0.513-1.41 0.493" fill="#0050b1"/></g><g transform="translate(144.33 318.66)"><path d="m0 0c-0.962-4.776-3.101-18.504 1.828-24.654 3.217-4.014 5.392-6.303 15.239-11.228 9.183-4.593 26.281-12.029 26.281-12.029-0.428-3.818-1.375-8.058 1.54-18.506 1.83-6.562 3.509-10.407 5.782-18.384 1.932-1.316 9.377-0.853 10.982 1.229 0 4.878-1.179 41.953-3.353 46.856-2.145 4.837-27.987 19.816-27.987 19.816s-2.233 7.916-0.842 13.716z" fill="#455a64"/></g><g transform="translate(230.71 248.98)"><path d="m0 0s1.178-11.164 2.638-14.759c1.646-4.053 3.292-7.611 6.071-11.535 0.605-0.854 2.017-2.47 2.512-3.162 0.442-0.616 0.458-1.28-0.314-1.887-1.522-1.197-7.457-0.939-10.525 1.863-3.067 2.801-5.423 7.146-7.202 9.334-0.89 1.095-1.725 2.14-2.337 2.91-0.587 0.739-0.747 1.728-0.417 2.612 0.093 0.251 0.199 0.546 0.318 0.892 1.072 3.115-1.727 11.759-1.727 11.759 3.23 3.658 7.468 2.966 10.983 1.973" fill="#ffa8a7"/></g><g transform="translate(220.57 231.12)"><path d="m0 0s-0.243-0.865 3e-3 -1.625c0.247-0.76 2.189-2.281 3.202-2.906 1.012-0.626 1.756-1.514 2.545-3.201 1.082-2.316 2.792-4.855 5.107-6.197s5.83-2.417 10.224-2.053c4.393 0.364 4.986 2.877 4.986 2.877s0.457 2.374-0.582 2.855c-1.039 0.48-25.485 10.25-25.485 10.25" fill="#263238"/></g><g transform="translate(221.26 238.52)" fill="#0050b1"><path d="m0 0c0.032-0.235-0.116-0.852-0.178-1.145-0.249-1.176-0.432-1.908-0.634-3.261-0.151-1.008-0.154-2.224 0.124-2.99 1.104-1.886 4.055-2.752 5.561-5.326 1.505-2.574 3.215-6.482 8.766-8.145 5.549-1.664 10.014-0.276 11.213 1.234s0.389 3.119-3.05 5.422c-3.65 2.445-7.691 8.429-7.693 8.432-0.404 0.603-0.751 1.263-1.102 1.898-0.402 0.728-0.848 1.456-1.012 2.274-0.171 0.852-0.234 1.719-0.168 2.586 6e-3 0.075 0.01 0.155-0.034 0.215-0.043 0.058-0.12 0.077-0.19 0.093-2.069 0.441-4.279 0.187-6.195-0.711-0.196-0.092-0.394-0.194-0.534-0.359-0.117-0.136-0.186-0.306-0.252-0.473-0.176-0.44-0.351-0.88-0.527-1.319-0.139-0.347-0.319-0.734-0.676-0.845-0.434-0.137-0.858 0.209-1.183 0.528-0.353 0.348-0.496 0.989-0.85 1.337-0.366 0.361-0.872 0.552-1.386 0.555" fill="#0050b1"/></g><g transform="translate(145.11 315.39)"><path d="m0 0c-1.036-5.812 26.258-17.524 26.258-17.524s3.5-1.928 11.356-5.123c11.184-4.548 31.711-10.363 31.711-10.363s-1.212-4.459-0.336-9.907c0.611-3.797 0.866-4.87 2.828-13.61 1.492-6.646 2-9.717 3.299-14.407 2.458-0.421 8.958-0.23 10.974 1.373-0.382 5.52 0.888 41.714-1.321 46.602-3.819 8.448-44.741 27.552-44.741 27.552z" fill="#455a64"/></g><g transform="translate(195.99 288.1)"><path d="m0 0-21.352 13.663s8.838 4.326 10.365 12.124c0 0 0.45-6.932-5.834-12.276z" fill="#37474f"/></g><g transform="translate(233.86 375.95)"><path d="m0 0c-0.799 2.553-2.913 4.77-5.545 5.246-0.386 0.07-0.815 0.094-1.138-0.128-0.335-0.23-0.46-0.656-0.567-1.048-0.572-2.106-1.238-4.187-1.996-6.234-0.375-1.011-0.723-2.078-1.205-3.045-0.121-0.244-1.046-1.301-1.05-1.412 0.058 1.423 0.077 2.545-0.102 3.295-0.355 1.489-1.514 1.765-2.064 1.659-0.428-0.083-0.182-1.118-0.666-2.815-0.62-2.168-1.341-3.571-1.417-5.985-0.028-0.9-0.363-1.783-0.983-2.461-2.945-3.219-11.064-9.714-16.747-13.531-3.251 2.982-7.037 8.532-11.542 14.121-5.564 6.901-8.953 9.228-16.828 9.06l1.962-13.42c5.128-6.319 9.706-10.537 19.726-20.84 2.32-2.385 4.07-3.344 5.632-3.484 2.117-0.19 4.108 1.515 6.048 3.154 4.349 3.675 8.656 7.476 12.718 11.457 5.543 5.434 12.767 12.143 15.197 18.562 0.946 2.502 1.366 5.296 0.567 7.849" fill="#ffa8a7"/></g><g transform="translate(170.69 372.7)" fill="#247afd"><path d="m0 0s4.761 0.596 8.492-0.662c2.654-0.894 4.88-2.317 9.497-7.844s9.798-12.202 9.798-12.202-0.62-6.091-8.987-10.424l-17.871 17.062z" fill="#247afd"/></g><g transform="translate(158.16 372.18)"><path d="m0 0s-9.451-1.276-11.954-2.672l-4.544-22.488 3.109-17.405-1.915-19.596c5.922-6.443 39.633-4.201 43.279 9.496 0 0-1.743 31.348-2.127 37.915-0.412 7.062-5.421 14.598-12.534 15.338z" fill="#f0f0f0"/></g><g transform="translate(184.37 403.96)"><path d="m0 0c0.23-4.197-2.986-7.785-7.182-8.015-4.197-0.229-7.785 2.987-8.015 7.183-0.229 4.197 2.987 7.785 7.183 8.015 4.196 0.229 7.785-2.987 8.014-7.183" fill="#263238"/></g><g transform="translate(148.11 404.7)"><path d="m0 0c0.763 0.79 1.628 1.13 2.335 1.273l-3.063 1.621c0.626 1.284 2.137 1.793 3.374 1.138 1.192-0.631 1.685-2.111 1.159-3.366l1.142-11.851 1 0.105 0.46-6.897 0.155-6.633c-2.77 0.053-4.853 3.654-6.491 12.916-1.319 6.993-1.671 10.039-0.071 11.694" fill="#263238"/></g><g transform="translate(154.27 392.47)"><path d="m0 0c-0.736-0.445-1.798 0.967-2.714 1.915-0.916 0.947-3.897 2.231-5.362-0.902-1.493-3.194 1.016-7.163 3.142-8.387 2.763-1.588 4.712-0.395 4.712-0.395l0.018-14.744s2.781-4.777 10.37-5.215c7.206-0.415 5.969 4.125 3.603 7.001l-0.037 4.429s1.98-0.5 3.783-0.565c3.117-0.112 5.775 0.537 7.538 6.363 1.097 3.628 1.813 8.157 1.695 14.616-0.034 1.844-0.039 5.212-0.724 9.36-1.382 8.381-14.844 7.538-21.801 3.102-6.957-4.437-4.223-16.578-4.223-16.578" fill="#ffa8a7"/></g><g transform="translate(151.55 394.38)"><path d="m0 0c-1.281 1.151 0.301 11.658 0.301 11.658s-1.312 3.973 1.19 6.628c2.501 2.655 7.383 2.238 10.949 2.388 3.712 0.156 7.685 0.403 12.738 2.634s5.43 2.493 6.072 0.273c0.354-1.221 0.558-2.703 0.397-3.968-0.153-1.202-0.106-2.405-0.426-3.6-0.657-2.451-2.227-4.671-4.39-6.016-3.11-1.934-7.303-1.971-10.446-0.091-0.688-1.596-2.585-2.388-4.322-2.313-1.736 0.075-3.359 0.839-4.927 1.588 0.035-4.152-1.597-8.115-3.2-11.945-0.862-2.056-3.304 2.196-3.936 2.764" fill="#263238"/></g><g transform="translate(168 376.17)"><path d="m0 0s-6.63 1.295-8.953 2.512c-1.554 0.815-2.839 2.235-3.219 3.148 0 0 0.446-1.963 1.841-3.724 1.706-2.155 10.341-3.698 10.341-3.698z" fill="#f28f8f"/></g><g transform="translate(167.13 392.97)"><path d="m0 0c5e-3 -0.806-0.621-1.462-1.396-1.464-0.777-3e-3 -1.409 0.649-1.414 1.455s0.62 1.462 1.396 1.465c0.776 2e-3 1.409-0.65 1.414-1.456" fill="#263238"/></g><g transform="translate(165.43 398.51)"><path d="m0 0-2.996-1.677c-0.448 0.862-0.141 1.935 0.686 2.397 0.828 0.464 1.862 0.141 2.31-0.72" fill="#263238"/></g><g transform="translate(165.89 384.26)"><path d="m0 0 3.559-1.312c-0.346-1.019-1.422-1.552-2.405-1.19s-1.499 1.482-1.154 2.502" fill="#f28f8f"/></g><g transform="translate(178.82 396.82)"><path d="m 0,0 -2.753,2.095 c 0.555,0.788 1.62,0.958 2.38,0.379 C 0.388,1.896 0.555,0.788 0,0" fill="#263238"/></g><g transform="translate(178.02 393.37)"><path d="m0 0c5e-3 -0.806-0.62-1.462-1.396-1.464s-1.409 0.649-1.414 1.455c-4e-3 0.806 0.621 1.462 1.396 1.465 0.776 2e-3 1.41-0.65 1.414-1.456" fill="#263238"/></g><g transform="translate(170.85 394.97)"><path d="m0 0 0.511-8.447 4.403 1.53z" fill="#f28f8f"/></g><g transform="translate(124.95 329.06)"><path d="m0 0c1.468 8.112 6.961 22.491 9.277 29.019 3.318 9.351 7.444 11.27 13.16 11.898 2.344-2.253 3.122-11.579-1.609-21.655-2.25-5.53-7.066-22.549-7.066-22.549 0.353-1.398 8.616-18.28 11.546-22.861 0.518-0.811 1.373-1.396 2.363-1.679 2.655-0.759 4.823-2.579 6.998-3.812 1.703-0.965 2.947-1.012 2.877-1.463-0.09-0.58-0.835-1.659-2.624-1.593-0.901 0.034-2.142 0.371-3.701 0.832 0 0 1.647-2.331 4.738-4.41 4.189-2.818 4.246-5.509-2.273-7.099-4.084-0.996-7.958 0.513-13.207 7.927-1.512 2.136-3.501 5.277-5.092 8.156-3.762 6.806-7.539 11.446-10.042 15.988-4.676 8.485-5.911 10.174-5.345 13.301" fill="#ffa8a7"/></g><g transform="translate(147.86 370.24)" fill="#247afd"><path d="m0 0s-4.77 0.393-8.133-1.842c-3.363-2.234-4.745-6.484-7.071-12.679-2.325-6.193-5.865-15.879-5.865-15.879s4.198-7.245 14.715-6.021c0 0 6.053 17.679 7.153 20.24s2.231 10.909-0.799 16.181" fill="#247afd"/></g><g transform="translate(190.56 169.78)"><path d="m0 0c-1e-3 0.702 0.462 1.404 1.389 1.939 1.854 1.07 4.859 1.07 6.712 0 0.926-0.535 1.39-1.236 1.39-1.938l-1.39-27.429h-6e-3c-0.014-0.484-0.337-0.967-0.977-1.337-1.311-0.756-3.435-0.756-4.745 0-0.641 0.37-0.964 0.853-0.978 1.337h-5e-3z" fill="#455a64"/></g><g transform="translate(198.66 171.72)"><path d="m0 0c-1.853 1.07-4.858 1.07-6.711 0-0.928-0.536-1.391-1.237-1.39-1.939l0.594-11.716c2.216-2.325 4.875-4.547 7.967-6.628l0.93 18.345c0 0.701-0.463 1.403-1.39 1.938" fill="#263238"/></g><g transform="translate(310.38 169.78)"><path d="m0 0c1e-3 0.702-0.462 1.404-1.39 1.939-1.853 1.07-4.858 1.07-6.711 0-0.926-0.535-1.39-1.236-1.389-1.938l1.389-27.429h6e-3c0.014-0.484 0.336-0.967 0.977-1.337 1.31-0.756 3.435-0.756 4.745 0 0.641 0.37 0.964 0.853 0.977 1.337h5e-3z" fill="#455a64"/></g><g transform="translate(308.99 171.72)"><path d="m0 0c-1.854 1.07-4.858 1.07-6.711 0-0.927-0.535-1.391-1.237-1.39-1.938l0.951-18.767c3.046 1.992 5.682 4.118 7.91 6.345l0.63 12.421c1e-3 0.702-0.462 1.403-1.39 1.939" fill="#263238"/></g><g transform="translate(255.54 148.78)"><path d="m0 0c1e-3 0.702-0.462 1.404-1.39 1.939-1.852 1.071-4.857 1.071-6.711 0-0.926-0.535-1.39-1.236-1.389-1.938l1.39-27.428h5e-3c0.014-0.485 0.337-0.968 0.977-1.337 1.311-0.757 3.435-0.757 4.746 0 0.641 0.369 0.963 0.852 0.977 1.337h5e-3z" fill="#455a64"/></g><g transform="translate(254.98 137.78)"><path d="m0 0 0.558 11.002c1e-3 0.702-0.462 1.404-1.39 1.939-1.853 1.071-4.857 1.071-6.711 0-0.926-0.535-1.39-1.236-1.39-1.938l0.558-11.003c2.79-0.099 5.586-0.099 8.375 0" fill="#263238"/></g><g transform="translate(318.84 186.94)" fill="#0c6bfe"><path d="m-0.062 0c9e-3 10.055-6.58 20.107-19.87 27.779-26.571 15.342-69.656 15.342-96.228 0-13.288-7.672-19.877-17.724-19.866-27.779h-0.064v-5.398c0.16-9.923 6.817-19.815 19.93-27.388 26.574-15.341 69.659-15.341 96.23 0 13.117 7.573 19.584 17.289 19.742 27.212z" fill="#0c6bfe"/></g><g transform="translate(-.082128 .36658)" fill="#5b9bfe"><g fill="#5b9bfe"><g clip-path="url(#clipPath640)" fill="#5b9bfe" opacity=".60001"><g transform="translate(202.68 214.72)" fill="#5b9bfe"><path d="m0 0c-26.572-15.341-26.572-40.215 1e-3 -55.558 26.574-15.341 69.658-15.341 96.229 0 26.574 15.342 26.574 40.216-1e-3 55.558-26.572 15.342-69.656 15.342-96.229 0" fill="#5b9bfe"/></g></g></g></g><g clip-path="url(#clipPath656)" opacity=".070007"><g transform="translate(261.38 173.8)"><path d="m0 0c5.959-3.44 5.959-9.019-1e-3 -12.46-5.959-3.44-15.621-3.44-21.58 0-5.96 3.441-5.959 9.019 0 12.46 5.959 3.44 15.621 3.44 21.581 0"/></g></g><g transform="translate(241.1 166.8)"><path d="m0 0c-5.19 5.295-8.239 18.519-3.177 22.719h25.757c5.06-4.199 2.015-17.415-3.171-22.714-0.044-0.049-0.096-0.097-0.143-0.146-0.059-0.059-0.118-0.118-0.179-0.174-0.146-0.142-0.301-0.282-0.468-0.417-0.041-0.035-0.083-0.065-0.124-0.098-0.127-0.1-0.253-0.2-0.392-0.296-0.222-0.157-0.444-0.303-0.671-0.429-4.269-2.465-11.191-2.465-15.46 0-0.228 0.127-0.453 0.274-0.676 0.432-0.129 0.09-0.246 0.183-0.364 0.276-0.052 0.04-0.103 0.078-0.154 0.12-0.161 0.132-0.311 0.266-0.452 0.403-0.07 0.065-0.138 0.134-0.206 0.201-0.039 0.041-0.083 0.081-0.12 0.123" fill="#e6e6e6"/></g><g transform="translate(261.44 191.21)"><path d="m0 0c5.877-3.393 5.877-8.894 0-12.287s-15.405-3.393-21.282 0-5.877 8.894 0 12.287 15.405 3.393 21.282 0" fill="#f5f5f5"/></g><g transform="translate(257.27 188.8)"><path d="m0 0c3.575-2.064 3.575-5.411 0-7.476-3.576-2.064-9.373-2.064-12.948 0-3.575 2.065-3.575 5.412 0 7.476s9.373 2.064 12.948 0" fill="#e6e6e6"/></g><g transform="translate(244.32 185.26)"><path d="m0 0c3.575 2.064 9.372 2.064 12.948 0 0.993-0.573 1.7-1.248 2.141-1.964-0.441-0.716-1.148-1.39-2.141-1.964-3.576-2.064-9.373-2.064-12.948 0-0.993 0.574-1.701 1.248-2.142 1.964 0.441 0.716 1.149 1.391 2.142 1.964" fill="#e0e0e0"/></g><g><g transform="translate(256.48 183.29)" fill="#00b616"><path d="m0 0s2.521 2.401 4.684 6.226c2.162 3.824 2.561 8.947 1.443 9.58-1.117 0.632-5.669-4.478-5.669-4.478s0.67 3.121 0.479 6.527c-0.191 3.407-1.021 6.501-1.996 7.126s-3.158-3.672-4.094-6.787c-0.936-3.114-1.495-5.673-1.495-5.673s-0.639 4.209-1.678 7.166c-1.135 3.232-2.165 3.963-2.963 3.644s-1.325-1.828-1.559-6.134c-0.164-3.015 0.192-6.162 0.192-6.162s-1.604 1.764-3.386 3.476c-1.956 1.879-2.793 2.138-3.353 1.78-0.559-0.359-0.713-3.283 2.317-8.763 2.674-4.835 5.719-7.528 5.719-7.528s4.193-2.704 11.359 0" fill="#00b616"/></g><g><path d="m343.71 168.55c-0.628-3.75 1.138-7.497 4.432-9.398l51.859-27.036 0.15-2.992 2.363-1.365-3.043-1.749-57.328 33.185z" fill="#37474f"/><path d="m397.85 112.83c0.331 3.984-1.084 7.991-4.547 9.99l-46.737 26.984c-2.652 1.53-6.016-0.056-6.522-3.075l3.118 18.599c-0.617-3.675 1.113-7.345 4.339-9.209l48.385-27.963c1.688-0.976 3.464-0.047 3.626 1.896l0.247 2.567z" fill="#455a64"/><path d="m396.84 240.49 13.251-7.65-56.517-35.738c-3.616-2.287-6.088-6.006-6.796-10.226l-8.231-53.295c-0.105-0.633-0.812-0.966-1.369-0.645-0.309 0.178-0.487 0.519-0.379 1.814l4.706 56.632c0.267 3.199 2.307 7.011 5.56 9.593z" fill="#455a64"/><path d="m458.19 170.17 0.324-0.749c1.166-2.691 0.129-5.83-2.412-7.297l-52.115-30.088 1.307 7.796-1.959-11.692 58.41 33.821z" fill="#263238"/><path d="m458.19 170.17 0.205-0.473c1.696-3.916-2.582-7.729-6.278-5.596l-2.22 1.281-2.962-1.71 12.147-7.013 3.847 2.567z" fill="#263238"/><path d="m402.71 131.3 49.963 28.869c1.743 1.007 3.156 3.456 3.156 5.469v2.944c0 2.013-1.413 4.462-3.157 5.468l-49.962 28.846c-1.744 1.007-4.571 1.007-6.315 0l-49.962-28.845c-1.744-1.007-3.158-3.455-3.158-5.469v-2.983c0-2.013 1.414-4.462 3.159-5.468l49.962-28.833c1.744-1.006 4.571-1.006 6.314 2e-3" fill="#62a6ff"/></g></g><g clip-path="url(#clipPath868)" opacity=".3"><g transform="translate(401.78 130.9)"><path d="m0 0c0.324 0.11 0.643 0.236 0.923 0.401l49.963 28.869c1.742 1.005 3.154 3.456 3.154 5.467v2.945c0 1.776-1.106 3.885-2.562 5.048 1.121-1.002 0.922-2.349-0.592-3.224l-49.727-28.709z"/></g></g><g clip-path="url(#clipPath884)" opacity=".14999"><g transform="translate(343.27 168.58)"><path d="m0 0v-2.983c0-2.017 1.412-4.462 3.16-5.468l49.963-28.836c1.461-0.84 3.681-0.972 5.39-0.39l1.159 10.792-0.236-0.137c-1.742-1.012-4.572-1.012-6.313 0l-49.963 28.846c-1.522 0.874-1.72 2.226-0.594 3.226-1.462-1.165-2.566-3.275-2.566-5.05"/></g></g><path d="m384.93 192.64 49.968-28.847c1.006-0.588 2.379-0.83 3.698-0.731 0.187 0.012 0.373 0.034 0.555 0.061 0.038 5e-3 0.077 0.011 0.115 0.016 0.115 0.022 0.22 0.039 0.33 0.061 0.011 0 0.027 5e-3 0.044 0.011 0.165 0.033 0.329 0.076 0.494 0.126 0.385 0.116 0.753 0.269 1.077 0.456l2.572 1.484c1.742 1.005 3.445 3.428 3.796 5.412l7.6 42.413c0.044 0.258 0.065 0.517 0.065 0.786 0 0.104-5e-3 0.209-0.01 0.313-0.039 0.522-0.159 1.049-0.347 1.549-0.352 0.934-0.934 1.792-1.67 2.385-0.071 0.055-0.142 0.11-0.215 0.165-0.109 0.077-0.219 0.149-0.335 0.214l-49.963 28.847c-1.747 1.006-4.571 1.006-6.312 0l-2.572-1.483c-0.522-0.302-1.038-0.731-1.517-1.237-0.088-0.087-0.176-0.187-0.252-0.28-0.341-0.385-0.654-0.807-0.924-1.242-0.065-0.093-0.12-0.187-0.176-0.286-0.048-0.082-0.098-0.17-0.142-0.252-0.071-0.127-0.132-0.248-0.192-0.374-0.061-0.121-0.122-0.247-0.17-0.374-0.044-0.104-0.088-0.208-0.127-0.313-0.022-0.049-0.038-0.099-0.055-0.148-0.033-0.093-0.061-0.187-0.088-0.28-0.038-0.121-0.071-0.242-0.099-0.363-0.027-0.088-0.044-0.176-0.06-0.264l-7.6-42.418c-0.356-1.978 0.77-4.402 2.512-5.407" fill="#62a6ff"/><path d="m446.29 207.97-7.599-42.414c-0.355-1.982-2.056-2.773-3.799-1.766l-49.964 28.846c-1.744 1.007-2.869 3.429-2.515 5.412l7.601 42.414c0.354 1.982 2.056 2.773 3.799 1.766l49.962-28.846c1.744-1.007 2.87-3.43 2.515-5.412" fill="#538dd9"/><g clip-path="url(#clipPath924)" opacity=".3"><g transform="translate(436.18 163.28)"><path d="m0 0c0.758-0.203 1.599-0.274 2.412-0.22 0.187 0.012 0.373 0.033 0.555 0.061 0.148 0.022 0.297 0.044 0.445 0.076 0.011 0 0.027 6e-3 0.044 0.012 0.165 0.032 0.329 0.076 0.494 0.126 0.385 0.115 0.753 0.269 1.077 0.456l2.572 1.484c1.742 1.005 3.445 3.428 3.797 5.412l7.599 42.413c0.044 0.258 0.066 0.516 0.066 0.785 0 0.105-6e-3 0.209-0.011 0.314-0.039 0.522-0.159 1.049-0.347 1.549l-8.912-5.066c0.347-0.884 0.479-1.84 0.318-2.714l-7.598-42.413c-0.264-1.478-1.275-2.297-2.5-2.198 0-0.027-6e-3 -0.05-0.011-0.077"/></g></g><g><path d="m339.23 111.82c0.449 0.027 0.722-0.123 0.816-0.558 0.296-1.352 0.829-3.096 0.956-4.667 0.096-1.168 6e-3 -2.565-0.372-3.424-1.412-2.081-4.867-2.85-6.794-5.69-1.926-2.84-4.19-7.198-10.692-8.682-6.501-1.485-11.521 0.451-12.783 2.277s-0.208 3.612 3.918 5.994c5.032 2.904 7.458 6.755 11.115 11.103 1.003 1.191 2.213 2.893 2.616 3.391 0.082 0.101 0.181 0.187 0.284 0.263 0.426 0.314 0.946 0.506 1.448 0.658 0.63 0.19 1.282 0.313 1.936 0.372 0.643 0.057 1.255 0.025 1.886-0.073 0.83-0.13 1.634-0.391 2.465-0.507 0.615-0.086 1.243-0.07 1.853 0.046 0.56 0.107 0.771-0.468 1.348-0.503" fill="#37474f"/><path d="m331.6 126.38c-0.283-1.771-2.559-11.512-3.651-13.803-2.368-4.963-5.379-7.599-9.527-12.457-0.3-0.351-0.994-1.612-0.514-2.237 0.384-0.501 1.33-0.867 2.666-1.025 3.414-0.404 5.187 1.099 8.09 2.94 2.558 1.623 3.626 3.036 7.276 5.691 1.106 0.806 2.753 2.684 2.997 3.129 0.968 1.757 0.355 2.554 0.662 4.159 0.628 3.288 1.87 7.016 3.265 10.052-3.43 4.449-11.252 3.63-11.264 3.551" fill="#f8d7c4"/><path d="m398.74 186.72c-2.231-6.402-3.014-13.662-11.406-19.565-7.635-5.37-24.678-9.436-26.832-10.49-2.22-1.087-3.578-1.436-4.498-4.925-1.257-4.763-1.407-8.365-5.87-16.726-3.141-5.881-5.546-10.084-8.019-14.418-2.266-0.26-9.992 1.861-11.147 3.67 0.565 3.646 7.046 38.333 10.959 45.909 3.305 6.398 46.307 27.052 46.307 27.052s12.736-4.105 10.506-10.507" fill="#2e80fe"/></g><g clip-path="url(#clipPath968)" opacity=".10001"><g transform="translate(342.12 120.59)"><path d="m0 0c-0.947-0.109-2.849 0.199-4.824 0.726 0.185 0.423 0.428 0.885 0.754 1.394 2.71 4.063 4.616 8.117 7.072 13.083 2.444 4.942 3.562 10.318 4.368 15.733 0.618 4.155 0.513 9.142 4.692 11.363 1.644 0.874 3.492 1.276 5.31 1.682 9.098 2.036 18.2 4.48 26.455 8.812 0.73 0.383 1.476 0.801 1.967 1.463-1.845 5.326-2.033 7.242-1.933 9.67 1.583-3.788 3.907-6.89 7.658-9.433 0.694-0.552-0.078-1.634-0.543-2.29l-11.283-8.698c-6.706-3.074-15.286-5.466-19.302-6.73-0.371-0.116-0.704-0.223-0.99-0.32-0.036-0.012-0.068-0.023-0.102-0.036-0.098-0.033-0.191-0.065-0.277-0.096-0.038-0.013-0.075-0.027-0.111-0.04-0.078-0.029-0.149-0.056-0.216-0.083-0.027-0.011-0.056-0.022-0.083-0.032-0.086-0.036-0.163-0.069-0.225-0.1-0.416-0.203-0.802-0.381-1.16-0.558-0.956-0.474-1.717-0.944-2.334-1.897-0.387-0.595-0.717-1.379-1.004-2.47-0.079-0.298-0.154-0.591-0.225-0.881-0.213-0.87-0.399-1.712-0.596-2.566-0.064-0.284-0.13-0.57-0.199-0.858-0.205-0.866-0.431-1.755-0.713-2.708-0.093-0.318-0.194-0.642-0.302-0.975-0.216-0.667-0.462-1.366-0.75-2.112-0.717-1.864-1.691-4.012-3.085-6.625-0.197-0.367-0.39-0.729-0.582-1.084-1.143-2.129-2.192-4.038-3.186-5.823-0.165-0.297-0.329-0.592-0.492-0.882-0.652-1.164-1.282-2.28-1.905-3.375-0.466-0.822-0.928-1.632-1.391-2.442z"/></g></g><g><path d="m372.23 96.343c0.449 0.027 0.721-0.123 0.816-0.558 0.296-1.352 0.828-3.096 0.956-4.667 0.096-1.168 6e-3 -2.565-0.372-3.424-1.412-2.081-4.868-2.85-6.795-5.69-1.926-2.84-4.189-7.198-10.691-8.682-6.502-1.485-11.522 0.451-12.783 2.277-1.262 1.826-0.208 3.612 3.918 5.994 5.031 2.904 7.457 6.756 11.115 11.103 1.002 1.191 2.213 2.893 2.616 3.391 0.081 0.101 0.181 0.187 0.284 0.263 0.426 0.314 0.946 0.506 1.448 0.658 0.629 0.19 1.281 0.313 1.936 0.372 0.642 0.057 1.255 0.025 1.885-0.073 0.83-0.13 1.635-0.391 2.466-0.507 0.615-0.086 1.243-0.07 1.852 0.046 0.56 0.107 0.772-0.468 1.349-0.503" fill="#37474f"/><path d="m364.6 110.9c-0.282-1.771-2.559-11.512-3.65-13.803-2.368-4.963-5.379-7.599-9.527-12.457-0.3-0.351-0.995-1.612-0.515-2.237 0.385-0.501 1.331-0.867 2.667-1.025 3.414-0.404 5.187 1.099 8.09 2.94 2.558 1.623 3.626 3.036 7.275 5.691 1.107 0.806 2.753 2.684 2.998 3.129 0.968 1.757 0.355 2.554 0.661 4.159 0.628 3.288 1.871 7.016 3.266 10.052-3.43 4.449-11.252 3.63-11.265 3.551" fill="#f8d7c4"/><path d="m428.54 191.12c1.13-6.343 2.625-16.235-1.213-21.824-3.541-5.155-8.284-8.654-16.933-14.175-9.539-6.09-14.294-9.055-16.551-10.658-2.249-1.596-4.438-3.838-5.116-7.383-0.79-4.122-1.536-8.2-5.566-16.752-3.169-6.724-6.695-12.886-8.477-16.291-2.683-0.46-9.378 0.828-11.13 3.1 0.968 5.09 6.524 41.189 8.897 46.54 2.341 5.278 21.182 21.405 21.182 21.405s1.489 9.708-0.029 16.038z" fill="#2e80fe"/><path d="m336.41 252.71c0.79 2.525 2.881 4.718 5.484 5.189 0.381 0.069 0.806 0.093 1.125-0.126 0.331-0.228 0.455-0.649 0.561-1.037 0.566-2.083 1.226-4.141 1.975-6.166 0.37-1.001 0.714-2.055 1.191-3.011 0.12-0.242 1.035-1.287 1.039-1.397-0.057 1.407-0.076 2.517 0.101 3.258 0.351 1.473 1.498 1.747 2.042 1.642 0.422-0.082 0.179-1.106 0.659-2.785 0.612-2.144 1.325-3.532 1.4-5.92 0.027-0.89 0.36-1.763 0.973-2.434 2.913-3.184 10.943-9.608 16.564-13.383 3.216 2.95 6.96 8.439 11.416 13.967 5.503 6.827 8.593 8.838 15.635 8.596l-0.932-12.909c-5.072-6.25-9.599-10.421-19.51-20.612-2.294-2.359-4.026-3.307-5.571-3.446-2.093-0.188-4.062 1.498-5.981 3.12-4.302 3.635-8.562 7.394-12.579 11.332-5.484 5.374-12.628 12.01-15.031 18.36-0.937 2.474-1.352 5.238-0.561 7.762" fill="#f8d7c4"/><path d="m387.99 219.53c-0.571-5.293 0.244-22.31 0.244-22.31 2.431-4.667 11.83-9.22 19.55-9.309 9.246-0.107 18.403 0.634 20.928 4.666-1.284 6.319-6.012 17.66-6.012 17.66l2.447 14.846s-5.92 9.667 0.878 20.273c0 0-4.893 1.912-12.817 2.751-7.925 0.839-12.461 0.987-12.461 0.987l-4.176 6e-3c-4.192-3.075-9.496-10.743-10.842-14.189-1.375-3.518-3.317-8.423 2.261-15.381" fill="#fff"/><path d="m413.47 251.05c1.528 3.757 4.286 5.603 6.93 9.057 5.225 6.826 7.607 16.652 2.711 20.531 0 0 1.12 3.843-1.262 7.27-2.272 3.27-4.86 3.452-7.254 4.791-1.83 1.025-3.01 2.178-4.738 3.672-1.688 1.459-2.606 2.38-3.761 3.04-1.845 1.054-3.945 1.398-6.386 0.133-3.634-1.884-3.015-4.739-3.015-4.739s-2.22 2.479-7.4 1.566-7.819-7.461-3.91-11.077c0 0-3.811-3.03-2.345-7.819s8.348-5.375 11.455-2.541z" fill="#37474f"/><path d="m393.77 284.06c-2.173-1.206-4.964-6.514-5.01-17.798-0.039-9.564 2.994-12.01 4.532-12.733 1.538-0.722 4.548-0.39 7.479 0.016l-0.053-4.804s-1.732-2.178-1.551-4.816c0.183-2.637 5.772-3.924 9.709-1.612 4.063 2.386 4.502 4.667 4.502 4.667l0.284 13.256s1.671-1.714 4.651 0.752c2.46 2.035 3.366 5.556 1.545 7.508-1.82 1.952-5.295 1.528-6.696-1.146 0 0-1.121 4.213-8.372 6.716-5.37 1.854-9.098 5.218-11.02 9.994" fill="#f8d7c4"/><path d="m393.32 285.34c-0.102-0.069-0.195-0.162-0.313-0.298-0.259-0.298-0.492-0.618-0.694-0.957-0.404-0.676-0.689-1.424-0.818-2.202-0.23-1.374 0.035-2.834 0.777-4.013 0.741-1.179 1.657-1.985 3.023-2.259 0.573-0.116 1.396-0.138 1.864 0.259 0.292 0.248 0.423 0.506 0.435 0.824 0.012 0.292-0.117 0.472-0.308 0.605 0.08-0.185 0.01-0.413-0.138-0.55-0.147-0.138-0.355-0.196-0.557-0.197-0.456-2e-3 -0.879 0.262-1.176 0.607-1.757 2.043-0.338 5.279 1.612 6.619 0.053 0.037-0.039 0.419-0.05 0.467-0.072 0.335-0.221 0.656-0.46 0.905-0.7 0.732-1.833 0.588-2.719 0.377-0.212-0.05-0.351-0.1-0.478-0.187" fill="#37474f"/><path d="m400.06 268.79c-0.054-0.687 0.439-1.285 1.102-1.335 0.662-0.049 1.242 0.468 1.295 1.156s-0.44 1.285-1.102 1.335-1.242-0.468-1.295-1.156" fill="#263238"/><path d="m400.7 260.62-3.114-0.901c0.232-0.891 1.118-1.411 1.977-1.162 0.861 0.249 1.369 1.172 1.137 2.063" fill="#f5c2a4"/></g><g fill="#263238"><path d="m389.97 272.57 2.913 0.528c-0.117 0.817-0.863 1.36-1.668 1.214-0.804-0.146-1.361-0.926-1.245-1.742"/><path d="m400.67 272.51 2.682-1.252c0.377 0.733 0.081 1.608-0.66 1.954-0.74 0.346-1.646 0.031-2.022-0.702"/><path d="m390.48 269.29c-0.054-0.687 0.44-1.285 1.103-1.335 0.662-0.049 1.242 0.468 1.294 1.156 0.054 0.688-0.439 1.285-1.101 1.335s-1.242-0.468-1.296-1.156"/></g><g><path d="m396.45 269.7-0.142-7.834-3.775 1.283z" fill="#f5c2a4"/><path d="m400.77 253.55c3.084 0.319 9.457 1.964 10.511 4.437 0 0-0.371-1.562-2.304-3.13-1.934-1.567-8.228-3.224-8.228-3.224z" fill="#f5c2a4"/><path d="m472.03 142.89-16.203 46.435h-5.924l20.013-47.258c0.096-0.223 0.262-0.41 0.474-0.531 0.911-0.526 1.984 0.361 1.64 1.354" fill="#37474f"/><path d="m453.23 202.23-45.627-36.222c-3.253-2.582-5.293-6.394-5.638-10.533l-5.409-56.052c-0.03-0.356 0.149-0.696 0.457-0.875 0.557-0.321 1.264 0.012 1.369 0.646l8.935 52.715c0.708 4.22 3.18 7.94 6.796 10.226l38.922 24.612c7.466 4.721 7.757 15.27 1.095 20.501z" fill="#455a64"/></g><g clip-path="url(#clipPath1148)" opacity=".2"><g transform="translate(444.19 195.05)"><path d="m0 0c1.067-1.923 1.628-4.125 1.591-6.325-0.011-0.659-0.079-1.337-0.378-1.925-0.343-0.673-0.955-1.166-1.574-1.601-2.575-1.804-5.542-2.949-8.476-4.077-4.731-1.819-10.003-3.293-14.477-4.581z"/></g></g><path d="m459.38 167.44c1.35-3.119 0.148-6.754-2.795-8.454l-46.578-26.892c-2.65-1.53-5.914 0.734-5.407 3.753l-3.578-21.108c0.615 3.668 2.93 7.019 6.151 8.879l51.781 29.896c2.751 1.588 6.272 0.424 7.534-2.491z" fill="#37474f"/><path d="m393.67 171.41c0.845 1.396 8.985 9.893 10.007 10.583 2.194 1.481 4.912 1.198 7.922 2.557 2.74 1.237 4.113 2.682 10.265 6.614 5.843 3.735 9.5 6.208 9.5 6.208l-7.686 24.175c-4.986 9.894-1.362 20.882 2.349 23.812 4.593-1.003 7.738-2.237 10.624-12.555 1.773-6.335 7.701-25.845 8.902-32.422 1.437-7.868 1.699-9.845-5.248-13.296-7.127-3.54-20.84-8.879-23.14-9.876-2.301-0.997-2.982-2.294-4.601-3.213-1.513-0.859-2.356-1.205-3.761-1.702-1.527-0.541-2.944-1.34-4.209-2.351-0.33-0.263-0.679-0.527-1.021-0.762-2.124-1.458-4.253-2.576-6.87-1.75-2.865 0.905-3.877 2.582-3.033 3.978" fill="#f8d7c4"/><g transform="translate(154.79 177.12)"><path d="m0 0c0.628-3.75-1.138-7.497-4.431-9.399l-51.86-27.035-0.15-2.992-2.362-1.365 3.043-1.749 57.328 33.185z" fill="#37474f"/></g><g transform="translate(100.64 121.39)"><path d="m0 0c-0.332 3.984 1.084 7.991 4.546 9.99l46.738 26.984c2.651 1.531 6.015-0.055 6.522-3.075l-3.118 18.599c0.616-3.674-1.114-7.345-4.339-9.209l-48.385-27.963c-1.688-0.976-3.464-0.047-3.626 1.896l-0.248 2.567z" fill="#455a64"/></g><g transform="translate(101.65 249.05)"><path d="m0 0-13.251-7.65 56.517-35.738c3.616-2.287 6.088-6.006 6.796-10.227l8.23-53.294c0.107-0.633 0.813-0.967 1.37-0.645 0.309 0.178 0.487 0.519 0.38 1.814l-4.707 56.632c-0.266 3.199-2.307 7.011-5.559 9.593z" fill="#455a64"/></g><g transform="translate(40.297 178.74)" fill="#263238"><path d="m0 0-0.324-0.749c-1.166-2.692-0.128-5.83 2.412-7.297l52.115-30.089-1.306 7.797 1.959-11.692-58.411 33.821z"/><path d="m0 0-0.205-0.473c-1.695-3.916 2.582-7.729 6.278-5.596l2.22 1.281 2.962-1.711-12.147-7.012-3.847 2.567z"/></g><g transform="translate(95.787 139.86)" fill="#62a6ff"><path d="m0 0-49.963 28.869c-1.744 1.007-3.157 3.456-3.157 5.47v2.943c0 2.014 1.414 4.462 3.158 5.469l49.962 28.846c1.744 1.007 4.571 1.007 6.315 0l49.961-28.846c1.745-1.006 3.158-3.455 3.158-5.469v-2.983c0-2.013-1.413-4.462-3.158-5.468l-49.962-28.832c-1.744-1.007-4.571-1.006-6.314 1e-3" fill="#62a6ff"/></g><g clip-path="url(#clipPath1204)" opacity=".3"><g transform="translate(96.709 139.47)"><path d="m0 0c-0.324 0.11-0.643 0.236-0.923 0.401l-49.963 28.869c-1.741 1.005-3.154 3.456-3.154 5.467v2.945c0 1.776 1.107 3.885 2.562 5.048-1.12-1.002-0.922-2.349 0.592-3.224l49.727-28.709z"/></g></g><g clip-path="url(#clipPath1220)" opacity=".14999"><g transform="translate(155.22 177.15)"><path d="m0 0v-2.984c0-2.016-1.412-4.461-3.159-5.467l-49.963-28.836c-1.461-0.84-3.681-0.972-5.39-0.39l-1.159 10.792 0.236-0.137c1.742-1.012 4.571-1.012 6.313 0l49.963 28.846c1.522 0.874 1.72 2.225 0.593 3.225 1.462-1.164 2.566-3.274 2.566-5.049"/></g></g><g transform="translate(113.56 201.2)" fill="#62a6ff"><path d="m0 0-49.968-28.847c-1.006-0.588-2.38-0.83-3.698-0.731-0.187 0.011-0.374 0.033-0.555 0.061-0.039 5e-3 -0.077 0.011-0.115 0.016-0.116 0.022-0.22 0.039-0.33 0.061-0.011 0-0.028 5e-3 -0.044 0.011-0.165 0.033-0.33 0.076-0.495 0.126-0.384 0.116-0.753 0.269-1.077 0.456l-2.571 1.484c-1.742 1.005-3.445 3.428-3.797 5.412l-7.599 42.413c-0.044 0.258-0.066 0.517-0.066 0.786 0 0.104 5e-3 0.209 0.011 0.313 0.038 0.522 0.159 1.049 0.346 1.549 0.352 0.934 0.934 1.791 1.671 2.385 0.071 0.055 0.142 0.11 0.214 0.165 0.11 0.077 0.22 0.148 0.335 0.214l49.963 28.847c1.747 1.006 4.571 1.006 6.313 0l2.572-1.484c0.522-0.302 1.038-0.731 1.516-1.236 0.088-0.088 0.176-0.187 0.253-0.28 0.341-0.385 0.654-0.808 0.923-1.242 0.066-0.093 0.121-0.187 0.176-0.286 0.049-0.082 0.099-0.17 0.143-0.253 0.071-0.126 0.131-0.247 0.192-0.373 0.061-0.121 0.121-0.247 0.17-0.374 0.044-0.104 0.088-0.209 0.127-0.313 0.022-0.049 0.038-0.099 0.055-0.148 0.033-0.094 0.06-0.187 0.087-0.28 0.039-0.121 0.072-0.242 0.1-0.363 0.027-0.088 0.044-0.176 0.06-0.264l7.599-42.418c0.357-1.978-0.769-4.402-2.511-5.407" fill="#62a6ff"/></g><g transform="translate(52.196 216.54)" fill="#62a6ff"><path d="m0 0 7.599-42.414c0.355-1.982 2.056-2.773 3.8-1.766l49.963 28.846c1.744 1.006 2.87 3.429 2.515 5.411l-7.6 42.415c-0.356 1.982-2.057 2.772-3.801 1.765l-49.961-28.845c-1.744-1.007-2.87-3.43-2.515-5.412" fill="#62a6ff"/></g><g transform="translate(-.025193 .159)"><g clip-path="url(#clipPath1244)" opacity=".14999"><g transform="translate(52.196 216.54)"><path d="m0 0 7.599-42.414c0.355-1.982 2.056-2.773 3.8-1.766l49.963 28.846c1.744 1.006 2.87 3.429 2.515 5.411l-7.6 42.415c-0.356 1.982-2.057 2.772-3.801 1.765l-49.961-28.845c-1.744-1.007-2.87-3.43-2.515-5.412"/></g></g></g><g clip-path="url(#clipPath1260)" opacity=".3"><g transform="translate(62.307 171.85)"><path d="m0 0c-0.758-0.204-1.599-0.275-2.412-0.22-0.187 0.011-0.374 0.033-0.555 0.061-0.149 0.021-0.297 0.043-0.445 0.076-0.011 0-0.028 6e-3 -0.044 0.012-0.165 0.032-0.33 0.076-0.495 0.126-0.384 0.115-0.753 0.269-1.077 0.456l-2.571 1.484c-1.742 1.005-3.445 3.428-3.797 5.412l-7.599 42.413c-0.044 0.258-0.066 0.516-0.066 0.785 0 0.105 5e-3 0.209 0.011 0.313 0.038 0.523 0.159 1.05 0.346 1.55l8.912-5.066c-0.346-0.884-0.478-1.84-0.318-2.714l7.599-42.413c0.263-1.479 1.275-2.297 2.5-2.198 0-0.028 6e-3 -0.05 0.011-0.077"/></g></g><g transform="translate(133.41 135.81)"><path d="m0 0c-0.772-0.781-1.655-1.687-1.576-2.686s0.547-3.412 2.601-5.716c2.055-2.305 3.351-6.648 3.688-9.588 0.336-2.94 0.47-10.424 4.136-13.433 3.667-3.009 12.661-4.643 12.761 0.812 0.1 5.454-10.301 26.622-10.301 26.622z" fill="#263238"/></g><g transform="translate(138.35 132.22)" fill="#e1b090"><path d="m0 0c1.011-2.764 2.587-7.389 3.432-11.783s2.085-7.497 4.295-8.717c2.211-1.22 5.55-1.062 4.349 1.934-1.201 2.995-5.702 18.174-5.702 18.174z" fill="#e1b090"/></g><g transform="translate(112.05 206.91)"><path d="m0 0s16.37-8.099 24.912-12.879c8.542-4.782 16.661-9.461 18.309-13.223 1.742-3.977 1.114-13.361 8e-3 -22.383-1.104-9.021-3.367-25.226-3.367-25.226l-24.588 38.299-25.081 17.211z" fill="#37474f"/></g><g transform="translate(110.83 189.33)"><path d="m0 0 1.341 1.549s12.889-7.752 17.923-10.994c5.035-3.243 10.406-7.194 12.798-13.034 2.391-5.839 9.72-28.926 9.72-28.926l-17.241 32.202z" fill="#263238"/></g><g transform="translate(153.57 104.82)"><path d="m0 0c-0.739-0.47-0.672-2.28-0.623-3.602 0.049-1.321-0.939-3.045 0.947-5.119 1.885-2.074 5.124-2.316 7.696-5.148 2.573-2.831 6.505-8.049 13.711-8.548s12.208 2.563 13.222 4.831c1.013 2.266-0.436 4.074-5.271 6-5.133 2.045-6.592 2.653-6.592 2.653z" fill="#263238"/></g><g transform="translate(159.07 120.26)" fill="#e9c6af"><path d="m0 0s4.704-8.872 7.361-12.874c2.658-4.002 6.476-7.61 10.612-10.894 0.9-0.715 2.884-1.986 3.619-2.563 0.654-0.514 0.876-1.209 0.247-2.086-1.237-1.729-7.574-3.279-11.669-1.267-4.094 2.013-8.58 6.465-11.128 8.226-1.275 0.881-2.476 1.727-3.357 2.351-0.847 0.599-1.318 1.592-1.243 2.627 0.022 0.293 0.043 0.636 0.062 1.038 0.102 2.16-4.227 10.131-4.227 10.131z" fill="#e9c6af"/></g><g transform="translate(71.409 197.92)"><path d="m0 0c-0.055-7.214 0.233-11.241 3.899-17.889 3.666-6.647 12.815-10.969 23.639-14.819 8.957-3.187 22.135-7.741 24.75-8.355 2.613-0.613 3.141-2.028 3.666-6.698 0.525-4.669 3.533-11.9 10.423-20.364 7.279-8.94 11.557-14.842 11.557-14.842s6.274-1.106 10.302 4.658c0 0-17.268 43.924-20.448 49.553s-29.474 20.822-29.474 20.822 1.842 9.65 2.328 16.922z" fill="#37474f"/></g><g transform="translate(114.59 198.09)"><path d="m0 0s-0.332-5.638-3.756-8.761l2.155-1.272s3.15 4.13 1.601 10.033" fill="#263238"/></g><g transform="translate(160.15 222.72)" fill="#434343"><path d="m1.7929 0.71384-0.094438-19.575c0.039075-0.92893-3.0212-1.0519-3.0546-0.1549 0 0 0.03886 19.475-0.00672 19.723"/><path d="m2.1658 0.66412 0.038145-23.088c0.014216-1.9896-4.6702-1.9552-4.7036-0.18804 0 0-0.093723 22.988-0.1393 23.237"/></g><g><g transform="translate(166.27 213.25)" fill="#e1b090"><path d="m0 0c-0.07 2.14-0.48 4.93-1.24 6.07-0.25 0.39-0.56 0.59-0.9 0.49-1.34-0.39-2.63-2.79-2.63-2.79-0.09-0.06-0.18-0.13-0.27-0.19-1.47-0.9-4.87-1.05-5.44-2.27-0.53-1.13-0.72-4.82-0.26-6.75 0.07-0.3 0.16-0.56 0.26-0.76 0.78-1.46 5.56-2.44 7.78-1.2s2.79 4.52 2.7 7.4" fill="#e1b090"/></g><g transform="translate(166.27 221.78)" fill="#e9c6af"><path d="m0 0c-0.03-0.95-0.55-1.79-1.24-2.46-0.17-0.16-0.35-0.32-0.53-0.46-0.93-0.71-2.02-1.2-3-1.84-0.09-0.06-0.18-0.13-0.27-0.19-1.47-0.9-4.87-1.05-5.44-2.27-0.53-1.13-0.72-4.82-0.26-6.75-1.61 0.28-3.32 0.56-5.55 1.02-2.55 0.53-17.93 1.38-29.4 2.75-2.25 0.27-4.29 0.82-6.16 3.65s-12.99 22.12-12.99 22.12l-7.52 19.51c6.23 1.37 11.85 2.55 17.06-7.77 4.07-8.08 13.97-24.99 13.97-24.99 5.96-1.57 11.94-3.04 17.97-4.3 1.69-0.35 3.59-0.95 5.31-1.05 1.31-0.08 2.61 0.34 3.87 0.62 1.4 0.3 2.79 0.67 4.18 1.02 3.01 0.74 6.02 1.49 9.03 2.23 0.18 0.04 0.38 0.09 0.56 0.02 0.32-0.11 0.42-0.52 0.41-0.86" fill="#e9c6af"/></g><g transform="translate(74.266 253.68)" fill="#9ec8ff"><path d="m0 0-6.71-1.496s4.812-5.668 3.804-16.574c-0.715-7.722-2.427-8.409-6.3-10.658-0.676-9.752 5.808-29.157 5.808-29.157s4.05-6.222 25.114-2.74c15.082 2.494 18.276 12.754 18.276 12.754l-9.081 8.482-2.074 7.895s6.791 5.975 4.468 14.836c-2.325 8.862-13.662 19.834-13.662 19.834l-5.793-0.321z" fill="#9ec8ff"/></g><g transform="translate(86.947 263.63)"><path d="m0 0-7.123-0.324c-9.919-0.452-18.327 7.224-18.779 17.144-0.541 11.887 8.656 21.961 20.543 22.502 5.675 0.259 10.938-1.703 14.947-5.117 8.006-0.011 9.443-6.711 8.506-11.886-0.938-5.175-5.094-6.871-5.094-6.871 0.452-9.92-3.08-14.996-13-15.448"/></g><g transform="translate(75.803 307.78)"><path d="m0 0c3.261-4.399 0.127-7.626-4.272-10.887-4.399-3.26-8.397-5.321-11.658-0.922s-1.778 9.519 2.621 12.781c4.399 3.26 10.048 3.427 13.309-0.972"/></g></g><g transform="translate(65.302 293.32)"><path d="m0 0-4.417-3.557c-1.042 1.211-0.898 2.989 0.322 3.971 1.219 0.982 3.053 0.796 4.095-0.414" fill="#263238"/></g><g transform="translate(95.29 293.92)" fill="#e9c6af"><path d="m0 0c2.334-1.24 5.405-6.83 5.673-18.829 0.227-10.171-2.951-12.83-4.572-13.629-1.62-0.798-4.829-0.503-7.953-0.128l0.226-4.955s5.61-5.272 5.468-8.08-7.077-4.39-11.211-1.841c-4.133 2.549-7.708 7.148-7.708 7.148l-0.613 14.593s-1.745-1.855-4.961 0.709c-2.656 2.116-3.688 5.843-1.789 7.954 1.898 2.111 5.602 1.728 7.143-1.088 0 0 4.953 0.044 11.372 3.96 6.419 3.917 8.667 10.227 8.925 14.186" fill="#e9c6af"/></g><g transform="translate(89.505 277.12)"><path d="m0 0c0.07-0.73-0.443-1.376-1.146-1.441-0.704-0.066-1.331 0.473-1.4 1.204-0.07 0.73 0.442 1.375 1.146 1.441 0.703 0.066 1.33-0.474 1.4-1.204" fill="#263238"/></g><g transform="translate(90.238 268.53)" fill="#e1b090"><path d="m0 0 3.011-0.812c-0.208-0.86-1.051-1.376-1.882-1.152s-1.337 1.103-1.129 1.964" fill="#e1b090"/></g><g transform="translate(99.848 281.61)"><path d="m 0,0 -3.314,1.276 c 0.32,0.936 1.322,1.409 2.238,1.057 C -0.161,1.98 0.321,0.936 0,0" fill="#263238"/></g><g transform="translate(99.941 277.87)"><path d="m0 0c0.07-0.73-0.443-1.375-1.146-1.441-0.704-0.066-1.33 0.474-1.4 1.204-0.07 0.731 0.443 1.375 1.146 1.441s1.33-0.474 1.4-1.204" fill="#263238"/></g><g transform="translate(88.438 261.33)" fill="#e1b090"><path d="m0 0c-3.286 0.28-10.096 1.905-11.264 4.515 0 0 0.425-1.654 2.511-3.284 2.086-1.629 8.846-3.265 8.846-3.265z" fill="#e1b090"/></g><g transform="translate(82.85 280.73)"><path d="m0 0-10.077-2.906c0.834-0.408 1.522-0.931 1.97-1.64l8.195 2.491z" fill="#27debf"/></g><g clip-path="url(#clipPath1440)" opacity=".60001"><g transform="translate(82.85 280.73)"><path d="m0 0-10.077-2.906c0.834-0.408 1.522-0.931 1.97-1.64l8.195 2.491z"/></g></g><g transform="translate(103.29 277.7)"><path d="m0 0c-0.124-0.744-0.39-2.35-1.757-3.149-0.389-0.228-0.873-0.391-1.467-0.445-1.575-0.152-2.495 0.448-3.033 1.174-3e-3 4e-3 -7e-3 9e-3 -9e-3 0.013-0.021 0.029-0.041 0.056-0.058 0.082-0.023 0.033-0.045 0.065-0.065 0.096-0.01 0.015-0.021 0.032-0.031 0.05-0.029 0.047-0.058 0.095-0.083 0.142-0.03 0.056-0.059 0.11-0.086 0.167-0.015 0.027-0.028 0.054-0.04 0.082-8e-3 0.016-0.013 0.03-0.02 0.046-0.011 0.023-0.021 0.046-0.03 0.069-8e-3 0.019-0.016 0.037-0.022 0.053-0.101 0.246-0.171 0.482-0.22 0.685-0.246 1.027-0.405 2.233-0.053 2.839 0.351 0.605 1.794 1.35 3.2 1.639 0.324 0.066 0.628 0.113 0.911 0.141 0.037 3e-3 0.073 6e-3 0.109 9e-3 0.04 4e-3 0.078 6e-3 0.117 9e-3 0.108 8e-3 0.215 0.012 0.317 0.016 0.038 1e-3 0.077 2e-3 0.115 2e-3 0.052-1e-3 0.102 0 0.151-2e-3 0.085 0 0.169-4e-3 0.249-0.01 0.165-9e-3 0.32-0.025 0.463-0.048 0.036-6e-3 0.073-0.012 0.109-0.019 8e-3 0 0.019-2e-3 0.029-5e-3 0.023-4e-3 0.048-8e-3 0.074-0.015 0.037-6e-3 0.075-0.016 0.111-0.024 0.045-0.01 0.092-0.023 0.134-0.034 0.079-0.022 0.152-0.046 0.22-0.072 0.014-5e-3 0.025-9e-3 0.039-0.014 0.221-0.083 0.388-0.181 0.504-0.28 0.445-0.38 0.278-2.244 0.122-3.197m-11.593-1.299c-0.093-0.524-0.307-1.286-0.851-1.941l-2e-3 -1e-3c-0.549-0.657-1.435-1.205-2.87-1.293-1.451-0.091-2.322 0.462-2.857 1.147-0.035 0.042-0.066 0.085-0.095 0.126-0.032 0.044-0.06 0.085-0.087 0.127-0.027 0.039-0.051 0.079-0.074 0.12-0.021 0.035-0.042 0.072-0.062 0.108-0.017 0.029-0.032 0.057-0.046 0.087-0.015 0.026-0.029 0.052-0.04 0.077-0.022 0.043-0.043 0.088-0.063 0.13v2e-3c-0.06 0.131-0.111 0.257-0.155 0.381-2e-3 3e-3 -2e-3 6e-3 -4e-3 0.01-0.029 0.078-0.055 0.156-0.079 0.23-0.043 0.134-0.078 0.26-0.107 0.371-7e-3 0.025-0.013 0.049-0.019 0.072s-0.013 0.046-0.019 0.068c-0.245 0.922-0.564 2.747-0.122 3.198 0.427 0.434 1.641 0.976 3.639 0.932 0.068 2e-3 0.139-1e-3 0.213-4e-3 0.307-0.013 0.613-0.042 0.916-0.089 0.12-0.018 0.239-0.039 0.356-0.061 0.315-0.06 0.621-0.137 0.898-0.226 0.096-0.03 0.188-0.062 0.276-0.094 0.105-0.037 0.204-0.078 0.299-0.12 0.02-9e-3 0.04-0.017 0.06-0.027 0.039-0.017 0.075-0.034 0.11-0.053 0.282-0.138 0.498-0.291 0.616-0.446 0.422-0.544 0.352-1.769 0.169-2.831m12.624 6.006c-0.196 0.012-0.401 0.022-0.613 0.028-1.976 0.063-4.551-0.074-6.083-0.673-1.918-0.756-2.576-1.483-3.652-1.573-1.151-0.084-1.906 0.535-4.005 0.978-1.674 0.349-4.422 0.074-6.518-0.307-0.225-0.041-0.443-0.083-0.651-0.126-0.359-0.074-0.73-0.592-0.68-1.159s0.489-0.988 0.678-1.234c0.083-0.109 0.166-0.268 0.235-0.5 0.258-0.873 0.468-2.567 0.939-3.48 0.19-0.367 0.459-0.814 0.885-1.208 0.14-0.127 0.282-0.239 0.441-0.343 0.083-0.052 0.165-0.101 0.253-0.149 0.22-0.119 0.466-0.219 0.744-0.298 0.042-0.011 0.084-0.023 0.125-0.031 0.063-0.015 0.13-0.031 0.197-0.044s0.135-0.024 0.205-0.035c0.201-0.031 0.419-0.051 0.65-0.053 0.09-4e-3 0.182-4e-3 0.277-2e-3 0.111 3e-3 0.227 8e-3 0.346 0.017 2.675 0.196 3.738 1.583 4.347 2.977 0.61 1.392 0.361 3.277 1.594 3.368 0.041 2e-3 0.08 4e-3 0.118 2e-3 0.037 0 0.075-4e-3 0.109-9e-3 0.92-0.147 0.88-1.894 1.505-3.103 0.24-0.464 0.535-0.92 0.929-1.301 0.07-0.068 0.141-0.133 0.217-0.195 0.038-0.033 0.076-0.062 0.115-0.091 0.04-0.03 0.079-0.059 0.121-0.087 0.036-0.025 0.072-0.05 0.11-0.073 0.063-0.039 0.091-0.056 0.118-0.071 0.031-0.019 0.061-0.036 0.094-0.052 0.02-0.013 0.043-0.025 0.065-0.036 0.314-0.16 0.671-0.283 1.082-0.354 0.032-5e-3 0.066-0.011 0.1-0.015 0.387-0.059 0.821-0.074 1.307-0.033 2.503 0.205 3.305 1.771 3.676 2.751 0.369 0.98 0.454 2.692 0.618 3.602 0.037 0.202 0.118 0.361 0.209 0.483 0.173 0.232 0.503 0.781 0.511 1.35 8e-3 0.57-0.379 1.059-0.718 1.079" fill="#27debf"/></g><g clip-path="url(#clipPath1460)" opacity=".39999"><g transform="translate(103.29 277.7)"><path d="m0 0c-0.124-0.744-0.39-2.35-1.757-3.149-0.389-0.228-0.873-0.391-1.467-0.445-1.575-0.152-2.495 0.448-3.033 1.174-3e-3 4e-3 -7e-3 9e-3 -9e-3 0.013-0.021 0.029-0.041 0.056-0.058 0.082-0.023 0.033-0.045 0.065-0.065 0.096-0.01 0.015-0.021 0.032-0.031 0.05-0.029 0.047-0.058 0.095-0.083 0.142-0.03 0.056-0.059 0.11-0.086 0.167-0.015 0.027-0.028 0.054-0.04 0.082-8e-3 0.016-0.013 0.03-0.02 0.046-0.011 0.023-0.021 0.046-0.03 0.069-8e-3 0.019-0.016 0.037-0.022 0.053-0.101 0.246-0.171 0.482-0.22 0.685-0.246 1.027-0.405 2.233-0.053 2.839 0.351 0.605 1.794 1.35 3.2 1.639 0.324 0.066 0.628 0.113 0.911 0.141 0.037 3e-3 0.073 6e-3 0.109 9e-3 0.04 4e-3 0.078 6e-3 0.117 9e-3 0.108 8e-3 0.215 0.012 0.317 0.016 0.038 1e-3 0.077 2e-3 0.115 2e-3 0.052-1e-3 0.102 0 0.151-2e-3 0.085 0 0.169-4e-3 0.249-0.01 0.165-9e-3 0.32-0.025 0.463-0.048 0.036-6e-3 0.073-0.012 0.109-0.019 8e-3 0 0.019-2e-3 0.029-5e-3 0.023-4e-3 0.048-8e-3 0.074-0.015 0.037-6e-3 0.075-0.016 0.111-0.024 0.045-0.01 0.092-0.023 0.134-0.034 0.079-0.022 0.152-0.046 0.22-0.072 0.014-5e-3 0.025-9e-3 0.039-0.014 0.221-0.083 0.388-0.181 0.504-0.28 0.445-0.38 0.278-2.244 0.122-3.197m-11.593-1.299c-0.093-0.524-0.307-1.286-0.851-1.941l-2e-3 -1e-3c-0.549-0.657-1.435-1.205-2.87-1.293-1.451-0.091-2.322 0.462-2.857 1.147-0.035 0.042-0.066 0.085-0.095 0.126-0.032 0.044-0.06 0.085-0.087 0.127-0.027 0.039-0.051 0.079-0.074 0.12-0.021 0.035-0.042 0.072-0.062 0.108-0.017 0.029-0.032 0.057-0.046 0.087-0.015 0.026-0.029 0.052-0.04 0.077-0.022 0.043-0.043 0.088-0.063 0.13v2e-3c-0.06 0.131-0.111 0.257-0.155 0.381-2e-3 3e-3 -2e-3 6e-3 -4e-3 0.01-0.029 0.078-0.055 0.156-0.079 0.23-0.043 0.134-0.078 0.26-0.107 0.371-7e-3 0.025-0.013 0.049-0.019 0.072s-0.013 0.046-0.019 0.068c-0.245 0.922-0.564 2.747-0.122 3.198 0.427 0.434 1.641 0.976 3.639 0.932 0.068 2e-3 0.139-1e-3 0.213-4e-3 0.307-0.013 0.613-0.042 0.916-0.089 0.12-0.018 0.239-0.039 0.356-0.061 0.315-0.06 0.621-0.137 0.898-0.226 0.096-0.03 0.188-0.062 0.276-0.094 0.105-0.037 0.204-0.078 0.299-0.12 0.02-9e-3 0.04-0.017 0.06-0.027 0.039-0.017 0.075-0.034 0.11-0.053 0.282-0.138 0.498-0.291 0.616-0.446 0.422-0.544 0.352-1.769 0.169-2.831m12.624 6.006c-0.196 0.012-0.401 0.022-0.613 0.028-1.976 0.063-4.551-0.074-6.083-0.673-1.918-0.756-2.576-1.483-3.652-1.573-1.151-0.084-1.906 0.535-4.005 0.978-1.674 0.349-4.422 0.074-6.518-0.307-0.225-0.041-0.443-0.083-0.651-0.126-0.359-0.074-0.73-0.592-0.68-1.159s0.489-0.988 0.678-1.234c0.083-0.109 0.166-0.268 0.235-0.5 0.258-0.873 0.468-2.567 0.939-3.48 0.19-0.367 0.459-0.814 0.885-1.208 0.14-0.127 0.282-0.239 0.441-0.343 0.083-0.052 0.165-0.101 0.253-0.149 0.22-0.119 0.466-0.219 0.744-0.298 0.042-0.011 0.084-0.023 0.125-0.031 0.063-0.015 0.13-0.031 0.197-0.044s0.135-0.024 0.205-0.035c0.201-0.031 0.419-0.051 0.65-0.053 0.09-4e-3 0.182-4e-3 0.277-2e-3 0.111 3e-3 0.227 8e-3 0.346 0.017 2.675 0.196 3.738 1.583 4.347 2.977 0.61 1.392 0.361 3.277 1.594 3.368 0.041 2e-3 0.08 4e-3 0.118 2e-3 0.037 0 0.075-4e-3 0.109-9e-3 0.92-0.147 0.88-1.894 1.505-3.103 0.24-0.464 0.535-0.92 0.929-1.301 0.07-0.068 0.141-0.133 0.217-0.195 0.038-0.033 0.076-0.062 0.115-0.091 0.04-0.03 0.079-0.059 0.121-0.087 0.036-0.025 0.072-0.05 0.11-0.073 0.063-0.039 0.091-0.056 0.118-0.071 0.031-0.019 0.061-0.036 0.094-0.052 0.02-0.013 0.043-0.025 0.065-0.036 0.314-0.16 0.671-0.283 1.082-0.354 0.032-5e-3 0.066-0.011 0.1-0.015 0.387-0.059 0.821-0.074 1.307-0.033 2.503 0.205 3.305 1.771 3.676 2.751 0.369 0.98 0.454 2.692 0.618 3.602 0.037 0.202 0.118 0.361 0.209 0.483 0.173 0.232 0.503 0.781 0.511 1.35 8e-3 0.57-0.379 1.059-0.718 1.079"/></g></g><g transform="translate(93.576 278.4)" fill="#e1b090"><path d="M 0,0 0.583,-7.013 4.249,-5.692 0.604,0.16 C 0.375,0.171 0.172,0.122 0,0" fill="#e1b090"/></g><g transform="translate(26.464 151.46)"><path d="m0 0 16.204 46.435h5.923l-20.013-47.258c-0.096-0.223-0.263-0.41-0.474-0.531-0.91-0.526-1.984 0.361-1.64 1.354" fill="#37474f"/></g><g transform="translate(45.257 210.8)"><path d="m0 0 45.627-36.221c3.253-2.583 5.293-6.395 5.638-10.533l5.409-56.053c0.03-0.355-0.148-0.696-0.457-0.874-0.557-0.322-1.263 0.012-1.37 0.645l-8.934 52.715c-0.707 4.22-3.179 7.94-6.796 10.227l-38.921 24.611c-7.467 4.721-7.758 15.27-1.097 20.502z" fill="#455a64"/></g><g clip-path="url(#clipPath1488)" opacity=".2"><g transform="translate(59.903 197.78)"><path d="m0 0c-1.067-1.922-1.628-4.125-1.591-6.325 0.011-0.659 0.079-1.336 0.378-1.924 0.343-0.674 0.956-1.167 1.575-1.601 2.574-1.804 6.252-3.821 9.088-5.179 5.863-2.808 12.61-6.09 17.085-7.378z"/></g></g><g transform="translate(39.113 176)"><path d="m0 0c-1.35-3.119-0.148-6.754 2.795-8.454l46.578-26.892c2.65-1.53 5.913 0.734 5.407 3.753l3.578-21.108c-0.615 3.667-2.931 7.019-6.151 8.879l-51.782 29.896c-2.751 1.588-6.272 0.424-7.534-2.491z" fill="#37474f"/></g><g transform="translate(107.46 170.7)" fill="#e9c6af"><path d="m0 0c-1.62 0.893-3.182 1.892-4.671 2.989-0.265 0.195-0.544 0.417-0.628 0.735-0.207 0.78 0.73 0.7 1.182 0.582 0.96-0.252 1.897-0.6 2.878-0.748 0.981-0.149 2.038-0.079 2.877 0.45 0.26 0.164 0.502 0.379 0.623 0.662s0.098 0.643-0.117 0.863c-0.105 0.108-0.244 0.174-0.38 0.238-2.549 1.201-5.005 2.474-7.627 3.52-3.958 1.578-8.092 2.551-11.764 4.725-2.903 1.718-5.602 3.787-8.223 5.902-3.542 2.861-6.985 5.873-10.269 9.029l-1.655 25.663s3.695 5.138 3.308 13.821c-0.438 9.836-5.441 13.055-5.441 13.055-10.445-1.944-13.015-5.436-13.199-17.931-0.117-7.921 1.982-38.574 4.002-41.561 0.573-0.847 1.68-1.448 2.509-1.998 1.607-1.067 3.269-2.054 4.931-3.033 3.633-2.142 18.871-11.243 20.139-12.289 1.046-0.862 1.805-1.764 2.997-2.967 2.237-2.259 3.864-4.606 6.615-6.2 2.75-1.594 6.522-2.88 9.668-2.431 1.683 0.24 4.052 0.79 5.355 1.88 0.961 0.802 1.983 1.695 0.833 2.863-0.44 0.447-1.027 0.712-1.594 0.98-0.795 0.376-1.579 0.776-2.349 1.201" fill="#e9c6af"/></g><circle transform="scale(1,-1)" cx="159.92" cy="-227.95" r="5.6115" stroke-linejoin="round" stroke-width=".77191"/></g></svg>
