<?xml version="1.0" encoding="UTF-8"?>
<svg width="4744.2" height="2278" version="1.1" viewBox="0 0 4744.2 2278" xml:space="preserve" xmlns="http://www.w3.org/2000/svg" xmlns:cc="http://creativecommons.org/ns#" xmlns:dc="http://purl.org/dc/elements/1.1/" xmlns:rdf="http://www.w3.org/1999/02/22-rdf-syntax-ns#"><metadata><rdf:RDF><cc:Work rdf:about=""><dc:format>image/svg+xml</dc:format><dc:type rdf:resource="http://purl.org/dc/dcmitype/StillImage"/></cc:Work></rdf:RDF></metadata><g transform="matrix(1.3333 0 0 -1.3333 -334.58 3095.5)"><g><path d="m3223.3 1593.2c144.89 150.64-565.42 674.84-1152 722.64-540.04 44-1253.5-169.02-529.15-483.94 690.21-300.06 1605.4-317.41 1681.2-238.7" fill="#e1edff"/><path d="m388.2 1699c338.29 427.98 1048.7-24.06 1656.6-133.87 607.86-109.82 1596.6 64.65 1594.1-416.96-2.64-513.49-261.24-519.63-1473.7-532.21-1256.7 26.759-1704.1-120.91-1861.3 331.77-122.41 352.38-6.034 636.88 84.38 751.27" fill="#e1edff"/><path d="m2707.7 1152.3c-49.65-100.79-111.9-376.2-128.87-391.29-16.98-15.09-115.08-73.57-132.05-101.87-16.98-28.29-9.44-18.86-1.89-20.75 7.55-1.88 433.87-3.77 433.87-3.77s-49.04 292.39-54.7 294.28-116.36 223.4-116.36 223.4" fill="#247afd"/><path d="m2637.2 635.98c78.3-0.55 160.92-0.98 206.41-1.2l-62.28 372.43c-33.21 64.39-73.54 145.08-73.54 145.08-6.25-12.7-12.71-28.19-19.26-45.57-6.46-279.72 33.83-358.13 3.57-407.97-23.62-38.89-45.17-56.29-54.9-62.77" fill="#0256d7"/><path d="m2969.2 1273.9c70.8-65.36 228.42-127.34 228.42-127.34s23.95-221.26 7.61-346.54-7.27-150.7-7.27-150.7l-340.35-2.89s-28.26 63.42-108.11 251.64c-50.83 119.83-41.76 254.18-41.76 254.18l197.91 88.97 63.55 32.68" fill="#247afd"/></g><g fill="#0256d7"><path d="m2873 649.36h324.99s-9.07 25.42 7.27 150.7c13.45 103.16-0.41 271.39-5.72 327.58l-29.56 12.67c-74.2-21.38-116.96-132.06-129.54-240.22-8.41-72.37-128.31-143.61-206.74-182.83 25.77-49.12 39.3-67.9 39.3-67.9"/><path d="m2914.5 1195.3s3.05-93.44 18.98-92.44 108.56 118.47 108.56 118.47l-15.75 7.53-111.79-33.56"/><path d="m2890.5 1200.7s-20.13-85.96-30.12-83.96-23.49 89.39-23.49 89.39l53.61-5.43"/></g><g><path d="m2886.8 1211.4 27.71-3 10.66-33s-24.37-28.52-24.87-40.01 5.37-54.49 5.69-93.49c0.31-39-14.01-194.25-7.51-289.35 6.51-95.1 6.51-95.1 6.51-95.1l-55.69-2.17s-3 104.62 0 216.62 34.88 263.49 34.88 263.49l-12.58 38.51 15.2 37.5" fill="#7aaefd"/><path d="m2793.3 1501c-39.17-87.25 7.84-168.08 6.42-164.67-1.42 3.4 59.3 147.31 59.3 147.31l-65.72 17.36" fill="#2e5b9a"/><path d="m2941.8 1436.5 49.68-181.61c1.4-5.12 0.21-10.58-3.14-14.71-11.65-14.35-28.25-43.88-61.72-53.35-6.51-1.84-14.53-2.34-21.02-2.36-6.82-0.03-12.7 4.78-14 11.48l-33.28 172.25 83.48 68.3" fill="#e9c6af"/><path d="m2932.3 1421.3-18.16-7.44-55.83-45.68 21.42-109.19 4.2037-17.887c50.82 31.69 59.464 58.616 34.024 181.07" fill="#e0ae8e"/><path d="m2929.2 1354.2c0.04-60.75-36.58-108.6-81.79-106.88-45.21 1.71-72.95 35.91-81.94 113.09-7.05 60.55 10.44 131.01 55.65 129.29 45.21-1.71 108.04-74.76 108.08-135.5" fill="#e9c6af"/><path d="m3197.6 1146.6c65.76-14.85 77.98-148.41 99.35-289.27 2.47-16.21 15.1-153.43 15.1-153.43s1.25-25.15-23.9-37.73c-21.49-10.75-30.18-18.87-154.69-20.12-119.58-1.21-273.75 3.77-273.75 3.77s-1.37 44.49 10.9 66.24c18.44 32.69 207.51 79.65 225.12 82.16 2.51 35.22-17.37 162.63 10.06 249.02 18.87 59.43 39.15 90.55 64.55 98.69 8.47 2.71 17.51 2.87 27.26 0.67" fill="#247afd"/><path d="m2927.3 647.11c58.95-0.89 139.85-1.73 206.14-1.06 124.51 1.25 133.2 9.37 154.69 20.12 25.15 12.58 26.41 33.96 26.41 33.96s-12.71 146.01-15.09 162.23c-13.83 94.33-28.78 202.26-63.57 254.36 32.7-95.85 37.97-176.72 38.55-211.26 0.3-17.5-1.32-41.45-6.42-58.19-5.66-18.55-20.12-30.18-42.76-23.89-45.28 12.57-101.87-13.84-101.87-13.84s42.76 15.09 83 1.26c40.25-13.83 123.25-105.64 32.7-139.6-27.71-10.39-193.68-18.87-311.78-24.09" fill="#0256d7"/><path d="m2880.7 711.86s16.77 28.51 51.14 28.51c34.38 0 31.87-56.17 26.83-74.62-5.03-18.45-25.15-19.28-25.15-19.28l-69.24 1.75 16.42 63.64" fill="#0256d7"/><path d="m2200 645.6h577.68c0 15.99-12.96 28.95-28.96 28.95h-548.72v-28.95" fill="#75a1de"/><path d="m2868.2 716.4c-69.64 32.03-89.32 23.89-105.15 30.01-51.24-7.3152-48.904-6.9579-81.94-62.85-6.37-13.71 8.74-15.89 23.78-17.18 15.03-1.28 35.91 26.39 42.04 29.23s22.15 3.16 22.15 3.16-5.01 0.43-13.82-13.97c-8.8-14.39-18.49-19.46-6.79-20.46 11.69-0.99 15.01 18.08 36.37 12.05s16.99-26.37 71.46-24.61c51.67 1.67 90.28-3.5 92.18 29.15 1.8 30.99 6.54 46.15-22.32 54.08-22.19 6.1-57.96-18.61-57.96-18.61" fill="#e9c6af"/><path d="m2869.1 716.32c48.49 1.33 29.29-57.31 23.85-61.89-5.44-4.59 26.6-4.04 26.6-4.04s16.96 22.73 6.79 51.36c-10.18 28.64-35.14 32.03-35.14 32.03l-22.3-9.87 0.2-7.59" fill="#a86b48"/><path d="m2917.4 728.13c0.39-7.46-11.47-14.14-26.48-14.91-15.01-0.78-27.49 4.63-27.88 12.09s11.47 14.14 26.48 14.91c15.01 0.78 27.49-4.63 27.88-12.09" fill="#2e5b9a"/><path d="m2913.1 731.28c0.35-6.66-10.24-12.63-23.65-13.33-13.42-0.69-24.57 4.15-24.91 10.81-0.35 6.66 10.24 12.63 23.65 13.33 13.42 0.69 24.57-4.15 24.91-10.81" fill="#3e6bab"/><path d="m2904.4 733.21c0.25-4.8-7.37-9.09-17.03-9.59-9.65-0.51-17.68 2.98-17.93 7.77-0.25 4.8 7.38 9.1 17.03 9.6 9.66 0.5 17.69-2.99 17.93-7.78" fill="#f0ceb4"/><path d="m2490.9 711.91c35.81 19.89 79.57 13.26 95.48-6.63s18.56-33.15-17.24-33.15-107.41-2.65-119.34-1.33c-11.94 1.33 41.1 41.11 41.1 41.11" fill="#e9c6af"/><path d="m2537.5 718.83c38.45 9.28 64.72-13.1 96.8-34.48 27.84-18.56 33.44-36.61 2.65-21.21-45.09 22.54-71.61 25.19-71.61 25.19l-27.84 30.5" fill="#e9c6af"/><path d="m2494.5 701.41c-19.42 0-36.37 6.2-50.08 5.05-13.71-1.14-57.12-45.69-50.27-49.12 0.49-0.24 1.03-0.47 1.6-0.68 10.31-3.79 21.94 0.41 27.75 9.73 6.14 9.86 16.14 21.33 27.77 17.23 19.42-6.86 39.8-6.2 39.8-6.2l3.43 23.99" fill="#e0ae8e"/><path d="m2497.6 664.17c-19.89 7.96 11.94 74.26 22.55 74.26s50.39-31.82 50.39-31.82-9.36-5.28-41.11 5.3c-7.96 2.65-14.59-42.43-23.87-47.74-9.28-5.3-7.96 0-7.96 0" fill="#e0ae8e"/><path d="m2881.2 1251 9.32-49.7-27.24-58.96-29.6 62.5 47.52 46.16" fill="#247afd"/><path d="m2920.5 1371.7c6.31 0.5 15.23-16.14 35.62-36.11 1.9-1.86 15.01-14.1 14.68-9.28-4.38 65.67 25.41 91.82 5.43 155.37-14.74 46.86-44.47 37.43-44.47 37.43s-27.04 36.49-87.3 20.64c-40.38-10.61-73.93-33.31-114.13-51.97s69.61-97.3 117.9-52.23c48.29 45.06 35.48-36.92 45.22-41.29 9.74-4.38 4.3-0.03 15.54-38.69"/><path d="m2957.4 1383.3c-1.92-19.07-12.61-33.13-23.89-31.42-11.27 1.72-14.3 16.37-16.94 37.64-2.38 19.17 12.61 33.13 23.88 31.41 11.28-1.72 18.86-18.57 16.95-37.63" fill="#e9c6af"/><path d="m2987.3 1269.9 49.4-46.01s-95.04-89.5-103.27-88.5-22.19 76-22.19 76l76.06 58.51" fill="#247afd"/><path d="m2912.7 1212.5c-9.11-4.28-6.18-17.29-10.05-21.81s-6.17-5.74-9.28 0.56c-3.12 6.3-2.61 20.53-5.03 21.25s-20.75-56.61-20.75-56.61 13.47 36.66 16.54 32.66 0.63-7.72 11.78-8.39c11.16-0.66 25.34 4.04 25.34 4.04l-8.55 28.3" fill="#0256d7"/><path d="m2199.3 645.6h308.56l-131.03 288.27c-3.83 8.41-12.21 13.81-21.45 13.81h-279.1c-6.69 0-11.14-6.92-8.37-13.01l131.39-289.07" fill="#a8ceff"/><path d="m2046.3 947.68h284.77c9.24 0 17.63-5.4 21.45-13.81l131.03-288.27h-314.23l-131.39 289.07c-2.77 6.09 1.68 13.01 8.37 13.01" fill="#75a1de"/><path d="m2194.7 779.85c10.8-22.38 28.33-36.29 39.14-31.07 10.82 5.22 10.84 27.6 0.04 49.98-10.81 22.38-28.33 36.29-39.15 31.07s-10.83-27.59-0.03-49.98" fill="#6695d6"/></g><g><path d="m1092.3 1160.5c-4.8 0-9.52 0.24-14.15 0.47-3.83 0.2-7.79 0.4-11.61 0.45-1.35 0.02-2.42 1.13-2.4 2.47 0.02 1.33 1.1 2.4 2.43 2.4 3.94-0.05 7.95-0.25 11.83-0.45 28.97-1.47 58.93-2.99 88.12 53.14 12.67 24.37 26.46 71.74 23.63 125.07-2.32 43.67-17.12 105.8-74.47 153.74-1.03 0.87-1.17 2.4-0.3 3.44 0.86 1.03 2.39 1.17 3.43 0.3 58.69-49.07 73.84-112.59 76.21-157.23 2.88-54.3-11.22-102.66-24.18-127.57-25.76-49.53-53.17-56.23-78.54-56.23"/><path d="m1083.2 1172c-1.13 0-2.26 0.02-3.4 0.08-1.34 0.07-2.38 1.21-2.31 2.55 0.06 1.35 1.19 2.38 2.55 2.32 1.05-0.05 2.1-0.08 3.15-0.08 30.23 0 58.15 21.41 77.01 59.24 31.01 62.2 34.02 164.24-21.48 230.84-0.87 1.04-0.73 2.57 0.31 3.44 1.03 0.86 2.57 0.72 3.43-0.32 56.83-68.19 53.8-172.56 22.1-236.14-19.72-39.55-49.22-61.93-81.36-61.93"/><path d="m974.79 1482.8c87.481 67.9 169.65 31.91 199.08-60 27.49-85.85-7.74-270.31-138.25-238.17-135.01 33.26-146.26 74.59-145.24 134.66 0.819 48 21.29 114.52 84.405 163.51"/></g><g><path d="m929.33 1210.6-125.05-46.66s35-254 38-351-46-181.15-46-181.15h327s45 264.15 36 357.15-71 189.35-74 191.67c-3 2.33-78 19.33-78 19.33l-77.944 10.66" fill="#7aaefd"/><path d="m1149.3 897.89s12.6-118 17.8-124 197.2-99.99 197.2-99.99l-279-19.01 64 243" fill="#0256d7"/><path d="m1083.2 1172c31-0.67 39.42-51.36 46.71-89.02 7.29-37.65-46.71 89.02-46.71 89.02" fill="#0256d7"/><path d="m1032.3 979.89c-17 61-108.34 230.86-108.34 230.86l-119.66-46.86s27.431-199.07 35.805-312.04l45.453-220.11h146.74s17 287.15 0 348.15" fill="#247afd"/><path d="m863.4 738.92 134.88 30.97-11.008-115z" fill="#0256d7"/><path d="m930.84 706.89c-22 29.78-43.519 62.56-22.561 131 20.956 68.44 22.999 93 15.658 155s-40.659 161-105.66 164c0 0-2.144-21.68-5.609-56.29 10.557-81.75 27.558-221.41 29.608-287.71 3-97-46-181.15-46-181.15l266-5.85s-109.43 51.21-131.43 81" fill="#0256d7"/><path d="m1159.3 988.89c-9 93-71 189.35-74 191.67-1.85 1.44-31.2 8.48-53.35 13.65 6.51-15.37 75.21-179.09 72.35-246.53-3-70.79 0.09-315.94 0.09-315.94h18.91s45 264.15 36 357.15" fill="#247afd"/><path d="m3543.6 615.95h-3150.5c-8.457 0-15.313 6.85-15.313 15.31v0.96c0 8.45 6.856 15.31 15.313 15.31h3150.5c8.45 0 15.31-6.86 15.31-15.31v-0.96c0-8.46-6.86-15.31-15.31-15.31" fill="#2e5b9a"/><path d="m2382.8 2024h-341.46c-8.75 0-15.91 7.16-15.91 15.91v121.99c0 8.76 7.16 15.92 15.91 15.92h341.46c8.75 0 15.91-7.16 15.91-15.92v-121.99c0-8.75-7.16-15.91-15.91-15.91" fill="#9ec8ff"/><path d="m2070.5 2047.2v-84.86l97.79 97.79s-95.8-12.93-97.79-12.93" fill="#9ec8ff"/><path d="m2365.9 2039.2h-307.68c-7.42 0-13.49 6.07-13.49 13.49v96.34c0 7.42 6.07 13.49 13.49 13.49h307.68c7.42 0 13.49-6.07 13.49-13.49v-96.34c0-7.42-6.07-13.49-13.49-13.49" fill="#fff"/></g><g fill="#9ec8ff"><path d="m2227 2132.1h-151.17c-3.65 0-6.63 2.98-6.63 6.63s2.98 6.63 6.63 6.63h151.17c3.65 0 6.63-2.98 6.63-6.63s-2.98-6.63-6.63-6.63"/><path d="m2353.3 2106.7h-280.38c-2.03 0-3.69 1.66-3.69 3.68v0.08c0 2.03 1.66 3.69 3.69 3.69h280.38c2.02 0 3.68-1.66 3.68-3.69v-0.08c0-2.02-1.66-3.68-3.68-3.68"/><path d="m2353.3 2092.3h-280.38c-2.03 0-3.69 1.66-3.69 3.68v0.08c0 2.03 1.66 3.69 3.69 3.69h280.38c2.02 0 3.68-1.66 3.68-3.69v-0.08c0-2.02-1.66-3.68-3.68-3.68"/><path d="m2295.3 2044.5h-9.19c-1.94 0-3.51 1.57-3.51 3.51v7.56c0 1.94 1.57 3.52 3.51 3.52h9.19c1.93 0 3.51-1.58 3.51-3.52v-7.56c0-1.94-1.58-3.51-3.51-3.51"/><path d="m2324.8 2044.5h-9.18c-1.94 0-3.51 1.57-3.51 3.51v7.56c0 1.94 1.57 3.52 3.51 3.52h9.18c1.94 0 3.51-1.58 3.51-3.52v-7.56c0-1.94-1.57-3.51-3.51-3.51"/><path d="m2354.3 2044.5h-9.18c-1.94 0-3.51 1.57-3.51 3.51v7.56c0 1.94 1.57 3.52 3.51 3.52h9.18c1.94 0 3.51-1.58 3.51-3.52v-7.56c0-1.94-1.57-3.51-3.51-3.51"/></g><g><path d="m1596.4 645.6h-577.68c0 20.48 16.6 37.07 37.07 37.07h540.61v-37.07" fill="#a8ceff"/><path d="m1597 645.6h-308.55l131.03 288.27c3.82 8.41 12.21 13.81 21.45 13.81h279.09c6.69 0 11.15-6.92 8.38-13.01l-131.4-289.07" fill="#a8ceff"/><path d="m1720.1 947.68h-254.76c-9.24 0-17.63-5.4-21.45-13.81l-131.03-288.27h284.22l131.4 289.07c2.77 6.09-1.69 13.01-8.38 13.01" fill="#75a1de"/><path d="m1573.9 787.19c-10.8-22.38-28.33-36.3-39.15-31.08-10.81 5.22-10.83 27.6-0.03 49.98s28.33 36.3 39.15 31.08 10.83-27.6 0.03-49.98" fill="#6695d6"/><path d="m984.51 1367.8s-26.214-133.83-55.187-157.28 66.679-136.55 99.794-107.57c33.11 28.97 2.3 92.39 2.3 92.39s-17.93 11.04 12.42 81.4c30.35 70.37-51.359 122.79-51.359 122.79l-7.968-31.73" fill="#e9c6af"/><path d="m992.48 1399.6-7.968-31.73s10.797 1.9712 4.7206-22.589c11.327-52.85 21.238-87.229 40.178-109.08 0 0 2.7532 11.321 15.623 41.151 30.35 70.37-52.554 122.25-52.554 122.25" fill="#e0ae8e"/><path d="m1150.3 1316.9c-17.61-48.58-60.66-87.58-88-78.58-44.65 14.7-70.857 48.985-69.479 126.76 9.039 90.87 78.969 101.29 120.03 89.68 41.07-11.61 56.95-84.1 37.45-137.86" fill="#e9c6af"/><path d="m923.93 1210.8-42.239-16.54 66.58-85.32-19-34s68.568-51.48 89.406-151.23c20.84-99.75 18.57-184.74 18.57-184.74s5.12 202.3-4.98 240.97c-19.58 75-108.34 230.86-108.34 230.86" fill="#0256d7"/><path d="m1031.9 1194.2s52.7-135.32 61.06-173.4 10.06-224.17 10.06-224.17 24.23 162.25 17.23 210.25-17 91.37-17 91.37l-32 23.63s-6.05 64.35-9.45 65.18c-3.4 0.84-29.9 7.14-29.9 7.14" fill="#0256d7"/><path d="m1001.2 698.07c102.52 31.07 90.09 46.6 127.37 29 37.28-17.61 84-29.56 62.14-35.21-21.87-5.65-54.89 12.43-54.89 12.43s5.18-27.96-13.46-36.25c-18.64-8.28-101.41-11.3-147.53 1.6-46.122 12.9 26.371 28.43 26.371 28.43" fill="#e9c6af"/><path d="m998.27 702.89h20.406l-10.2-57.97s-40.206 5.97-37.206 9.97 27 48 27 48" fill="#7aaefd"/><path d="m804.27 1163.9c-40-70-52.69-108.18-85.293-239.18-32.602-131-45.707-190.61-9.707-207.82 29.791-14.25 246.69-79.3 273-71.29 12-0.68 30.416 61.29 30.416 61.29l-197.42 88s57.138 136.4 67 226-34 143-56 143h-22" fill="#247afd"/><path d="m1011.6 1359c-9.66-30.32-5.51-36.51-18.884-39.34-13.371-2.84-25.583 10.44-29.535 29.07-3.952 18.64 3.683 36.05 17.055 38.89 13.371 2.83 37.144-10.47 31.364-28.62" fill="#e9c6af"/><path d="m1168.7 1414.2c-52.32-93-156.27-79.34-219.44-47.34-51.496 26.08 146.92 124.9 146.92 124.9l72.52-77.56"/><path d="m998.27 1491.8c-19.395 58.5-98.866 44.67-134.88-33.16-36.01-77.83 19.093-129.88 52.485-110.81s82.392 143.97 82.392 143.97"/><path d="m1478.3 1724.8c-64.66 21.16-128.92 42.05-192.19 61.28 2.75 15.84 6.45 31.35 11.06 46.47l-63.42 49.69c8.54 22.8 18.82 44.75 30.67 65.7l78.85-16.62c1.12 1.72 2.26 3.43 3.4 5.13 43.81-30.57 101.63-62.5 175.3-95.57-26.19-31.73-42.37-72.03-43.67-116.08" fill="#cee3ff"/><path d="m1521.9 1840.9c-73.67 33.07-131.49 65-175.3 95.57 13.57 20.13 28.97 38.92 45.97 56.14l-33.05 73.45c18.01 16.11 37.28 30.84 57.65 44.02l62.07-51.33c22.75 12.79 46.91 23.35 72.2 31.4l4.87 80.4c23.2 5.81 47.09 9.86 71.52 12.04l31.11-74.3c3.56 0.1 7.13 0.15 10.72 0.15 23.12 0 45.76-2.02 67.77-5.88l41.68 68.94c23.74-5.72 46.77-13.25 68.93-22.46l-6.98-80.28c23.72-11.64 46.07-25.63 66.78-41.66l68.92 41.66c18.18-15.99 35.11-33.36 50.62-51.96l-42.64-66.51h-308.62v-39.83c-2.14 0.07-4.3 0.11-6.46 0.11-59.48 0-112.63-27.12-147.76-69.67" fill="#c2ddff"/><path d="m1669.7 1253.6c-23.9 0-47.38 1.81-70.31 5.28l-12.42 79.59c-26.02 5.64-51.07 13.86-74.86 24.4l-56.96-56.94c-21.55 11.21-42.11 24.06-61.52 38.39l25.99 76.26c-20.14 16.89-38.54 35.77-54.9 56.35l-76.92-23.96c-13.8 19.77-26.11 40.66-36.75 62.51l58.44 55.44c-9.89 24.05-17.45 49.3-22.39 75.48l-79.22 14.52c-2.37 19.04-3.61 38.43-3.61 58.11 0 4.8 0.1 9.58 0.24 14.35l77.49 21.92c0.96 10.39 2.33 20.65 4.08 30.78 63.27-19.23 127.53-40.12 192.19-61.28-0.06-1.91-0.09-3.84-0.09-5.77 0-105.77 85.75-191.51 191.52-191.51 2.16 0 4.32 0.03 6.46 0.1v-81.72h370.4c-11.74-16.18-24.5-31.57-38.18-46.09l-72.56 34.99c-19.14-17.93-40.08-33.95-62.54-47.75l14.52-79.25c-21.24-11.29-43.45-20.99-66.48-28.92l-48.01 64.72c-24.95-6.87-50.91-11.32-77.61-13.08l-23.97-76.89c-0.68 0-1.35-0.03-2.03-0.03" fill="#c2ddff"/><path d="m1398.5 1510.3c-1.53 0-3.04 0.69-4.02 2.01-10.9 14.66-20.7 30.29-29.13 46.44-1.27 2.45-0.33 5.47 2.12 6.75s5.47 0.33 6.75-2.12c8.19-15.69 17.7-30.86 28.29-45.1 1.64-2.22 1.18-5.35-1.03-7-0.9-0.66-1.94-0.98-2.98-0.98" fill="#fff"/><path d="m1628.1 1375.2c-0.22 0-0.44 0.01-0.66 0.04-59.98 7.86-117.14 31.53-165.29 68.44-2.19 1.68-2.6 4.82-0.92 7.01s4.82 2.6 7.01 0.92c46.75-35.84 102.26-58.82 160.5-66.45 2.74-0.36 4.67-2.87 4.31-5.61-0.33-2.52-2.48-4.35-4.95-4.35" fill="#fff"/><path d="m1676.2 1445.9h909.11v504.37h-909.11z" fill="#9ec8ff"/><path d="m1686.2 1479.9h873.11v459.37h-873.11z" fill="#fff"/></g><g fill="#cee3ff"><path d="m2528 1515.9h-138.01c1.1 0 2 0.9 2 2v2h134.01v65.14h2c1.1 0 2 0.9 2 2v-69.14c0-1.1-0.9-2-2-2m-138.01 0h-138.01c1.11 0 2 0.9 2 2v2h134.01v-2c0-1.1 0.9-2 2-2m-138.01 0h-138c1.1 0 2 0.9 2 2v2h134v-2c0-1.1 0.9-2 2-2m-138 0h-138.01c1.11 0 2 0.9 2 2v2h134.01v-2c0-1.1 0.89-2 2-2m-138.01 0h-138c1.1 0 2 0.9 2 2v2h134v-2c0-1.1 0.9-2 2-2m-138 0h-138.01c-1.1 0-2 0.9-2 2v414.83c0 1.11 0.9 2 2 2h828.04c1.1 0 2-0.89 2-2v-69.14c0 1.11-0.9 2.01-2 2.01h-2v65.13h-134.01v2c0 1.11-0.9 2-2 2s-2-0.89-2-2v-2h-134.01v2c0 1.11-0.89 2-2 2-1.1 0-2-0.89-2-2v-2h-134v2c0 1.11-0.9 2-2 2-1.11 0-2-0.89-2-2v-2h-134.01v2c0 1.11-0.89 2-2 2-1.1 0-2-0.89-2-2v-2h-134v2c0 1.11-0.9 2-2 2-1.11 0-2-0.89-2-2v-2h-134.01v-65.13h-2c-1.1 0-2-0.9-2-2.01 0-1.1 0.9-2 2-2h2v-65.13h-2c-1.1 0-2-0.9-2-2.01 0-1.1 0.9-2 2-2h2v-65.13h-2c-1.1 0-2-0.9-2-2 0-1.11 0.9-2 2-2h2v-65.14h-2c-1.1 0-2-0.9-2-2 0-1.11 0.9-2 2-2h2v-65.14h-2c-1.1 0-2-0.9-2-2s0.9-2 2-2h2v-65.14h134.01v-2c0-1.1 0.89-2 2-2m692.03 71.14c0 1.1-0.9 2-2 2h-2v65.14h2c1.1 0 2 0.89 2 2v-69.14m0 69.14c0 1.1-0.9 2-2 2h-2v65.14h2c1.1 0 2 0.89 2 2v-69.14m0 69.14c0 1.1-0.9 2-2 2h-2v65.13h2c1.1 0 2 0.9 2 2v-69.13m0 69.13c0 1.11-0.9 2.01-2 2.01h-2v65.13h2c1.1 0 2 0.9 2 2v-69.14"/><path d="m2528 1585.1h-136.01v4h136.01c1.1 0 2-0.9 2-2s-0.9-2-2-2m-140.01 0h-134.01v4h134.01v-4m-138.01 0h-134v4h134v-4m-138 0h-134.01v4h134.01v-4m-138.01 0h-134v4h134v-4m-138 0h-136.01c-1.1 0-2 0.9-2 2s0.9 2 2 2h136.01v-4"/><path d="m2528 1654.2h-136.01v4h136.01c1.1 0 2-0.9 2-2 0-1.11-0.9-2-2-2m-140.01 0h-134.01v4h134.01v-4m-138.01 0h-134v4h134v-4m-138 0h-134.01v4h134.01v-4m-138.01 0h-134v4h134v-4m-138 0h-136.01c-1.1 0-2 0.89-2 2 0 1.1 0.9 2 2 2h136.01v-4"/><path d="m2528 1723.4h-136.01v4h136.01c1.1 0 2-0.9 2-2 0-1.11-0.9-2-2-2m-140.01 0h-134.01v4h134.01v-4m-138.01 0h-134v4h134v-4m-138 0h-134.01v4h134.01v-4m-138.01 0h-134v4h134v-4m-138 0h-136.01c-1.1 0-2 0.89-2 2 0 1.1 0.9 2 2 2h136.01v-4"/><path d="m2528 1792.5h-136.01v4.01h136.01c1.1 0 2-0.9 2-2.01 0-1.1-0.9-2-2-2m-140.01 0h-134.01v4.01h134.01v-4.01m-138.01 0h-134v4.01h134v-4.01m-138 0h-134.01v4.01h134.01v-4.01m-138.01 0h-134v4.01h134v-4.01m-138 0h-136.01c-1.1 0-2 0.9-2 2 0 1.11 0.9 2.01 2 2.01h136.01v-4.01"/><path d="m2528 1861.6h-136.01v4.01h136.01c1.1 0 2-0.9 2-2.01 0-1.1-0.9-2-2-2m-140.01 0h-134.01v4.01h134.01v-4.01m-138.01 0h-134v4.01h134v-4.01m-138 0h-134.01v4.01h134.01v-4.01m-138.01 0h-134v4.01h134v-4.01m-138 0h-136.01c-1.1 0-2 0.9-2 2 0 1.11 0.9 2.01 2 2.01h136.01v-4.01"/><path d="m2390 1515.9c-1.1 0-2 0.9-2 2v414.83c0 1.11 0.9 2 2 2s2-0.89 2-2v-414.83c0-1.1-0.9-2-2-2"/><path d="m2252 1515.9c-1.1 0-2 0.9-2 2v414.83c0 1.11 0.9 2 2 2 1.11 0 2-0.89 2-2v-414.83c0-1.1-0.89-2-2-2"/><path d="m2114 1515.9c-1.11 0-2 0.9-2 2v414.83c0 1.11 0.89 2 2 2 1.1 0 2-0.89 2-2v-414.83c0-1.1-0.9-2-2-2"/><path d="m1976 1515.9c-1.1 0-2 0.9-2 2v414.83c0 1.11 0.9 2 2 2 1.11 0 2-0.89 2-2v-414.83c0-1.1-0.89-2-2-2"/><path d="m1838 1515.9c-1.11 0-2 0.9-2 2v414.83c0 1.11 0.89 2 2 2 1.1 0 2-0.89 2-2v-414.83c0-1.1-0.9-2-2-2"/></g><g><path d="m1700 1513.9c-1.46 0-2.87 0.81-3.58 2.21-0.98 1.98-0.19 4.38 1.79 5.37l137.46 68.86 70.89 68.22 65.84 137.62c0.23 0.48 0.55 0.91 0.95 1.26l74.84 66.69c0.95 0.84 2.24 1.18 3.47 0.92 1.24-0.25 2.29-1.08 2.82-2.22l63.1-135.69 74.97-133.2 56.46 64.86c0.73 0.84 1.77 1.34 2.88 1.38 1.14 0.05 2.19-0.39 2.97-1.18l64.24-64.54 67.14 201.26c0.19 0.59 0.52 1.12 0.96 1.56l138 138.28c1.57 1.56 4.1 1.57 5.66 0 1.57-1.56 1.57-4.09 0.01-5.65l-137.34-137.61-68.9-206.53c-0.43-1.31-1.52-2.31-2.88-2.62-1.34-0.32-2.77 0.08-3.75 1.07l-65.78 66.09-57.36-65.9c-0.85-0.98-2.13-1.48-3.42-1.35s-2.44 0.89-3.08 2.02l-77.83 138.27c-0.05 0.1-0.09 0.19-0.14 0.28l-60.89 130.94-70.23-62.57-65.8-137.55c-0.21-0.43-0.49-0.82-0.84-1.15l-71.85-69.14c-0.29-0.28-0.62-0.52-0.98-0.7l-138.01-69.13c-0.57-0.29-1.18-0.43-1.79-0.43" fill="#003c89"/><path d="m1700 1513.9c-1.01 0-2.01 0.38-2.79 1.14-1.58 1.54-1.62 4.07-0.07 5.66l202.36 207.41c1.52 1.56 4.01 1.61 5.6 0.12l70.82-66.48 135.27 135.53c1.54 1.55 4.03 1.57 5.6 0.06l68.94-66.36 63.4 66.24c0.75 0.78 1.78 1.22 2.85 1.24 1.05 0.01 2.11-0.42 2.88-1.18l134.07-134.34 135.53 271.58c0.98 1.98 3.39 2.78 5.36 1.79 1.98-0.98 2.78-3.39 1.79-5.36l-138-276.56c-0.58-1.15-1.67-1.95-2.94-2.16s-2.56 0.21-3.47 1.12l-135.12 135.38-63.34-66.18c-0.74-0.77-1.75-1.21-2.81-1.23-1.05-0.03-2.09 0.38-2.86 1.12l-69 66.41-135.23-135.5c-1.52-1.53-3.99-1.57-5.56-0.09l-70.8 66.46-199.62-204.61c-0.78-0.81-1.82-1.21-2.86-1.21" fill="#9ec8ff"/><path d="m1706.5 1694h-246.95v446.41c0 5.45 4.42 9.87 9.87 9.87h292.52c5.45 0 9.87-4.42 9.87-9.87v-381.11c0-36.07-29.24-65.3-65.31-65.3" fill="#9ec8ff"/><path d="m1699.3 1706.7h-236.2v426.56c0 5.17 4.2 9.37 9.38 9.37h279.48c5.17 0 9.37-4.2 9.37-9.37v-364.52c0-34.26-27.77-62.04-62.03-62.04" fill="#fff"/><path d="m1638.6 1796.1v7.86c0 6.2-4.35 11.23-9.7 11.23h-299.08c-5.36 0-9.7-5.03-9.7-11.23v-7.86c0-55.73 39.03-100.9 87.17-100.9h305.58c-48.14 0-74.93 40.09-74.27 100.9" fill="#9ec8ff"/><path d="m1631.2 1788.3v6.37c0 5.01-4.06 9.08-9.08 9.08h-280.06c-5.02 0-9.08-4.07-9.08-9.08v-6.37c0-45.08 36.54-81.63 81.63-81.63h298.22c-45.08 0-81.63 21.82-81.63 81.63" fill="#fff"/></g><g fill="#9ec8ff"><path d="m1517 2096.9c-4.54 0-8.23-3.69-8.23-8.23v-115.73c0-4.53 3.69-8.22 8.23-8.22h213.02c4.53 0 8.22 3.69 8.22 8.22v115.73c0 4.54-3.69 8.23-8.22 8.23zm213.02-136.18h-213.02c-6.74 0-12.23 5.48-12.23 12.22v115.73c0 6.74 5.49 12.23 12.23 12.23h213.02c6.74 0 12.22-5.49 12.22-12.23v-115.73c0-6.74-5.48-12.22-12.22-12.22"/><path d="m1659.2 1904.6h-234.15c-3.33 0-6.05 2.72-6.05 6.05s2.72 6.05 6.05 6.05h234.15c3.33 0 6.05-2.72 6.05-6.05s-2.72-6.05-6.05-6.05"/><path d="m1659.2 1882.5h-234.15c-3.33 0-6.05 2.72-6.05 6.05s2.72 6.05 6.05 6.05h234.15c3.33 0 6.05-2.72 6.05-6.05s-2.72-6.05-6.05-6.05"/><path d="m1659.2 1861.2h-234.15c-3.33 0-6.05 2.72-6.05 6.05 0 3.32 2.72 6.05 6.05 6.05h234.15c3.33 0 6.05-2.73 6.05-6.05 0-3.33-2.72-6.05-6.05-6.05"/><path d="m1671.9 2070.1h-7.83c-1.65 0-2.99 1.34-2.99 2.99v6.44c0 1.66 1.34 2.99 2.99 2.99h7.83c1.65 0 2.99-1.33 2.99-2.99v-6.44c0-1.65-1.34-2.99-2.99-2.99"/><path d="m1697 2070.1h-7.83c-1.65 0-2.99 1.34-2.99 2.99v6.44c0 1.66 1.34 2.99 2.99 2.99h7.83c1.65 0 2.99-1.33 2.99-2.99v-6.44c0-1.65-1.34-2.99-2.99-2.99"/><path d="m1722.1 2070.1h-7.83c-1.65 0-2.99 1.34-2.99 2.99v6.44c0 1.66 1.34 2.99 2.99 2.99h7.83c1.65 0 2.99-1.33 2.99-2.99v-6.44c0-1.65-1.34-2.99-2.99-2.99"/><path d="m1559.6 1978.8h-31.53v52.06h31.53v-52.06"/><path d="m1646.5 1978.8h-31.52v47.72h31.52v-47.72"/><path d="m1696.8 1978.8h-31.52v69.02h31.52v-69.02"/><path d="m1602.2 1978.8h-31.52v31.53h31.52v-31.53"/><path d="m3413.3 1633.7h112.24c0-61.58-50.66-112.24-112.24-112.24-61.57 0-112.23 50.66-112.23 112.24 0 61.57 50.66 112.23 112.23 112.23v-112.23"/></g><path d="m3544.3 1649.4c0 61.99-50.25 112.24-112.24 112.24v-112.24h112.24" fill="#247afd"/><g fill="#f39892"><path d="m3319.8 1649.4c0-61.99 50.25-112.24 112.24-112.24-61.57 0-112.24 50.67-112.24 112.24"/><path d="m3432.1 1761.6c-61.99 0-112.24-50.25-112.24-112.24 0 61.57 50.67 112.24 112.24 112.24"/><path d="m3432.1 1537.1c61.99 0 112.24 50.25 112.24 112.24 0-61.57-50.67-112.24-112.24-112.24"/></g><path d="m2060.8 1861.2c0 5.49-4.45 9.95-9.95 9.95-5.49 0-9.95-4.46-9.95-9.95 0-5.5 4.46-9.95 9.95-9.95 5.5 0 9.95 4.45 9.95 9.95" fill="#003c89"/><g fill="#247afd"><path d="m1912.8 1725.4c0 5.49-4.45 9.95-9.95 9.95-5.49 0-9.95-4.46-9.95-9.95 0-5.5 4.46-9.95 9.95-9.95 5.5 0 9.95 4.45 9.95 9.95"/><path d="m2123.9 1794.5c0 5.49-4.46 9.95-9.95 9.95-5.5 0-9.95-4.46-9.95-9.95 0-5.5 4.45-9.96 9.95-9.96 5.49 0 9.95 4.46 9.95 9.96"/><path d="m2262 1794.5c0 5.49-4.46 9.95-9.96 9.95-5.49 0-9.95-4.46-9.95-9.95 0-5.5 4.46-9.96 9.95-9.96 5.5 0 9.96 4.46 9.96 9.96"/></g><g><path d="m2400 1794.5c0 5.49-4.45 9.95-9.95 9.95s-9.95-4.46-9.95-9.95c0-5.5 4.45-9.96 9.95-9.96s9.95 4.46 9.95 9.96" fill="#003c89"/><path d="m1439.5 1695.2c0-29.66-24.04-53.71-53.7-53.71s-53.7 24.05-53.7 53.71c0 29.65 24.04 53.7 53.7 53.7s53.7-24.05 53.7-53.7" fill="#9cd499"/><path d="m1380.5 1676.5h-0.11c-0.83 0.03-1.6 0.4-2.14 1.02l-14.59 16.57c-1.09 1.25-0.97 3.14 0.27 4.24 1.24 1.09 3.14 0.97 4.23-0.27l12.5-14.2 28.9 28.28c1.19 1.16 3.09 1.14 4.24-0.04 1.16-1.19 1.14-3.09-0.04-4.25l-31.16-30.49c-0.56-0.55-1.32-0.86-2.1-0.86" fill="#fff"/></g><g fill="#9ec8ff"><path d="m662.78 1823.6h-35.746v195h35.746v-195"/><path d="m814.27 1823.6h-35.747v138.27h35.747v-138.27"/><path d="m890.02 1823.6h-35.746v195h35.746v-195"/><path d="m965.76 1823.6h-35.746v69.13h35.746v-69.13"/><path d="m738.53 1823.6h-35.746v254.37h35.746v-254.37"/><path d="m1041.8 1823.6h-35.75v138.27h35.75v-138.27"/><path d="m2862.2 1897.5h-35.75v103.43h35.75v-103.43"/><path d="m3320.4 1897.5h-35.75v69.79h35.75v-69.79"/><path d="m3013.7 1897.5h-35.74v242.01h35.74v-242.01"/><path d="m3089.5 1897.5h-35.75v108.78h35.75v-108.78"/><path d="m3165.2 1897.5h-35.74v139.57h35.74v-139.57"/><path d="m2938 1897.5h-35.75v171.73h35.75v-171.73"/><path d="m3241.2 1897.5h-35.74v211.51h35.74v-211.51"/></g><g><path d="m641.59 1411.1-128.55 78.62-23.254-148.89c60.392-9.52 120.29 18.78 151.81 70.27" fill="#7aaefd"/><path d="m641.73 1411.3c0.347 0.57 0.8 1.35 0.782 1.32 27.151 45.48 28.247 101.97 3.337 148.33-45.493-23.83-18.402-9.35-132.81-71.21 128.77-78.75 108.77-66.6 128.69-78.44" fill="#003c89"/><path d="m371.72 1541.8 141.32-52.07 132.57 71.68c-62.01 114.67-228.92 100.92-273.88-19.61" fill="#247afd"/><path d="m489.78 1340.8 23.254 148.89-141.32 52.07c-33.604-90.1 26.04-186.45 118.06-200.96" fill="#66a2fd"/><path d="m495.51 1345.1 21.313 136.46 55.466-33.92c22.362-13.68 35.155-21.51 43.209-26.42l19.148-11.71c-30.544-46.32-84.212-71.17-139.14-64.41zm-108.33 71.73c-21.162 36.23-25.605 79.15-12.431 118.53l93.086-34.3 39.632-14.6-21.835-139.8c-41.238 7.95-76.921 33.32-98.452 70.17zm-8.939 127.9c21.306 51.87 68.89 86.25 125.34 90.17 55.774 3.88 107.11-23.42 135.18-71.5l-39.152-21.17c-8.083-4.35-19.383-10.47-38.301-20.7-12.12-6.56-27.371-14.81-46.904-25.37l-1.207-0.66-3.937 2.41-0.215-1.37-61.913 22.81zm255.08 4.03c2.962 1.54 6.355 3.32 10.386 5.43 21.189-42.93 19.803-94.3-3.752-136.02l-0.954 0.56c-5.252 3.11-7.534 4.46-18.001 10.85l-97.943 59.89 81.305 43.96c11.939 6.43 16.833 8.99 28.959 15.33zm15.075-135.94c25.546 44.91 27.001 100.35 3.901 146.53l0.083 0.05-2.379 4.4-0.148 0.26-1.945 3.62-0.075-0.04c-15 26.06-36.389 46.85-62.113 60.25-25.193 13.13-53.832 19-82.835 16.98-60.424-4.19-111.33-41.08-134.02-96.68l-0.083 0.03-1.74-4.67-1.754-4.7 0.083-0.03c-14.206-42.2-9.499-88.22 13.176-127.03 23.055-39.47 61.324-66.59 105.54-75.01l-0.013-0.09 4.926-0.78 4.952-0.78 0.013 0.09c6.396-0.8 12.804-1.2 19.197-1.2 22.484 0 44.754 4.91 65.463 14.55 26.512 12.35 48.785 31.65 64.696 55.97l0.101-0.06 0.979 1.6 1.595 2.62c0.244 0.4 0.537 0.89 0.704 1.18l0.105 0.17 0.077 0.14 1.586 2.59-0.072 0.04" fill="#e7f3fe"/><path d="m422.56 1165.9c0-24.78-20.089-44.87-44.871-44.87-24.781 0-44.871 20.09-44.871 44.87s20.09 44.87 44.871 44.87c24.782 0 44.871-20.09 44.871-44.87" fill="#9ec8ff"/><path d="m410.71 1163.9c0-12.43-10.078-22.51-22.51-22.51s-22.511 10.08-22.511 22.51 10.079 22.51 22.511 22.51 22.51-10.08 22.51-22.51" fill="#fff"/><path d="m3451.7 1166.5h-111.4c-16.3 0-29.63 13.33-29.63 29.62v111.4c0 16.3 13.33 29.63 29.63 29.63h111.4c16.29 0 29.62-13.33 29.62-29.63v-111.4c0-16.29-13.33-29.62-29.62-29.62" fill="#9ec8ff"/><path d="m3392.2 1306c-13.58 0-24.63-11.05-24.63-24.63v-111.4c0-13.58 11.05-24.62 24.63-24.62h111.39c13.58 0 24.63 11.04 24.63 24.62v111.4c0 13.58-11.05 24.63-24.63 24.63zm111.39-170.65h-111.39c-19.1 0-34.63 15.53-34.63 34.62v111.4c0 19.09 15.53 34.63 34.63 34.63h111.39c19.1 0 34.63-15.54 34.63-34.63v-111.4c0-19.09-15.53-34.62-34.63-34.62" fill="#fff"/></g><g fill="#9ec8ff"><path d="m1489.9 1160.2-28.43 32.79c-4.32 4.98-3.78 12.6 1.21 16.92l32.78 28.43c4.99 4.33 12.61 3.78 16.93-1.2l28.43-32.79c4.33-4.99 3.78-12.6-1.2-16.93l-32.79-28.43c-4.99-4.32-12.6-3.78-16.93 1.21"/><path d="m1660.6 1132.8c0-13.87-11.24-25.11-25.11-25.11s-25.11 11.24-25.11 25.11 11.24 25.11 25.11 25.11 25.11-11.24 25.11-25.11"/><path d="m3809.1 1210.6c0-13.82-11.21-25.03-25.03-25.03s-25.03 11.21-25.03 25.03 11.21 25.03 25.03 25.03 25.03-11.21 25.03-25.03"/><path d="m3162 1720.6c0-13.82-11.21-25.02-25.03-25.02s-25.03 11.2-25.03 25.02c0 13.83 11.21 25.03 25.03 25.03s25.03-11.2 25.03-25.03"/><path d="m3638.9 1410.7c0-10.77-8.73-19.5-19.5-19.5s-19.5 8.73-19.5 19.5 8.73 19.5 19.5 19.5 19.5-8.73 19.5-19.5"/><path d="m2942.2 1651.6h-414.56c-4.51 0-8.17 3.66-8.17 8.17v178.39c0 4.52 3.66 8.17 8.17 8.17h414.56c4.51 0 8.17-3.65 8.17-8.17v-178.39c0-4.51-3.66-8.17-8.17-8.17"/></g><g fill="#fff"><path d="m2931.9 1660.7h-394.14c-3.64 0-6.6 2.95-6.6 6.6v121.23c0 3.65 2.96 6.6 6.6 6.6h394.14c3.65 0 6.6-2.95 6.6-6.6v-121.23c0-3.65-2.95-6.6-6.6-6.6"/><path d="m2550.4 1816.8h-9.57c-2.02 0-3.66 1.64-3.66 3.66v7.88c0 2.02 1.64 3.65 3.66 3.65h9.57c2.02 0 3.66-1.63 3.66-3.65v-7.88c0-2.02-1.64-3.66-3.66-3.66"/><path d="m2581.1 1816.8h-9.57c-2.02 0-3.65 1.64-3.65 3.66v7.88c0 2.02 1.63 3.65 3.65 3.65h9.57c2.02 0 3.66-1.63 3.66-3.65v-7.88c0-2.02-1.64-3.66-3.66-3.66"/><path d="m2611.8 1816.8h-9.56c-2.02 0-3.66 1.64-3.66 3.66v7.88c0 2.02 1.64 3.65 3.66 3.65h9.56c2.02 0 3.66-1.63 3.66-3.65v-7.88c0-2.02-1.64-3.66-3.66-3.66"/></g><g fill="#9ec8ff"><path d="m2922 1765.7h-215.47c-3.54 0-6.44 2.9-6.44 6.44 0 3.55 2.9 6.45 6.44 6.45h215.47c3.54 0 6.44-2.9 6.44-6.45 0-3.54-2.9-6.44-6.44-6.44"/><path d="m2759.9 1666.2h-215.46c-3.55 0-6.45 2.9-6.45 6.45 0 3.54 2.9 6.44 6.45 6.44h215.46c3.55 0 6.45-2.9 6.45-6.44 0-3.55-2.9-6.45-6.45-6.45"/><path d="m2799.6 1666.2h-22.29c-1.22 0-2.21 1-2.21 2.21v8.48c0 1.21 0.99 2.2 2.21 2.2h22.29c1.21 0 2.2-0.99 2.2-2.2v-8.48c0-1.21-0.99-2.21-2.2-2.21"/><path d="m2833.2 1666.2h-22.29c-1.22 0-2.21 1-2.21 2.21v8.48c0 1.21 0.99 2.2 2.21 2.2h22.29c1.21 0 2.2-0.99 2.2-2.2v-8.48c0-1.21-0.99-2.21-2.2-2.21"/><path d="m2924 1737.6h-356.8c-2.41 0-4.38 1.97-4.38 4.38 0 2.4 1.97 4.37 4.38 4.37h356.8c2.4 0 4.37-1.97 4.37-4.37 0-2.41-1.97-4.38-4.37-4.38"/><path d="m2924 1718.7h-356.8c-2.41 0-4.38 1.97-4.38 4.37 0 2.41 1.97 4.37 4.38 4.37h356.8c2.4 0 4.37-1.96 4.37-4.37 0-2.4-1.97-4.37-4.37-4.37"/><path d="m437.69 1851.2c0-27.34-22.157-49.49-49.489-49.49s-49.49 22.15-49.49 49.49c0 27.33 22.158 49.49 49.49 49.49s49.489-22.16 49.489-49.49"/><path d="m1078.7 1705.5h-355.64c-3.633 0-6.605 2.97-6.605 6.6 0 3.64 2.972 6.61 6.605 6.61h355.64c3.63 0 6.6-2.97 6.6-6.61 0-3.63-2.97-6.6-6.6-6.6"/><path d="m1078.7 1672.5h-355.64c-3.633 0-6.605 2.97-6.605 6.6 0 3.64 2.972 6.61 6.605 6.61h355.64c3.63 0 6.6-2.97 6.6-6.61 0-3.63-2.97-6.6-6.6-6.6"/></g><path d="m2217.9 986.42-26.25 40.57c-7.66-0.87-15.44-1.34-23.34-1.34-11.58 0-22.93 0.98-33.97 2.84l-28.35-39.12c-13.87 3.6-27.27 8.37-40.08 14.21l2.61 48.23c-16.78 9.48-32.07 21.27-45.45 34.94l-45.91-14.98c-9 10.93-17.07 22.66-24.11 35.05l30.43 37.45c-7.87 17.18-13.42 35.65-16.25 55.01l-45.91 14.85c-0.28 4.88-0.45 9.8-0.45 14.76 0 9.39 0.55 18.66 1.57 27.78l46.62 12.4c3.83 19.13 10.36 37.29 19.16 54.06l-28.42 39.03c7.67 11.99 16.36 23.26 25.93 33.72l45.05-17.38c14.06 12.93 29.95 23.91 47.23 32.49l-0.04 34.9h57.23l9.78-15.11c7.66 0.88 15.44 1.34 23.33 1.34 11.58 0 22.93-0.98 33.98-2.84l12.03 16.61h55.95l-2.16-39.93c16.77-9.47 32.06-21.26 45.44-34.93l45.92 14.98c9-10.94 17.07-22.66 24.11-35.05l-30.44-37.46c7.88-17.18 13.43-35.65 16.25-55l45.91-14.85c0.29-4.89 0.45-9.81 0.45-14.76 0-9.4-0.54-18.66-1.56-27.78l-46.62-12.41c-3.84-19.13-10.37-37.28-19.17-54.06l28.43-39.02c-7.68-11.99-16.37-23.27-25.94-33.73l-45.04 17.38c-14.06-12.93-29.95-23.9-47.24-32.49l0.06-48.31c-13.08-5.13-26.71-9.19-40.77-12.05m-49.59 339.52c-53.6 0-97.05-43.45-97.05-97.05s43.45-97.05 97.05-97.05 97.05 43.45 97.05 97.05-43.45 97.05-97.05 97.05" fill="#c2ddff"/><path d="m2270.3 1445.9h-55.95l16.32 22.51c13.87-3.6 27.26-8.37 40.08-14.2l-0.45-8.31m-135.07 0h-57.23l-0.02 13.41c13.09 5.14 26.72 9.19 40.78 12.05l16.47-25.46" fill="#9ec8ff"/><g fill="#fff"><path d="m2300.7 1116.8c-1.13 0-2.26 0.38-3.2 1.15-2.12 1.77-2.41 4.92-0.64 7.05 24.18 29.08 37.5 65.96 37.5 103.86 0 18.14-2.96 35.96-8.82 52.95-0.9 2.62 0.49 5.46 3.1 6.36s5.46-0.49 6.36-3.1c6.21-18.04 9.36-36.96 9.36-56.21 0-40.23-14.14-79.38-39.81-110.26-0.99-1.19-2.42-1.8-3.85-1.8"/><path d="m2286.6 1345.9c-1.23 0-2.46 0.45-3.43 1.36-16.25 15.3-35.08 26.9-55.95 34.48-2.6 0.94-3.94 3.81-3 6.4 0.94 2.6 3.81 3.94 6.41 3 22.16-8.04 42.14-20.36 59.4-36.6 2.01-1.89 2.1-5.06 0.21-7.07-0.98-1.04-2.31-1.57-3.64-1.57"/><path d="m2130.7 1386.3c-2.24 0-4.27 1.51-4.85 3.78-0.67 2.67 0.95 5.39 3.63 6.07 13.77 3.47 28.02 5.24 42.35 5.24 2.77 0 5-2.24 5-5s-2.23-5-5-5c-13.51 0-26.93-1.66-39.91-4.94-0.41-0.1-0.82-0.15-1.22-0.15"/></g><g fill="none" stroke="#e0ae8e"><path d="m2693 669.33s22.166 33.467 42.159 40.421c19.993 6.9541 24.339 5.2156 24.339 5.2156" stroke-width="2.475"/><path d="m2683.3 686.13s26.295 31.728 46.288 38.682c19.993 6.9541 23.47 4.7809 23.47 4.7809" stroke-width="2.475"/><g stroke-width="2.25"><path d="m1136.6 693.89s-12.224-1.0866-13.636 2.4448"/><path d="m1135.1 684.3s-12.224-1.0866-13.636 2.4448"/><path d="m1131.8 676.42s-12.224-1.0866-13.637 2.4448"/></g></g><path d="m1700 1513.9c-1.01 0-2.01 0.38-2.79 1.14-1.58 1.54-1.62 4.07-0.07 5.66l202.36 207.41c1.52 1.56 4.01 1.61 5.6 0.12l70.82-66.48 135.27 135.53c1.54 1.55 4.03 1.57 5.6 0.06l68.94-66.36 63.4 66.24c0.75 0.78 1.78 1.22 2.85 1.24 1.05 0.01 2.11-0.42 2.88-1.18l134.07-134.34 135.53 271.58c0.98 1.98 3.39 2.78 5.36 1.79 1.98-0.98 2.78-3.39 1.79-5.36l-138-276.56c-0.58-1.15-1.67-1.95-2.94-2.16s-2.56 0.21-3.47 1.12l-135.12 135.38-63.34-66.18c-0.74-0.77-1.75-1.21-2.81-1.23-1.05-0.03-2.09 0.38-2.86 1.12l-69 66.41-135.23-135.5c-1.52-1.53-3.99-1.57-5.56-0.09l-70.8 66.46-199.62-204.61c-0.78-0.81-1.82-1.21-2.86-1.21" fill="#247afd"/></g></svg>
