<?xml version="1.0" encoding="UTF-8"?>
<svg width="3734" height="3710.2" version="1.1" viewBox="0 0 3734 3710.2" xml:space="preserve" xmlns="http://www.w3.org/2000/svg" xmlns:cc="http://creativecommons.org/ns#" xmlns:dc="http://purl.org/dc/elements/1.1/" xmlns:rdf="http://www.w3.org/1999/02/22-rdf-syntax-ns#" xmlns:xlink="http://www.w3.org/1999/xlink"><metadata><rdf:RDF><cc:Work rdf:about=""><dc:format>image/svg+xml</dc:format><dc:type rdf:resource="http://purl.org/dc/dcmitype/StillImage"/></cc:Work></rdf:RDF></metadata><defs><linearGradient id="linearGradient160" x2="1" gradientTransform="matrix(181.9 352.9 352.9 -181.9 3072.3 1025.6)" gradientUnits="userSpaceOnUse"><stop stop-color="#4f52ff" offset="0"/><stop stop-color="#4042e2" offset="1"/></linearGradient><linearGradient id="linearGradient176" x2="1" gradientTransform="matrix(181.9 352.9 352.9 -181.9 2454.1 1019.9)" gradientUnits="userSpaceOnUse"><stop stop-color="#4f52ff" offset="0"/><stop stop-color="#4042e2" offset="1"/></linearGradient><linearGradient id="linearGradient192" x2="1" gradientTransform="matrix(181.9 352.9 352.9 -181.9 1830.2 999.52)" gradientUnits="userSpaceOnUse"><stop stop-color="#4f52ff" offset="0"/><stop stop-color="#4042e2" offset="1"/></linearGradient><linearGradient id="linearGradient208" x2="1" gradientTransform="matrix(181.9 352.9 352.9 -181.9 1212 970.58)" gradientUnits="userSpaceOnUse"><stop stop-color="#4f52ff" offset="0"/><stop stop-color="#4042e2" offset="1"/></linearGradient><linearGradient id="linearGradient256" x2="1" gradientTransform="matrix(660.68 1281.7 1281.7 -660.68 2125.6 236.2)" gradientUnits="userSpaceOnUse"><stop stop-color="#ff928e" offset="0"/><stop stop-color="#fe7062" offset="1"/></linearGradient><linearGradient id="linearGradient272" x2="1" gradientTransform="matrix(660.98 1282.3 1282.3 -660.98 2743.7 255.8)" gradientUnits="userSpaceOnUse"><stop stop-color="#ff928e" offset="0"/><stop stop-color="#fe7062" offset="1"/></linearGradient><linearGradient id="linearGradient352" x2="1" gradientTransform="matrix(166.62 174.02 -174.02 166.62 1629.4 3063.4)" gradientUnits="userSpaceOnUse"><stop stop-color="#09005d" offset="0"/><stop stop-color="#1a0f91" offset="1"/></linearGradient><linearGradient id="linearGradient384" x2="1" gradientTransform="matrix(315.17 231.31 -231.31 315.17 1850.3 3500.2)" gradientUnits="userSpaceOnUse"><stop stop-color="#09005d" offset="0"/><stop stop-color="#1a0f91" offset="1"/></linearGradient><linearGradient id="linearGradient496" x2="1" gradientTransform="matrix(108.93 -360.84 360.84 108.93 741.78 2660.4)" gradientUnits="userSpaceOnUse"><stop stop-color="#e9c6af" offset="0"/><stop stop-color="#e0ae8e" offset="1"/></linearGradient><linearGradient id="linearGradient662" x2="1" gradientTransform="matrix(-1652.2 680.84 -680.84 -1652.2 3652.6 674.19)" gradientUnits="userSpaceOnUse"><stop stop-color="#ffd222" offset="0"/><stop stop-color="#ff9600" offset="1"/></linearGradient><linearGradient id="linearGradient752" x2="1" gradientTransform="matrix(-1239.2 -510.64 -510.64 1239.2 3194.3 2738.4)" gradientUnits="userSpaceOnUse"><stop stop-color="#ffe5e4" offset="0"/><stop stop-color="#ffddd9" offset="1"/></linearGradient><linearGradient id="linearGradient1100" x2="1" gradientTransform="matrix(-1652.2 680.84 -680.84 -1652.2 3652.6 674.19)" gradientUnits="userSpaceOnUse" xlink:href="#linearGradient752"/></defs><g stroke-width="1.3333"><path d="m1923 3710.2c-229.91 0-414.52-32.079-510.16-49.879-370.27-68.918-682.82-117.53-951.36-360.15-512.77-463.27-573.71-1349.3-303.41-2043.1 43.971 103.28 101.74 210.33 176.66 319.67 69.426 101.33 129.57 196.16 181.38 285.06l4.0652 1339.4c0.23467 76.811 62.616 138.69 139.05 138.69 1.0026 0 2.004-0.013 3.0119-0.027l2519.4-53.452c-55.639 46.239-105.72 79.998-147.7 108.04-378.74 252.89-789.18 315.78-1111 315.78m1746.5-1228.1-24.306-1145.4c107.65 370.83 119.48 778.58 24.306 1145.4m-183.37-1539.6c-12.306-2.7733-25.026-4.4132-38.066-4.7999l-173.08-5.1332 3.3466-299.06c42.332 50.545 85.944 108.42 128.42 174.02 28.213 43.586 54.665 88.624 79.371 134.97m-1634.8-52.172-144.72-4.2932h43.332c9.8398-110.88 62.145-117.93 75.305-117.93 1.92 0 3.0133 0.15999 3.0133 0.15999 12.133 2.04 22.293 8.7998 30.772 19.24l-7.7064 102.82m-173.8-5.1599-744.69-22.093c-80.865-167.08-142.42-308.94-189.3-427.64 214.58-188.61 509-373.96 868.42-420.95 18.186-2.3733 31.772-3.7332 43.652-4.9865 29.066-3.0799 96.344-9.4798 189.94-9.4798 251.75 0 694.33 46.266 1099.2 327.99l-1029.9 357.08c-11.52-11.373-24.813-19.173-40.119-22.506-10.093-2.1999-19.68-3.2399-28.813-3.2399-130.54 0-166.02 210.65-168.41 225.82" fill="#e1edff"/><path d="m145.63 213.4c-5.6585-19.72-33.496-20.319-40.287-0.94664-68.96 196.62-195.7 743.94 229.33 1364.2 533.27 778.27 517.83 1171.5 398.54 1468.5 0 0 250.67-240.81 276.86-645.26 64.305-993-763.85-1835.8-864.45-2186.5" fill="#95bffe"/><path d="m371.39 1138.4c-0.64398-1.5599-1.2866-3.1332-1.928-4.6932-40.123-98.544-77.219-198.26-111.11-299.02-33.412-100.9-64.134-202.67-90.884-305.45-0.76398-2.9466 0.99597-5.9332 3.9332-6.7065 0.46133-0.12 0.92398-0.17333 1.38-0.17333 2.3626 0 4.5306 1.5333 5.2559 3.8799 31.237 101.26 64.454 201.86 101.3 301.1 27.022 73.971 55.707 147.3 86.051 219.91 1.336 30.039 3.3172 60.425 6.0038 91.144" fill="#dce6fd"/><path d="m994.97 2457.9c26.226 27.226 71.745 18.8 86.958-15.813 83.945-190.98 272.45-752.39-56.425-1393-277.71-541.03-376.9-860.79-411.86-1009.1-7.3932-31.346-50.516-35.039-63.189-5.4265-139.81 326.77-506.23 1437 444.52 2423.4" fill="#66a2fd"/><path d="m737.25 857.39-32.225-0.95998c-16.952-41.706-34.763-83.091-53.52-124.09-3.3906-7.4131-0.13067-16.173 7.2812-19.573 1.9906-0.90664 4.0759-1.3333 6.1292-1.3333 5.6012 0 10.957 3.1999 13.438 8.6131 20.742 45.346 40.34 91.158 58.896 137.34" fill="#c0d6fc"/><path d="m233.71 3008.6c50.724-511.65 177.66-1782.5 205.37-1968.2 34.83-233.45 320.9-181.93 320.9-181.93l61.252 2362.5h-398.87c-53.605 0-104.73-23.106-140.65-63.625s-53.389-94.384-48.004-148.7" fill="#247afd"/><path d="m659.18 3339.9c-76.437 0-138.82-61.878-139.05-138.69l-4.0652-1339.4-0.38133-125.37-2.2293-734.18c-0.24666-81.331 65.685-147 146.46-147 1.4706 0 2.9573 0.0133 4.4372 0.0667l40.655 1.2 32.225 0.95997 940.26 27.893c-0.08 0.57332-0.1333 0.86664-0.1333 0.86664h29.213l144.72 4.2932-9.7731 130.57-1121-35.746c-0.75865-0.0267-1.5186-0.04-2.2706-0.04-37.332 0-68.228 29.506-69.65 67.078-11.89 313.57-56.179 1604.9 1.7653 2063.8 3.4892 27.653 27.061 48.266 54.844 48.266h0.86265l2934.1-44.972c12.986-0.2 24.946-4.1199 34.946-10.693-23.706 96.771-110 169.48-214.34 171.69l-2798.5 59.372c-1.008 0.013-2.0093 0.027-3.0119 0.027m3018.3-473.63c-52.639-375.62-136.89-1104.9-102.34-1727.7 1.8799-34.012-24.466-62.932-58.519-64.025l-243.3-7.7598 1.5067-134.01 173.08 5.1332c13.04 0.38666 25.759 2.0266 38.066 4.7999 87.371 19.733 152.77 96.878 154.73 189.64l4.3332 204.45 24.306 1145.4 8.1465 384.1" fill="#247afd"/><path d="m3640.1 3119.5c39.852-0.6133 69.958-36.306 63.772-75.691-41.079-261.15-170.04-1159.5-128.66-1905.3 1.8799-34.012-24.466-62.932-58.519-64.025l-2796.2-89.184c-38.339-1.2266-70.469 28.706-71.921 67.038-11.89 313.57-56.179 1604.9 1.7653 2063.8 3.5252 27.946 27.55 48.692 55.707 48.266l2934.1-44.972" fill="#bdd0fb"/><path d="m3569.4 3090.1c38.346-0.5866 67.318-34.932 61.358-72.825-39.519-251.33-163.62-1115.8-123.81-1833.6 1.8133-32.732-23.546-60.558-56.319-61.612l-2690.9-85.838c-36.899-1.1733-67.817 27.639-69.216 64.532-11.444 301.77-54.064 1544.4 1.6986 1986.1 3.3932 26.893 26.514 46.866 53.611 46.439l2823.5-43.279" fill="#91b3fa"/></g><g transform="matrix(1.3333,0,0,-1.3333,-606.32,4325.3)" fill="#e0eafe"><path d="m1705.7 1873.7c-21.61 0-39.27 17.27-39.73 38.89l-3.24 152.81c-0.48 22.37 17.56 40.59 39.69 40.59 0.6 0 1.2-0.02 1.8-0.04l149.24-6.62c20.92-0.93 37.53-17.93 37.98-38.86l3.08-145.35c0.47-22.18-17.32-40.46-39.51-40.58l-149.09-0.84h-0.22"/><path d="m2263.4 1874.9c-21.6 0-39.27 17.27-39.73 38.9l-2.75 129.96c-0.48 22.35 17.53 40.59 39.7 40.59 0.48 0 0.97-0.01 1.45-0.03l149.22-5.36c21.05-0.75 37.86-17.81 38.31-38.87l2.62-123.76c0.47-22.19-17.31-40.46-39.51-40.59l-149.08-0.84h-0.23"/><path d="m2285.4 1004.1c-23.46 0-42.82 18.78-43.32 42.46l-2.92 137.42c-0.51 24.14 18.79 44.06 42.94 44.29l141.82 1.38h0.43c23.56 0 42.85-18.84 43.35-42.45l2.81-132.81c0.5-23.59-17.95-43.25-41.52-44.25l-141.72-6c-0.63-0.02-1.25-0.04-1.87-0.04"/><path d="m2563.3 1015.9c-23.05 0-42.09 18.45-42.58 41.72l-2.75 129.85c-0.51 23.73 18.47 43.3 42.2 43.53l143.3 1.39h0.42c23.16 0 42.12-18.52 42.61-41.72l2.66-125.18c0.49-23.19-17.65-42.51-40.82-43.49l-143.2-6.06c-0.62-0.03-1.23-0.04-1.84-0.04"/><path d="m2554.1 1598.9c-24.85 0-45.3 19.88-45.84 44.9l-2.26 106.59c-0.54 25.72 20.16 46.85 45.86 46.85h0.09l136.84-0.25c24.92-0.04 45.25-19.98 45.78-44.9l2.16-101.87c0.54-25.12-19.25-46-44.36-46.82l-136.74-4.47c-0.51-0.02-1.03-0.03-1.53-0.03"/><path d="m2557.4 1292.4c-23.19-0.01-42.13 18.53-42.63 41.72l-3.45 163.04c-0.5 23.34 17.88 42.74 41.22 43.5l139.95 4.58c0.51 0.02 1.02 0.03 1.53 0.03 24.84 0 45.3-19.88 45.83-44.9l3.49-164.43c0.51-23.89-18.72-43.52-42.61-43.53l-143.33-0.01"/><path d="m1984.6 1873.3c-21.6 0-39.26 17.28-39.72 38.9l-3 141.57c-0.48 22.34 17.54 40.58 39.7 40.58 0.49 0 0.97-0.01 1.46-0.02l149.21-5.36c21.05-0.76 37.86-17.81 38.31-38.88l2.87-135.36c0.47-22.19-17.32-40.46-39.51-40.58l-149.08-0.84c-0.08-0.01-0.16-0.01-0.24-0.01"/><path d="m2279.3 1292.3c-23.6-0.01-42.86 18.86-43.37 42.44l-3.23 152.49c-0.5 23.75 18.2 43.49 41.94 44.27l141.75 4.64c0.48 0.01 0.96 0.02 1.44 0.02 23.49 0 42.83-18.79 43.34-42.45l3.33-157.11c0.51-24.3-19.05-44.28-43.36-44.29l-141.84-0.01"/><path d="m1984.1 1580.3c-17.81 0-32.48 14.25-32.86 32.19l-3.23 152.25c-0.39 18.43 14.45 33.59 32.88 33.59h0.07l162.8-0.3c17.87-0.03 32.45-14.32 32.83-32.19l3.11-146.63c0.38-18.01-13.8-32.98-31.81-33.57l-162.69-5.32c-0.37-0.01-0.73-0.02-1.1-0.02"/><path d="m1713.7 1571.4c-22.39 0-40.83 17.91-41.3 40.47l-3.07 144.68c-0.5 23.17 18.16 42.22 41.33 42.22h0.07l145.91-0.27c22.46-0.04 40.78-18.01 41.26-40.46l2.96-139.65c0.48-22.64-17.34-41.45-39.98-42.19l-145.8-4.77c-0.46-0.02-0.92-0.03-1.38-0.03"/><path d="m2262.7 1589.4c-17.81 0-32.48 14.25-32.86 32.19l-3.03 142.62c-0.39 18.44 14.46 33.59 32.89 33.59h0.06l162.81-0.29c17.87-0.03 32.45-14.33 32.83-32.2l2.9-136.99c0.38-18.02-13.8-32.99-31.81-33.58l-162.69-5.32c-0.36-0.02-0.73-0.02-1.1-0.02"/><path d="m2000.5 1292.3c-23.59-0.01-42.86 18.85-43.36 42.44l-3.04 143.4c-0.5 23.75 18.19 43.49 41.94 44.27l141.74 4.63c0.49 0.02 0.97 0.03 1.45 0.03 23.49 0 42.83-18.79 43.33-42.45l3.14-148.02c0.52-24.3-19.04-44.29-43.35-44.29l-141.85-0.01"/><path d="m1716.8 1292.2c-20.89 0-37.96 16.71-38.4 37.59l-3.06 144.08c-0.44 21.03 16.11 38.51 37.14 39.19l151.67 4.97c0.43 0.01 0.86 0.02 1.29 0.02 20.8 0 37.92-16.64 38.37-37.59l3.16-149.02c0.45-21.52-16.87-39.22-38.4-39.22l-151.77-0.02"/><path d="m2557.2 1878.5c-29.96 0-54.45 23.94-55.09 53.93l-1.98 93.35c-0.58 27.61 21.67 50.14 49.05 50.14 0.59 0 1.19-0.02 1.8-0.04l125.92-4.52c28.58-1.02 51.38-24.17 51.99-52.75l1.65-77.97c0.72-33.62-26.24-61.32-59.87-61.5l-113.16-0.64h-0.31"/><path d="m2841.9 1027.7c-23.06 0-42.09 18.45-42.58 41.72l-2.5 117.48c-0.54 25.54 19.88 46.6 45.42 46.84l49.29 0.48c0.27 0 0.55 0.01 0.82 0.01 37.09 0 67.28-24.63 67.94-55.59l1.91-90.24c0.66-30.93-28.42-56.85-65.55-58.42l-52.92-2.24c-0.61-0.03-1.22-0.04-1.83-0.04"/><path d="m1214.5 958.83c-36.9 0-67.23 24.52-67.89 55.58l-3.08 145.01c-0.67 31.8 30.03 58.12 68.23 58.49l96.94 0.94h0.42c23.59 0 42.89-18.85 43.39-42.48l3.59-169.1c0.5-23.61-17.96-43.29-41.56-44.28l-96.5-4.09c-1.18-0.05-2.36-0.07-3.54-0.07"/><path d="m2839.5 1292.4c-24.96 0-45.34 19.95-45.87 44.9l-3.51 165.74c-0.54 25.12 19.24 46 44.36 46.82l48.43 1.58c0.92 0.03 1.83 0.05 2.74 0.05 36.96 0 67.25-24.55 67.91-55.59l3.07-145c0.68-32.06-30.51-58.49-69.01-58.5h-48.12"/><path d="m2821.8 1607.7c-18.79 0-34.26 15.03-34.66 33.95l-2.54 119.71c-0.41 19.45 15.24 35.43 34.68 35.43h0.06l61.17-0.11c37.09-0.06 67.15-24.7 67.81-55.58l1.54-72.95c0.66-31.19-28.89-57.23-66.33-58.45l-60.58-1.98c-0.38-0.02-0.77-0.02-1.15-0.02"/><path d="m1195.2 1870.8c-37.12 0-67.29 24.64-67.95 55.59l-2.96 139.71c-0.68 32.19 30.69 58.49 68.96 58.49 1 0 2.01-0.02 3.02-0.05l97.21-3.49c21.9-0.79 39.38-18.53 39.84-40.44l3.55-167.02c0.49-23.08-18.02-42.09-41.1-42.22l-100.1-0.57h-0.47"/><path d="m2006.8 992.33c-23.46 0-42.82 18.77-43.33 42.45l-3.11 146.52c-0.51 24.14 18.8 44.05 42.95 44.29l141.81 1.37h0.43c23.56 0 42.85-18.84 43.35-42.45l3.01-141.89c0.5-23.59-17.95-43.25-41.53-44.25l-141.71-6c-0.63-0.03-1.25-0.04-1.87-0.04"/><path d="m1201.9 1554.7c-36.95 0-67.24 24.56-67.9 55.59l-2.78 130.94c-0.68 32.06 30.52 58.49 69.03 58.49h0.15l98.53-0.18c22.46-0.04 40.78-18.01 41.26-40.47l3.37-158.89c0.48-22.64-17.35-41.45-39.98-42.19l-98.93-3.24c-0.92-0.03-1.84-0.05-2.75-0.05"/><path d="m1207.5 1292.2c-37.15-0.01-67.31 24.65-67.96 55.58l-1.92 90.25c-0.66 31.18 28.89 57.22 66.34 58.44l102.84 3.37c0.43 0.01 0.85 0.02 1.28 0.02 20.8 0 37.93-16.64 38.37-37.59l2.78-130.84c0.45-21.52-16.87-39.22-38.39-39.22l-103.34-0.01"/><path d="m1437.9 1292.2c-20.89 0-37.95 16.7-38.4 37.59l-2.86 134.99c-0.45 21.03 16.11 38.51 37.14 39.19l151.67 4.97c0.43 0.01 0.86 0.02 1.28 0.02 20.8 0 37.93-16.64 38.37-37.59l2.97-139.93c0.46-21.52-16.86-39.22-38.39-39.22l-151.78-0.02"/><path d="m1449.6 968.75c-23.48 0-42.86 18.78-43.36 42.48l-3.49 164.62c-0.51 24.16 18.81 44.09 42.97 44.33l141.75 1.37h0.43c23.58 0 42.88-18.85 43.38-42.48l3.4-160c0.5-23.61-17.97-43.29-41.56-44.29l-141.65-5.99c-0.62-0.03-1.25-0.04-1.87-0.04"/><path d="m2816 1879.9c-18.86 0-34.28 15.08-34.68 33.95l-2.48 117.09c-0.41 19.51 15.31 35.43 34.66 35.43 0.42 0 0.84-0.01 1.27-0.02l62.83-2.26c35.96-1.29 64.37-25.56 65-55.53l1.48-69.84c0.68-31.9-30.23-58.27-68.56-58.49l-59.32-0.33h-0.2"/><path d="m1728.2 980.54c-23.48 0-42.86 18.79-43.36 42.48l-3.3 155.54c-0.51 24.16 18.81 44.09 42.97 44.32l139.36 1.35c0.15 0 0.31 0.01 0.46 0.01 24.89 0 45.27-19.91 45.79-44.85l3.15-148.53c0.51-23.61-17.96-43.29-41.56-44.29l-141.64-5.99c-0.63-0.03-1.25-0.04-1.87-0.04"/><path d="m1428.5 1872.1c-22.47 0-40.85 17.97-41.33 40.46l-3.42 161.5c-0.5 23.24 18.24 42.22 41.3 42.22 0.5 0 1.01-0.01 1.51-0.03l146.02-5.25c21.9-0.78 39.38-18.52 39.84-40.43l3.3-155.43c0.49-23.08-18.01-42.08-41.1-42.22l-145.88-0.82h-0.24"/><path d="m1435 1562.3c-22.39 0-40.83 17.91-41.31 40.47l-3.27 154.3c-0.49 23.17 18.16 42.22 41.33 42.22h0.08l145.9-0.26c22.47-0.04 40.79-18.01 41.26-40.47l3.17-149.26c0.48-22.65-17.35-41.46-39.98-42.2l-145.8-4.78c-0.46-0.01-0.92-0.02-1.38-0.02"/><path d="m2622.2 2125.5c-17.54 0-31.94 14.03-32.31 31.65l-0.04 1.71 64.14-14.31c-5.02-11.1-16.06-18.72-28.77-18.99l-2.32-0.05c-0.24 0-0.47-0.01-0.7-0.01"/><path d="m2341.1 2121.6c-17.53 0-31.93 14.03-32.31 31.65l-1.07 50.38c-0.13 6.29 1.53 12.16 4.49 17.15l70.23-15.67c0.12-2.06 0.04-4.16-0.25-6.28l-6.71-49.22c-2.15-15.76-15.45-27.61-31.35-27.95l-2.33-0.05c-0.23 0-0.46-0.01-0.7-0.01"/><path d="m2067.2 2133.9c-17.53 0-31.93 14.03-32.3 31.64l-1.07 50.39c-0.39 18.31 14.42 33.02 32.27 33.02 1.18 0 2.38-0.07 3.59-0.2l10.11-1.12c18.08-1.99 30.96-18.48 28.5-36.5l-6.72-49.22c-2.15-15.76-15.44-27.62-31.35-27.96l-2.32-0.04c-0.24-0.01-0.47-0.01-0.71-0.01"/><path d="m1786 2169.6c-17.54 0-31.94 14.02-32.31 31.64l-1.07 50.38c-0.39 18.31 14.42 33.02 32.27 33.02 1.18 0 2.38-0.06 3.59-0.2l10.11-1.11c18.08-1.99 30.96-18.49 28.5-36.51l-6.72-49.22c-2.15-15.75-15.44-27.61-31.35-27.95l-2.32-0.05h-0.7"/><path d="m1488 2163.3c-17.54 0-31.94 14.02-32.31 31.64l-1.07 50.38c-0.39 18.31 14.41 33.02 32.27 33.02 1.18 0 2.38-0.06 3.59-0.2l10.11-1.11c18.08-1.99 30.96-18.49 28.5-36.51l-6.72-49.22c-2.15-15.76-15.44-27.61-31.35-27.95l-2.32-0.05h-0.7"/><path d="m1236.5 2168.6c-17.54 0-31.94 14.03-32.31 31.65l-1.07 50.38c-0.39 18.31 14.42 33.02 32.27 33.02 1.19 0 2.38-0.07 3.59-0.2l10.11-1.11c18.08-1.99 30.96-18.49 28.5-36.51l-6.72-49.22c-2.15-15.76-15.44-27.61-31.34-27.95l-2.33-0.05c-0.23-0.01-0.47-0.01-0.7-0.01"/></g><g stroke-width="1.3333"><path d="m513.45 3184.5c3.8759 0 7.0292-3.1332 7.0572-7.0131l8.5758-1238.2c0.0253-3.8933-3.1119-7.0798-7.0105-7.1065h-0.0333c-3.8906 0-7.0452 3.1333-7.0732 7.0132l-8.5745 1238.2c-0.0267 3.8933 3.1106 7.0799 7.0092 7.1065h0.0493" fill="#bdd0fb"/><path d="m524 1662c3.8746 0 7.0278-3.1333 7.0558-7.0132l2.9959-432.46c0.0253-3.8932-3.1119-7.0798-7.0092-7.1065h-0.0507c-3.8746 0-7.0292 3.1333-7.0572 7.0132l-2.9946 432.46c-0.0267 3.8932 3.1106 7.0798 7.0092 7.1065h0.0507" fill="#bdd0fb"/><path d="m3098.8 1223.5c0 41.666 33.786 75.451 75.451 75.451s75.438-33.786 75.438-75.451-33.772-75.438-75.438-75.438-75.451 33.772-75.451 75.438" fill="url(#linearGradient160)"/><path d="m2480.5 1217.6c0 41.666 33.772 75.451 75.438 75.451 41.666 0 75.451-33.786 75.451-75.451 0-41.666-33.786-75.438-75.451-75.438-41.666 0-75.438 33.772-75.438 75.438" fill="url(#linearGradient176)"/><path d="m1856.7 1197.4c0 41.679 33.772 75.451 75.438 75.451s75.452-33.772 75.452-75.451c0-41.666-33.786-75.438-75.452-75.438s-75.438 33.772-75.438 75.438" fill="url(#linearGradient192)"/><path d="m1238.4 1168.3c0 41.666 33.786 75.438 75.451 75.438 41.666 0 75.438-33.772 75.438-75.438 0-41.666-33.772-75.452-75.438-75.452-41.666 0-75.451 33.786-75.451 75.452" fill="url(#linearGradient208)"/><path d="m1256.6 645.53c126.96 27.706 114.98 361.71 104.77 497.32-2.4133 31.906-28.986 56.532-60.985 56.532-8.8797 0-17.346-3.8266-23.279-10.44s-8.7731-15.453-7.8265-24.293c10.96-102.49 34.292-397.64-59.172-413.43 0 0-67.038-11.866-78.318 118h-72.532s37.732-258.51 197.34-223.69" fill="#ffa005"/><path d="m1749.9 886.19h-72.545s0.053-0.29333 0.1333-0.86664c2.3866-15.173 37.866-225.82 168.41-225.82 9.1331 0 18.72 1.04 28.813 3.2399 15.306 3.3332 28.599 11.133 40.119 22.506l-49.439 17.133-6.3998 85.278c-8.4798-10.44-18.64-17.2-30.773-19.24 0 0-1.0933-0.15999-3.0133-0.15999-13.16 0-65.465 7.0532-75.305 117.93" fill="#ffa005"/><path d="m2492.8 679.92c126.96 27.693 114.98 361.91 104.77 497.51-2.4132 31.919-28.986 56.625-60.985 56.625-8.8798 0-17.346-3.7733-23.279-10.386-5.9332-6.6132-8.7731-15.426-7.8265-24.266 10.96-102.49 34.306-398.03-59.158-413.8 0 0-67.025-7.5465-78.305 120.14l-72.558-2.5199s37.732-258.13 197.34-223.3" fill="url(#linearGradient256)"/><path d="m3111.1 699.92c126.96 27.693 114.97 362.08 104.76 497.69-2.3999 31.906-28.973 56.705-60.985 56.705-8.8798 0-17.346-3.7332-23.279-10.346-5.9332-6.5998-8.7732-15.4-7.8265-24.239 10.973-102.49 34.306-398.38-59.158-414.15 0 0-67.038-9.7731-78.318 117.28h-72.532s37.719-257.77 197.34-222.94" fill="url(#linearGradient272)"/></g><g transform="matrix(1.3333,0,0,-1.3333,-606.32,4325.3)" fill="#ffa005"><path d="m2551.8 1791.4c-10.84 0-20.99-4.26-28.58-12-7.61-7.76-11.68-18.02-11.45-28.88l2.27-106.59c0.23-10.79 4.66-20.81 12.49-28.22 7.82-7.42 18.06-11.32 28.85-10.95l136.74 4.47c21.81 0.72 39.18 19.05 38.72 40.87l-2.16 101.86c-0.46 21.58-18.39 39.16-39.96 39.2l-136.84 0.24zm2.22-198.33c-13.28 0-25.83 4.99-35.52 14.17-10.1 9.58-15.83 22.52-16.13 36.44l-2.26 106.59c-0.3 14.03 4.95 27.28 14.78 37.3 9.81 10 22.91 15.5 36.91 15.5h0.1l136.84-0.25c27.86-0.05 51.01-22.75 51.6-50.6l2.16-101.87c0.6-28.18-21.83-51.86-50-52.78l-136.74-4.47c-0.58-0.02-1.16-0.03-1.74-0.03"/><path d="m1980.9 1792.5c-7.32 0-14.18-2.88-19.31-8.11-5.15-5.24-7.89-12.17-7.74-19.52l3.23-152.24c0.15-7.29 3.15-14.06 8.44-19.07 5.3-5.02 12.2-7.61 19.5-7.4l162.69 5.32c14.74 0.48 26.48 12.87 26.17 27.62l-3.11 146.62c-0.31 14.59-12.43 26.46-27.01 26.49l-162.81 0.29zm3.19-218.02c-9.94 0-19.34 3.74-26.59 10.61-7.57 7.17-11.86 16.87-12.08 27.29l-3.23 152.24c-0.22 10.51 3.71 20.44 11.07 27.94 7.34 7.49 17.16 11.61 27.64 11.61h0.08l162.8-0.29c20.87-0.04 38.21-17.04 38.65-37.91l3.11-146.62c0.45-21.1-16.35-38.84-37.45-39.53l-162.69-5.32c-0.43-0.02-0.87-0.02-1.31-0.02"/><path d="m2259.7 1792c-7.33 0-14.19-2.88-19.32-8.11-5.14-5.25-7.89-12.18-7.73-19.52l3.02-142.62c0.16-7.29 3.16-14.06 8.45-19.07 5.28-5.01 12.2-7.56 19.49-7.4l162.69 5.32c14.74 0.48 26.48 12.87 26.17 27.62l-2.91 137c-0.3 14.58-12.42 26.46-27 26.49l-162.81 0.29zm2.99-208.41c-9.94 0-19.34 3.74-26.6 10.62-7.57 7.17-11.86 16.87-12.08 27.29l-3.03 142.62c-0.22 10.51 3.71 20.43 11.07 27.94 7.35 7.49 17.16 11.61 27.65 11.61h0.07l162.81-0.3c20.87-0.04 38.2-17.04 38.65-37.9l2.9-137c0.45-21.11-16.35-38.84-37.45-39.53l-162.69-5.32c-0.43-0.02-0.87-0.03-1.3-0.03"/></g><g stroke-width="1.3333"><path d="m349.72 2267.6s-170.29 94.331-184.38 253.98c-14.089 159.66-1.172 822.33 340.3 985.42 341.47 163.1 793.46 125.52 966.48 107.69 173.01-17.84 268.94-135.42 290.38-216.38 21.426-80.958 56.039-382.54-125.97-479.83-182.01-97.278-373.18-246.31-564.19-391.43-191.02-145.13-518.39-382.03-722.64-259.45" fill="#455a64"/><path d="m1582.8 2973.6s-45.959 2.4399-51.599 96.998c0 0 106.58 95.531 250.54 118.28 10.813 1.7066-15.106-73.785-19-83.998-18.546-48.652-76.931-79.998-179.94-131.28" fill="url(#linearGradient352)"/><path d="m1065.2 2862.4h96.998s297.67-328.77 492.92-361.94c0 0 135.9 173.49-7.2398 497.64-11.52 26.066-43.719 37.652-67.745 22.306-7.1865-4.5865-12.346-10.733-15.48-18.453l11.506-276.77s-253.91 222.09-298.06 264.94c-44.132 42.866-268.49 16.746-212.9-127.73" fill="#263238"/><path d="m2002.9 3552.6c-40.652-35.612-105.41-75.571-198.89-87.038l-31.626 19.346s20.16 29.733 56.998 61.145c33.839 19.666 86.118 46.292 129.45 52.065 42.132 5.5998 48.346-19.853 44.066-45.519" fill="url(#linearGradient384)"/><path d="m1762.8 3104.8c-25.039 8.0931-36.052 43.572-99.584 20.12-61.478-22.706-107.17-51.972-130.68-68.852-0.5334 4.5732-0.9733 9.3597-1.28 14.453 0 0 112.38 106.88 256.34 129.62 10.813 1.7066 19.373-9.0798 15.48-19.306-6.9999-18.346-19.6-46.172-40.279-76.038" fill="#e9c6af"/><path d="m2033.6 3583.1c-8.0131-9.1064-18.24-19.56-30.613-30.413 4.2799 25.666-1.9333 51.119-44.066 45.519-43.332-5.7732-95.611-32.399-129.45-52.065 42.426 36.186 106.97 74.585 188.45 72.332 18.093-0.5066 27.639-21.786 15.68-35.372" fill="#e9c6af"/><path d="m1068.8 2932.5 454.2 4.9199s259.37 214.59 306.42 541.81c0 0 7.7998 24.066-39.079 28.186 0 0-156.82-102.42-259.07-283.5-125.37-222.03-373.75-122.08-373.75-122.08-81.611-58.852-196.94-70.825-283.82-90.424l195.1-78.918" fill="#263238"/><path d="m1079.5 2566.7s48.892 245.03 288.46 341.98l85.224-10.053 20.106 32.066-199.9 6.3732s-170.86-67.678-261.39-252.09c-2.9866-6.0931-52.839-109.02 67.505-118.28" fill="#e0af8f"/><path d="m1105.8 2928.5s-55.599-151.14-67.545-298.01c0 0 40.666-34.959 66.092-50.039 8.2398-4.8799 11.346-15.213 7.1865-23.839-18.693-38.719-131.73-190.77-140.2-192.88-46.026-11.493-234.79-101.24-367.72 80.598-57.053 78.051 11.322 318.29 270.15 567.08l53.399 10.213 178.64-93.131" fill="#7aaefd"/><path d="m891.51 2663.7s154.48 182.92 351.98 209.65c0 0 51.039-46.532 88.998-29.919 37.959 16.613 89.998 89.944 89.998 89.944h-253.59s-239.78-8.4398-359.59-153.85c9.6398-50.879 38.519-81.265 82.211-115.82" fill="#e9c6af"/><path d="m801.38 2235.5-33.799 112.73c-1.5466 5.1599 0.36 10.76 4.8132 13.8 16.28 11.146 58.812 33.306 117.16 11.773 6.6665-2.4666 11.24-8.6931 11.813-15.786l8.0131-98.211-108-24.306" fill="url(#linearGradient496)"/><path d="m999.24 2144.2s-16.613 116.86-61.505 152.8c-44.892 35.946-132.34 8.8798-161.89-79.211l58.865-150.64 164.53 77.051" fill="#e9c6af"/><path d="m828.04 2164.7c3.4132 1.0933 6.9998-1.0934 7.5331-4.6399 1.6133-10.786 5.6532-32.133 13.853-46.679 0 0-4.2932-15.333 38.746 7.8265 43.026 23.173 107.66 57.185 145.7 36.932 37.106-19.76 74.678-119.16-23.359-100.74-3.7333 0.6933-7.1598-2.2666-6.8799-6.0532 1.2-16.346-0.4266-53.932-38.479-65.998-35.626-11.28-16.506 7.0132-24.533 16.72-2.3733 2.8533 2.9866-9.7197-47.639-2.3599-17.36 2.5199-39.639-43.586-82.305-24.786-35.132 15.48-40.599 37.132-40.012 50.612 0.18666 4.3732-4.2532 7.3331-8.2265 5.5065-10.76-4.9599-28.066-7.5331-44.647 13.24-22.922 28.719 9.8344 53.625 19.661 60.158 1.6133 1.0666 2.6133 2.8399 2.6266 4.7732 0.0933 14.933 2.4133 80.091 35.066 116.84 2.8266 3.1866 8.0531 2.2533 9.7064-1.68l25.133-59.905c1.1733-2.7733 4.2799-4.1999 7.1465-3.28l10.906 3.52"/><path d="m828.58 2176.8s-15.346-62.532-38.666-42.226c-23.333 20.293 6.0665 64.985 32.786 73.505l5.8798-31.279" fill="#e9c6af"/><path d="m1409.6 2947.6 113.85-379.72c4.6532-15.48 18.413-26.479 34.546-27.586l153.73-10.506c15.626-1.08 27.253 14.186 22.053 28.973l-127.28 362.62c-4.1065 11.68-14.586 19.946-26.906 21.186l-151.38 16.813-18.613-11.773" fill="#75a1de"/><path d="m1619.6 2696.5c-8.4931 17.16-23.173 27.213-32.786 22.453s-10.506-22.533-1.9999-39.692c8.4931-17.16 23.173-27.213 32.786-22.453s10.506 22.533 1.9999 39.692" fill="#d9dfe9"/><path d="m1428.3 2959.3c-0.2533 0-0.4933-0.013-0.7466-0.027l-322.57-16.306c-7.9732-0.4-14.106-7.1865-13.706-15.16 0.3999-7.9731 7.2264-14.24 15.173-13.706l322.57 16.306c7.9731 0.4 14.106 7.1865 13.706 15.16-0.4 7.7331-6.7865 13.733-14.426 13.733" fill="#75a1de"/></g><g fill="#0256d7" stroke-width="1.3333"><path d="m1038.2 2633.1c-1.4133 0-2.5732-1.1466-2.5599-2.5732 0.2133-67.385-25.786-156.84-26.053-157.74-0.4-1.3466 0.3733-2.7732 1.7333-3.1732 1.3733-0.3867 2.7866 0.3733 3.1866 1.7333 0.2666 0.9066 26.479 91.064 26.253 159.21 0 1.4-1.16 2.5466-2.56 2.5466"/><path d="m891.51 2666.3c-0.75998 0-1.5066-0.3333-2.0133-0.9733-0.70665-0.8933-71.265-90.571-95.518-152.04-0.51998-1.32 0.13333-2.8133 1.44-3.3199 1.32-0.52 2.7999 0.12 3.3199 1.4266 23.986 60.772 94.064 149.86 94.771 150.76 0.87998 1.1067 0.69332 2.72-0.41332 3.6-0.46666 0.3733-1.04 0.5466-1.5866 0.5466"/><path d="m792.18 2803.3-1.8933-0.8134c-102.07-43.692-165.12-165.56-165.74-166.78-0.64398-1.2533-0.13866-2.7999 1.12-3.4399 1.2293-0.6266 2.7759-0.1466 3.4386 1.12 0.61466 1.2 62.054 119.93 161.3 163.57l10.506-14.853c0.83998-1.16 2.4266-1.4267 3.5732-0.6133 1.16 0.8133 1.4266 2.4132 0.61331 3.5732l-12.92 18.24"/></g><g stroke-width="1.3333"><path d="m1557.2 1140.6s228.07 601.52 300.14 726.65c83.638 145.25 327.93 52.692 315.77-68.865-12.146-121.57-297.57-624.02-297.57-624.02l-318.34-33.759" fill="#003c89"/><path d="m2036 1870.6c-10.466 0-21.039-1.1333-31.599-3.4266-46.199-10.066-83.798-40.532-103.18-83.571l-181.52-403.28c-1.3333-2.9333-0.013-6.3865 2.9199-7.7198 2.9466-1.3333 6.3998-0.013 7.7331 2.9332l181.52 403.27c17.84 39.639 52.479 67.678 95.011 76.945 41.812 9.1198 84.118-1.6933 116.08-29.666 1.7199-1.5066 3.4399-3.0399 5.1598-4.6266 2.3866-2.1732 6.0799-2.0133 8.2532 0.3734 2.1866 2.3866 2.0132 6.0798-0.3734 8.2531-1.7866 1.6399-3.5732 3.2399-5.3465 4.7865-26.706 23.359-60.038 35.732-94.651 35.732" fill="#91b3fa"/><path d="m1698.2 1324c-2.2266 0-4.3465-1.28-5.3198-3.4399l-20.253-44.986c-1.3333-2.9465-0.013-6.3998 2.92-7.7198 2.9465-1.3333 6.4131-0.013 7.7331 2.92l20.253 44.986c1.32 2.9466 0.013 6.3998-2.9332 7.7331-0.7734 0.3467-1.6 0.5067-2.4 0.5067" fill="#91b3fa"/><path d="m3268.1 1541-335.83-74.931-1105.6-246.69 11.146-148.65 3.7199-49.639 9.7731-130.57 7.7065-102.82 6.3998-85.278 49.439-17.133 1368.1-474.36-4.7332 422.78-3.3466 299.06-1.5066 134.01-0.5466 49.732-4.7599 424.5m-1286.6-849.5c-0.7333 0-1.4799 0.14666-2.1999 0.43999l-55.265 22.586c-2.9866 1.2266-4.4132 4.6266-3.1866 7.6131 0.92 2.2666 3.1066 3.6399 5.3999 3.6399 0.7466 0 1.4933-0.13333 2.2133-0.43999l55.252-22.586c2.9866-1.2133 4.4266-4.6266 3.1999-7.6131-0.9199-2.2666-3.1066-3.6399-5.4132-3.6399m1163.6-378.42c-0.5866 0-1.1733 0.08-1.7733 0.26666l-1073.7 341.66c-3.08 0.98664-4.7732 4.2666-3.7999 7.3465 0.7999 2.4799 3.0932 4.0666 5.5732 4.0666 0.5866 0 1.1866-0.08 1.7732-0.26666l1073.7-341.66c3.0799-0.98664 4.7732-4.2666 3.7999-7.3465-0.8-2.4799-3.0932-4.0666-5.5732-4.0666" fill="url(#linearGradient662)"/><path d="m3423.6 879.79c0 377.51-62.358 683.54-139.28 683.54-76.918 0-139.28-306.03-139.28-683.54 0-377.5 62.358-683.53 139.28-683.53 76.918 0 139.28 306.03 139.28 683.53" fill="#fdd07c"/><path d="m3294.9 1516.6c-12.586-12.8-40.012-62.185-63.518-189.9-22.719-123.41-35.239-283.5-35.239-450.75 0-167.25 12.52-327.34 35.239-450.75 23.506-127.72 50.932-177.1 63.518-189.9 12.586 12.8 40.012 62.185 63.518 189.9 22.719 123.41 35.239 283.5 35.239 450.75 0 167.25-12.52 327.34-35.239 450.75-23.506 127.72-50.932 177.1-63.518 189.9" fill="#ff9c03"/><path d="m3279.7 1081.1v-0.1333h-3.7333v-0.1333h-2.5332v-0.1333h-2.2666v-0.1334h-2v-0.1333h-1.6v-0.1333h-1.5999v-0.1334h-1.6v-0.1333h-1.3333v-0.1333h-1.1999v-0.1334h-1.3333v-0.1333h-1.2v-0.1333h-1.2v-0.1333h-1.0666v-0.1334h-0.9333v-0.1333h-1.0667v-0.1333h-0.9333v-0.1334h-1.0666v-0.1333h-0.9333v-0.1333h-0.8v-0.1334h-0.9333v-0.1333h-0.8v-0.1333h-0.8v-0.1333h-0.9333v-0.1334h-0.8v-0.1333h-0.7999v-0.1333h-0.6667v-0.1334h-0.8v-0.1333h-0.6666v-0.1333h-0.8v-0.1334h-0.8v-0.1333h-0.6666v-0.1333h-0.6667v-0.1333h-0.6666v-0.1334h-0.6667v-0.1333h-0.6666v-0.1333h-0.6667v-0.1334h-0.6666v-0.1333h-0.5334v-0.1333h-0.6666v-0.1334h-0.6667v-0.1333h-0.5333v-0.1333h-0.6666v-0.1333h-0.5333v-0.1334h-0.5334v-0.1333h-0.6666v-0.1333h-0.5333v-0.1334h-0.6667v-0.1333h-0.5333v-0.1333h-0.5333v-0.1334h-0.5333v-0.1333h-0.5334v-0.1333h-0.5333v-0.1333h-0.5333v-0.1334h-0.5333v-0.1333h-0.5334v-0.1333h-0.5333v-0.1334h-0.5333v-0.1333h-0.5333v-0.1333h-0.5333v-0.1334h-0.4v-0.1333h-0.5333v-0.1333h-0.4v-0.1333h-0.5334v-0.1334h-0.5333v-0.1333h-0.4v-0.1333h-0.5333v-0.1334h-0.4v-0.1333h-0.5333v-0.1333h-0.4v-0.1334h-0.5333v-0.1333h-0.4v-0.1333h-0.5333v-0.1333h-0.4v-0.1334h-0.4v-0.1333h-0.4v-0.1333h-0.5333v-0.1334h-0.4v-0.1333h-0.4v-0.1333h-0.5333v-0.1334h-0.4v-0.1333h-0.4v-0.1333h-0.4v-0.1333h-0.4v-0.1334h-0.4v-0.1333h-0.5333v-0.1333h-0.4v-0.1334h-0.4v-0.1333h-0.3999v-0.1333h-0.4v-0.1334h-0.4v-0.1333h-0.4v-0.1333h-0.4v-0.1333h-0.4v-0.1334h-0.4v-0.1333h-0.4v-0.1333h-0.4v-0.1334h-0.2666v-0.1333h-0.4v-0.1333h-0.4v-0.1334h-0.4v-0.1333h-0.4v-0.1333h-0.2666v-0.1333h-0.4v-0.1334h-0.4v-0.1333h-0.4v-0.1333h-0.4v-0.1334h-0.2667v-0.1333h-0.4v-0.1333h-0.3999v-0.1334h-0.4v-0.1333h-0.2667v-0.1333h-0.4v-0.1333h-0.2666v-0.1334h-0.4v-0.1333h-0.4v-0.1333h-0.2667v-0.1334h-0.4v-0.1333h-0.1333v-0.6666h-0.1333v-2.2667h-0.1334v-2.2666h-0.1333v-2.2666h-0.1333v-2.5332h-0.1334v-2.4h-0.1333v-2.3999h-0.1333v-2.4h-0.1333v-2.3999h-0.1334v-2.6666h-0.1333v-2.6666h-0.1333v-2.6666h-0.1334v-2.6666h-0.1333v-2.6666h-0.1333v-2.6666h-0.1334v-2.9333h-0.1333v-2.9332h-0.1333v-2.9333h-0.1333v-2.9332h-0.1334v-3.0666h-0.1333v-3.2h-0.1333v-3.3332h-0.1334v-3.3333h-0.1333v-3.3332h-0.1333v-3.4666h-0.1334v-3.7332h-0.1333v-3.7332h-0.1333v-3.8666h-0.1333v-3.8666h-0.1334v-4.3999h-0.1333v-4.3999h-0.1333v-4.2666h-0.1334v-5.0665h-0.1333v-5.0665h-0.1333v-5.1999h-0.1334v-6.1332h-0.1333v-6.2665h-0.1333v-7.0665h-0.1333v-8.1331h-0.1334v-9.5998h-0.1333v-12.133h-0.1333v-58.932h0.1333v-12.133h0.1333v-9.5998h0.1334v-8.1331h0.1333v-7.0665h0.1333v-6.2665h0.1333v-6.1332h0.1334v-5.1999h0.1333v-5.1999h0.1333v-4.9332h0.1334v-4.3999h0.1333v-4.2666h0.1333v-4.3999h0.1334v-3.9999h0.1333v-3.7332h0.1333v-3.7332h0.1333v-3.7332h0.1334v-3.4666h0.1333v-3.3332h0.1333v-3.3332h0.1334v-3.3332h0.1333v-3.3332h0.1333v-2.9333h0.1334v-2.9333h0.1333v-2.9333h0.1333v-2.9333h0.1333v-3.0666h0.1334v-2.5333h0.1333v-2.6666h0.1333v-2.7999h0.1334v-2.6666h0.1333v-2.6666h0.1333v-2.5333h0.1334v-2.3999h0.1333v-2.3999h0.1333v-2.3999h0.1333v-2.5333h0.1334v-2.3999h0.1333v-2.2666h0.1333v-2.2666h0.1334v-2.2666h0.1333v-2.2666h0.1333v-2.1333h0.1334v-2.2666h0.1333v-2.1333h0.1333v-2.1333h0.1333v-0.26666h0.4v-0.13333h0.2667v-0.13333h0.4v-0.13333h0.2666v-0.13333h0.4v-0.13333h0.4v-0.13333h0.2667v-0.13333h0.4v-0.13333h0.4v-0.13333h0.4v-0.13333h0.2666v-0.13333h0.4v-0.13333h0.4v-0.13333h0.4v-0.13333h0.4v-0.13333h0.2666v-0.13333h0.4v-0.13333h0.4v-0.13333h0.4v-0.13333h0.4v-0.13333h0.4v-0.13333h0.4v-0.13333h0.4v-0.13333h0.4v-0.13333h0.3999v-0.13333h0.4v-0.13333h0.4v-0.13333h0.4v-0.13333h0.4v-0.13333h0.4v-0.13333h0.4v-0.13333h0.4v-0.13333h0.4v-0.13333h0.4v-0.13333h0.3999v-0.13333h0.5334v-0.13333h0.4v-0.13333h0.3999v-0.13333h0.4v-0.13333h0.5334v-0.13333h0.3999v-0.13333h0.4v-0.13333h0.5334v-0.13333h0.3999v-0.13333h0.4v-0.13333h0.5334v-0.13333h0.3999v-0.13333h0.5334v-0.13333h0.4v-0.13333h0.5333v-0.13333h0.4v-0.13333h0.5333v-0.13333h0.5333v-0.13333h0.4v-0.13333h0.5333v-0.13333h0.4v-0.13333h0.5333v-0.13333h0.5333v-0.13333h0.5334v-0.13333h0.5333v-0.13333h0.5333v-0.13333h0.5333v-0.13333h0.5333v-0.13333h0.5334v-0.13333h0.5333v-0.13333h0.5333v-0.13333h0.5333v-0.13333h0.5334v-0.13333h0.5333v-0.13333h0.6666v-0.13333h0.5333v-0.13333h0.5334v-0.13333h0.6666v-0.13333h0.5333v-0.13333h0.5334v-0.13333h0.6666v-0.13333h0.6667v-0.13333h0.6666v-0.13333h0.5333v-0.13333h0.6667v-0.13333h0.6666v-0.13333h0.6667v-0.13333h0.6666v-0.13333h0.6667v-0.13333h0.6666v-0.13333h0.8v-0.13333h0.6667v-0.13333h0.7999v-0.13333h0.8v-0.13333h0.6667v-0.13333h0.7999v-0.13333h0.6667v-0.13333h0.9333v-0.13333h0.8v-0.13333h0.9333v-0.13333h0.8v-0.13333h0.9333v-0.13333h0.8v-0.13333h0.9333v-0.13333h1.0666v-0.13333h0.9333v-0.13333h1.0667v-0.13333h1.0666v-0.13333h1.0666v-0.13333h1.2v-0.13333h1.2v-0.13333h1.3333v-0.13333h1.2v-0.13333h1.4666v-0.13333h1.5999v-0.13333h1.6v-0.13333h1.7333v-0.13333h2.1333v-0.13333h2.2666v-0.13333h3.1999v-0.13333h3.8666v-0.13333h10.4v0.13333h4.2666v0.13333h3.1999v0.13333h1.7333v0.13333h1.8666v0.13333h1.7333v0.13333h1.8666v0.13333h1.8666v0.13333h1.4667v0.13333h1.0666v0.13333h1.0666v0.13333h1.0667v0.13333h1.0666v0.13333h1.0667v0.13333h1.1999v0.13333h1.0667v0.13333h1.0666v0.13333h1.0667v0.13333h0.9333v0.13333h0.6666v0.13333h0.8v0.13333h0.8v0.13333h0.6666v0.13333h0.8v0.13333h0.6667v0.13333h0.7999v0.13333h0.8v0.13333h0.6667v0.13333h0.7999v0.13333h0.6667v0.13333h0.8v0.13333h0.8v0.13333h0.6666v0.13333h0.5333v0.13333h0.5333v0.13333h0.5334v0.13333h0.6666v0.13333h0.5333v0.13333h0.5334v0.13333h0.5333v0.13333h0.6666v0.13333h0.5333v0.13333h0.5334v0.13333h0.5333v0.13333h0.6666v0.13333h0.5334v0.13333h0.5333v0.13333h0.5333v0.13333h0.6666v0.13333h0.5334v0.13333h0.4v0.13333h0.5333v0.13333h0.4v0.13333h0.5333v0.13333h0.4v0.13333h0.4v0.13333h0.5333v0.13333h0.4v0.13333h0.5333v0.13333h0.4v0.13333h0.4v0.13333h0.5333v0.13333h0.4v0.13333h0.5333v0.13333h0.4v0.13333h0.4v0.13333h0.5333v0.13333h0.4v0.13333h0.5333v0.13333h0.4v0.13333h0.4v0.13333h0.4v0.13333h0.4v0.13333h0.4v0.13333h0.4v0.13333h0.3999v0.13333h0.4v0.13333h0.2667v0.13333h0.4v0.13333h0.4v0.13333h0.4v0.13333h0.4v0.13333h0.2666v0.13333h0.4v0.13333h0.4v0.13333h0.4v0.13333h0.4v0.13333h0.2666v0.13333h0.4v0.13333h0.4v0.13333h0.4v0.13333h0.4v0.13333h0.2667v0.13333h0.3999v0.13333h0.4v0.13333h0.4v0.13333h0.2667v0.13333h0.4v0.13333h0.2666v0.13333h0.2667v0.13333h0.4v0.13333h0.2666v0.13333h0.2667v0.13333h0.4v0.13333h0.2667v0.13333h0.3999v0.13333h0.2667v0.13333h0.2667v0.13333h0.4v0.13333h0.2666v0.13333h0.2667v0.13333h0.4v0.13333h0.2666v0.13333h0.2667v0.13333h0.4v0.13333h0.2666v0.13333h0.4v0.13333h0.2667v0.13333h0.2666v0.13333h0.4v0.13333h0.2667v0.13333h0.2667v0.13333h0.3999v0.13333h0.2667v0.13333h0.2667v0.13333h0.2666v0.13333h0.2667v0.13333h0.2666v0.13333h0.2667v0.13333h0.2667v0.13333h0.4v0.13333h0.2666v0.13333h0.2667v0.13333h0.2666v0.13333h0.2667v0.13333h0.2667v0.13333h0.2666v0.13333h0.2667v0.13333h0.2666v0.13333h0.2667v0.13333h0.2667v0.13333h0.2666v0.13333h0.2667v0.13333h0.2666v0.13333h0.2667v0.13333h0.2667v0.13333h0.2666v0.13333h0.2667v0.13333h0.2666v0.13333h0.2667v0.13333h0.2667v0.13333h0.2666v0.13333h0.2667v0.13333h0.2666v0.13333h0.2667v0.13333h0.2667v0.13333h0.2666v0.13333h0.2667v0.13333h0.2666v0.13333h0.1334v0.13333h0.2666v0.13333h0.2667v0.13333h0.2666v0.13333h0.1334v0.13333h0.2666v0.13333h0.2667v0.13333h0.2666v0.13333h0.1334v0.13333h0.2666v0.13333h0.2667v0.13333h0.2667v0.13333h0.1333v0.13333h0.2666v0.13333h0.2667v0.13333h0.2667v0.13333h0.2666v0.13333h0.1334v0.13333h0.2666v0.13333h0.2667v0.13333h0.2666v0.13333h0.1334v0.13333h0.2666v0.13333h0.2667v0.13333h0.2666v0.13333h0.1334v0.13333h0.2666v0.13333h0.2667v0.13333h0.2667v0.13333h0.1333v0.13333h0.2666v0.13333h0.2667v0.13333h0.2667v0.13333h0.1333v0.13333h0.2667v0.13333h0.1333v0.13333h0.2666v0.13333h0.1334v0.13333h0.2666v0.13333h0.1334v0.13333h0.2666v0.13333h0.1334v0.13333h0.2666v0.13333h0.2667v0.13333h0.1333v0.13333h0.2667v0.13333h0.1333v0.13333h0.2667v0.13333h0.1333v0.13333h0.2666v0.13333h0.1334v0.13333h0.2666v0.13333h0.1334v0.13333h0.2666v0.13333h0.2667v0.13333h0.1333v0.13333h0.2667v0.13333h0.1333v0.13333h0.2667v0.13333h0.1333v0.13333h0.2667v0.13333h0.1333v0.13333h0.2666v0.13333h0.1334v0.13333h0.2666v0.13333h0.2667v0.13333h0.1333v0.13333h0.2667v0.13333h0.1333v0.13333h0.2667v0.13333h0.1333v0.13333h0.1333v0.13333h0.2667v0.13333h0.1333v0.13333h0.2667v0.13333h0.1333v0.13333h0.1333v0.13333h0.2667v0.13333h0.1333v0.13333h0.1334v0.13333h0.2666v0.13333h0.1334v0.13333h0.1333v0.13333h0.2666v0.13333h0.1334v0.13333h0.2666v0.13333h0.1334v0.13333h0.1333v0.13333h0.2667v0.13333h0.1333v0.13333h0.1333v0.13333h0.2667v0.13333h0.1333v0.13333h0.1333v0.13333h0.2667v0.13333h0.1333v0.13333h0.2667v0.13333h0.1333v0.13333h0.1333v0.13333h0.2667v0.13333h0.1333v0.13333h0.1334v0.13333h0.2666v0.13333h0.1334v0.13333h0.1333v0.13333h0.2666v0.13333h0.1334v0.13333h0.2666v0.13333h0.1334v0.13333h0.1333v0.13333h0.2667v0.13333h0.1333v0.13333h0.1333v0.13333h0.1333v0.13333h0.1334v0.13333h0.2666v0.13333h0.1334v0.13333h0.1333v0.13333h0.1333v0.13333h0.2667v0.13333h0.1333v0.13333h0.1333v0.13333h0.1334v0.13333h0.1333v0.13333h0.2667v0.13333h0.1333v0.13333h0.1333v0.13333h0.1334v0.13333h0.1333v0.13333h0.2666v0.13333h0.1334v0.13333h0.1333v0.13333h0.1333v0.13333h0.1334v0.13333h0.2666v0.13333h0.1334v0.13333h0.1333v0.13333h0.1333v0.13333h0.2667v0.13333h0.1333v0.13333h0.1333v0.13333h0.1334v0.13333h0.1333v0.13333h0.2667v0.13333h0.1333v0.13333h0.1333v0.13333h0.1333v0.13333h0.1334v0.13333h0.2666v0.13333h0.1334v0.13333h0.1333v0.13333h0.1333v0.13333h0.2667v0.13333h0.1333v0.13333h0.1333v0.13333h0.1334v0.13333h0.1333v0.13333h0.1333v0.13333h0.1334v0.13333h0.1333v0.13333h0.1333v0.13333h0.1334v0.13333h0.2666v0.13333h0.1333v0.13333h0.1334v0.13333h0.1333v0.13333h0.1333v0.13333h0.1334v0.13333h0.1333v0.13333h0.1333v0.13333h0.1334v0.13333h0.1333v0.13333h0.1333v0.13333h0.1333v0.13333h0.2667v0.13333h0.1333v0.13333h0.1334v0.13333h0.1333v0.13333h0.1333v0.13333h0.1334v0.13333h0.1333v0.13333h0.1333v0.13333h0.1333v0.13333h0.1334v0.13333h0.1333v0.13333h0.1333v0.13333h0.1334v0.13333h0.2666v0.13333h0.1334v0.13333h0.1333v0.13333h0.1333v0.13333h0.1333v0.13333h0.1334v0.13333h0.1333v0.13333h0.1333v0.13333h0.1334v0.13333h0.1333v0.13333h0.1333v0.13333h0.1334v0.13333h0.2666v0.13333h0.1333v0.13333h0.1334v0.13333h0.1333v0.13333h0.1333v0.13333h0.1334v0.26666h0.1333v0.13333h0.1333v0.13333h0.1334v0.13333h0.1333v0.13333h0.1333v0.13333h0.1333v0.13333h0.1334v0.13333h0.1333v0.13333h0.1333v0.13333h0.1334v0.13333h0.1333v0.13333h0.1333v0.13333h0.1334v0.13333h0.1333v0.13333h0.1333v0.13333h0.1333v0.13333h0.1334v0.13333h0.1333v0.13333h0.1333v0.13333h0.1334v0.13333h0.1333v0.13333h0.1333v0.13333h0.1334v0.13333h0.1333v0.13333h0.1333v0.13333h0.1333v0.13333h0.1334v0.13333h0.1333v0.26666h0.1333v0.13333h0.1334v0.13333h0.1333v0.13333h0.1333v0.13333h0.1334v0.13333h0.1333v0.13333h0.1333v0.13333h0.1333v0.13333h0.1334v0.13333h0.1333v0.13333h0.1333v0.13333h0.1334v0.13333h0.1333v0.13333h0.1333v0.13333h0.1334v0.13333h0.1333v0.13333h0.1333v0.13333h0.1333v0.13333h0.1334v0.26666h0.1333v0.13333h0.1333v0.13333h0.1334v0.13333h0.1333v0.13333h0.1333v0.13333h0.1334v0.26666h0.1333v0.13333h0.1333v0.13333h0.1333v0.13333h0.1334v0.13333h0.1333v0.13333h0.1333v0.13333h0.1334v0.26666h0.1333v0.13333h0.1333v0.13333h0.1334v0.13333h0.1333v0.13333h0.1333v0.13333h0.1333v0.26666h0.1334v0.13333h0.1333v0.13333h0.1333v0.13333h0.1334v0.13333h0.1333v0.13333h0.1333v0.26666h0.1334v0.13333h0.1333v0.13333h0.1333v0.13333h0.1333v0.13333h0.1334v0.13333h0.1333v0.13333h0.1333v0.26666h0.1334v0.13333h0.1333v0.13333h0.1333v0.13333h0.1334v0.13333h0.1333v0.13333h0.1333v0.26666h0.1333v0.13333h0.1334v0.13333h0.1333v0.13333h0.1333v0.13333h0.1334v0.26666h0.1333v0.13333h0.1333v0.13333h0.1334v0.13333h0.1333v0.26666h0.1333v0.13333h0.1333v0.13333h0.1334v0.26666h0.1333v0.13333h0.1333v0.13333h0.1334v0.13333h0.1333v0.26666h0.1333v0.13333h0.1334v0.13333h0.1333v0.26666h0.1333v0.13333h0.1333v0.13333h0.1334v0.26666h0.1333v0.13333h0.1333v0.13333h0.1334v0.13333h0.1333v0.26666h0.1333v0.13333h0.1334v0.13333h0.1333v0.26666h0.1333v0.13333h0.1333v0.13333h0.1334v0.13333h0.1333v0.26666h0.1333v0.13333h0.1334v0.13333h0.1333v0.26666h0.1333v0.13333h0.1334v0.13333h0.1333v0.13333h0.1333v0.26666h0.1333v0.13333h0.1334v0.13333h0.1333v0.26666h0.1333v0.13333h0.1334v0.13333h0.1333v0.26666h0.1333v0.13333h0.1334v0.13333h0.1333v0.26666h0.1333v0.13333h0.1333v0.26666h0.1334v0.13333h0.1333v0.26666h0.1333v0.13333h0.1334v0.13333h0.1333v0.26666h0.1333v0.13333h0.1334v0.26666h0.1333v0.13333h0.1333v0.26666h0.1333v0.13333h0.1334v0.26666h0.1333v0.13333h0.1333v0.13333h0.1334v0.26666h0.1333v0.13333h0.1333v0.26666h0.1334v0.13333h0.1333v0.26666h0.1333v0.13333h0.1333v0.26666h0.1334v0.13333h0.1333v0.13333h0.1333v0.26666h0.1334v0.13333h0.1333v0.26666h0.1333v0.13333h0.1334v0.26666h0.1333v0.13333h0.1333v0.26666h0.1333v0.13333h0.1334v0.13333h0.1333v0.26666h0.1333v0.13333h0.1334v0.26666h0.1333v0.13333h0.1333v0.26666h0.1334v0.13333h0.1333v0.26666h0.1333v0.26666h0.1333v0.13333h0.1334v0.26666h0.1333v0.13333h0.1333v0.26666h0.1334v0.26666h0.1333v0.13333h0.1333v0.26666h0.1334v0.26666h0.1333v0.13333h0.1333v0.26666h0.1333v0.13333h0.1334v0.26666h0.1333v0.26666h0.1333v0.13333h0.1334v0.26666h0.1333v0.13333h0.1333v0.26666h0.1334v0.26666h0.1333v0.13333h0.1333v0.26666h0.1333v0.13333h0.1334v0.26666h0.1333v0.26666h0.1333v0.13333h0.1334v0.26666h0.1333v0.26666h0.1333v0.13333h0.1334v0.26666h0.1333v0.13333h0.1333v0.26666h0.1333v0.26666h0.1334v0.13333h0.1333v0.26666h0.1333v0.26666h0.1334v0.13333h0.1333v0.26666h0.1333v0.26666h0.1334v0.26666h0.1333v0.26666h0.1333v0.26666h0.1333v0.13333h0.1334v0.26666h0.1333v0.26666h0.1333v0.26666h0.1334v0.26666h0.1333v0.13333h0.1333v0.26666h0.1334v0.26666h0.1333v0.26666h0.1333v0.26666h0.1333v0.13333h0.1334v0.26666h0.1333v0.26666h0.1333v0.26666h0.1334v0.26666h0.1333v0.13333h0.1333v0.26666h0.1334v0.26666h0.1333v0.26666h0.1333v0.26666h0.1333v0.13333h0.1334v0.26666h0.1333v0.26666h0.1333v0.26666h0.1334v0.26666h0.1333v0.13333h0.1333v0.26666h0.1334v0.26666h0.1333v0.26666h0.1333v0.26666h0.1333v0.26666h0.1334v0.26666h0.1333v0.26666h0.1333v0.39999h0.1334v0.26666h0.1333v0.26666h0.1333v0.26666h0.1334v0.26666h0.1333v0.26666h0.1333v0.26666h0.1333v0.26666h0.1334v0.26666h0.1333v0.26666h0.1333v0.26666h0.1334v0.26666h0.1333v0.26666h0.1333v0.26666h0.1334v0.26666h0.1333v0.26666h0.1333v0.26666h0.1333v0.26666h0.1334v0.26666h0.1333v0.26666h0.1333v0.26666h0.1334v0.26666h0.1333v0.26666h0.1333v0.26666h0.1334v0.26666h0.1333v0.26666h0.1333v0.39999h0.1333v0.26666h0.1334v0.26666h0.1333v0.39999h0.1333v0.26666h0.1334v0.26666h0.1333v0.26666h0.1333v0.39999h0.1334v0.26666h0.1333v0.26666h0.1333v0.39999h0.1333v0.26666h0.1334v0.26666h0.1333v0.39999h0.1333v0.26666h0.1334v0.26666h0.1333v0.26666h0.1333v0.39999h0.1334v0.26666h0.1333v0.26666h0.1333v0.39999h0.1333v0.26666h0.1334v0.26666h0.1333v0.39999h0.1333v0.26666h0.1334v0.26666h0.1333v0.26666h0.1333v0.39999h0.1334v0.26666h0.1333v0.39999h0.1333v0.26666h0.1333v0.39999h0.1334v0.39999h0.1333v0.26666h0.1333v0.39999h0.1334v0.26666h0.1333v0.39999h0.1333v0.39999h0.1334v0.26666h0.1333v0.39999h0.1333v0.39999h0.1333v0.26666h0.1334v0.39999h0.1333v0.26666h0.1333v0.39999h0.1334v0.39999h0.1333v0.26666h0.1333v0.39999h0.1334v0.26666h0.1333v0.39999h0.1333v0.39999h0.1333v0.26666h0.1334v0.39999h0.1333v0.26666h0.1333v0.39999h0.1334v0.39999h0.1333v0.39999h0.1333v0.39999h0.1334v0.39999h0.1333v0.39999h0.1333v0.39999h0.1333v0.39999h0.1334v0.39999h0.1333v0.39999h0.1333v0.39999h0.1334v0.39999h0.1333v0.39999h0.1333v0.39999h0.1334v0.39999h0.1333v0.39999h0.1333v0.39999h0.1333v0.39999h0.1334v0.39999h0.1333v0.39999h0.1333v0.39999h0.1334v0.39999h0.1333v0.39999h0.1333v0.39999h0.1334v0.53332h0.1333v0.39999h0.1333v0.53332h0.1333v0.39999h0.1334v0.53332h0.1333v0.39999h0.1333v0.53332h0.1334v0.39999h0.1333v0.53332h0.1333v0.39999h0.1334v0.53332h0.1333v0.39999h0.1333v0.53332h0.1333v0.39999h0.1334v0.53332h0.1333v0.39999h0.1333v0.53332h0.1334v0.39999h0.1333v0.53332h0.1333v0.39999h0.1334v0.53332h0.1333v0.53332h0.1333v0.53332h0.1333v0.53332h0.1334v0.53332h0.1333v0.66665h0.1333v0.53332h0.1334v0.53332h0.1333v0.53332h0.1333v0.53332h0.1334v0.53332h0.1333v0.53332h0.1333v0.53332h0.1333v0.53332h0.1334v0.66665h0.1333v0.53332h0.1333v0.53332h0.1334v0.53332h0.1333v0.66665h0.1333v0.66665h0.1334v0.66665h0.1333v0.66665h0.1333v0.66665h0.1333v0.66665h0.1334v0.66665h0.1333v0.66665h0.1333v0.53332h0.1334v0.66665h0.1333v0.66665h0.1333v0.66665h0.1334v0.66665h0.1333v0.66665h0.1333v0.66665h0.1333v0.79998h0.1334v0.79998h0.1333v0.93331h0.1333v0.79998h0.1334v0.79998h0.1333v0.79998h0.1333v0.79998h0.1334v0.79998h0.1333v0.93331h0.1333v0.79998h0.1333v0.79998h0.1334v0.79998h0.1333v0.93331h0.1333v1.0666h0.1334v1.0666h0.1333v1.0666h0.1333v1.2h0.1334v1.0666h0.1333v1.0666h0.1333v1.0666h0.1333v1.0666h0.1334v1.0666h0.1333v1.4666h0.1333v1.4666h0.1334v1.6h0.1333v1.4666h0.1333v1.6h0.1334v1.4666h0.1333v1.6h0.1333v2.5333h0.1333v2.6666h0.1334v2.5333h0.1333v2.6666h0.1333v5.4665h0.1334v11.466h-0.1334v5.4665h-0.1333v2.5333h-0.1333v2.6666h-0.1334v2.5333h-0.1333v2.5333h-0.1333v1.6h-0.1333v1.4666h-0.1334v1.6h-0.1333v1.4666h-0.1333v1.6h-0.1334v1.4666h-0.1333v1.4666h-0.1333v1.2h-0.1334v1.0666h-0.1333v1.0666h-0.1333v1.0666h-0.1333v1.0666h-0.1334v1.0666h-0.1333v1.0666h-0.1333v1.0666h-0.1334v1.0666h-0.1333v0.93331h-0.1333v0.79998h-0.1334v0.93331h-0.1333v0.79998h-0.1333v0.79998h-0.1333v0.79998h-0.1334v0.79998h-0.1333v0.93331h-0.1333v0.79998h-0.1334v0.79998h-0.1333v0.79998h-0.1333v0.79998h-0.1334v0.79998h-0.1333v0.66665h-0.1333v0.66665h-0.1333v0.66665h-0.1334v0.66665h-0.1333v0.66665h-0.1333v0.66665h-0.1334v0.66665h-0.1333v0.66665h-0.1333v0.66665h-0.1334v0.66665h-0.1333v0.66665h-0.1333v0.66665h-0.1333v0.66665h-0.1334v0.66665h-0.1333v0.66665h-0.1333v0.53332h-0.1334v0.53332h-0.1333v0.53332h-0.1333v0.53332h-0.1334v0.53332h-0.1333v0.53332h-0.1333v0.53332h-0.1333v0.53332h-0.1334v0.66665h-0.1333v0.53332h-0.1333v0.53332h-0.1334v0.53332h-0.1333v0.53332h-0.1333v0.53332h-0.1334v0.53332h-0.1333v0.53332h-0.1333v0.53332h-0.1333v0.53332h-0.1334v0.53332h-0.1333v0.39999h-0.1333v0.53332h-0.1334v0.39999h-0.1333v0.53332h-0.1333v0.39999h-0.1334v0.53332h-0.1333v0.39999h-0.1333v0.53332h-0.1333v0.39999h-0.1334v0.53332h-0.1333v0.39999h-0.1333v0.53332h-0.1334v0.39999h-0.1333v0.53332h-0.1333v0.39999h-0.1334v0.53332h-0.1333v0.39999h-0.1333v0.53332h-0.1333v0.39999h-0.1334v0.39999h-0.1333v0.39999h-0.1333v0.39999h-0.1334v0.39999h-0.1333v0.39999h-0.1333v0.39999h-0.1334v0.39999h-0.1333v0.39999h-0.1333v0.39999h-0.1333v0.39999h-0.1334v0.39999h-0.1333v0.39999h-0.1333v0.39999h-0.1334v0.39999h-0.1333v0.39999h-0.1333v0.39999h-0.1334v0.39999h-0.1333v0.39999h-0.1333v0.39999h-0.1333v0.39999h-0.1334v0.39999h-0.1333v0.39999h-0.1333v0.39999h-0.1334v0.39999h-0.1333v0.39999h-0.1333v0.26666h-0.1334v0.39999h-0.1333v0.26666h-0.1333v0.39999h-0.1333v0.39999h-0.1334v0.26666h-0.1333v0.39999h-0.1333v0.26666h-0.1334v0.39999h-0.1333v0.39999h-0.1333v0.26666h-0.1334v0.39999h-0.1333v0.39999h-0.1333v0.26666h-0.1333v0.39999h-0.1334v0.26666h-0.1333v0.39999h-0.1333v0.39999h-0.1334v0.26666h-0.1333v0.39999h-0.1333v0.26666h-0.1334v0.39999h-0.1333v0.39999h-0.1333v0.26666h-0.1333v0.39999h-0.1334v0.26666h-0.1333v0.26666h-0.1333v0.39999h-0.1334v0.26666h-0.1333v0.26666h-0.1333v0.39999h-0.1334v0.26666h-0.1333v0.26666h-0.1333v0.26666h-0.1333v0.39999h-0.1334v0.26666h-0.1333v0.26666h-0.1333v0.39999h-0.1334v0.26666h-0.1333v0.26666h-0.1333v0.26666h-0.1334v0.39999h-0.1333v0.26666h-0.1333v0.26666h-0.1333v0.39999h-0.1334v0.26666h-0.1333v0.26666h-0.1333v0.39999h-0.1334v0.26666h-0.1333v0.26666h-0.1333v0.26666h-0.1334v0.39999h-0.1333v0.26666h-0.1333v0.26666h-0.1333v0.26666h-0.1334v0.26666h-0.1333v0.26666h-0.1333v0.26666h-0.1334v0.26666h-0.1333v0.26666h-0.1333v0.26666h-0.1334v0.26666h-0.1333v0.26666h-0.1333v0.39999h-0.1333v0.26666h-0.1334v0.26666h-0.1333v0.26666h-0.1333v0.26666h-0.1334v0.26666h-0.1333v0.26666h-0.1333v0.26666h-0.1334v0.26666h-0.1333v0.26666h-0.1333v0.26666h-0.1333v0.26666h-0.1334v0.26666h-0.1333v0.26666h-0.1333v0.26666h-0.1334v0.26666h-0.1333v0.26666h-0.1333v0.26666h-0.1334v0.26666h-0.1333v0.26666h-0.1333v0.26666h-0.1333v0.26666h-0.1334v0.26666h-0.1333v0.26666h-0.1333v0.26666h-0.1334v0.13333h-0.1333v0.26666h-0.1333v0.26666h-0.1334v0.26666h-0.1333v0.26666h-0.1333v0.13333h-0.1333v0.26666h-0.1334v0.26666h-0.1333v0.26666h-0.1333v0.26666h-0.1334v0.13333h-0.1333v0.26666h-0.1333v0.26666h-0.1334v0.26666h-0.1333v0.26666h-0.1333v0.13333h-0.1333v0.26666h-0.1334v0.26666h-0.1333v0.26666h-0.1333v0.26666h-0.1334v0.26666h-0.1333v0.13333h-0.1333v0.26666h-0.1334v0.26666h-0.1333v0.26666h-0.1333v0.26666h-0.1333v0.13333h-0.1334v0.26666h-0.1333v0.26666h-0.1333v0.26666h-0.1334v0.26666h-0.1333v0.13333h-0.1333v0.26666h-0.1334v0.13333h-0.1333v0.26666h-0.1333v0.26666h-0.1333v0.13333h-0.1334v0.26666h-0.1333v0.26666h-0.1333v0.13333h-0.1334v0.26666h-0.1333v0.13333h-0.1333v0.26666h-0.1334v0.26666h-0.1333v0.13333h-0.1333v0.26666h-0.1333v0.13333h-0.1334v0.2667h-0.1333v0.2666h-0.1333v0.1333h-0.1334v0.2667h-0.1333v0.1333h-0.1333v0.2667h-0.1334v0.2667h-0.1333v0.1333h-0.1333v0.2666h-0.1333v0.2667h-0.1334v0.1333h-0.1333v0.2667h-0.1333v0.1333h-0.1334v0.2667h-0.1333v0.2666h-0.1333v0.1334h-0.1334v0.2666h-0.1333v0.1334h-0.1333v0.2666h-0.1333v0.2667h-0.1334v0.1333h-0.1333v0.2667h-0.1333v0.1333h-0.1334v0.2667h-0.1333v0.1333h-0.1333v0.1333h-0.1334v0.2667h-0.1333v0.1333h-0.1333v0.2667h-0.1333v0.1333h-0.1334v0.2667h-0.1333v0.1333h-0.1333v0.2667h-0.1334v0.1333h-0.1333v0.1333h-0.1333v0.2667h-0.1334v0.1333h-0.1333v0.2667h-0.1333v0.1333h-0.1333v0.2667h-0.1334v0.1333h-0.1333v0.2666h-0.1333v0.1334h-0.1334v0.1333h-0.1333v0.2667h-0.1333v0.1333h-0.1334v0.2667h-0.1333v0.1333h-0.1333v0.2666h-0.1333v0.1334h-0.1334v0.2666h-0.1333v0.1334h-0.1333v0.1333h-0.1334v0.2667h-0.1333v0.1333h-0.1333v0.2666h-0.1334v0.1334h-0.1333v0.2666h-0.1333v0.1334h-0.1333v0.2666h-0.1334v0.1334h-0.1333v0.1333h-0.1333v0.2666h-0.1334v0.1334h-0.1333v0.1333h-0.1333v0.1333h-0.1334v0.2667h-0.1333v0.1333h-0.1333v0.1334h-0.1333v0.2666h-0.1334v0.1333h-0.1333v0.1334h-0.1333v0.1333h-0.1334v0.2667h-0.1333v0.1333h-0.1333v0.1333h-0.1334v0.2667h-0.1333v0.1333h-0.1333v0.1333h-0.1333v0.1334h-0.1334v0.2666h-0.1333v0.1334h-0.1333v0.1333h-0.1334v0.2667h-0.1333v0.1333h-0.1333v0.1333h-0.1334v0.2667h-0.1333v0.1333h-0.1333v0.1333h-0.1333v0.1334h-0.1334v0.2666h-0.1333v0.1334h-0.1333v0.1333h-0.1334v0.2666h-0.1333v0.1334h-0.1333v0.1333h-0.1334v0.1333h-0.1333v0.2667h-0.1333v0.1333h-0.1333v0.1334h-0.1334v0.2666h-0.1333v0.1333h-0.1333v0.1334h-0.1334v0.1333h-0.1333v0.2667h-0.1333v0.1333h-0.1334v0.1333h-0.1333v0.1334h-0.1333v0.1333h-0.1333v0.1333h-0.1334v0.1333h-0.1333v0.2667h-0.1333v0.1333h-0.1334v0.1334h-0.1333v0.1333h-0.1333v0.1333h-0.1334v0.1334h-0.1333v0.2666h-0.1333v0.1333h-0.1333v0.1334h-0.1334v0.1333h-0.1333v0.1333h-0.1333v0.1334h-0.1334v0.2666h-0.1333v0.1334h-0.1333v0.1333h-0.1334v0.1333h-0.1333v0.1333h-0.1333v0.1334h-0.1333v0.1333h-0.1334v0.2667h-0.1333v0.1333h-0.1333v0.1333h-0.1334v0.1334h-0.1333v0.1333h-0.1333v0.1333h-0.1334v0.2667h-0.1333v0.1333h-0.1333v0.1333h-0.1333v0.1334h-0.1334v0.1333h-0.1333v0.1333h-0.1333v0.2667h-0.1334v0.1333h-0.1333v0.1333h-0.1333v0.1334h-0.1334v0.1333h-0.1333v0.1333h-0.1333v0.1334h-0.1333v0.1333h-0.1334v0.1333h-0.1333v0.1334h-0.1333v0.2666h-0.1334v0.1333h-0.1333v0.1334h-0.1333v0.1333h-0.1334v0.1333h-0.1333v0.1334h-0.1333v0.1333h-0.1333v0.1333h-0.1334v0.1334h-0.1333v0.1333h-0.1333v0.1333h-0.1334v0.1333h-0.1333v0.1334h-0.1333v0.1333h-0.1334v0.1333h-0.1333v0.1334h-0.1333v0.1333h-0.1333v0.1333h-0.1334v0.1334h-0.1333v0.1333h-0.1333v0.1333h-0.1334v0.1333h-0.1333v0.1334h-0.1333v0.1333h-0.1334v0.1333h-0.1333v0.1334h-0.1333v0.1333h-0.1333v0.2667h-0.1334v0.1333h-0.1333v0.1333h-0.1333v0.1333h-0.1334v0.1334h-0.1333v0.1333h-0.1333v0.1333h-0.1334v0.1334h-0.1333v0.1333h-0.1333v0.1333h-0.1333v0.1334h-0.1334v0.1333h-0.1333v0.1333h-0.1333v0.1333h-0.1334v0.1334h-0.1333v0.1333h-0.1333v0.1333h-0.1334v0.1334h-0.1333v0.1333h-0.1333v0.1333h-0.1333v0.1334h-0.1334v0.1333h-0.1333v0.1333h-0.1333v0.1333h-0.1334v0.1334h-0.2666v0.1333h-0.1334v0.1333h-0.1333v0.1334h-0.1333v0.1333h-0.1333v0.1333h-0.1334v0.1334h-0.1333v0.1333h-0.1333v0.1333h-0.1334v0.1333h-0.1333v0.1334h-0.1333v0.1333h-0.1334v0.1333h-0.2666v0.1334h-0.1333v0.1333h-0.1334v0.1333h-0.1333v0.1334h-0.1333v0.1333h-0.1334v0.1333h-0.1333v0.1333h-0.1333v0.1334h-0.1334v0.1333h-0.1333v0.1333h-0.1333v0.1334h-0.1333v0.1333h-0.1334v0.1333h-0.2666v0.1334h-0.1334v0.1333h-0.1333v0.1333h-0.1333v0.1333h-0.1334v0.1334h-0.1333v0.1333h-0.1333v0.1333h-0.1333v0.1334h-0.1334v0.1333h-0.1333v0.1333h-0.1333v0.1334h-0.1334v0.1333h-0.2666v0.1333h-0.1334v0.1333h-0.1333v0.1334h-0.1333v0.1333h-0.1333v0.1333h-0.1334v0.1334h-0.2666v0.1333h-0.1334v0.1333h-0.1333v0.1334h-0.1333v0.1333h-0.1334v0.1333h-0.2666v0.1333h-0.1333v0.1334h-0.1334v0.1333h-0.1333v0.1333h-0.1333v0.1334h-0.2667v0.1333h-0.1333v0.1333h-0.1334v0.1334h-0.1333v0.1333h-0.2666v0.1333h-0.1334v0.1333h-0.1333v0.1334h-0.1333v0.1333h-0.1334v0.1333h-0.2666v0.1334h-0.1334v0.1333h-0.1333v0.1333h-0.1333v0.1334h-0.1333v0.1333h-0.2667v0.1333h-0.1333v0.1333h-0.1334v0.1334h-0.1333v0.1333h-0.2667v0.1333h-0.1333v0.1334h-0.1333v0.1333h-0.1333v0.1333h-0.1334v0.1334h-0.2666v0.1333h-0.1334v0.1333h-0.1333v0.1333h-0.1333v0.1334h-0.1334v0.1333h-0.2666v0.1333h-0.1333v0.1334h-0.1334v0.1333h-0.1333v0.1333h-0.2667v0.1334h-0.1333v0.1333h-0.2667v0.1333h-0.1333v0.1333h-0.1333v0.1334h-0.2667v0.1333h-0.1333v0.1333h-0.1333v0.1334h-0.2667v0.1333h-0.1333v0.1333h-0.1334v0.1334h-0.2666v0.1333h-0.1333v0.1333h-0.2667v0.1333h-0.1333v0.1334h-0.1334v0.1333h-0.2666v0.1333h-0.1334v0.1334h-0.1333v0.1333h-0.2666v0.1333h-0.1334v0.1334h-0.2666v0.1333h-0.1334v0.1333h-0.1333v0.1333h-0.2667v0.1334h-0.1333v0.1333h-0.1333v0.1333h-0.2667v0.1334h-0.1333v0.1333h-0.1333v0.1333h-0.2667v0.1334h-0.1333v0.1333h-0.2667v0.1333h-0.1333v0.1333h-0.1333v0.1334h-0.2667v0.1333h-0.1333v0.1333h-0.1334v0.1334h-0.2666v0.1333h-0.1334v0.1333h-0.2666v0.1334h-0.1333v0.1333h-0.2667v0.1333h-0.1333v0.1333h-0.2667v0.1334h-0.1333v0.1333h-0.2667v0.1333h-0.2666v0.1334h-0.1334v0.1333h-0.2666v0.1333h-0.1334v0.1334h-0.2666v0.1333h-0.1334v0.1333h-0.2666v0.1333h-0.1333v0.1334h-0.2667v0.1333h-0.1333v0.1333h-0.2667v0.1334h-0.2667v0.1333h-0.1333v0.1333h-0.2666v0.1334h-0.1334v0.1333h-0.2666v0.1333h-0.1334v0.1333h-0.2666v0.1334h-0.1334v0.1333h-0.2666v0.1333h-0.1333v0.1334h-0.2667v0.1333h-0.2667v0.1333h-0.1333v0.1334h-0.2667v0.1333h-0.1333v0.1333h-0.2666v0.1333h-0.1334v0.1334h-0.2666v0.1333h-0.1334v0.1333h-0.2666v0.1334h-0.2667v0.1333h-0.2666v0.1333h-0.1334v0.1334h-0.2666v0.1333h-0.2667v0.1333h-0.2667v0.1333h-0.1333v0.1334h-0.2666v0.1333h-0.2667v0.1333h-0.2667v0.1334h-0.1333v0.1333h-0.2667v0.1333h-0.2666v0.1334h-0.2667v0.1333h-0.1333v0.1333h-0.2667v0.1333h-0.2666v0.1334h-0.2667v0.1333h-0.1333v0.1333h-0.2667v0.1334h-0.2666v0.1333h-0.2667v0.1333h-0.2667v0.1334h-0.1333v0.1333h-0.2666v0.1333h-0.2667v0.1333h-0.2667v0.1334h-0.1333v0.1333h-0.2666v0.1333h-0.2667v0.1334h-0.2667v0.1333h-0.1333v0.1333h-0.2667v0.1334h-0.2666v0.1333h-0.2667v0.1333h-0.2666v0.1333h-0.2667v0.1334h-0.2667v0.1333h-0.2666v0.1333h-0.2667v0.1334h-0.2666v0.1333h-0.2667v0.1333h-0.2667v0.1334h-0.2666v0.1333h-0.2667v0.1333h-0.2666v0.1333h-0.2667v0.1334h-0.2667v0.1333h-0.2666v0.1333h-0.2667v0.1334h-0.2666v0.1333h-0.2667v0.1333h-0.2667v0.1334h-0.2666v0.1333h-0.2667v0.1333h-0.4v0.1333h-0.2666v0.1334h-0.2667v0.1333h-0.2666v0.1333h-0.2667v0.1334h-0.2667v0.1333h-0.2666v0.1333h-0.2667v0.1334h-0.2666v0.1333h-0.2667v0.1333h-0.2667v0.1333h-0.2666v0.1334h-0.4v0.1333h-0.2667v0.1333h-0.2666v0.1334h-0.4v0.1333h-0.2667v0.1333h-0.2666v0.1334h-0.4v0.1333h-0.2667v0.1333h-0.2667v0.1333h-0.3999v0.1334h-0.2667v0.1333h-0.4v0.1333h-0.2667v0.1334h-0.2666v0.1333h-0.4v0.1333h-0.2667v0.1334h-0.2666v0.1333h-0.4v0.1333h-0.2667v0.1333h-0.4v0.1334h-0.2666v0.1333h-0.2667v0.1333h-0.4v0.1334h-0.2666v0.1333h-0.2667v0.1333h-0.4v0.1334h-0.2666v0.1333h-0.4v0.1333h-0.4v0.1333h-0.2667v0.1334h-0.4v0.1333h-0.4v0.1333h-0.4v0.1334h-0.3999v0.1333h-0.2667v0.1333h-0.4v0.1334h-0.4v0.1333h-0.4v0.1333h-0.4v0.1333h-0.2666v0.1334h-0.4v0.1333h-0.4v0.1333h-0.4v0.1334h-0.4v0.1333h-0.2666v0.1333h-0.4v0.1334h-0.4v0.1333h-0.4v0.1333h-0.4v0.1333h-0.4v0.1334h-0.2667v0.1333h-0.3999v0.1333h-0.5334v0.1334h-0.4v0.1333h-0.3999v0.1333h-0.5334v0.1334h-0.4v0.1333h-0.5333v0.1333h-0.4v0.1333h-0.4v0.1334h-0.5333v0.1333h-0.4v0.1333h-0.4v0.1334h-0.5333v0.1333h-0.4v0.1333h-0.5333v0.1334h-0.4v0.1333h-0.4v0.1333h-0.5333v0.1333h-0.4v0.1334h-0.5333v0.1333h-0.4v0.1333h-0.4v0.1334h-0.6666v0.1333h-0.5333v0.1333h-0.5334v0.1334h-0.5333v0.1333h-0.6666v0.1333h-0.5334v0.1333h-0.5333v0.1334h-0.5333v0.1333h-0.6666v0.1333h-0.5334v0.1334h-0.5333v0.1333h-0.5333v0.1333h-0.6667v0.1334h-0.5333v0.1333h-0.5333v0.1333h-0.5333v0.1333h-0.6667v0.1334h-0.5333v0.1333h-0.8v0.1333h-0.6666v0.1334h-0.8v0.1333h-0.6666v0.1333h-0.8v0.1334h-0.8v0.1333h-0.6667v0.1333h-0.7999v0.1333h-0.6667v0.1334h-0.8v0.1333h-0.7999v0.1333h-0.6667v0.1334h-0.8v0.1333h-0.8v0.1333h-1.0666v0.1334h-1.0666v0.1333h-1.0667v0.1333h-1.0666v0.1333h-1.0667v0.1334h-1.0666v0.1333h-1.0666v0.1333h-1.0667v0.1334h-1.0666v0.1333h-1.3333v0.1333h-1.7333v0.1334h-1.8666v0.1333h-1.7333v0.1333h-1.8666v0.1333h-1.8667v0.1334h-2.1332v0.1333h-4.1333v0.1333" fill="#003c89"/><path d="m1636.8 673.79c66.678-7.7465 162.3-10.533 265.7 13.146-34.066 177.94-28.919 363.4 10.466 555.45h-291.62c-46.492 0-86.131-33.772-93.384-79.691-14.533-92.064-32.306-246.78-13.36-371.04 9.5064-62.372 59.532-110.58 122.2-117.86" fill="#003c89"/><path d="m1811.8 810.05h-227.21c-7.7064 0-14.52-4.0399-18.2-10.813-3.6799-6.7732-3.3866-14.68 0.8-21.159 1.7599-2.7066 5.3732-3.4666 8.0798-1.7333 2.7199 1.76 3.4932 5.3732 1.7332 8.0798-1.8266 2.8266-1.9599 6.2665-0.3466 9.2264 1.6 2.9599 4.5732 4.7199 7.9331 4.7199h227.21c4.9865 0 9.0398-4.0532 9.0398-9.0398v-16.16c0-4.9865-4.0533-9.0398-9.0398-9.0398h-228.89c-3.2266 0-5.8399-2.6133-5.8399-5.8399 0-3.2266 2.6133-5.8398 5.8399-5.8398h228.89c11.426 0 20.72 9.2931 20.72 20.719v16.16c0 11.426-9.2931 20.719-20.72 20.719" fill="#91b3fa"/><path d="m1791.5 910.72h-227.21c-7.7198 0-14.52-4.0399-18.213-10.813-3.6799-6.7732-3.3733-14.68 0.8133-21.159 1.7466-2.7066 5.3732-3.4666 8.0798-1.7333 2.7066 1.76 3.4799 5.3732 1.7333 8.0798-1.8266 2.8266-1.96 6.2798-0.36 9.2264 1.6133 2.9599 4.5732 4.7199 7.9465 4.7199h227.21c4.9732 0 9.0265-4.0532 9.0265-9.0398v-16.16c0-4.9865-4.0533-9.0398-9.0265-9.0398h-228.9c-3.2266 0-5.8399-2.6133-5.8399-5.8399 0-3.2266 2.6133-5.8398 5.8399-5.8398h228.9c11.426 0 20.72 9.2931 20.72 20.719v16.16c0 11.426-9.2931 20.719-20.72 20.719" fill="#91b3fa"/><path d="m2071.3 666.32c-2.4799 0-4.7732-1.5866-5.5732-4.0666-0.9733-3.0799 0.72-6.3598 3.7999-7.3465l1073.7-341.66c0.5999-0.18667 1.1866-0.26666 1.7732-0.26666 2.48 0 4.7733 1.5866 5.5732 4.0666 0.9734 3.0799-0.7199 6.3598-3.7999 7.3465l-1073.7 341.66c-0.5867 0.18666-1.1867 0.26666-1.7733 0.26666" fill="url(#linearGradient1100)"/><path d="m1926.2 725.66c-2.2933 0-4.4799-1.3733-5.3998-3.6399-1.2267-2.9866 0.2-6.3865 3.1865-7.6131l55.265-22.586c0.72-0.29333 1.4667-0.43999 2.2-0.43999 2.3066 0 4.4932 1.3733 5.4132 3.6399 1.2266 2.9866-0.2134 6.3998-3.2 7.6131l-55.252 22.586c-0.72 0.30666-1.4666 0.43999-2.2133 0.43999" fill="url(#linearGradient1100)"/></g><g transform="matrix(1.3333,0,0,-1.3333,-606.32,4325.3)" fill="#91b3fa"><path d="m1813.6 2472.6h-170.41c-5.78 0-10.88 3.03-13.65 8.11-2.76 5.08-2.54 11.02 0.6 15.87 1.32 2.04 4.03 2.61 6.06 1.3 2.04-1.31 2.62-4.03 1.3-6.06-1.37-2.12-1.47-4.7-0.26-6.92 1.21-2.21 3.43-3.54 5.95-3.54h170.41c3.74 0 6.78 3.04 6.78 6.78v12.12c0 3.74-3.04 6.78-6.78 6.78h-171.67c-2.42 0-4.38 1.96-4.38 4.38s1.96 4.38 4.38 4.38h171.67c8.57 0 15.54-6.97 15.54-15.54v-12.12c0-8.57-6.97-15.54-15.54-15.54"/><path d="m1829.6 2374.5h-170.41c-5.79 0-10.89 3.03-13.65 8.11-2.77 5.08-2.54 11.02 0.6 15.87 1.32 2.04 4.03 2.61 6.06 1.3s2.61-4.02 1.3-6.05c-1.37-2.12-1.47-4.71-0.26-6.93 1.2-2.21 3.43-3.54 5.95-3.54h170.41c3.73 0 6.77 3.04 6.77 6.78v12.13c0 3.73-3.04 6.77-6.77 6.77h-171.68c-2.42 0-4.38 1.96-4.38 4.38s1.96 4.39 4.38 4.39h171.68c8.57 0 15.54-6.98 15.54-15.54v-12.13c0-8.57-6.97-15.54-15.54-15.54"/><path d="m3035 2595.5c-2.28 0-4.2 1.76-4.37 4.07-3.03 42.68-17.82 74.5-43.97 94.58-45.21 34.71-109.73 22.78-110.38 22.65-2.39-0.45-4.67 1.1-5.13 3.47-0.46 2.38 1.09 4.68 3.47 5.14 2.8 0.54 69.07 12.77 117.38-24.31 28.22-21.67 44.16-55.62 47.37-100.91 0.17-2.41-1.64-4.51-4.06-4.68-0.1-0.01-0.21-0.01-0.31-0.01"/></g></svg>
